<svg width="872" height="513" viewBox="0 0 872 513" fill="none" xmlns="http://www.w3.org/2000/svg">
<rect x="88" y="171" width="747" height="118" fill="#FFC700" fill-opacity="0.5"/>
<rect x="88" y="294" width="747" height="120" fill="#219653" fill-opacity="0.5"/>
<rect x="88" y="27" width="747" height="139" fill="#EB5757" fill-opacity="0.5"/>
<g filter="url(#filter0_d_652_147)">
<path d="M68 441L68 6.00001" stroke="black" stroke-width="10"/>
</g>
<g filter="url(#filter1_d_652_147)">
<path d="M68 436H862" stroke="black" stroke-width="10"/>
</g>
<path d="M347.93 470.28C348.517 471.293 349.17 472.533 349.89 474C350.61 475.467 351.344 477.013 352.09 478.64C352.837 480.24 353.57 481.88 354.29 483.56C355.037 485.213 355.717 486.747 356.33 488.16C356.944 486.747 357.61 485.213 358.33 483.56C359.05 481.88 359.784 480.24 360.53 478.64C361.277 477.013 362.01 475.467 362.73 474C363.45 472.533 364.104 471.293 364.69 470.28H369.25C369.49 472.307 369.717 474.467 369.93 476.76C370.144 479.027 370.33 481.36 370.49 483.76C370.677 486.133 370.837 488.533 370.97 490.96C371.13 493.36 371.264 495.707 371.37 498H366.41C366.304 494.773 366.17 491.453 366.01 488.04C365.877 484.627 365.664 481.32 365.37 478.12C365.077 478.733 364.73 479.467 364.33 480.32C363.93 481.173 363.504 482.107 363.05 483.12C362.597 484.107 362.13 485.133 361.65 486.2C361.197 487.267 360.744 488.307 360.29 489.32C359.864 490.307 359.464 491.24 359.09 492.12C358.717 492.973 358.397 493.707 358.13 494.32H354.37C354.104 493.707 353.784 492.96 353.41 492.08C353.037 491.2 352.624 490.267 352.17 489.28C351.744 488.267 351.29 487.227 350.81 486.16C350.357 485.093 349.904 484.067 349.45 483.08C348.997 482.093 348.57 481.173 348.17 480.32C347.77 479.44 347.424 478.707 347.13 478.12C346.837 481.32 346.61 484.627 346.45 488.04C346.317 491.453 346.197 494.773 346.09 498H341.13C341.237 495.707 341.357 493.333 341.49 490.88C341.65 488.427 341.81 486 341.97 483.6C342.157 481.173 342.357 478.827 342.57 476.56C342.784 474.293 343.01 472.2 343.25 470.28H347.93ZM375.842 487.64C375.842 485.8 376.109 484.187 376.642 482.8C377.202 481.413 377.935 480.267 378.842 479.36C379.749 478.427 380.789 477.733 381.962 477.28C383.135 476.8 384.335 476.56 385.562 476.56C388.442 476.56 390.682 477.453 392.282 479.24C393.909 481.027 394.722 483.693 394.722 487.24C394.722 487.507 394.709 487.813 394.682 488.16C394.682 488.48 394.669 488.773 394.642 489.04H380.842C380.975 490.72 381.562 492.027 382.602 492.96C383.669 493.867 385.202 494.32 387.202 494.32C388.375 494.32 389.442 494.213 390.402 494C391.389 493.787 392.162 493.56 392.722 493.32L393.362 497.28C393.095 497.413 392.722 497.56 392.242 497.72C391.789 497.853 391.255 497.973 390.642 498.08C390.055 498.213 389.415 498.32 388.722 498.4C388.029 498.48 387.322 498.52 386.602 498.52C384.762 498.52 383.162 498.253 381.802 497.72C380.442 497.16 379.322 496.4 378.442 495.44C377.562 494.453 376.909 493.307 376.482 492C376.055 490.667 375.842 489.213 375.842 487.64ZM389.882 485.48C389.882 484.813 389.789 484.187 389.602 483.6C389.415 482.987 389.135 482.467 388.762 482.04C388.415 481.587 387.975 481.24 387.442 481C386.935 480.733 386.322 480.6 385.602 480.6C384.855 480.6 384.202 480.747 383.642 481.04C383.082 481.307 382.602 481.667 382.202 482.12C381.829 482.573 381.535 483.093 381.322 483.68C381.109 484.267 380.962 484.867 380.882 485.48H389.882ZM405.093 494.52C406.373 494.52 407.307 494.373 407.893 494.08C408.48 493.76 408.773 493.227 408.773 492.48C408.773 491.787 408.453 491.213 407.813 490.76C407.2 490.307 406.173 489.813 404.733 489.28C403.853 488.96 403.04 488.627 402.293 488.28C401.573 487.907 400.947 487.48 400.413 487C399.88 486.52 399.453 485.947 399.133 485.28C398.84 484.587 398.693 483.747 398.693 482.76C398.693 480.84 399.4 479.333 400.813 478.24C402.227 477.12 404.147 476.56 406.573 476.56C407.8 476.56 408.973 476.68 410.093 476.92C411.213 477.133 412.053 477.347 412.613 477.56L411.733 481.48C411.2 481.24 410.52 481.027 409.693 480.84C408.867 480.627 407.907 480.52 406.813 480.52C405.827 480.52 405.027 480.693 404.413 481.04C403.8 481.36 403.493 481.867 403.493 482.56C403.493 482.907 403.547 483.213 403.653 483.48C403.787 483.747 404 484 404.293 484.24C404.587 484.453 404.973 484.68 405.453 484.92C405.933 485.133 406.52 485.36 407.213 485.6C408.36 486.027 409.333 486.453 410.133 486.88C410.933 487.28 411.587 487.747 412.093 488.28C412.627 488.787 413.013 489.373 413.253 490.04C413.493 490.707 413.613 491.507 413.613 492.44C413.613 494.44 412.867 495.96 411.373 497C409.907 498.013 407.8 498.52 405.053 498.52C403.213 498.52 401.733 498.36 400.613 498.04C399.493 497.747 398.707 497.507 398.253 497.32L399.093 493.28C399.813 493.573 400.667 493.853 401.653 494.12C402.667 494.387 403.813 494.52 405.093 494.52ZM416.975 487.64C416.975 485.8 417.241 484.187 417.775 482.8C418.335 481.413 419.068 480.267 419.975 479.36C420.881 478.427 421.921 477.733 423.095 477.28C424.268 476.8 425.468 476.56 426.695 476.56C429.575 476.56 431.815 477.453 433.415 479.24C435.041 481.027 435.855 483.693 435.855 487.24C435.855 487.507 435.841 487.813 435.815 488.16C435.815 488.48 435.801 488.773 435.775 489.04H421.975C422.108 490.72 422.695 492.027 423.735 492.96C424.801 493.867 426.335 494.32 428.335 494.32C429.508 494.32 430.575 494.213 431.535 494C432.521 493.787 433.295 493.56 433.855 493.32L434.495 497.28C434.228 497.413 433.855 497.56 433.375 497.72C432.921 497.853 432.388 497.973 431.775 498.08C431.188 498.213 430.548 498.32 429.855 498.4C429.161 498.48 428.455 498.52 427.735 498.52C425.895 498.52 424.295 498.253 422.935 497.72C421.575 497.16 420.455 496.4 419.575 495.44C418.695 494.453 418.041 493.307 417.615 492C417.188 490.667 416.975 489.213 416.975 487.64ZM431.015 485.48C431.015 484.813 430.921 484.187 430.735 483.6C430.548 482.987 430.268 482.467 429.895 482.04C429.548 481.587 429.108 481.24 428.575 481C428.068 480.733 427.455 480.6 426.735 480.6C425.988 480.6 425.335 480.747 424.775 481.04C424.215 481.307 423.735 481.667 423.335 482.12C422.961 482.573 422.668 483.093 422.455 483.68C422.241 484.267 422.095 484.867 422.015 485.48H431.015ZM446.226 494.52C447.506 494.52 448.44 494.373 449.026 494.08C449.613 493.76 449.906 493.227 449.906 492.48C449.906 491.787 449.586 491.213 448.946 490.76C448.333 490.307 447.306 489.813 445.866 489.28C444.986 488.96 444.173 488.627 443.426 488.28C442.706 487.907 442.08 487.48 441.546 487C441.013 486.52 440.586 485.947 440.266 485.28C439.973 484.587 439.826 483.747 439.826 482.76C439.826 480.84 440.533 479.333 441.946 478.24C443.36 477.12 445.28 476.56 447.706 476.56C448.933 476.56 450.106 476.68 451.226 476.92C452.346 477.133 453.186 477.347 453.746 477.56L452.866 481.48C452.333 481.24 451.653 481.027 450.826 480.84C450 480.627 449.04 480.52 447.946 480.52C446.96 480.52 446.16 480.693 445.546 481.04C444.933 481.36 444.626 481.867 444.626 482.56C444.626 482.907 444.68 483.213 444.786 483.48C444.92 483.747 445.133 484 445.426 484.24C445.72 484.453 446.106 484.68 446.586 484.92C447.066 485.133 447.653 485.36 448.346 485.6C449.493 486.027 450.466 486.453 451.266 486.88C452.066 487.28 452.72 487.747 453.226 488.28C453.76 488.787 454.146 489.373 454.386 490.04C454.626 490.707 454.746 491.507 454.746 492.44C454.746 494.44 454 495.96 452.506 497C451.04 498.013 448.933 498.52 446.186 498.52C444.346 498.52 442.866 498.36 441.746 498.04C440.626 497.747 439.84 497.507 439.386 497.32L440.226 493.28C440.946 493.573 441.8 493.853 442.786 494.12C443.8 494.387 444.946 494.52 446.226 494.52ZM469.403 505.4H464.443L477.963 466.68H482.843L469.403 505.4ZM513.22 498C512.847 496.907 512.46 495.827 512.06 494.76C511.66 493.693 511.273 492.6 510.9 491.48H499.22C498.847 492.6 498.46 493.707 498.06 494.8C497.687 495.867 497.313 496.933 496.94 498H491.7C492.74 495.04 493.727 492.307 494.66 489.8C495.593 487.293 496.5 484.92 497.38 482.68C498.287 480.44 499.18 478.307 500.06 476.28C500.94 474.253 501.847 472.253 502.78 470.28H507.54C508.473 472.253 509.38 474.253 510.26 476.28C511.14 478.307 512.02 480.44 512.9 482.68C513.807 484.92 514.727 487.293 515.66 489.8C516.62 492.307 517.62 495.04 518.66 498H513.22ZM505.06 475.64C504.447 477.053 503.74 478.773 502.94 480.8C502.167 482.827 501.353 485.027 500.5 487.4H509.62C508.767 485.027 507.94 482.813 507.14 480.76C506.34 478.707 505.647 477 505.06 475.64ZM521.924 477.76C522.857 477.493 524.07 477.24 525.564 477C527.057 476.76 528.71 476.64 530.524 476.64C532.23 476.64 533.657 476.88 534.804 477.36C535.95 477.813 536.857 478.467 537.524 479.32C538.217 480.147 538.697 481.16 538.964 482.36C539.257 483.533 539.404 484.827 539.404 486.24V498H534.564V487C534.564 485.88 534.484 484.933 534.324 484.16C534.19 483.36 533.95 482.72 533.604 482.24C533.284 481.733 532.83 481.373 532.244 481.16C531.684 480.92 530.99 480.8 530.164 480.8C529.55 480.8 528.91 480.84 528.244 480.92C527.577 481 527.084 481.067 526.764 481.12V498H521.924V477.76ZM537.644 469.6C537.484 469.973 537.27 470.387 537.004 470.84C536.764 471.267 536.457 471.68 536.084 472.08C535.71 472.453 535.284 472.773 534.804 473.04C534.324 473.307 533.79 473.44 533.204 473.44C532.724 473.44 532.27 473.373 531.844 473.24C531.417 473.08 530.99 472.907 530.564 472.72C530.164 472.533 529.764 472.373 529.364 472.24C528.99 472.08 528.617 472 528.244 472C527.737 472 527.297 472.173 526.924 472.52C526.577 472.867 526.297 473.267 526.084 473.72L523.644 472.28C523.777 471.907 523.964 471.507 524.204 471.08C524.47 470.627 524.79 470.213 525.164 469.84C525.564 469.44 526.004 469.107 526.484 468.84C526.964 468.573 527.497 468.44 528.084 468.44C528.564 468.44 529.017 468.52 529.444 468.68C529.87 468.84 530.284 469.013 530.684 469.2C531.11 469.36 531.51 469.52 531.884 469.68C532.284 469.84 532.67 469.92 533.044 469.92C533.55 469.92 533.977 469.747 534.324 469.4C534.697 469.027 534.99 468.613 535.204 468.16L537.644 469.6ZM564.242 487.52C564.242 489.173 564.002 490.68 563.522 492.04C563.042 493.4 562.362 494.56 561.482 495.52C560.602 496.48 559.536 497.227 558.282 497.76C557.056 498.293 555.696 498.56 554.202 498.56C552.709 498.56 551.349 498.293 550.122 497.76C548.896 497.227 547.842 496.48 546.962 495.52C546.082 494.56 545.389 493.4 544.882 492.04C544.402 490.68 544.162 489.173 544.162 487.52C544.162 485.867 544.402 484.373 544.882 483.04C545.389 481.68 546.082 480.52 546.962 479.56C547.869 478.6 548.936 477.867 550.162 477.36C551.389 476.827 552.736 476.56 554.202 476.56C555.669 476.56 557.016 476.827 558.242 477.36C559.496 477.867 560.562 478.6 561.442 479.56C562.322 480.52 563.002 481.68 563.482 483.04C563.989 484.373 564.242 485.867 564.242 487.52ZM559.282 487.52C559.282 485.44 558.829 483.8 557.922 482.6C557.042 481.373 555.802 480.76 554.202 480.76C552.602 480.76 551.349 481.373 550.442 482.6C549.562 483.8 549.122 485.44 549.122 487.52C549.122 489.627 549.562 491.293 550.442 492.52C551.349 493.747 552.602 494.36 554.202 494.36C555.802 494.36 557.042 493.747 557.922 492.52C558.829 491.293 559.282 489.627 559.282 487.52ZM574.468 494.52C575.748 494.52 576.682 494.373 577.268 494.08C577.855 493.76 578.148 493.227 578.148 492.48C578.148 491.787 577.828 491.213 577.188 490.76C576.575 490.307 575.548 489.813 574.108 489.28C573.228 488.96 572.415 488.627 571.668 488.28C570.948 487.907 570.322 487.48 569.788 487C569.255 486.52 568.828 485.947 568.508 485.28C568.215 484.587 568.068 483.747 568.068 482.76C568.068 480.84 568.775 479.333 570.188 478.24C571.602 477.12 573.522 476.56 575.948 476.56C577.175 476.56 578.348 476.68 579.468 476.92C580.588 477.133 581.428 477.347 581.988 477.56L581.108 481.48C580.575 481.24 579.895 481.027 579.068 480.84C578.242 480.627 577.282 480.52 576.188 480.52C575.202 480.52 574.402 480.693 573.788 481.04C573.175 481.36 572.868 481.867 572.868 482.56C572.868 482.907 572.922 483.213 573.028 483.48C573.162 483.747 573.375 484 573.668 484.24C573.962 484.453 574.348 484.68 574.828 484.92C575.308 485.133 575.895 485.36 576.588 485.6C577.735 486.027 578.708 486.453 579.508 486.88C580.308 487.28 580.962 487.747 581.468 488.28C582.002 488.787 582.388 489.373 582.628 490.04C582.868 490.707 582.988 491.507 582.988 492.44C582.988 494.44 582.242 495.96 580.748 497C579.282 498.013 577.175 498.52 574.428 498.52C572.588 498.52 571.108 498.36 569.988 498.04C568.868 497.747 568.082 497.507 567.628 497.32L568.468 493.28C569.188 493.573 570.042 493.853 571.028 494.12C572.042 494.387 573.188 494.52 574.468 494.52Z" fill="black"/>
<path d="M33.6 352.196C33.6 354.276 33.28 356.143 32.64 357.796C32 359.449 31.0667 360.849 29.84 361.996C28.5867 363.143 27.0667 364.023 25.28 364.636C23.4933 365.249 21.44 365.556 19.12 365.556C16.8 365.556 14.7467 365.209 12.96 364.516C11.1733 363.796 9.66667 362.823 8.44 361.596C7.18667 360.369 6.24 358.929 5.6 357.276C4.96 355.623 4.64 353.849 4.64 351.956C4.64 350.809 4.73333 349.769 4.92 348.836C5.08 347.903 5.26667 347.089 5.48 346.396C5.69333 345.703 5.92 345.129 6.16 344.676C6.4 344.223 6.57333 343.903 6.68 343.716L10.8 345.196C10.4 345.836 10.0267 346.756 9.68 347.956C9.30667 349.129 9.12 350.409 9.12 351.796C9.12 352.996 9.33333 354.116 9.76 355.156C10.16 356.196 10.7733 357.103 11.6 357.876C12.4267 358.623 13.4667 359.209 14.72 359.636C15.9733 360.063 17.4267 360.276 19.08 360.276C20.5467 360.276 21.8933 360.116 23.12 359.796C24.3467 359.449 25.4133 358.929 26.32 358.236C27.2 357.543 27.8933 356.663 28.4 355.596C28.88 354.529 29.12 353.249 29.12 351.756C29.12 349.969 28.9467 348.516 28.6 347.396C28.2267 346.276 27.88 345.409 27.56 344.796L31.68 343.436C31.8933 343.756 32.1067 344.196 32.32 344.756C32.5333 345.289 32.7467 345.929 32.96 346.676C33.1467 347.423 33.2933 348.263 33.4 349.196C33.5333 350.129 33.6 351.129 33.6 352.196ZM29.6 331.888C29.6 330.395 29.52 329.261 29.36 328.488H24C23.92 328.755 23.84 329.141 23.76 329.648C23.68 330.155 23.64 330.715 23.64 331.328C23.64 331.861 23.68 332.408 23.76 332.968C23.84 333.501 23.9867 333.995 24.2 334.448C24.4133 334.875 24.72 335.221 25.12 335.488C25.4933 335.755 25.9733 335.888 26.56 335.888C27.7067 335.888 28.5067 335.528 28.96 334.808C29.3867 334.088 29.6 333.115 29.6 331.888ZM11.56 332.288C11.56 330.688 11.76 329.341 12.16 328.248C12.56 327.155 13.12 326.288 13.84 325.648C14.56 324.981 15.44 324.515 16.48 324.248C17.4933 323.955 18.6133 323.808 19.84 323.808H32.52C32.68 324.555 32.8667 325.688 33.08 327.208C33.32 328.701 33.44 330.395 33.44 332.288C33.44 333.541 33.32 334.688 33.08 335.728C32.84 336.768 32.4533 337.661 31.92 338.408C31.3867 339.128 30.6933 339.701 29.84 340.128C28.9867 340.528 27.9333 340.728 26.68 340.728C25.48 340.728 24.4667 340.501 23.64 340.048C22.8133 339.568 22.1467 338.928 21.64 338.128C21.1067 337.328 20.7333 336.408 20.52 335.368C20.28 334.301 20.16 333.195 20.16 332.048C20.16 331.515 20.2 330.955 20.28 330.368C20.3333 329.781 20.44 329.155 20.6 328.488H19.8C19.24 328.488 18.7067 328.555 18.2 328.688C17.6933 328.821 17.2533 329.061 16.88 329.408C16.48 329.728 16.1733 330.168 15.96 330.728C15.7467 331.261 15.64 331.941 15.64 332.768C15.64 333.888 15.72 334.915 15.88 335.848C16.04 336.781 16.2267 337.541 16.44 338.128L12.52 338.728C12.3067 338.115 12.0933 337.221 11.88 336.048C11.6667 334.875 11.56 333.621 11.56 332.288ZM16.44 305.961C16.3067 306.361 16.1733 306.921 16.04 307.641C15.88 308.334 15.8 309.148 15.8 310.081C15.8 310.614 15.8533 311.188 15.96 311.801C16.0667 312.388 16.16 312.801 16.24 313.041H33V317.881H13.08C12.7333 316.948 12.4133 315.788 12.12 314.401C11.8 312.988 11.64 311.428 11.64 309.721C11.64 309.401 11.6667 309.028 11.72 308.601C11.7467 308.174 11.8 307.748 11.88 307.321C11.9333 306.894 12.0133 306.481 12.12 306.081C12.2 305.681 12.28 305.361 12.36 305.121L16.44 305.961ZM22 297.948C24.0533 297.948 25.56 297.508 26.52 296.628C27.4533 295.721 27.92 294.561 27.92 293.148C27.92 292.375 27.8133 291.655 27.6 290.988C27.3867 290.295 27.1333 289.735 26.84 289.308H16C15.92 289.655 15.8533 290.081 15.8 290.588C15.72 291.095 15.68 291.735 15.68 292.508C15.68 294.268 16.2667 295.615 17.44 296.548C18.5867 297.481 20.1067 297.948 22 297.948ZM30.88 284.468C34.2133 284.468 36.6533 285.321 38.2 287.028C39.7467 288.708 40.52 291.295 40.52 294.788C40.52 296.068 40.4133 297.321 40.2 298.548C39.9867 299.748 39.7067 300.841 39.36 301.828L35.24 300.948C35.5867 300.121 35.8667 299.188 36.08 298.148C36.2933 297.081 36.4 295.935 36.4 294.708C36.4 292.761 36 291.375 35.2 290.548C34.4 289.721 33.2133 289.308 31.64 289.308H30.84C31.08 289.788 31.32 290.428 31.56 291.228C31.8 292.001 31.92 292.895 31.92 293.908C31.92 295.241 31.7067 296.468 31.28 297.588C30.8533 298.681 30.2267 299.628 29.4 300.428C28.5733 301.201 27.5467 301.815 26.32 302.268C25.0667 302.695 23.6267 302.908 22 302.908C20.48 302.908 19.08 302.681 17.8 302.228C16.52 301.748 15.4267 301.068 14.52 300.188C13.6133 299.281 12.9067 298.188 12.4 296.908C11.8933 295.628 11.64 294.175 11.64 292.548C11.64 290.975 11.76 289.481 12 288.068C12.24 286.655 12.4933 285.455 12.76 284.468H30.88ZM29.6 270.951C29.6 269.457 29.52 268.324 29.36 267.551H24C23.92 267.817 23.84 268.204 23.76 268.711C23.68 269.217 23.64 269.777 23.64 270.391C23.64 270.924 23.68 271.471 23.76 272.031C23.84 272.564 23.9867 273.057 24.2 273.511C24.4133 273.937 24.72 274.284 25.12 274.551C25.4933 274.817 25.9733 274.951 26.56 274.951C27.7067 274.951 28.5067 274.591 28.96 273.871C29.3867 273.151 29.6 272.177 29.6 270.951ZM11.56 271.351C11.56 269.751 11.76 268.404 12.16 267.311C12.56 266.217 13.12 265.351 13.84 264.711C14.56 264.044 15.44 263.577 16.48 263.311C17.4933 263.017 18.6133 262.871 19.84 262.871H32.52C32.68 263.617 32.8667 264.751 33.08 266.271C33.32 267.764 33.44 269.457 33.44 271.351C33.44 272.604 33.32 273.751 33.08 274.791C32.84 275.831 32.4533 276.724 31.92 277.471C31.3867 278.191 30.6933 278.764 29.84 279.191C28.9867 279.591 27.9333 279.791 26.68 279.791C25.48 279.791 24.4667 279.564 23.64 279.111C22.8133 278.631 22.1467 277.991 21.64 277.191C21.1067 276.391 20.7333 275.471 20.52 274.431C20.28 273.364 20.16 272.257 20.16 271.111C20.16 270.577 20.2 270.017 20.28 269.431C20.3333 268.844 20.44 268.217 20.6 267.551H19.8C19.24 267.551 18.7067 267.617 18.2 267.751C17.6933 267.884 17.2533 268.124 16.88 268.471C16.48 268.791 16.1733 269.231 15.96 269.791C15.7467 270.324 15.64 271.004 15.64 271.831C15.64 272.951 15.72 273.977 15.88 274.911C16.04 275.844 16.2267 276.604 16.44 277.191L12.52 277.791C12.3067 277.177 12.0933 276.284 11.88 275.111C11.6667 273.937 11.56 272.684 11.56 271.351ZM29.6 240.247C29.6 238.754 29.52 237.621 29.36 236.847H24C23.92 237.114 23.84 237.501 23.76 238.007C23.68 238.514 23.64 239.074 23.64 239.687C23.64 240.221 23.68 240.767 23.76 241.327C23.84 241.861 23.9867 242.354 24.2 242.807C24.4133 243.234 24.72 243.581 25.12 243.847C25.4933 244.114 25.9733 244.247 26.56 244.247C27.7067 244.247 28.5067 243.887 28.96 243.167C29.3867 242.447 29.6 241.474 29.6 240.247ZM11.56 240.647C11.56 239.047 11.76 237.701 12.16 236.607C12.56 235.514 13.12 234.647 13.84 234.007C14.56 233.341 15.44 232.874 16.48 232.607C17.4933 232.314 18.6133 232.167 19.84 232.167H32.52C32.68 232.914 32.8667 234.047 33.08 235.567C33.32 237.061 33.44 238.754 33.44 240.647C33.44 241.901 33.32 243.047 33.08 244.087C32.84 245.127 32.4533 246.021 31.92 246.767C31.3867 247.487 30.6933 248.061 29.84 248.487C28.9867 248.887 27.9333 249.087 26.68 249.087C25.48 249.087 24.4667 248.861 23.64 248.407C22.8133 247.927 22.1467 247.287 21.64 246.487C21.1067 245.687 20.7333 244.767 20.52 243.727C20.28 242.661 20.16 241.554 20.16 240.408C20.16 239.874 20.2 239.314 20.28 238.727C20.3333 238.141 20.44 237.514 20.6 236.847H19.8C19.24 236.847 18.7067 236.914 18.2 237.047C17.6933 237.181 17.2533 237.421 16.88 237.767C16.48 238.087 16.1733 238.527 15.96 239.087C15.7467 239.621 15.64 240.301 15.64 241.127C15.64 242.247 15.72 243.274 15.88 244.207C16.04 245.141 16.2267 245.901 16.44 246.487L12.52 247.087C12.3067 246.474 12.0933 245.581 11.88 244.407C11.6667 243.234 11.56 241.981 11.56 240.647ZM33.4 218.96C33.3733 220.4 33.2133 221.6 32.92 222.56C32.6267 223.494 32.2133 224.24 31.68 224.8C31.12 225.36 30.44 225.76 29.64 226C28.8133 226.214 27.88 226.32 26.84 226.32H2.76L1.96 221.48H25.92C26.5067 221.48 27 221.44 27.4 221.36C27.8 221.254 28.1467 221.08 28.44 220.84C28.7067 220.6 28.92 220.28 29.08 219.88C29.2133 219.454 29.32 218.92 29.4 218.28L33.4 218.96ZM22.52 195.445C24.1733 195.445 25.68 195.685 27.04 196.165C28.4 196.645 29.56 197.325 30.52 198.205C31.48 199.085 32.2267 200.152 32.76 201.405C33.2933 202.632 33.56 203.992 33.56 205.485C33.56 206.979 33.2933 208.339 32.76 209.565C32.2267 210.792 31.48 211.845 30.52 212.725C29.56 213.605 28.4 214.299 27.04 214.805C25.68 215.285 24.1733 215.525 22.52 215.525C20.8667 215.525 19.3733 215.285 18.04 214.805C16.68 214.299 15.52 213.605 14.56 212.725C13.6 211.819 12.8667 210.752 12.36 209.525C11.8267 208.299 11.56 206.952 11.56 205.485C11.56 204.019 11.8267 202.672 12.36 201.445C12.8667 200.192 13.6 199.125 14.56 198.245C15.52 197.365 16.68 196.685 18.04 196.205C19.3733 195.699 20.8667 195.445 22.52 195.445ZM22.52 200.405C20.44 200.405 18.8 200.859 17.6 201.765C16.3733 202.645 15.76 203.885 15.76 205.485C15.76 207.085 16.3733 208.339 17.6 209.245C18.8 210.125 20.44 210.565 22.52 210.565C24.6267 210.565 26.2933 210.125 27.52 209.245C28.7467 208.339 29.36 207.085 29.36 205.485C29.36 203.885 28.7467 202.645 27.52 201.765C26.2933 200.859 24.6267 200.405 22.52 200.405ZM29.52 185.219C29.52 183.939 29.3733 183.006 29.08 182.419C28.76 181.832 28.2267 181.539 27.48 181.539C26.7867 181.539 26.2133 181.859 25.76 182.499C25.3067 183.112 24.8133 184.139 24.28 185.579C23.96 186.459 23.6267 187.272 23.28 188.019C22.9067 188.739 22.48 189.366 22 189.899C21.52 190.432 20.9467 190.859 20.28 191.179C19.5867 191.472 18.7467 191.619 17.76 191.619C15.84 191.619 14.3333 190.912 13.24 189.499C12.12 188.086 11.56 186.166 11.56 183.739C11.56 182.512 11.68 181.339 11.92 180.219C12.1333 179.099 12.3467 178.259 12.56 177.699L16.48 178.579C16.24 179.112 16.0267 179.792 15.84 180.619C15.6267 181.446 15.52 182.406 15.52 183.499C15.52 184.486 15.6933 185.286 16.04 185.899C16.36 186.512 16.8667 186.819 17.56 186.819C17.9067 186.819 18.2133 186.766 18.48 186.659C18.7467 186.526 19 186.312 19.24 186.019C19.4533 185.726 19.68 185.339 19.92 184.859C20.1333 184.379 20.36 183.792 20.6 183.099C21.0267 181.952 21.4533 180.979 21.88 180.179C22.28 179.379 22.7467 178.726 23.28 178.219C23.7867 177.686 24.3733 177.299 25.04 177.059C25.7067 176.819 26.5067 176.699 27.44 176.699C29.44 176.699 30.96 177.446 32 178.939C33.0133 180.406 33.52 182.512 33.52 185.259C33.52 187.099 33.36 188.579 33.04 189.699C32.7467 190.819 32.5067 191.606 32.32 192.059L28.28 191.219C28.5733 190.499 28.8533 189.646 29.12 188.659C29.3867 187.646 29.52 186.499 29.52 185.219ZM6.56 172.418L5.76 167.578H12.08L12.08 160.138H16.12V167.578H24.64C26.32 167.578 27.52 167.311 28.24 166.778C28.96 166.244 29.32 165.338 29.32 164.058C29.32 163.178 29.2267 162.404 29.04 161.738C28.8533 161.044 28.68 160.498 28.52 160.098L32.36 159.298C32.6 159.858 32.84 160.591 33.08 161.498C33.3467 162.404 33.48 163.471 33.48 164.698C33.48 166.191 33.28 167.444 32.88 168.458C32.48 169.444 31.9067 170.231 31.16 170.818C30.3867 171.404 29.4667 171.818 28.4 172.058C27.3067 172.298 26.0667 172.418 24.68 172.418H6.56ZM29.6 148.099C29.6 146.606 29.52 145.472 29.36 144.699H24C23.92 144.966 23.84 145.352 23.76 145.859C23.68 146.366 23.64 146.926 23.64 147.539C23.64 148.072 23.68 148.619 23.76 149.179C23.84 149.712 23.9867 150.206 24.2 150.659C24.4133 151.086 24.72 151.432 25.12 151.699C25.4933 151.966 25.9733 152.099 26.56 152.099C27.7067 152.099 28.5067 151.739 28.96 151.019C29.3867 150.299 29.6 149.326 29.6 148.099ZM11.56 148.499C11.56 146.899 11.76 145.552 12.16 144.459C12.56 143.366 13.12 142.499 13.84 141.859C14.56 141.192 15.44 140.726 16.48 140.459C17.4933 140.166 18.6133 140.019 19.84 140.019H32.52C32.68 140.766 32.8667 141.899 33.08 143.419C33.32 144.912 33.44 146.606 33.44 148.499C33.44 149.752 33.32 150.899 33.08 151.939C32.84 152.979 32.4533 153.872 31.92 154.619C31.3867 155.339 30.6933 155.912 29.84 156.339C28.9867 156.739 27.9333 156.939 26.68 156.939C25.48 156.939 24.4667 156.712 23.64 156.259C22.8133 155.779 22.1467 155.139 21.64 154.339C21.1067 153.539 20.7333 152.619 20.52 151.579C20.28 150.512 20.16 149.406 20.16 148.259C20.16 147.726 20.2 147.166 20.28 146.579C20.3333 145.992 20.44 145.366 20.6 144.699H19.8C19.24 144.699 18.7067 144.766 18.2 144.899C17.6933 145.032 17.2533 145.272 16.88 145.619C16.48 145.939 16.1733 146.379 15.96 146.939C15.7467 147.472 15.64 148.152 15.64 148.979C15.64 150.099 15.72 151.126 15.88 152.059C16.04 152.992 16.2267 153.752 16.44 154.339L12.52 154.939C12.3067 154.326 12.0933 153.432 11.88 152.259C11.6667 151.086 11.56 149.832 11.56 148.499ZM3.52 142.459L9.84 148.979L7.68 151.379L0.679999 145.499L3.52 142.459ZM6.56 134.332L5.76 129.492H12.08V122.052H16.12V129.492H24.64C26.32 129.492 27.52 129.225 28.24 128.692C28.96 128.159 29.32 127.252 29.32 125.972C29.32 125.092 29.2267 124.319 29.04 123.652C28.8533 122.959 28.68 122.412 28.52 122.012L32.36 121.212C32.6 121.772 32.84 122.505 33.08 123.412C33.3467 124.319 33.48 125.385 33.48 126.612C33.48 128.105 33.28 129.359 32.88 130.372C32.48 131.359 31.9067 132.145 31.16 132.732C30.3867 133.319 29.4667 133.732 28.4 133.972C27.3067 134.212 26.0667 134.332 24.68 134.332H6.56ZM33 112.493L33 117.333H12.08V112.493H33ZM5.96 111.973C6.86667 111.973 7.58667 112.266 8.12 112.853C8.65333 113.44 8.92 114.133 8.92 114.933C8.92 115.76 8.65333 116.466 8.12 117.053C7.58667 117.64 6.86667 117.933 5.96 117.933C5.02667 117.933 4.29333 117.64 3.76 117.053C3.22667 116.466 2.96 115.76 2.96 114.933C2.96 114.133 3.22667 113.44 3.76 112.853C4.29333 112.266 5.02667 111.973 5.96 111.973ZM22.56 107.478C21.0133 107.478 19.5733 107.238 18.24 106.758C16.88 106.278 15.7067 105.598 14.72 104.718C13.7333 103.812 12.96 102.718 12.4 101.438C11.84 100.158 11.56 98.7184 11.56 97.1184C11.56 95.1451 11.92 93.2784 12.64 91.5184L16.6 92.5584C16.36 93.1184 16.16 93.7584 16 94.4784C15.84 95.1718 15.76 95.9184 15.76 96.7184C15.76 98.6118 16.36 100.052 17.56 101.038C18.7333 102.025 20.4 102.518 22.56 102.518C24.64 102.518 26.2933 102.052 27.52 101.118C28.72 100.185 29.32 98.6118 29.32 96.3984C29.32 95.5718 29.24 94.7584 29.08 93.9584C28.92 93.1584 28.72 92.4651 28.48 91.8784L32.48 91.1984C32.7467 91.7318 32.9867 92.5451 33.2 93.6384C33.4133 94.7051 33.52 95.8118 33.52 96.9584C33.52 98.7451 33.2533 100.305 32.72 101.638C32.16 102.945 31.4 104.038 30.44 104.918C29.4533 105.772 28.2933 106.412 26.96 106.838C25.6 107.265 24.1333 107.478 22.56 107.478ZM29.6 80.0912C29.6 78.5979 29.52 77.4646 29.36 76.6912H24C23.92 76.9579 23.84 77.3446 23.76 77.8512C23.68 78.3579 23.64 78.9179 23.64 79.5312C23.64 80.0646 23.68 80.6112 23.76 81.1712C23.84 81.7046 23.9867 82.1979 24.2 82.6512C24.4133 83.0779 24.72 83.4246 25.12 83.6912C25.4933 83.9579 25.9733 84.0912 26.56 84.0912C27.7067 84.0912 28.5067 83.7312 28.96 83.0112C29.3867 82.2912 29.6 81.3179 29.6 80.0912ZM11.56 80.4912C11.56 78.8912 11.76 77.5446 12.16 76.4512C12.56 75.3579 13.12 74.4912 13.84 73.8512C14.56 73.1846 15.44 72.7179 16.48 72.4512C17.4933 72.1579 18.6133 72.0112 19.84 72.0112H32.52C32.68 72.7579 32.8667 73.8912 33.08 75.4112C33.32 76.9046 33.44 78.5979 33.44 80.4912C33.44 81.7446 33.32 82.8912 33.08 83.9312C32.84 84.9712 32.4533 85.8646 31.92 86.6112C31.3867 87.3312 30.6933 87.9046 29.84 88.3312C28.9867 88.7312 27.9333 88.9312 26.68 88.9312C25.48 88.9312 24.4667 88.7046 23.64 88.2512C22.8133 87.7712 22.1467 87.1312 21.64 86.3312C21.1067 85.5312 20.7333 84.6112 20.52 83.5712C20.28 82.5046 20.16 81.3979 20.16 80.2513C20.16 79.7179 20.2 79.1579 20.28 78.5712C20.3333 77.9846 20.44 77.3579 20.6 76.6912H19.8C19.24 76.6912 18.7067 76.7579 18.2 76.8912C17.6933 77.0246 17.2533 77.2646 16.88 77.6112C16.48 77.9312 16.1733 78.3712 15.96 78.9312C15.7467 79.4646 15.64 80.1446 15.64 80.9712C15.64 82.0912 15.72 83.1179 15.88 84.0512C16.04 84.9846 16.2267 85.7446 16.44 86.3312L12.52 86.9312C12.3067 86.3179 12.0933 85.4246 11.88 84.2512C11.6667 83.0779 11.56 81.8246 11.56 80.4912Z" fill="black"/>
<g filter="url(#filter2_d_652_147)">
<path d="M108.935 369.183C176.459 164.575 217.332 537.068 282.493 294.54" stroke="#219653" stroke-width="10"/>
<path d="M282.869 294.137C350.394 89.5287 391.266 462.022 456.428 219.494" stroke="#219653" stroke-width="10"/>
<path d="M455.858 223.685C529.736 5.04976 670.66 389.421 795 322.5" stroke="#219653" stroke-width="10"/>
</g>
<g filter="url(#filter3_d_652_147)">
<path d="M105.935 369.5C173.459 164.892 214.332 537.385 279.493 294.857" stroke="#EB5757" stroke-width="10"/>
<path d="M279.869 294.454C347.394 89.8456 388.266 462.339 453.428 219.811" stroke="#EB5757" stroke-width="10"/>
<path d="M452.869 222.454C520.394 17.8456 561.266 390.339 626.428 147.811" stroke="#EB5757" stroke-width="10"/>
<path d="M624.869 149.454C692.394 -55.1544 733.266 317.339 798.428 74.8107" stroke="#EB5757" stroke-width="10"/>
</g>
<path d="M121.88 84.24C125.933 84.24 127.96 82.8533 127.96 80.08C127.96 79.2267 127.773 78.5067 127.4 77.92C127.053 77.3067 126.573 76.7867 125.96 76.36C125.347 75.9067 124.64 75.52 123.84 75.2C123.067 74.88 122.24 74.56 121.36 74.24C120.347 73.8933 119.387 73.5067 118.48 73.08C117.573 72.6267 116.787 72.1067 116.12 71.52C115.453 70.9067 114.92 70.1867 114.52 69.36C114.147 68.5333 113.96 67.5333 113.96 66.36C113.96 63.9333 114.787 62.04 116.44 60.68C118.093 59.32 120.373 58.64 123.28 58.64C124.96 58.64 126.48 58.8267 127.84 59.2C129.227 59.5467 130.24 59.9333 130.88 60.36L129.64 63.52C129.08 63.1733 128.24 62.84 127.12 62.52C126.027 62.1733 124.747 62 123.28 62C122.533 62 121.84 62.08 121.2 62.24C120.56 62.4 120 62.64 119.52 62.96C119.04 63.28 118.653 63.6933 118.36 64.2C118.093 64.68 117.96 65.2533 117.96 65.92C117.96 66.6667 118.107 67.2933 118.4 67.8C118.693 68.3067 119.107 68.76 119.64 69.16C120.173 69.5333 120.787 69.88 121.48 70.2C122.2 70.52 122.987 70.84 123.84 71.16C125.04 71.64 126.133 72.12 127.12 72.6C128.133 73.08 129 73.6533 129.72 74.32C130.467 74.9867 131.04 75.7867 131.44 76.72C131.84 77.6267 132.04 78.7333 132.04 80.04C132.04 82.4667 131.147 84.3333 129.36 85.64C127.6 86.9467 125.107 87.6 121.88 87.6C120.787 87.6 119.773 87.52 118.84 87.36C117.933 87.2267 117.12 87.0667 116.4 86.88C115.68 86.6667 115.053 86.4533 114.52 86.24C114.013 86 113.613 85.8 113.32 85.64L114.48 82.44C115.093 82.7867 116.027 83.1733 117.28 83.6C118.533 84.0267 120.067 84.24 121.88 84.24ZM143.529 84.32C144.409 84.32 145.182 84.3067 145.849 84.28C146.542 84.2267 147.116 84.1467 147.569 84.04V77.84C147.302 77.7067 146.862 77.6 146.249 77.52C145.662 77.4133 144.942 77.36 144.089 77.36C143.529 77.36 142.929 77.4 142.289 77.48C141.676 77.56 141.102 77.7333 140.569 78C140.062 78.24 139.636 78.5867 139.289 79.04C138.942 79.4667 138.769 80.04 138.769 80.76C138.769 82.0933 139.196 83.0267 140.049 83.56C140.902 84.0667 142.062 84.32 143.529 84.32ZM143.209 65.68C144.702 65.68 145.956 65.88 146.969 66.28C148.009 66.6533 148.836 67.2 149.449 67.92C150.089 68.6133 150.542 69.4533 150.809 70.44C151.076 71.4 151.209 72.4667 151.209 73.64V86.64C150.889 86.6933 150.436 86.7733 149.849 86.88C149.289 86.96 148.649 87.04 147.929 87.12C147.209 87.2 146.422 87.2667 145.569 87.32C144.742 87.4 143.916 87.44 143.089 87.44C141.916 87.44 140.836 87.32 139.849 87.08C138.862 86.84 138.009 86.4667 137.289 85.96C136.569 85.4267 136.009 84.7333 135.609 83.88C135.209 83.0267 135.009 82 135.009 80.8C135.009 79.6533 135.236 78.6667 135.689 77.84C136.169 77.0133 136.809 76.3467 137.609 75.84C138.409 75.3333 139.342 74.96 140.409 74.72C141.476 74.48 142.596 74.36 143.769 74.36C144.142 74.36 144.529 74.3867 144.929 74.44C145.329 74.4667 145.702 74.52 146.049 74.6C146.422 74.6533 146.742 74.7067 147.009 74.76C147.276 74.8133 147.462 74.8533 147.569 74.88V73.84C147.569 73.2267 147.502 72.6267 147.369 72.04C147.236 71.4267 146.996 70.8933 146.649 70.44C146.302 69.96 145.822 69.5867 145.209 69.32C144.622 69.0267 143.849 68.88 142.889 68.88C141.662 68.88 140.582 68.9733 139.649 69.16C138.742 69.32 138.062 69.4933 137.609 69.68L137.169 66.6C137.649 66.3867 138.449 66.1867 139.569 66C140.689 65.7867 141.902 65.68 143.209 65.68ZM163.628 87.4C161.334 87.3467 159.708 86.8533 158.748 85.92C157.788 84.9867 157.308 83.5333 157.308 81.56V56.6L161.028 55.96V80.96C161.028 81.5733 161.081 82.08 161.188 82.48C161.294 82.88 161.468 83.2 161.708 83.44C161.948 83.68 162.268 83.8667 162.668 84C163.068 84.1067 163.561 84.2 164.148 84.28L163.628 87.4ZM184.885 86.4C184.032 86.6133 182.898 86.84 181.485 87.08C180.098 87.32 178.485 87.44 176.645 87.44C175.045 87.44 173.698 87.2133 172.605 86.76C171.512 86.28 170.632 85.6133 169.965 84.76C169.298 83.9067 168.818 82.9067 168.525 81.76C168.232 80.5867 168.085 79.2933 168.085 77.88V66.2H171.805V77.08C171.805 79.6133 172.205 81.4267 173.005 82.52C173.805 83.6133 175.152 84.16 177.045 84.16C177.445 84.16 177.858 84.1467 178.285 84.12C178.712 84.0933 179.112 84.0667 179.485 84.04C179.858 83.9867 180.192 83.9467 180.485 83.92C180.805 83.8667 181.032 83.8133 181.165 83.76V66.2H184.885V86.4ZM204.734 70.6C204.28 70.2267 203.627 69.8667 202.774 69.52C201.92 69.1733 200.987 69 199.974 69C198.907 69 197.987 69.2 197.214 69.6C196.467 69.9733 195.854 70.5067 195.374 71.2C194.894 71.8667 194.547 72.6667 194.334 73.6C194.12 74.5333 194.014 75.5333 194.014 76.6C194.014 79.0267 194.614 80.9067 195.814 82.24C197.014 83.5467 198.614 84.2 200.614 84.2C201.627 84.2 202.467 84.16 203.134 84.08C203.827 83.9733 204.36 83.8667 204.734 83.76V70.6ZM204.734 56.6L208.454 55.96V86.4C207.6 86.64 206.507 86.88 205.174 87.12C203.84 87.36 202.307 87.48 200.574 87.48C198.974 87.48 197.534 87.2267 196.254 86.72C194.974 86.2133 193.88 85.4933 192.974 84.56C192.067 83.6267 191.36 82.4933 190.854 81.16C190.374 79.8 190.134 78.28 190.134 76.6C190.134 75 190.334 73.5333 190.734 72.2C191.16 70.8667 191.774 69.72 192.574 68.76C193.374 67.8 194.347 67.0533 195.494 66.52C196.667 65.9867 198 65.72 199.494 65.72C200.694 65.72 201.747 65.88 202.654 66.2C203.587 66.52 204.28 66.8267 204.734 67.12V56.6ZM222.946 76.64C222.946 74.8 223.213 73.2 223.746 71.84C224.28 70.4533 224.986 69.3067 225.866 68.4C226.746 67.4933 227.76 66.8133 228.906 66.36C230.053 65.9067 231.226 65.68 232.426 65.68C235.226 65.68 237.373 66.56 238.866 68.32C240.36 70.0533 241.106 72.7067 241.106 76.28C241.106 76.44 241.106 76.6533 241.106 76.92C241.106 77.16 241.093 77.3867 241.066 77.6H226.826C226.986 79.76 227.613 81.4 228.706 82.52C229.8 83.64 231.506 84.2 233.826 84.2C235.133 84.2 236.226 84.0933 237.106 83.88C238.013 83.64 238.693 83.4133 239.146 83.2L239.666 86.32C239.213 86.56 238.413 86.8133 237.266 87.08C236.146 87.3467 234.866 87.48 233.426 87.48C231.613 87.48 230.04 87.2133 228.706 86.68C227.4 86.12 226.32 85.36 225.466 84.4C224.613 83.44 223.973 82.3067 223.546 81C223.146 79.6667 222.946 78.2133 222.946 76.64ZM237.226 74.6C237.253 72.92 236.826 71.5467 235.946 70.48C235.093 69.3867 233.906 68.84 232.386 68.84C231.533 68.84 230.773 69.0133 230.106 69.36C229.466 69.68 228.92 70.1067 228.466 70.64C228.013 71.1733 227.653 71.7867 227.386 72.48C227.146 73.1733 226.986 73.88 226.906 74.6H237.226ZM246.45 66.8C247.303 66.5867 248.437 66.36 249.85 66.12C251.263 65.88 252.89 65.76 254.73 65.76C256.383 65.76 257.757 66 258.85 66.48C259.943 66.9333 260.81 67.5867 261.45 68.44C262.117 69.2667 262.583 70.2667 262.85 71.44C263.117 72.6133 263.25 73.9067 263.25 75.32V87H259.53V76.12C259.53 74.84 259.437 73.7467 259.25 72.84C259.09 71.9333 258.81 71.2 258.41 70.64C258.01 70.08 257.477 69.68 256.81 69.44C256.143 69.1733 255.317 69.04 254.33 69.04C253.93 69.04 253.517 69.0533 253.09 69.08C252.663 69.1067 252.25 69.1467 251.85 69.2C251.477 69.2267 251.13 69.2667 250.81 69.32C250.517 69.3733 250.303 69.4133 250.17 69.44V87H246.45V66.8ZM286.357 65.76C286.677 65.76 287.037 65.7867 287.437 65.84C287.863 65.8667 288.277 65.92 288.677 66C289.077 66.0533 289.437 66.12 289.757 66.2C290.103 66.2533 290.357 66.3067 290.517 66.36L289.877 69.6C289.583 69.4933 289.09 69.3733 288.397 69.24C287.73 69.08 286.863 69 285.797 69C285.103 69 284.41 69.08 283.717 69.24C283.05 69.3733 282.61 69.4667 282.397 69.52V87H278.677V67.08C279.557 66.76 280.65 66.4667 281.957 66.2C283.263 65.9067 284.73 65.76 286.357 65.76ZM297.826 87H294.106V66.2H297.826V87ZM295.946 62.44C295.28 62.44 294.706 62.2267 294.226 61.8C293.773 61.3467 293.546 60.7467 293.546 60C293.546 59.2533 293.773 58.6667 294.226 58.24C294.706 57.7867 295.28 57.56 295.946 57.56C296.613 57.56 297.173 57.7867 297.626 58.24C298.106 58.6667 298.346 59.2533 298.346 60C298.346 60.7467 298.106 61.3467 297.626 61.8C297.173 62.2267 296.613 62.44 295.946 62.44ZM303.063 76.64C303.063 74.8 303.33 73.2 303.863 71.84C304.397 70.4533 305.103 69.3067 305.983 68.4C306.863 67.4933 307.877 66.8133 309.023 66.36C310.17 65.9067 311.343 65.68 312.543 65.68C315.343 65.68 317.49 66.56 318.983 68.32C320.477 70.0533 321.223 72.7067 321.223 76.28C321.223 76.44 321.223 76.6533 321.223 76.92C321.223 77.16 321.21 77.3867 321.183 77.6H306.943C307.103 79.76 307.73 81.4 308.823 82.52C309.917 83.64 311.623 84.2 313.943 84.2C315.25 84.2 316.343 84.0933 317.223 83.88C318.13 83.64 318.81 83.4133 319.263 83.2L319.783 86.32C319.33 86.56 318.53 86.8133 317.383 87.08C316.263 87.3467 314.983 87.48 313.543 87.48C311.73 87.48 310.157 87.2133 308.823 86.68C307.517 86.12 306.437 85.36 305.583 84.4C304.73 83.44 304.09 82.3067 303.663 81C303.263 79.6667 303.063 78.2133 303.063 76.64ZM317.343 74.6C317.37 72.92 316.943 71.5467 316.063 70.48C315.21 69.3867 314.023 68.84 312.503 68.84C311.65 68.84 310.89 69.0133 310.223 69.36C309.583 69.68 309.037 70.1067 308.583 70.64C308.13 71.1733 307.77 71.7867 307.503 72.48C307.263 73.1733 307.103 73.88 307.023 74.6H317.343ZM331.407 84.32C332.927 84.32 334.047 84.12 334.767 83.72C335.514 83.32 335.887 82.68 335.887 81.8C335.887 80.8933 335.527 80.1733 334.807 79.64C334.087 79.1067 332.901 78.5067 331.247 77.84C330.447 77.52 329.674 77.2 328.927 76.88C328.207 76.5333 327.581 76.1333 327.047 75.68C326.514 75.2267 326.087 74.68 325.767 74.04C325.447 73.4 325.287 72.6133 325.287 71.68C325.287 69.84 325.967 68.3867 327.327 67.32C328.687 66.2267 330.541 65.68 332.887 65.68C333.474 65.68 334.061 65.72 334.647 65.8C335.234 65.8533 335.781 65.9333 336.287 66.04C336.794 66.12 337.234 66.2133 337.607 66.32C338.007 66.4267 338.314 66.52 338.527 66.6L337.847 69.8C337.447 69.5867 336.821 69.3733 335.967 69.16C335.114 68.92 334.087 68.8 332.887 68.8C331.847 68.8 330.941 69.0133 330.167 69.44C329.394 69.84 329.007 70.48 329.007 71.36C329.007 71.8133 329.087 72.2133 329.247 72.56C329.434 72.9067 329.701 73.2267 330.047 73.52C330.421 73.7867 330.874 74.04 331.407 74.28C331.941 74.52 332.581 74.7733 333.327 75.04C334.314 75.4133 335.194 75.7867 335.967 76.16C336.741 76.5067 337.394 76.92 337.927 77.4C338.487 77.88 338.914 78.4667 339.207 79.16C339.501 79.8267 339.647 80.6533 339.647 81.64C339.647 83.56 338.927 85.0133 337.487 86C336.074 86.9867 334.047 87.48 331.407 87.48C329.567 87.48 328.127 87.32 327.087 87C326.047 86.7067 325.341 86.48 324.967 86.32L325.647 83.12C326.074 83.28 326.754 83.52 327.687 83.84C328.621 84.16 329.861 84.32 331.407 84.32ZM357.459 84.92C357.139 85.1333 356.512 85.4133 355.579 85.76C354.672 86.08 353.605 86.24 352.379 86.24C351.125 86.24 349.939 86.04 348.819 85.64C347.725 85.24 346.765 84.6267 345.939 83.8C345.112 82.9467 344.459 81.8933 343.979 80.64C343.499 79.3867 343.259 77.8933 343.259 76.16C343.259 74.64 343.485 73.2533 343.939 72C344.392 70.72 345.045 69.6267 345.899 68.72C346.779 67.7867 347.845 67.0667 349.099 66.56C350.352 66.0267 351.765 65.76 353.339 65.76C355.072 65.76 356.579 65.8933 357.859 66.16C359.165 66.4 360.259 66.6267 361.139 66.84V85.4C361.139 88.6 360.312 90.92 358.659 92.36C357.005 93.8 354.499 94.52 351.139 94.52C349.832 94.52 348.592 94.4133 347.419 94.2C346.272 93.9867 345.272 93.7333 344.419 93.44L345.099 90.2C345.845 90.4933 346.752 90.7467 347.819 90.96C348.912 91.2 350.045 91.32 351.219 91.32C353.432 91.32 355.019 90.88 355.979 90C356.965 89.12 357.459 87.72 357.459 85.8V84.92ZM357.419 69.48C357.045 69.3733 356.539 69.28 355.899 69.2C355.285 69.0933 354.445 69.04 353.379 69.04C351.379 69.04 349.832 69.6933 348.739 71C347.672 72.3067 347.139 74.04 347.139 76.2C347.139 77.4 347.285 78.4267 347.579 79.28C347.899 80.1333 348.312 80.84 348.819 81.4C349.352 81.96 349.952 82.3733 350.619 82.64C351.312 82.9067 352.019 83.04 352.739 83.04C353.725 83.04 354.632 82.9067 355.459 82.64C356.285 82.3467 356.939 82.0133 357.419 81.64V69.48ZM385.904 76.6C385.904 78.2533 385.664 79.7467 385.184 81.08C384.704 82.4133 384.024 83.56 383.144 84.52C382.29 85.48 381.264 86.2267 380.064 86.76C378.864 87.2667 377.557 87.52 376.144 87.52C374.73 87.52 373.424 87.2667 372.224 86.76C371.024 86.2267 369.984 85.48 369.104 84.52C368.25 83.56 367.584 82.4133 367.104 81.08C366.624 79.7467 366.384 78.2533 366.384 76.6C366.384 74.9733 366.624 73.4933 367.104 72.16C367.584 70.8 368.25 69.64 369.104 68.68C369.984 67.72 371.024 66.9867 372.224 66.48C373.424 65.9467 374.73 65.68 376.144 65.68C377.557 65.68 378.864 65.9467 380.064 66.48C381.264 66.9867 382.29 67.72 383.144 68.68C384.024 69.64 384.704 70.8 385.184 72.16C385.664 73.4933 385.904 74.9733 385.904 76.6ZM382.024 76.6C382.024 74.2533 381.49 72.4 380.424 71.04C379.384 69.6533 377.957 68.96 376.144 68.96C374.33 68.96 372.89 69.6533 371.824 71.04C370.784 72.4 370.264 74.2533 370.264 76.6C370.264 78.9467 370.784 80.8133 371.824 82.2C372.89 83.56 374.33 84.24 376.144 84.24C377.957 84.24 379.384 83.56 380.424 82.2C381.49 80.8133 382.024 78.9467 382.024 76.6Z" fill="white"/>
<path d="M600.568 392.24C600.008 392.24 599.395 392.227 598.728 392.2C598.088 392.173 597.435 392.133 596.768 392.08C596.128 392.027 595.488 391.96 594.848 391.88C594.208 391.8 593.622 391.693 593.088 391.56V364.68C593.622 364.547 594.208 364.44 594.848 364.36C595.488 364.28 596.128 364.213 596.768 364.16C597.435 364.107 598.088 364.067 598.728 364.04C599.368 364.013 599.968 364 600.528 364C602.128 364 603.622 364.12 605.008 364.36C606.422 364.6 607.635 365.013 608.648 365.6C609.688 366.16 610.502 366.907 611.088 367.84C611.675 368.773 611.968 369.92 611.968 371.28C611.968 372.8 611.608 374.053 610.888 375.04C610.168 376 609.208 376.72 608.008 377.2C609.635 377.68 610.928 378.44 611.888 379.48C612.848 380.52 613.328 381.987 613.328 383.88C613.328 386.653 612.302 388.747 610.248 390.16C608.222 391.547 604.995 392.24 600.568 392.24ZM596.928 379.08V388.84C597.222 388.867 597.568 388.893 597.968 388.92C598.315 388.947 598.715 388.973 599.168 389C599.648 389 600.195 389 600.808 389C601.955 389 603.035 388.933 604.048 388.8C605.088 388.64 605.995 388.373 606.768 388C607.542 387.627 608.155 387.107 608.608 386.44C609.088 385.773 609.328 384.933 609.328 383.92C609.328 383.013 609.155 382.253 608.808 381.64C608.462 381 607.955 380.493 607.288 380.12C606.648 379.747 605.875 379.48 604.968 379.32C604.062 379.16 603.048 379.08 601.928 379.08H596.928ZM596.928 375.96H601.008C601.968 375.96 602.875 375.893 603.728 375.76C604.582 375.627 605.315 375.387 605.928 375.04C606.568 374.693 607.062 374.24 607.408 373.68C607.782 373.12 607.968 372.413 607.968 371.56C607.968 370.76 607.782 370.093 607.408 369.56C607.035 369 606.515 368.56 605.848 368.24C605.208 367.893 604.448 367.64 603.568 367.48C602.688 367.32 601.755 367.24 600.768 367.24C599.782 367.24 599.008 367.253 598.448 367.28C597.888 367.307 597.382 367.347 596.928 367.4V375.96ZM635.112 391.4C634.258 391.613 633.125 391.84 631.712 392.08C630.325 392.32 628.712 392.44 626.872 392.44C625.272 392.44 623.925 392.213 622.832 391.76C621.738 391.28 620.858 390.613 620.192 389.76C619.525 388.907 619.045 387.907 618.752 386.76C618.458 385.587 618.312 384.293 618.312 382.88V371.2H622.032V382.08C622.032 384.613 622.432 386.427 623.232 387.52C624.032 388.613 625.378 389.16 627.272 389.16C627.672 389.16 628.085 389.147 628.512 389.12C628.938 389.093 629.338 389.067 629.712 389.04C630.085 388.987 630.418 388.947 630.712 388.92C631.032 388.867 631.258 388.813 631.392 388.76V371.2H635.112V391.4ZM640.36 381.64C640.36 379.8 640.627 378.2 641.16 376.84C641.694 375.453 642.4 374.307 643.28 373.4C644.16 372.493 645.174 371.813 646.32 371.36C647.467 370.907 648.64 370.68 649.84 370.68C652.64 370.68 654.787 371.56 656.28 373.32C657.774 375.053 658.52 377.707 658.52 381.28C658.52 381.44 658.52 381.653 658.52 381.92C658.52 382.16 658.507 382.387 658.48 382.6H644.24C644.4 384.76 645.027 386.4 646.12 387.52C647.214 388.64 648.92 389.2 651.24 389.2C652.547 389.2 653.64 389.093 654.52 388.88C655.427 388.64 656.107 388.413 656.56 388.2L657.08 391.32C656.627 391.56 655.827 391.813 654.68 392.08C653.56 392.347 652.28 392.48 650.84 392.48C649.027 392.48 647.454 392.213 646.12 391.68C644.814 391.12 643.734 390.36 642.88 389.4C642.027 388.44 641.387 387.307 640.96 386C640.56 384.667 640.36 383.213 640.36 381.64ZM654.64 379.6C654.667 377.92 654.24 376.547 653.36 375.48C652.507 374.387 651.32 373.84 649.8 373.84C648.947 373.84 648.187 374.013 647.52 374.36C646.88 374.68 646.334 375.107 645.88 375.64C645.427 376.173 645.067 376.787 644.8 377.48C644.56 378.173 644.4 378.88 644.32 379.6H654.64ZM663.864 371.8C664.717 371.587 665.851 371.36 667.264 371.12C668.677 370.88 670.304 370.76 672.144 370.76C673.797 370.76 675.171 371 676.264 371.48C677.357 371.933 678.224 372.587 678.864 373.44C679.531 374.267 679.997 375.267 680.264 376.44C680.531 377.613 680.664 378.907 680.664 380.32V392H676.944V381.12C676.944 379.84 676.851 378.747 676.664 377.84C676.504 376.933 676.224 376.2 675.824 375.64C675.424 375.08 674.891 374.68 674.224 374.44C673.557 374.173 672.731 374.04 671.744 374.04C671.344 374.04 670.931 374.053 670.504 374.08C670.077 374.107 669.664 374.147 669.264 374.2C668.891 374.227 668.544 374.267 668.224 374.32C667.931 374.373 667.717 374.413 667.584 374.44V392H663.864V371.8ZM693.873 389.32C694.753 389.32 695.526 389.307 696.193 389.28C696.886 389.227 697.459 389.147 697.913 389.04V382.84C697.646 382.707 697.206 382.6 696.593 382.52C696.006 382.413 695.286 382.36 694.433 382.36C693.873 382.36 693.273 382.4 692.633 382.48C692.019 382.56 691.446 382.733 690.913 383C690.406 383.24 689.979 383.587 689.633 384.04C689.286 384.467 689.113 385.04 689.113 385.76C689.113 387.093 689.539 388.027 690.393 388.56C691.246 389.067 692.406 389.32 693.873 389.32ZM693.553 370.68C695.046 370.68 696.299 370.88 697.313 371.28C698.353 371.653 699.179 372.2 699.793 372.92C700.433 373.613 700.886 374.453 701.153 375.44C701.419 376.4 701.553 377.467 701.553 378.64V391.64C701.233 391.693 700.779 391.773 700.193 391.88C699.633 391.96 698.993 392.04 698.273 392.12C697.553 392.2 696.766 392.267 695.913 392.32C695.086 392.4 694.259 392.44 693.433 392.44C692.259 392.44 691.179 392.32 690.193 392.08C689.206 391.84 688.353 391.467 687.633 390.96C686.913 390.427 686.353 389.733 685.953 388.88C685.553 388.027 685.353 387 685.353 385.8C685.353 384.653 685.579 383.667 686.033 382.84C686.513 382.013 687.153 381.347 687.953 380.84C688.753 380.333 689.686 379.96 690.753 379.72C691.819 379.48 692.939 379.36 694.113 379.36C694.486 379.36 694.873 379.387 695.273 379.44C695.673 379.467 696.046 379.52 696.393 379.6C696.766 379.653 697.086 379.707 697.353 379.76C697.619 379.813 697.806 379.853 697.913 379.88V378.84C697.913 378.227 697.846 377.627 697.713 377.04C697.579 376.427 697.339 375.893 696.993 375.44C696.646 374.96 696.166 374.587 695.553 374.32C694.966 374.027 694.193 373.88 693.233 373.88C692.006 373.88 690.926 373.973 689.993 374.16C689.086 374.32 688.406 374.493 687.953 374.68L687.513 371.6C687.993 371.387 688.793 371.187 689.913 371C691.033 370.787 692.246 370.68 693.553 370.68ZM721.829 389.32C723.349 389.32 724.469 389.12 725.189 388.72C725.936 388.32 726.309 387.68 726.309 386.8C726.309 385.893 725.949 385.173 725.229 384.64C724.509 384.107 723.322 383.507 721.669 382.84C720.869 382.52 720.096 382.2 719.349 381.88C718.629 381.533 718.002 381.133 717.469 380.68C716.936 380.227 716.509 379.68 716.189 379.04C715.869 378.4 715.709 377.613 715.709 376.68C715.709 374.84 716.389 373.387 717.749 372.32C719.109 371.227 720.962 370.68 723.309 370.68C723.896 370.68 724.482 370.72 725.069 370.8C725.656 370.853 726.202 370.933 726.709 371.04C727.216 371.12 727.656 371.213 728.029 371.32C728.429 371.427 728.736 371.52 728.949 371.6L728.269 374.8C727.869 374.587 727.242 374.373 726.389 374.16C725.536 373.92 724.509 373.8 723.309 373.8C722.269 373.8 721.362 374.013 720.589 374.44C719.816 374.84 719.429 375.48 719.429 376.36C719.429 376.813 719.509 377.213 719.669 377.56C719.856 377.907 720.122 378.227 720.469 378.52C720.842 378.787 721.296 379.04 721.829 379.28C722.362 379.52 723.002 379.773 723.749 380.04C724.736 380.413 725.616 380.787 726.389 381.16C727.162 381.507 727.816 381.92 728.349 382.4C728.909 382.88 729.336 383.467 729.629 384.16C729.922 384.827 730.069 385.653 730.069 386.64C730.069 388.56 729.349 390.013 727.909 391C726.496 391.987 724.469 392.48 721.829 392.48C719.989 392.48 718.549 392.32 717.509 392C716.469 391.707 715.762 391.48 715.389 391.32L716.069 388.12C716.496 388.28 717.176 388.52 718.109 388.84C719.042 389.16 720.282 389.32 721.829 389.32ZM741.881 389.32C742.761 389.32 743.534 389.307 744.201 389.28C744.894 389.227 745.467 389.147 745.921 389.04V382.84C745.654 382.707 745.214 382.6 744.601 382.52C744.014 382.413 743.294 382.36 742.441 382.36C741.881 382.36 741.281 382.4 740.641 382.48C740.027 382.56 739.454 382.733 738.921 383C738.414 383.24 737.987 383.587 737.641 384.04C737.294 384.467 737.121 385.04 737.121 385.76C737.121 387.093 737.547 388.027 738.401 388.56C739.254 389.067 740.414 389.32 741.881 389.32ZM741.561 370.68C743.054 370.68 744.307 370.88 745.321 371.28C746.361 371.653 747.187 372.2 747.801 372.92C748.441 373.613 748.894 374.453 749.161 375.44C749.427 376.4 749.561 377.467 749.561 378.64V391.64C749.241 391.693 748.787 391.773 748.201 391.88C747.641 391.96 747.001 392.04 746.281 392.12C745.561 392.2 744.774 392.267 743.921 392.32C743.094 392.4 742.267 392.44 741.441 392.44C740.267 392.44 739.187 392.32 738.201 392.08C737.214 391.84 736.361 391.467 735.641 390.96C734.921 390.427 734.361 389.733 733.961 388.88C733.561 388.027 733.361 387 733.361 385.8C733.361 384.653 733.587 383.667 734.041 382.84C734.521 382.013 735.161 381.347 735.961 380.84C736.761 380.333 737.694 379.96 738.761 379.72C739.827 379.48 740.947 379.36 742.121 379.36C742.494 379.36 742.881 379.387 743.281 379.44C743.681 379.467 744.054 379.52 744.401 379.6C744.774 379.653 745.094 379.707 745.361 379.76C745.627 379.813 745.814 379.853 745.921 379.88V378.84C745.921 378.227 745.854 377.627 745.721 377.04C745.587 376.427 745.347 375.893 745.001 375.44C744.654 374.96 744.174 374.587 743.561 374.32C742.974 374.027 742.201 373.88 741.241 373.88C740.014 373.88 738.934 373.973 738.001 374.16C737.094 374.32 736.414 374.493 735.961 374.68L735.521 371.6C736.001 371.387 736.801 371.187 737.921 371C739.041 370.787 740.254 370.68 741.561 370.68ZM761.979 392.4C759.686 392.347 758.059 391.853 757.099 390.92C756.139 389.987 755.659 388.533 755.659 386.56V361.6L759.379 360.96V385.96C759.379 386.573 759.432 387.08 759.539 387.48C759.646 387.88 759.819 388.2 760.059 388.44C760.299 388.68 760.619 388.867 761.019 389C761.419 389.107 761.912 389.2 762.499 389.28L761.979 392.4ZM783.237 391.4C782.383 391.613 781.25 391.84 779.837 392.08C778.45 392.32 776.837 392.44 774.997 392.44C773.397 392.44 772.05 392.213 770.957 391.76C769.863 391.28 768.983 390.613 768.317 389.76C767.65 388.907 767.17 387.907 766.877 386.76C766.583 385.587 766.437 384.293 766.437 382.88V371.2H770.157V382.08C770.157 384.613 770.557 386.427 771.357 387.52C772.157 388.613 773.503 389.16 775.397 389.16C775.797 389.16 776.21 389.147 776.637 389.12C777.063 389.093 777.463 389.067 777.837 389.04C778.21 388.987 778.543 388.947 778.837 388.92C779.157 388.867 779.383 388.813 779.517 388.76V371.2H783.237V391.4ZM803.085 375.6C802.632 375.227 801.979 374.867 801.125 374.52C800.272 374.173 799.339 374 798.325 374C797.259 374 796.339 374.2 795.565 374.6C794.819 374.973 794.205 375.507 793.725 376.2C793.245 376.867 792.899 377.667 792.685 378.6C792.472 379.533 792.365 380.533 792.365 381.6C792.365 384.027 792.965 385.907 794.165 387.24C795.365 388.547 796.965 389.2 798.965 389.2C799.979 389.2 800.819 389.16 801.485 389.08C802.179 388.973 802.712 388.867 803.085 388.76V375.6ZM803.085 361.6L806.805 360.96V391.4C805.952 391.64 804.859 391.88 803.525 392.12C802.192 392.36 800.659 392.48 798.925 392.48C797.325 392.48 795.885 392.227 794.605 391.72C793.325 391.213 792.232 390.493 791.325 389.56C790.419 388.627 789.712 387.493 789.205 386.16C788.725 384.8 788.485 383.28 788.485 381.6C788.485 380 788.685 378.533 789.085 377.2C789.512 375.867 790.125 374.72 790.925 373.76C791.725 372.8 792.699 372.053 793.845 371.52C795.019 370.987 796.352 370.72 797.845 370.72C799.045 370.72 800.099 370.88 801.005 371.2C801.939 371.52 802.632 371.827 803.085 372.12V361.6Z" fill="white"/>
<line x1="517" y1="436.018" x2="517" y2="165.999" stroke="#A5A4A4" stroke-width="5" stroke-dasharray="10 10"/>
<defs>
<filter id="filter0_d_652_147" x="53" y="0" width="30" height="455" filterUnits="userSpaceOnUse" color-interpolation-filters="sRGB">
<feFlood flood-opacity="0" result="BackgroundImageFix"/>
<feColorMatrix in="SourceAlpha" type="matrix" values="0 0 0 0 0 0 0 0 0 0 0 0 0 0 0 0 0 0 127 0" result="hardAlpha"/>
<feOffset dy="4"/>
<feGaussianBlur stdDeviation="5"/>
<feComposite in2="hardAlpha" operator="out"/>
<feColorMatrix type="matrix" values="0 0 0 0 0 0 0 0 0 0 0 0 0 0 0 0 0 0 0.25 0"/>
<feBlend mode="normal" in2="BackgroundImageFix" result="effect1_dropShadow_652_147"/>
<feBlend mode="normal" in="SourceGraphic" in2="effect1_dropShadow_652_147" result="shape"/>
</filter>
<filter id="filter1_d_652_147" x="58" y="425" width="814" height="30" filterUnits="userSpaceOnUse" color-interpolation-filters="sRGB">
<feFlood flood-opacity="0" result="BackgroundImageFix"/>
<feColorMatrix in="SourceAlpha" type="matrix" values="0 0 0 0 0 0 0 0 0 0 0 0 0 0 0 0 0 0 127 0" result="hardAlpha"/>
<feOffset dy="4"/>
<feGaussianBlur stdDeviation="5"/>
<feComposite in2="hardAlpha" operator="out"/>
<feColorMatrix type="matrix" values="0 0 0 0 0 0 0 0 0 0 0 0 0 0 0 0 0 0 0.25 0"/>
<feBlend mode="normal" in2="BackgroundImageFix" result="effect1_dropShadow_652_147"/>
<feBlend mode="normal" in="SourceGraphic" in2="effect1_dropShadow_652_147" result="shape"/>
</filter>
<filter id="filter2_d_652_147" x="94.1865" y="150.678" width="713.183" height="254.29" filterUnits="userSpaceOnUse" color-interpolation-filters="sRGB">
<feFlood flood-opacity="0" result="BackgroundImageFix"/>
<feColorMatrix in="SourceAlpha" type="matrix" values="0 0 0 0 0 0 0 0 0 0 0 0 0 0 0 0 0 0 127 0" result="hardAlpha"/>
<feOffset dy="10"/>
<feGaussianBlur stdDeviation="5"/>
<feComposite in2="hardAlpha" operator="out"/>
<feColorMatrix type="matrix" values="0 0 0 0 0 0 0 0 0 0 0 0 0 0 0 0 0 0 0.25 0"/>
<feBlend mode="normal" in2="BackgroundImageFix" result="effect1_dropShadow_652_147"/>
<feBlend mode="normal" in="SourceGraphic" in2="effect1_dropShadow_652_147" result="shape"/>
</filter>
<filter id="filter3_d_652_147" x="91.1865" y="73.5132" width="722.07" height="331.772" filterUnits="userSpaceOnUse" color-interpolation-filters="sRGB">
<feFlood flood-opacity="0" result="BackgroundImageFix"/>
<feColorMatrix in="SourceAlpha" type="matrix" values="0 0 0 0 0 0 0 0 0 0 0 0 0 0 0 0 0 0 127 0" result="hardAlpha"/>
<feOffset dy="10"/>
<feGaussianBlur stdDeviation="5"/>
<feComposite in2="hardAlpha" operator="out"/>
<feColorMatrix type="matrix" values="0 0 0 0 0 0 0 0 0 0 0 0 0 0 0 0 0 0 0.25 0"/>
<feBlend mode="normal" in2="BackgroundImageFix" result="effect1_dropShadow_652_147"/>
<feBlend mode="normal" in="SourceGraphic" in2="effect1_dropShadow_652_147" result="shape"/>
</filter>
</defs>
</svg>
