<svg width="872" height="513" viewBox="0 0 872 513" fill="none" xmlns="http://www.w3.org/2000/svg">
<rect x="88" y="171" width="747" height="118" fill="#FFC700" fill-opacity="0.5"/>
<rect x="88" y="294" width="747" height="120" fill="#219653" fill-opacity="0.5"/>
<rect x="88" y="27" width="747" height="139" fill="#EB5757" fill-opacity="0.5"/>
<g filter="url(#filter0_d_652_147)">
<path d="M68 441L68 6.00001" stroke="black" stroke-width="10"/>
</g>
<g filter="url(#filter1_d_652_147)">
<path d="M68 436H862" stroke="black" stroke-width="10"/>
</g>
<path d="M347.93 470.28C348.517 471.293 349.17 472.533 349.89 474C350.61 475.467 351.344 477.013 352.09 478.64C352.837 480.24 353.57 481.88 354.29 483.56C355.037 485.213 355.717 486.747 356.33 488.16C356.944 486.747 357.61 485.213 358.33 483.56C359.05 481.88 359.784 480.24 360.53 478.64C361.277 477.013 362.01 475.467 362.73 474C363.45 472.533 364.104 471.293 364.69 470.28H369.25C369.49 472.307 369.717 474.467 369.93 476.76C370.144 479.027 370.33 481.36 370.49 483.76C370.677 486.133 370.837 488.533 370.97 490.96C371.13 493.36 371.264 495.707 371.37 498H366.41C366.304 494.773 366.17 491.453 366.01 488.04C365.877 484.627 365.664 481.32 365.37 478.12C365.077 478.733 364.73 479.467 364.33 480.32C363.93 481.173 363.504 482.107 363.05 483.12C362.597 484.107 362.13 485.133 361.65 486.2C361.197 487.267 360.744 488.307 360.29 489.32C359.864 490.307 359.464 491.24 359.09 492.12C358.717 492.973 358.397 493.707 358.13 494.32H354.37C354.104 493.707 353.784 492.96 353.41 492.08C353.037 491.2 352.624 490.267 352.17 489.28C351.744 488.267 351.29 487.227 350.81 486.16C350.357 485.093 349.904 484.067 349.45 483.08C348.997 482.093 348.57 481.173 348.17 480.32C347.77 479.44 347.424 478.707 347.13 478.12C346.837 481.32 346.61 484.627 346.45 488.04C346.317 491.453 346.197 494.773 346.09 498H341.13C341.237 495.707 341.357 493.333 341.49 490.88C341.65 488.427 341.81 486 341.97 483.6C342.157 481.173 342.357 478.827 342.57 476.56C342.784 474.293 343.01 472.2 343.25 470.28H347.93ZM375.842 487.64C375.842 485.8 376.109 484.187 376.642 482.8C377.202 481.413 377.935 480.267 378.842 479.36C379.749 478.427 380.789 477.733 381.962 477.28C383.135 476.8 384.335 476.56 385.562 476.56C388.442 476.56 390.682 477.453 392.282 479.24C393.909 481.027 394.722 483.693 394.722 487.24C394.722 487.507 394.709 487.813 394.682 488.16C394.682 488.48 394.669 488.773 394.642 489.04H380.842C380.975 490.72 381.562 492.027 382.602 492.96C383.669 493.867 385.202 494.32 387.202 494.32C388.375 494.32 389.442 494.213 390.402 494C391.389 493.787 392.162 493.56 392.722 493.32L393.362 497.28C393.095 497.413 392.722 497.56 392.242 497.72C391.789 497.853 391.255 497.973 390.642 498.08C390.055 498.213 389.415 498.32 388.722 498.4C388.029 498.48 387.322 498.52 386.602 498.52C384.762 498.52 383.162 498.253 381.802 497.72C380.442 497.16 379.322 496.4 378.442 495.44C377.562 494.453 376.909 493.307 376.482 492C376.055 490.667 375.842 489.213 375.842 487.64ZM389.882 485.48C389.882 484.813 389.789 484.187 389.602 483.6C389.415 482.987 389.135 482.467 388.762 482.04C388.415 481.587 387.975 481.24 387.442 481C386.935 480.733 386.322 480.6 385.602 480.6C384.855 480.6 384.202 480.747 383.642 481.04C383.082 481.307 382.602 481.667 382.202 482.12C381.829 482.573 381.535 483.093 381.322 483.68C381.109 484.267 380.962 484.867 380.882 485.48H389.882ZM405.093 494.52C406.373 494.52 407.307 494.373 407.893 494.08C408.48 493.76 408.773 493.227 408.773 492.48C408.773 491.787 408.453 491.213 407.813 490.76C407.2 490.307 406.173 489.813 404.733 489.28C403.853 488.96 403.04 488.627 402.293 488.28C401.573 487.907 400.947 487.48 400.413 487C399.88 486.52 399.453 485.947 399.133 485.28C398.84 484.587 398.693 483.747 398.693 482.76C398.693 480.84 399.4 479.333 400.813 478.24C402.227 477.12 404.147 476.56 406.573 476.56C407.8 476.56 408.973 476.68 410.093 476.92C411.213 477.133 412.053 477.347 412.613 477.56L411.733 481.48C411.2 481.24 410.52 481.027 409.693 480.84C408.867 480.627 407.907 480.52 406.813 480.52C405.827 480.52 405.027 480.693 404.413 481.04C403.8 481.36 403.493 481.867 403.493 482.56C403.493 482.907 403.547 483.213 403.653 483.48C403.787 483.747 404 484 404.293 484.24C404.587 484.453 404.973 484.68 405.453 484.92C405.933 485.133 406.52 485.36 407.213 485.6C408.36 486.027 409.333 486.453 410.133 486.88C410.933 487.28 411.587 487.747 412.093 488.28C412.627 488.787 413.013 489.373 413.253 490.04C413.493 490.707 413.613 491.507 413.613 492.44C413.613 494.44 412.867 495.96 411.373 497C409.907 498.013 407.8 498.52 405.053 498.52C403.213 498.52 401.733 498.36 400.613 498.04C399.493 497.747 398.707 497.507 398.253 497.32L399.093 493.28C399.813 493.573 400.667 493.853 401.653 494.12C402.667 494.387 403.813 494.52 405.093 494.52ZM416.975 487.64C416.975 485.8 417.241 484.187 417.775 482.8C418.335 481.413 419.068 480.267 419.975 479.36C420.881 478.427 421.921 477.733 423.095 477.28C424.268 476.8 425.468 476.56 426.695 476.56C429.575 476.56 431.815 477.453 433.415 479.24C435.041 481.027 435.855 483.693 435.855 487.24C435.855 487.507 435.841 487.813 435.815 488.16C435.815 488.48 435.801 488.773 435.775 489.04H421.975C422.108 490.72 422.695 492.027 423.735 492.96C424.801 493.867 426.335 494.32 428.335 494.32C429.508 494.32 430.575 494.213 431.535 494C432.521 493.787 433.295 493.56 433.855 493.32L434.495 497.28C434.228 497.413 433.855 497.56 433.375 497.72C432.921 497.853 432.388 497.973 431.775 498.08C431.188 498.213 430.548 498.32 429.855 498.4C429.161 498.48 428.455 498.52 427.735 498.52C425.895 498.52 424.295 498.253 422.935 497.72C421.575 497.16 420.455 496.4 419.575 495.44C418.695 494.453 418.041 493.307 417.615 492C417.188 490.667 416.975 489.213 416.975 487.64ZM431.015 485.48C431.015 484.813 430.921 484.187 430.735 483.6C430.548 482.987 430.268 482.467 429.895 482.04C429.548 481.587 429.108 481.24 428.575 481C428.068 480.733 427.455 480.6 426.735 480.6C425.988 480.6 425.335 480.747 424.775 481.04C424.215 481.307 423.735 481.667 423.335 482.12C422.961 482.573 422.668 483.093 422.455 483.68C422.241 484.267 422.095 484.867 422.015 485.48H431.015ZM446.226 494.52C447.506 494.52 448.44 494.373 449.026 494.08C449.613 493.76 449.906 493.227 449.906 492.48C449.906 491.787 449.586 491.213 448.946 490.76C448.333 490.307 447.306 489.813 445.866 489.28C444.986 488.96 444.173 488.627 443.426 488.28C442.706 487.907 442.08 487.48 441.546 487C441.013 486.52 440.586 485.947 440.266 485.28C439.973 484.587 439.826 483.747 439.826 482.76C439.826 480.84 440.533 479.333 441.946 478.24C443.36 477.12 445.28 476.56 447.706 476.56C448.933 476.56 450.106 476.68 451.226 476.92C452.346 477.133 453.186 477.347 453.746 477.56L452.866 481.48C452.333 481.24 451.653 481.027 450.826 480.84C450 480.627 449.04 480.52 447.946 480.52C446.96 480.52 446.16 480.693 445.546 481.04C444.933 481.36 444.626 481.867 444.626 482.56C444.626 482.907 444.68 483.213 444.786 483.48C444.92 483.747 445.133 484 445.426 484.24C445.72 484.453 446.106 484.68 446.586 484.92C447.066 485.133 447.653 485.36 448.346 485.6C449.493 486.027 450.466 486.453 451.266 486.88C452.066 487.28 452.72 487.747 453.226 488.28C453.76 488.787 454.146 489.373 454.386 490.04C454.626 490.707 454.746 491.507 454.746 492.44C454.746 494.44 454 495.96 452.506 497C451.04 498.013 448.933 498.52 446.186 498.52C444.346 498.52 442.866 498.36 441.746 498.04C440.626 497.747 439.84 497.507 439.386 497.32L440.226 493.28C440.946 493.573 441.8 493.853 442.786 494.12C443.8 494.387 444.946 494.52 446.226 494.52ZM469.403 505.4H464.443L477.963 466.68H482.843L469.403 505.4ZM513.22 498C512.847 496.907 512.46 495.827 512.06 494.76C511.66 493.693 511.273 492.6 510.9 491.48H499.22C498.847 492.6 498.46 493.707 498.06 494.8C497.687 495.867 497.313 496.933 496.94 498H491.7C492.74 495.04 493.727 492.307 494.66 489.8C495.593 487.293 496.5 484.92 497.38 482.68C498.287 480.44 499.18 478.307 500.06 476.28C500.94 474.253 501.847 472.253 502.78 470.28H507.54C508.473 472.253 509.38 474.253 510.26 476.28C511.14 478.307 512.02 480.44 512.9 482.68C513.807 484.92 514.727 487.293 515.66 489.8C516.62 492.307 517.62 495.04 518.66 498H513.22ZM505.06 475.64C504.447 477.053 503.74 478.773 502.94 480.8C502.167 482.827 501.353 485.027 500.5 487.4H509.62C508.767 485.027 507.94 482.813 507.14 480.76C506.34 478.707 505.647 477 505.06 475.64ZM521.924 477.76C522.857 477.493 524.07 477.24 525.564 477C527.057 476.76 528.71 476.64 530.524 476.64C532.23 476.64 533.657 476.88 534.804 477.36C535.95 477.813 536.857 478.467 537.524 479.32C538.217 480.147 538.697 481.16 538.964 482.36C539.257 483.533 539.404 484.827 539.404 486.24V498H534.564V487C534.564 485.88 534.484 484.933 534.324 484.16C534.19 483.36 533.95 482.72 533.604 482.24C533.284 481.733 532.83 481.373 532.244 481.16C531.684 480.92 530.99 480.8 530.164 480.8C529.55 480.8 528.91 480.84 528.244 480.92C527.577 481 527.084 481.067 526.764 481.12V498H521.924V477.76ZM537.644 469.6C537.484 469.973 537.27 470.387 537.004 470.84C536.764 471.267 536.457 471.68 536.084 472.08C535.71 472.453 535.284 472.773 534.804 473.04C534.324 473.307 533.79 473.44 533.204 473.44C532.724 473.44 532.27 473.373 531.844 473.24C531.417 473.08 530.99 472.907 530.564 472.72C530.164 472.533 529.764 472.373 529.364 472.24C528.99 472.08 528.617 472 528.244 472C527.737 472 527.297 472.173 526.924 472.52C526.577 472.867 526.297 473.267 526.084 473.72L523.644 472.28C523.777 471.907 523.964 471.507 524.204 471.08C524.47 470.627 524.79 470.213 525.164 469.84C525.564 469.44 526.004 469.107 526.484 468.84C526.964 468.573 527.497 468.44 528.084 468.44C528.564 468.44 529.017 468.52 529.444 468.68C529.87 468.84 530.284 469.013 530.684 469.2C531.11 469.36 531.51 469.52 531.884 469.68C532.284 469.84 532.67 469.92 533.044 469.92C533.55 469.92 533.977 469.747 534.324 469.4C534.697 469.027 534.99 468.613 535.204 468.16L537.644 469.6ZM564.242 487.52C564.242 489.173 564.002 490.68 563.522 492.04C563.042 493.4 562.362 494.56 561.482 495.52C560.602 496.48 559.536 497.227 558.282 497.76C557.056 498.293 555.696 498.56 554.202 498.56C552.709 498.56 551.349 498.293 550.122 497.76C548.896 497.227 547.842 496.48 546.962 495.52C546.082 494.56 545.389 493.4 544.882 492.04C544.402 490.68 544.162 489.173 544.162 487.52C544.162 485.867 544.402 484.373 544.882 483.04C545.389 481.68 546.082 480.52 546.962 479.56C547.869 478.6 548.936 477.867 550.162 477.36C551.389 476.827 552.736 476.56 554.202 476.56C555.669 476.56 557.016 476.827 558.242 477.36C559.496 477.867 560.562 478.6 561.442 479.56C562.322 480.52 563.002 481.68 563.482 483.04C563.989 484.373 564.242 485.867 564.242 487.52ZM559.282 487.52C559.282 485.44 558.829 483.8 557.922 482.6C557.042 481.373 555.802 480.76 554.202 480.76C552.602 480.76 551.349 481.373 550.442 482.6C549.562 483.8 549.122 485.44 549.122 487.52C549.122 489.627 549.562 491.293 550.442 492.52C551.349 493.747 552.602 494.36 554.202 494.36C555.802 494.36 557.042 493.747 557.922 492.52C558.829 491.293 559.282 489.627 559.282 487.52ZM574.468 494.52C575.748 494.52 576.682 494.373 577.268 494.08C577.855 493.76 578.148 493.227 578.148 492.48C578.148 491.787 577.828 491.213 577.188 490.76C576.575 490.307 575.548 489.813 574.108 489.28C573.228 488.96 572.415 488.627 571.668 488.28C570.948 487.907 570.322 487.48 569.788 487C569.255 486.52 568.828 485.947 568.508 485.28C568.215 484.587 568.068 483.747 568.068 482.76C568.068 480.84 568.775 479.333 570.188 478.24C571.602 477.12 573.522 476.56 575.948 476.56C577.175 476.56 578.348 476.68 579.468 476.92C580.588 477.133 581.428 477.347 581.988 477.56L581.108 481.48C580.575 481.24 579.895 481.027 579.068 480.84C578.242 480.627 577.282 480.52 576.188 480.52C575.202 480.52 574.402 480.693 573.788 481.04C573.175 481.36 572.868 481.867 572.868 482.56C572.868 482.907 572.922 483.213 573.028 483.48C573.162 483.747 573.375 484 573.668 484.24C573.962 484.453 574.348 484.68 574.828 484.92C575.308 485.133 575.895 485.36 576.588 485.6C577.735 486.027 578.708 486.453 579.508 486.88C580.308 487.28 580.962 487.747 581.468 488.28C582.002 488.787 582.388 489.373 582.628 490.04C582.868 490.707 582.988 491.507 582.988 492.44C582.988 494.44 582.242 495.96 580.748 497C579.282 498.013 577.175 498.52 574.428 498.52C572.588 498.52 571.108 498.36 569.988 498.04C568.868 497.747 568.082 497.507 567.628 497.32L568.468 493.28C569.188 493.573 570.042 493.853 571.028 494.12C572.042 494.387 573.188 494.52 574.468 494.52Z" fill="black"/>
<path d="M33.6 352.196C33.6 354.276 33.28 356.143 32.64 357.796C32 359.449 31.0667 360.849 29.84 361.996C28.5867 363.143 27.0667 364.023 25.28 364.636C23.4933 365.249 21.44 365.556 19.12 365.556C16.8 365.556 14.7467 365.209 12.96 364.516C11.1733 363.796 9.66667 362.823 8.44 361.596C7.18667 360.369 6.24 358.929 5.6 357.276C4.96 355.623 4.64 353.849 4.64 351.956C4.64 350.809 4.73333 349.769 4.92 348.836C5.08 347.903 5.26667 347.089 5.48 346.396C5.69333 345.703 5.92 345.129 6.16 344.676C6.4 344.223 6.57333 343.903 6.68 343.716L10.8 345.196C10.4 345.836 10.0267 346.756 9.68 347.956C9.30667 349.129 9.12 350.409 9.12 351.796C9.12 352.996 9.33333 354.116 9.76 355.156C10.16 356.196 10.7733 357.103 11.6 357.876C12.4267 358.623 13.4667 359.209 14.72 359.636C15.9733 360.063 17.4267 360.276 19.08 360.276C20.5467 360.276 21.8933 360.116 23.12 359.796C24.3467 359.449 25.4133 358.929 26.32 358.236C27.2 357.543 27.8933 356.663 28.4 355.596C28.88 354.529 29.12 353.249 29.12 351.756C29.12 349.969 28.9467 348.516 28.6 347.396C28.2267 346.276 27.88 345.409 27.56 344.796L31.68 343.436C31.8933 343.756 32.1067 344.196 32.32 344.756C32.5333 345.289 32.7467 345.929 32.96 346.676C33.1467 347.423 33.2933 348.263 33.4 349.196C33.5333 350.129 33.6 351.129 33.6 352.196ZM29.6 331.888C29.6 330.395 29.52 329.261 29.36 328.488H24C23.92 328.755 23.84 329.141 23.76 329.648C23.68 330.155 23.64 330.715 23.64 331.328C23.64 331.861 23.68 332.408 23.76 332.968C23.84 333.501 23.9867 333.995 24.2 334.448C24.4133 334.875 24.72 335.221 25.12 335.488C25.4933 335.755 25.9733 335.888 26.56 335.888C27.7067 335.888 28.5067 335.528 28.96 334.808C29.3867 334.088 29.6 333.115 29.6 331.888ZM11.56 332.288C11.56 330.688 11.76 329.341 12.16 328.248C12.56 327.155 13.12 326.288 13.84 325.648C14.56 324.981 15.44 324.515 16.48 324.248C17.4933 323.955 18.6133 323.808 19.84 323.808H32.52C32.68 324.555 32.8667 325.688 33.08 327.208C33.32 328.701 33.44 330.395 33.44 332.288C33.44 333.541 33.32 334.688 33.08 335.728C32.84 336.768 32.4533 337.661 31.92 338.408C31.3867 339.128 30.6933 339.701 29.84 340.128C28.9867 340.528 27.9333 340.728 26.68 340.728C25.48 340.728 24.4667 340.501 23.64 340.048C22.8133 339.568 22.1467 338.928 21.64 338.128C21.1067 337.328 20.7333 336.408 20.52 335.368C20.28 334.301 20.16 333.195 20.16 332.048C20.16 331.515 20.2 330.955 20.28 330.368C20.3333 329.781 20.44 329.155 20.6 328.488H19.8C19.24 328.488 18.7067 328.555 18.2 328.688C17.6933 328.821 17.2533 329.061 16.88 329.408C16.48 329.728 16.1733 330.168 15.96 330.728C15.7467 331.261 15.64 331.941 15.64 332.768C15.64 333.888 15.72 334.915 15.88 335.848C16.04 336.781 16.2267 337.541 16.44 338.128L12.52 338.728C12.3067 338.115 12.0933 337.221 11.88 336.048C11.6667 334.875 11.56 333.621 11.56 332.288ZM16.44 305.961C16.3067 306.361 16.1733 306.921 16.04 307.641C15.88 308.334 15.8 309.148 15.8 310.081C15.8 310.614 15.8533 311.188 15.96 311.801C16.0667 312.388 16.16 312.801 16.24 313.041H33V317.881H13.08C12.7333 316.948 12.4133 315.788 12.12 314.401C11.8 312.988 11.64 311.428 11.64 309.721C11.64 309.401 11.6667 309.028 11.72 308.601C11.7467 308.174 11.8 307.748 11.88 307.321C11.9333 306.894 12.0133 306.481 12.12 306.081C12.2 305.681 12.28 305.361 12.36 305.121L16.44 305.961ZM22 297.948C24.0533 297.948 25.56 297.508 26.52 296.628C27.4533 295.721 27.92 294.561 27.92 293.148C27.92 292.375 27.8133 291.655 27.6 290.988C27.3867 290.295 27.1333 289.735 26.84 289.308H16C15.92 289.655 15.8533 290.081 15.8 290.588C15.72 291.095 15.68 291.735 15.68 292.508C15.68 294.268 16.2667 295.615 17.44 296.548C18.5867 297.481 20.1067 297.948 22 297.948ZM30.88 284.468C34.2133 284.468 36.6533 285.321 38.2 287.028C39.7467 288.708 40.52 291.295 40.52 294.788C40.52 296.068 40.4133 297.321 40.2 298.548C39.9867 299.748 39.7067 300.841 39.36 301.828L35.24 300.948C35.5867 300.121 35.8667 299.188 36.08 298.148C36.2933 297.081 36.4 295.935 36.4 294.708C36.4 292.761 36 291.375 35.2 290.548C34.4 289.721 33.2133 289.308 31.64 289.308H30.84C31.08 289.788 31.32 290.428 31.56 291.228C31.8 292.001 31.92 292.895 31.92 293.908C31.92 295.241 31.7067 296.468 31.28 297.588C30.8533 298.681 30.2267 299.628 29.4 300.428C28.5733 301.201 27.5467 301.815 26.32 302.268C25.0667 302.695 23.6267 302.908 22 302.908C20.48 302.908 19.08 302.681 17.8 302.228C16.52 301.748 15.4267 301.068 14.52 300.188C13.6133 299.281 12.9067 298.188 12.4 296.908C11.8933 295.628 11.64 294.175 11.64 292.548C11.64 290.975 11.76 289.481 12 288.068C12.24 286.655 12.4933 285.455 12.76 284.468H30.88ZM29.6 270.951C29.6 269.457 29.52 268.324 29.36 267.551H24C23.92 267.817 23.84 268.204 23.76 268.711C23.68 269.217 23.64 269.777 23.64 270.391C23.64 270.924 23.68 271.471 23.76 272.031C23.84 272.564 23.9867 273.057 24.2 273.511C24.4133 273.937 24.72 274.284 25.12 274.551C25.4933 274.817 25.9733 274.951 26.56 274.951C27.7067 274.951 28.5067 274.591 28.96 273.871C29.3867 273.151 29.6 272.177 29.6 270.951ZM11.56 271.351C11.56 269.751 11.76 268.404 12.16 267.311C12.56 266.217 13.12 265.351 13.84 264.711C14.56 264.044 15.44 263.577 16.48 263.311C17.4933 263.017 18.6133 262.871 19.84 262.871H32.52C32.68 263.617 32.8667 264.751 33.08 266.271C33.32 267.764 33.44 269.457 33.44 271.351C33.44 272.604 33.32 273.751 33.08 274.791C32.84 275.831 32.4533 276.724 31.92 277.471C31.3867 278.191 30.6933 278.764 29.84 279.191C28.9867 279.591 27.9333 279.791 26.68 279.791C25.48 279.791 24.4667 279.564 23.64 279.111C22.8133 278.631 22.1467 277.991 21.64 277.191C21.1067 276.391 20.7333 275.471 20.52 274.431C20.28 273.364 20.16 272.257 20.16 271.111C20.16 270.577 20.2 270.017 20.28 269.431C20.3333 268.844 20.44 268.217 20.6 267.551H19.8C19.24 267.551 18.7067 267.617 18.2 267.751C17.6933 267.884 17.2533 268.124 16.88 268.471C16.48 268.791 16.1733 269.231 15.96 269.791C15.7467 270.324 15.64 271.004 15.64 271.831C15.64 272.951 15.72 273.977 15.88 274.911C16.04 275.844 16.2267 276.604 16.44 277.191L12.52 277.791C12.3067 277.177 12.0933 276.284 11.88 275.111C11.6667 273.937 11.56 272.684 11.56 271.351ZM29.6 240.247C29.6 238.754 29.52 237.621 29.36 236.847H24C23.92 237.114 23.84 237.501 23.76 238.007C23.68 238.514 23.64 239.074 23.64 239.687C23.64 240.221 23.68 240.767 23.76 241.327C23.84 241.861 23.9867 242.354 24.2 242.807C24.4133 243.234 24.72 243.581 25.12 243.847C25.4933 244.114 25.9733 244.247 26.56 244.247C27.7067 244.247 28.5067 243.887 28.96 243.167C29.3867 242.447 29.6 241.474 29.6 240.247ZM11.56 240.647C11.56 239.047 11.76 237.701 12.16 236.607C12.56 235.514 13.12 234.647 13.84 234.007C14.56 233.341 15.44 232.874 16.48 232.607C17.4933 232.314 18.6133 232.167 19.84 232.167H32.52C32.68 232.914 32.8667 234.047 33.08 235.567C33.32 237.061 33.44 238.754 33.44 240.647C33.44 241.901 33.32 243.047 33.08 244.087C32.84 245.127 32.4533 246.021 31.92 246.767C31.3867 247.487 30.6933 248.061 29.84 248.487C28.9867 248.887 27.9333 249.087 26.68 249.087C25.48 249.087 24.4667 248.861 23.64 248.407C22.8133 247.927 22.1467 247.287 21.64 246.487C21.1067 245.687 20.7333 244.767 20.52 243.727C20.28 242.661 20.16 241.554 20.16 240.408C20.16 239.874 20.2 239.314 20.28 238.727C20.3333 238.141 20.44 237.514 20.6 236.847H19.8C19.24 236.847 18.7067 236.914 18.2 237.047C17.6933 237.181 17.2533 237.421 16.88 237.767C16.48 238.087 16.1733 238.527 15.96 239.087C15.7467 239.621 15.64 240.301 15.64 241.127C15.64 242.247 15.72 243.274 15.88 244.207C16.04 245.141 16.2267 245.901 16.44 246.487L12.52 247.087C12.3067 246.474 12.0933 245.581 11.88 244.407C11.6667 243.234 11.56 241.981 11.56 240.647ZM33.4 218.96C33.3733 220.4 33.2133 221.6 32.92 222.56C32.6267 223.494 32.2133 224.24 31.68 224.8C31.12 225.36 30.44 225.76 29.64 226C28.8133 226.214 27.88 226.32 26.84 226.32H2.76L1.96 221.48H25.92C26.5067 221.48 27 221.44 27.4 221.36C27.8 221.254 28.1467 221.08 28.44 220.84C28.7067 220.6 28.92 220.28 29.08 219.88C29.2133 219.454 29.32 218.92 29.4 218.28L33.4 218.96ZM22.52 195.445C24.1733 195.445 25.68 195.685 27.04 196.165C28.4 196.645 29.56 197.325 30.52 198.205C31.48 199.085 32.2267 200.152 32.76 201.405C33.2933 202.632 33.56 203.992 33.56 205.485C33.56 206.979 33.2933 208.339 32.76 209.565C32.2267 210.792 31.48 211.845 30.52 212.725C29.56 213.605 28.4 214.299 27.04 214.805C25.68 215.285 24.1733 215.525 22.52 215.525C20.8667 215.525 19.3733 215.285 18.04 214.805C16.68 214.299 15.52 213.605 14.56 212.725C13.6 211.819 12.8667 210.752 12.36 209.525C11.8267 208.299 11.56 206.952 11.56 205.485C11.56 204.019 11.8267 202.672 12.36 201.445C12.8667 200.192 13.6 199.125 14.56 198.245C15.52 197.365 16.68 196.685 18.04 196.205C19.3733 195.699 20.8667 195.445 22.52 195.445ZM22.52 200.405C20.44 200.405 18.8 200.859 17.6 201.765C16.3733 202.645 15.76 203.885 15.76 205.485C15.76 207.085 16.3733 208.339 17.6 209.245C18.8 210.125 20.44 210.565 22.52 210.565C24.6267 210.565 26.2933 210.125 27.52 209.245C28.7467 208.339 29.36 207.085 29.36 205.485C29.36 203.885 28.7467 202.645 27.52 201.765C26.2933 200.859 24.6267 200.405 22.52 200.405ZM29.52 185.219C29.52 183.939 29.3733 183.006 29.08 182.419C28.76 181.832 28.2267 181.539 27.48 181.539C26.7867 181.539 26.2133 181.859 25.76 182.499C25.3067 183.112 24.8133 184.139 24.28 185.579C23.96 186.459 23.6267 187.272 23.28 188.019C22.9067 188.739 22.48 189.366 22 189.899C21.52 190.432 20.9467 190.859 20.28 191.179C19.5867 191.472 18.7467 191.619 17.76 191.619C15.84 191.619 14.3333 190.912 13.24 189.499C12.12 188.086 11.56 186.166 11.56 183.739C11.56 182.512 11.68 181.339 11.92 180.219C12.1333 179.099 12.3467 178.259 12.56 177.699L16.48 178.579C16.24 179.112 16.0267 179.792 15.84 180.619C15.6267 181.446 15.52 182.406 15.52 183.499C15.52 184.486 15.6933 185.286 16.04 185.899C16.36 186.512 16.8667 186.819 17.56 186.819C17.9067 186.819 18.2133 186.766 18.48 186.659C18.7467 186.526 19 186.312 19.24 186.019C19.4533 185.726 19.68 185.339 19.92 184.859C20.1333 184.379 20.36 183.792 20.6 183.099C21.0267 181.952 21.4533 180.979 21.88 180.179C22.28 179.379 22.7467 178.726 23.28 178.219C23.7867 177.686 24.3733 177.299 25.04 177.059C25.7067 176.819 26.5067 176.699 27.44 176.699C29.44 176.699 30.96 177.446 32 178.939C33.0133 180.406 33.52 182.512 33.52 185.259C33.52 187.099 33.36 188.579 33.04 189.699C32.7467 190.819 32.5067 191.606 32.32 192.059L28.28 191.219C28.5733 190.499 28.8533 189.646 29.12 188.659C29.3867 187.646 29.52 186.499 29.52 185.219ZM6.56 172.418L5.76 167.578H12.08L12.08 160.138H16.12V167.578H24.64C26.32 167.578 27.52 167.311 28.24 166.778C28.96 166.244 29.32 165.338 29.32 164.058C29.32 163.178 29.2267 162.404 29.04 161.738C28.8533 161.044 28.68 160.498 28.52 160.098L32.36 159.298C32.6 159.858 32.84 160.591 33.08 161.498C33.3467 162.404 33.48 163.471 33.48 164.698C33.48 166.191 33.28 167.444 32.88 168.458C32.48 169.444 31.9067 170.231 31.16 170.818C30.3867 171.404 29.4667 171.818 28.4 172.058C27.3067 172.298 26.0667 172.418 24.68 172.418H6.56ZM29.6 148.099C29.6 146.606 29.52 145.472 29.36 144.699H24C23.92 144.966 23.84 145.352 23.76 145.859C23.68 146.366 23.64 146.926 23.64 147.539C23.64 148.072 23.68 148.619 23.76 149.179C23.84 149.712 23.9867 150.206 24.2 150.659C24.4133 151.086 24.72 151.432 25.12 151.699C25.4933 151.966 25.9733 152.099 26.56 152.099C27.7067 152.099 28.5067 151.739 28.96 151.019C29.3867 150.299 29.6 149.326 29.6 148.099ZM11.56 148.499C11.56 146.899 11.76 145.552 12.16 144.459C12.56 143.366 13.12 142.499 13.84 141.859C14.56 141.192 15.44 140.726 16.48 140.459C17.4933 140.166 18.6133 140.019 19.84 140.019H32.52C32.68 140.766 32.8667 141.899 33.08 143.419C33.32 144.912 33.44 146.606 33.44 148.499C33.44 149.752 33.32 150.899 33.08 151.939C32.84 152.979 32.4533 153.872 31.92 154.619C31.3867 155.339 30.6933 155.912 29.84 156.339C28.9867 156.739 27.9333 156.939 26.68 156.939C25.48 156.939 24.4667 156.712 23.64 156.259C22.8133 155.779 22.1467 155.139 21.64 154.339C21.1067 153.539 20.7333 152.619 20.52 151.579C20.28 150.512 20.16 149.406 20.16 148.259C20.16 147.726 20.2 147.166 20.28 146.579C20.3333 145.992 20.44 145.366 20.6 144.699H19.8C19.24 144.699 18.7067 144.766 18.2 144.899C17.6933 145.032 17.2533 145.272 16.88 145.619C16.48 145.939 16.1733 146.379 15.96 146.939C15.7467 147.472 15.64 148.152 15.64 148.979C15.64 150.099 15.72 151.126 15.88 152.059C16.04 152.992 16.2267 153.752 16.44 154.339L12.52 154.939C12.3067 154.326 12.0933 153.432 11.88 152.259C11.6667 151.086 11.56 149.832 11.56 148.499ZM3.52 142.459L9.84 148.979L7.68 151.379L0.679999 145.499L3.52 142.459ZM6.56 134.332L5.76 129.492H12.08V122.052H16.12V129.492H24.64C26.32 129.492 27.52 129.225 28.24 128.692C28.96 128.159 29.32 127.252 29.32 125.972C29.32 125.092 29.2267 124.319 29.04 123.652C28.8533 122.959 28.68 122.412 28.52 122.012L32.36 121.212C32.6 121.772 32.84 122.505 33.08 123.412C33.3467 124.319 33.48 125.385 33.48 126.612C33.48 128.105 33.28 129.359 32.88 130.372C32.48 131.359 31.9067 132.145 31.16 132.732C30.3867 133.319 29.4667 133.732 28.4 133.972C27.3067 134.212 26.0667 134.332 24.68 134.332H6.56ZM33 112.493L33 117.333H12.08V112.493H33ZM5.96 111.973C6.86667 111.973 7.58667 112.266 8.12 112.853C8.65333 113.44 8.92 114.133 8.92 114.933C8.92 115.76 8.65333 116.466 8.12 117.053C7.58667 117.64 6.86667 117.933 5.96 117.933C5.02667 117.933 4.29333 117.64 3.76 117.053C3.22667 116.466 2.96 115.76 2.96 114.933C2.96 114.133 3.22667 113.44 3.76 112.853C4.29333 112.266 5.02667 111.973 5.96 111.973ZM22.56 107.478C21.0133 107.478 19.5733 107.238 18.24 106.758C16.88 106.278 15.7067 105.598 14.72 104.718C13.7333 103.812 12.96 102.718 12.4 101.438C11.84 100.158 11.56 98.7184 11.56 97.1184C11.56 95.1451 11.92 93.2784 12.64 91.5184L16.6 92.5584C16.36 93.1184 16.16 93.7584 16 94.4784C15.84 95.1718 15.76 95.9184 15.76 96.7184C15.76 98.6118 16.36 100.052 17.56 101.038C18.7333 102.025 20.4 102.518 22.56 102.518C24.64 102.518 26.2933 102.052 27.52 101.118C28.72 100.185 29.32 98.6118 29.32 96.3984C29.32 95.5718 29.24 94.7584 29.08 93.9584C28.92 93.1584 28.72 92.4651 28.48 91.8784L32.48 91.1984C32.7467 91.7318 32.9867 92.5451 33.2 93.6384C33.4133 94.7051 33.52 95.8118 33.52 96.9584C33.52 98.7451 33.2533 100.305 32.72 101.638C32.16 102.945 31.4 104.038 30.44 104.918C29.4533 105.772 28.2933 106.412 26.96 106.838C25.6 107.265 24.1333 107.478 22.56 107.478ZM29.6 80.0912C29.6 78.5979 29.52 77.4646 29.36 76.6912H24C23.92 76.9579 23.84 77.3446 23.76 77.8512C23.68 78.3579 23.64 78.9179 23.64 79.5312C23.64 80.0646 23.68 80.6112 23.76 81.1712C23.84 81.7046 23.9867 82.1979 24.2 82.6512C24.4133 83.0779 24.72 83.4246 25.12 83.6912C25.4933 83.9579 25.9733 84.0912 26.56 84.0912C27.7067 84.0912 28.5067 83.7312 28.96 83.0112C29.3867 82.2912 29.6 81.3179 29.6 80.0912ZM11.56 80.4912C11.56 78.8912 11.76 77.5446 12.16 76.4512C12.56 75.3579 13.12 74.4912 13.84 73.8512C14.56 73.1846 15.44 72.7179 16.48 72.4512C17.4933 72.1579 18.6133 72.0112 19.84 72.0112H32.52C32.68 72.7579 32.8667 73.8912 33.08 75.4112C33.32 76.9046 33.44 78.5979 33.44 80.4912C33.44 81.7446 33.32 82.8912 33.08 83.9312C32.84 84.9712 32.4533 85.8646 31.92 86.6112C31.3867 87.3312 30.6933 87.9046 29.84 88.3312C28.9867 88.7312 27.9333 88.9312 26.68 88.9312C25.48 88.9312 24.4667 88.7046 23.64 88.2512C22.8133 87.7712 22.1467 87.1312 21.64 86.3312C21.1067 85.5312 20.7333 84.6112 20.52 83.5712C20.28 82.5046 20.16 81.3979 20.16 80.2513C20.16 79.7179 20.2 79.1579 20.28 78.5712C20.3333 77.9846 20.44 77.3579 20.6 76.6912H19.8C19.24 76.6912 18.7067 76.7579 18.2 76.8912C17.6933 77.0246 17.2533 77.2646 16.88 77.6112C16.48 77.9312 16.1733 78.3712 15.96 78.9312C15.7467 79.4646 15.64 80.1446 15.64 80.9712C15.64 82.0912 15.72 83.1179 15.88 84.0512C16.04 84.9846 16.2267 85.7446 16.44 86.3312L12.52 86.9312C12.3067 86.3179 12.0933 85.4246 11.88 84.2512C11.6667 83.0779 11.56 81.8246 11.56 80.4912Z" fill="black"/>
<g filter="url(#filter2_d_652_147)">
<path d="M108.935 369.183C176.459 164.575 217.332 537.068 282.493 294.54" stroke="#219653" stroke-width="10"/>
<path d="M282.869 294.137C350.394 89.5287 391.266 462.022 456.428 219.494" stroke="#219653" stroke-width="10"/>
<path d="M454.857 223.685C528.736 5.04945 667 347 809 313.5" stroke="#219653" stroke-width="10"/>
</g>
<g filter="url(#filter3_d_652_147)">
<path d="M105.935 369.5C173.459 164.892 214.332 537.385 279.493 294.857" stroke="#EB5757" stroke-width="10"/>
<path d="M278.869 296.454C346.394 91.8456 387.266 464.339 452.428 221.811" stroke="#EB5757" stroke-width="10"/>
<path d="M451.869 223.454C519.394 18.8456 560.266 391.339 625.428 148.811" stroke="#EB5757" stroke-width="10"/>
<path d="M624.869 149.454C692.394 -55.1544 733.266 317.339 798.428 74.8107" stroke="#EB5757" stroke-width="10"/>
</g>
<path d="M129 75.4C129.427 75.9333 129.96 76.64 130.6 77.52C131.267 78.3733 131.947 79.3333 132.64 80.4C133.333 81.44 134.013 82.5333 134.68 83.68C135.373 84.8267 135.96 85.9333 136.44 87H132.2C131.667 85.9867 131.08 84.96 130.44 83.92C129.827 82.88 129.2 81.8933 128.56 80.96C127.92 80 127.28 79.1067 126.64 78.28C126.027 77.4533 125.467 76.7333 124.96 76.12C124.613 76.1467 124.253 76.16 123.88 76.16C123.533 76.16 123.173 76.16 122.8 76.16H119.32V87H115.44V59.68C116.533 59.4133 117.747 59.24 119.08 59.16C120.44 59.0533 121.68 59 122.8 59C126.693 59 129.653 59.7333 131.68 61.2C133.733 62.6667 134.76 64.8533 134.76 67.76C134.76 69.6 134.267 71.1733 133.28 72.48C132.32 73.7867 130.893 74.76 129 75.4ZM123.12 62.4C121.467 62.4 120.2 62.44 119.32 62.52V72.96H122.08C123.413 72.96 124.613 72.8933 125.68 72.76C126.747 72.6267 127.64 72.3733 128.36 72C129.107 71.6267 129.68 71.1067 130.08 70.44C130.48 69.7467 130.68 68.84 130.68 67.72C130.68 66.68 130.48 65.8133 130.08 65.12C129.68 64.4267 129.133 63.88 128.44 63.48C127.773 63.08 126.973 62.8 126.04 62.64C125.133 62.48 124.16 62.4 123.12 62.4ZM144.076 87H140.356V66.2H144.076V87ZM142.196 62.44C141.53 62.44 140.956 62.2267 140.476 61.8C140.023 61.3467 139.796 60.7467 139.796 60C139.796 59.2533 140.023 58.6667 140.476 58.24C140.956 57.7867 141.53 57.56 142.196 57.56C142.863 57.56 143.423 57.7867 143.876 58.24C144.356 58.6667 144.596 59.2533 144.596 60C144.596 60.7467 144.356 61.3467 143.876 61.8C143.423 62.2267 142.863 62.44 142.196 62.44ZM149.313 76.64C149.313 74.8 149.58 73.2 150.113 71.84C150.647 70.4533 151.353 69.3067 152.233 68.4C153.113 67.4933 154.127 66.8133 155.273 66.36C156.42 65.9067 157.593 65.68 158.793 65.68C161.593 65.68 163.74 66.56 165.233 68.32C166.727 70.0533 167.473 72.7067 167.473 76.28C167.473 76.44 167.473 76.6533 167.473 76.92C167.473 77.16 167.46 77.3867 167.433 77.6H153.193C153.353 79.76 153.98 81.4 155.073 82.52C156.167 83.64 157.873 84.2 160.193 84.2C161.5 84.2 162.593 84.0933 163.473 83.88C164.38 83.64 165.06 83.4133 165.513 83.2L166.033 86.32C165.58 86.56 164.78 86.8133 163.633 87.08C162.513 87.3467 161.233 87.48 159.793 87.48C157.98 87.48 156.407 87.2133 155.073 86.68C153.767 86.12 152.687 85.36 151.833 84.4C150.98 83.44 150.34 82.3067 149.913 81C149.513 79.6667 149.313 78.2133 149.313 76.64ZM163.593 74.6C163.62 72.92 163.193 71.5467 162.313 70.48C161.46 69.3867 160.273 68.84 158.753 68.84C157.9 68.84 157.14 69.0133 156.473 69.36C155.833 69.68 155.287 70.1067 154.833 70.64C154.38 71.1733 154.02 71.7867 153.753 72.48C153.513 73.1733 153.353 73.88 153.273 74.6H163.593ZM177.657 84.32C179.177 84.32 180.297 84.12 181.017 83.72C181.764 83.32 182.137 82.68 182.137 81.8C182.137 80.8933 181.777 80.1733 181.057 79.64C180.337 79.1067 179.151 78.5067 177.497 77.84C176.697 77.52 175.924 77.2 175.177 76.88C174.457 76.5333 173.831 76.1333 173.297 75.68C172.764 75.2267 172.337 74.68 172.017 74.04C171.697 73.4 171.537 72.6133 171.537 71.68C171.537 69.84 172.217 68.3867 173.577 67.32C174.937 66.2267 176.791 65.68 179.137 65.68C179.724 65.68 180.311 65.72 180.897 65.8C181.484 65.8533 182.031 65.9333 182.537 66.04C183.044 66.12 183.484 66.2133 183.857 66.32C184.257 66.4267 184.564 66.52 184.777 66.6L184.097 69.8C183.697 69.5867 183.071 69.3733 182.217 69.16C181.364 68.92 180.337 68.8 179.137 68.8C178.097 68.8 177.191 69.0133 176.417 69.44C175.644 69.84 175.257 70.48 175.257 71.36C175.257 71.8133 175.337 72.2133 175.497 72.56C175.684 72.9067 175.951 73.2267 176.297 73.52C176.671 73.7867 177.124 74.04 177.657 74.28C178.191 74.52 178.831 74.7733 179.577 75.04C180.564 75.4133 181.444 75.7867 182.217 76.16C182.991 76.5067 183.644 76.92 184.177 77.4C184.737 77.88 185.164 78.4667 185.457 79.16C185.751 79.8267 185.897 80.6533 185.897 81.64C185.897 83.56 185.177 85.0133 183.737 86C182.324 86.9867 180.297 87.48 177.657 87.48C175.817 87.48 174.377 87.32 173.337 87C172.297 86.7067 171.591 86.48 171.217 86.32L171.897 83.12C172.324 83.28 173.004 83.52 173.937 83.84C174.871 84.16 176.111 84.32 177.657 84.32ZM203.709 84.92C203.389 85.1333 202.762 85.4133 201.829 85.76C200.922 86.08 199.855 86.24 198.629 86.24C197.375 86.24 196.189 86.04 195.069 85.64C193.975 85.24 193.015 84.6267 192.189 83.8C191.362 82.9467 190.709 81.8933 190.229 80.64C189.749 79.3867 189.509 77.8933 189.509 76.16C189.509 74.64 189.735 73.2533 190.189 72C190.642 70.72 191.295 69.6267 192.149 68.72C193.029 67.7867 194.095 67.0667 195.349 66.56C196.602 66.0267 198.015 65.76 199.589 65.76C201.322 65.76 202.829 65.8933 204.109 66.16C205.415 66.4 206.509 66.6267 207.389 66.84V85.4C207.389 88.6 206.562 90.92 204.909 92.36C203.255 93.8 200.749 94.52 197.389 94.52C196.082 94.52 194.842 94.4133 193.669 94.2C192.522 93.9867 191.522 93.7333 190.669 93.44L191.349 90.2C192.095 90.4933 193.002 90.7467 194.069 90.96C195.162 91.2 196.295 91.32 197.469 91.32C199.682 91.32 201.269 90.88 202.229 90C203.215 89.12 203.709 87.72 203.709 85.8V84.92ZM203.669 69.48C203.295 69.3733 202.789 69.28 202.149 69.2C201.535 69.0933 200.695 69.04 199.629 69.04C197.629 69.04 196.082 69.6933 194.989 71C193.922 72.3067 193.389 74.04 193.389 76.2C193.389 77.4 193.535 78.4267 193.829 79.28C194.149 80.1333 194.562 80.84 195.069 81.4C195.602 81.96 196.202 82.3733 196.869 82.64C197.562 82.9067 198.269 83.04 198.989 83.04C199.975 83.04 200.882 82.9067 201.709 82.64C202.535 82.3467 203.189 82.0133 203.669 81.64V69.48ZM232.154 76.6C232.154 78.2533 231.914 79.7467 231.434 81.08C230.954 82.4133 230.274 83.56 229.394 84.52C228.54 85.48 227.514 86.2267 226.314 86.76C225.114 87.2667 223.807 87.52 222.394 87.52C220.98 87.52 219.674 87.2667 218.474 86.76C217.274 86.2267 216.234 85.48 215.354 84.52C214.5 83.56 213.834 82.4133 213.354 81.08C212.874 79.7467 212.634 78.2533 212.634 76.6C212.634 74.9733 212.874 73.4933 213.354 72.16C213.834 70.8 214.5 69.64 215.354 68.68C216.234 67.72 217.274 66.9867 218.474 66.48C219.674 65.9467 220.98 65.68 222.394 65.68C223.807 65.68 225.114 65.9467 226.314 66.48C227.514 66.9867 228.54 67.72 229.394 68.68C230.274 69.64 230.954 70.8 231.434 72.16C231.914 73.4933 232.154 74.9733 232.154 76.6ZM228.274 76.6C228.274 74.2533 227.74 72.4 226.674 71.04C225.634 69.6533 224.207 68.96 222.394 68.96C220.58 68.96 219.14 69.6533 218.074 71.04C217.034 72.4 216.514 74.2533 216.514 76.6C216.514 78.9467 217.034 80.8133 218.074 82.2C219.14 83.56 220.58 84.24 222.394 84.24C224.207 84.24 225.634 83.56 226.674 82.2C227.74 80.8133 228.274 78.9467 228.274 76.6ZM261.085 76.64C261.085 74.2133 260.485 72.3467 259.285 71.04C258.085 69.7333 256.485 69.08 254.485 69.08C253.365 69.08 252.485 69.12 251.845 69.2C251.232 69.28 250.739 69.3733 250.365 69.48V82.6C250.819 82.9733 251.472 83.3333 252.325 83.68C253.179 84.0267 254.112 84.2 255.125 84.2C256.192 84.2 257.099 84.0133 257.845 83.64C258.619 83.24 259.245 82.7067 259.725 82.04C260.205 81.3467 260.552 80.5467 260.765 79.64C260.979 78.7067 261.085 77.7067 261.085 76.64ZM264.965 76.64C264.965 78.2133 264.752 79.6667 264.325 81C263.925 82.3333 263.325 83.48 262.525 84.44C261.725 85.4 260.739 86.1467 259.565 86.68C258.419 87.2133 257.099 87.48 255.605 87.48C254.405 87.48 253.339 87.32 252.405 87C251.499 86.68 250.819 86.3733 250.365 86.08V94.4H246.645V66.84C247.525 66.6267 248.619 66.4 249.925 66.16C251.259 65.8933 252.792 65.76 254.525 65.76C256.125 65.76 257.565 66.0133 258.845 66.52C260.125 67.0267 261.219 67.7467 262.125 68.68C263.032 69.6133 263.725 70.76 264.205 72.12C264.712 73.4533 264.965 74.96 264.965 76.64ZM277.24 84.32C278.12 84.32 278.893 84.3067 279.56 84.28C280.253 84.2267 280.827 84.1467 281.28 84.04V77.84C281.013 77.7067 280.573 77.6 279.96 77.52C279.373 77.4133 278.653 77.36 277.8 77.36C277.24 77.36 276.64 77.4 276 77.48C275.387 77.56 274.813 77.7333 274.28 78C273.773 78.24 273.347 78.5867 273 79.04C272.653 79.4667 272.48 80.04 272.48 80.76C272.48 82.0933 272.907 83.0267 273.76 83.56C274.613 84.0667 275.773 84.32 277.24 84.32ZM276.92 65.68C278.413 65.68 279.667 65.88 280.68 66.28C281.72 66.6533 282.547 67.2 283.16 67.92C283.8 68.6133 284.253 69.4533 284.52 70.44C284.787 71.4 284.92 72.4667 284.92 73.64V86.64C284.6 86.6933 284.147 86.7733 283.56 86.88C283 86.96 282.36 87.04 281.64 87.12C280.92 87.2 280.133 87.2667 279.28 87.32C278.453 87.4 277.627 87.44 276.8 87.44C275.627 87.44 274.547 87.32 273.56 87.08C272.573 86.84 271.72 86.4667 271 85.96C270.28 85.4267 269.72 84.7333 269.32 83.88C268.92 83.0267 268.72 82 268.72 80.8C268.72 79.6533 268.947 78.6667 269.4 77.84C269.88 77.0133 270.52 76.3467 271.32 75.84C272.12 75.3333 273.053 74.96 274.12 74.72C275.187 74.48 276.307 74.36 277.48 74.36C277.853 74.36 278.24 74.3867 278.64 74.44C279.04 74.4667 279.413 74.52 279.76 74.6C280.133 74.6533 280.453 74.7067 280.72 74.76C280.987 74.8133 281.173 74.8533 281.28 74.88V73.84C281.28 73.2267 281.213 72.6267 281.08 72.04C280.947 71.4267 280.707 70.8933 280.36 70.44C280.013 69.96 279.533 69.5867 278.92 69.32C278.333 69.0267 277.56 68.88 276.6 68.88C275.373 68.88 274.293 68.9733 273.36 69.16C272.453 69.32 271.773 69.4933 271.32 69.68L270.88 66.6C271.36 66.3867 272.16 66.1867 273.28 66C274.4 65.7867 275.613 65.68 276.92 65.68ZM298.778 65.76C299.098 65.76 299.458 65.7867 299.858 65.84C300.285 65.8667 300.698 65.92 301.098 66C301.498 66.0533 301.858 66.12 302.178 66.2C302.525 66.2533 302.778 66.3067 302.938 66.36L302.298 69.6C302.005 69.4933 301.512 69.3733 300.818 69.24C300.152 69.08 299.285 69 298.218 69C297.525 69 296.832 69.08 296.138 69.24C295.472 69.3733 295.032 69.4667 294.818 69.52V87H291.098V67.08C291.978 66.76 293.072 66.4667 294.378 66.2C295.685 65.9067 297.152 65.76 298.778 65.76ZM313.568 84.32C314.448 84.32 315.221 84.3067 315.888 84.28C316.581 84.2267 317.155 84.1467 317.608 84.04V77.84C317.341 77.7067 316.901 77.6 316.288 77.52C315.701 77.4133 314.981 77.36 314.128 77.36C313.568 77.36 312.968 77.4 312.328 77.48C311.715 77.56 311.141 77.7333 310.608 78C310.101 78.24 309.675 78.5867 309.328 79.04C308.981 79.4667 308.808 80.04 308.808 80.76C308.808 82.0933 309.235 83.0267 310.088 83.56C310.941 84.0667 312.101 84.32 313.568 84.32ZM313.248 65.68C314.741 65.68 315.995 65.88 317.008 66.28C318.048 66.6533 318.875 67.2 319.488 67.92C320.128 68.6133 320.581 69.4533 320.848 70.44C321.115 71.4 321.248 72.4667 321.248 73.64V86.64C320.928 86.6933 320.475 86.7733 319.888 86.88C319.328 86.96 318.688 87.04 317.968 87.12C317.248 87.2 316.461 87.2667 315.608 87.32C314.781 87.4 313.955 87.44 313.128 87.44C311.955 87.44 310.875 87.32 309.888 87.08C308.901 86.84 308.048 86.4667 307.328 85.96C306.608 85.4267 306.048 84.7333 305.648 83.88C305.248 83.0267 305.048 82 305.048 80.8C305.048 79.6533 305.275 78.6667 305.728 77.84C306.208 77.0133 306.848 76.3467 307.648 75.84C308.448 75.3333 309.381 74.96 310.448 74.72C311.515 74.48 312.635 74.36 313.808 74.36C314.181 74.36 314.568 74.3867 314.968 74.44C315.368 74.4667 315.741 74.52 316.088 74.6C316.461 74.6533 316.781 74.7067 317.048 74.76C317.315 74.8133 317.501 74.8533 317.608 74.88V73.84C317.608 73.2267 317.541 72.6267 317.408 72.04C317.275 71.4267 317.035 70.8933 316.688 70.44C316.341 69.96 315.861 69.5867 315.248 69.32C314.661 69.0267 313.888 68.88 312.928 68.88C311.701 68.88 310.621 68.9733 309.688 69.16C308.781 69.32 308.101 69.4933 307.648 69.68L307.208 66.6C307.688 66.3867 308.488 66.1867 309.608 66C310.728 65.7867 311.941 65.68 313.248 65.68ZM342.924 87.4C340.631 87.3467 339.004 86.8533 338.044 85.92C337.084 84.9867 336.604 83.5333 336.604 81.56V56.6L340.324 55.96V80.96C340.324 81.5733 340.378 82.08 340.484 82.48C340.591 82.88 340.764 83.2 341.004 83.44C341.244 83.68 341.564 83.8667 341.964 84C342.364 84.1067 342.858 84.2 343.444 84.28L342.924 87.4ZM354.662 84.32C355.542 84.32 356.315 84.3067 356.982 84.28C357.675 84.2267 358.249 84.1467 358.702 84.04V77.84C358.435 77.7067 357.995 77.6 357.382 77.52C356.795 77.4133 356.075 77.36 355.222 77.36C354.662 77.36 354.062 77.4 353.422 77.48C352.809 77.56 352.235 77.7333 351.702 78C351.195 78.24 350.769 78.5867 350.422 79.04C350.075 79.4667 349.902 80.04 349.902 80.76C349.902 82.0933 350.329 83.0267 351.182 83.56C352.035 84.0667 353.195 84.32 354.662 84.32ZM354.342 65.68C355.835 65.68 357.089 65.88 358.102 66.28C359.142 66.6533 359.969 67.2 360.582 67.92C361.222 68.6133 361.675 69.4533 361.942 70.44C362.209 71.4 362.342 72.4667 362.342 73.64V86.64C362.022 86.6933 361.569 86.7733 360.982 86.88C360.422 86.96 359.782 87.04 359.062 87.12C358.342 87.2 357.555 87.2667 356.702 87.32C355.875 87.4 355.049 87.44 354.222 87.44C353.049 87.44 351.969 87.32 350.982 87.08C349.995 86.84 349.142 86.4667 348.422 85.96C347.702 85.4267 347.142 84.7333 346.742 83.88C346.342 83.0267 346.142 82 346.142 80.8C346.142 79.6533 346.369 78.6667 346.822 77.84C347.302 77.0133 347.942 76.3467 348.742 75.84C349.542 75.3333 350.475 74.96 351.542 74.72C352.609 74.48 353.729 74.36 354.902 74.36C355.275 74.36 355.662 74.3867 356.062 74.44C356.462 74.4667 356.835 74.52 357.182 74.6C357.555 74.6533 357.875 74.7067 358.142 74.76C358.409 74.8133 358.595 74.8533 358.702 74.88V73.84C358.702 73.2267 358.635 72.6267 358.502 72.04C358.369 71.4267 358.129 70.8933 357.782 70.44C357.435 69.96 356.955 69.5867 356.342 69.32C355.755 69.0267 354.982 68.88 354.022 68.88C352.795 68.88 351.715 68.9733 350.782 69.16C349.875 69.32 349.195 69.4933 348.742 69.68L348.302 66.6C348.782 66.3867 349.582 66.1867 350.702 66C351.822 65.7867 353.035 65.68 354.342 65.68ZM382.618 84.32C384.138 84.32 385.258 84.12 385.978 83.72C386.725 83.32 387.098 82.68 387.098 81.8C387.098 80.8933 386.738 80.1733 386.018 79.64C385.298 79.1067 384.111 78.5067 382.458 77.84C381.658 77.52 380.885 77.2 380.138 76.88C379.418 76.5333 378.791 76.1333 378.258 75.68C377.725 75.2267 377.298 74.68 376.978 74.04C376.658 73.4 376.498 72.6133 376.498 71.68C376.498 69.84 377.178 68.3867 378.538 67.32C379.898 66.2267 381.751 65.68 384.098 65.68C384.685 65.68 385.271 65.72 385.858 65.8C386.445 65.8533 386.991 65.9333 387.498 66.04C388.005 66.12 388.445 66.2133 388.818 66.32C389.218 66.4267 389.525 66.52 389.738 66.6L389.058 69.8C388.658 69.5867 388.031 69.3733 387.178 69.16C386.325 68.92 385.298 68.8 384.098 68.8C383.058 68.8 382.151 69.0133 381.378 69.44C380.605 69.84 380.218 70.48 380.218 71.36C380.218 71.8133 380.298 72.2133 380.458 72.56C380.645 72.9067 380.911 73.2267 381.258 73.52C381.631 73.7867 382.085 74.04 382.618 74.28C383.151 74.52 383.791 74.7733 384.538 75.04C385.525 75.4133 386.405 75.7867 387.178 76.16C387.951 76.5067 388.605 76.92 389.138 77.4C389.698 77.88 390.125 78.4667 390.418 79.16C390.711 79.8267 390.858 80.6533 390.858 81.64C390.858 83.56 390.138 85.0133 388.698 86C387.285 86.9867 385.258 87.48 382.618 87.48C380.778 87.48 379.338 87.32 378.298 87C377.258 86.7067 376.551 86.48 376.178 86.32L376.858 83.12C377.285 83.28 377.965 83.52 378.898 83.84C379.831 84.16 381.071 84.32 382.618 84.32ZM402.67 84.32C403.55 84.32 404.323 84.3067 404.99 84.28C405.683 84.2267 406.256 84.1467 406.71 84.04V77.84C406.443 77.7067 406.003 77.6 405.39 77.52C404.803 77.4133 404.083 77.36 403.23 77.36C402.67 77.36 402.07 77.4 401.43 77.48C400.816 77.56 400.243 77.7333 399.71 78C399.203 78.24 398.776 78.5867 398.43 79.04C398.083 79.4667 397.91 80.04 397.91 80.76C397.91 82.0933 398.336 83.0267 399.19 83.56C400.043 84.0667 401.203 84.32 402.67 84.32ZM402.35 65.68C403.843 65.68 405.096 65.88 406.11 66.28C407.15 66.6533 407.976 67.2 408.59 67.92C409.23 68.6133 409.683 69.4533 409.95 70.44C410.216 71.4 410.35 72.4667 410.35 73.64V86.64C410.03 86.6933 409.576 86.7733 408.99 86.88C408.43 86.96 407.79 87.04 407.07 87.12C406.35 87.2 405.563 87.2667 404.71 87.32C403.883 87.4 403.056 87.44 402.23 87.44C401.056 87.44 399.976 87.32 398.99 87.08C398.003 86.84 397.15 86.4667 396.43 85.96C395.71 85.4267 395.15 84.7333 394.75 83.88C394.35 83.0267 394.15 82 394.15 80.8C394.15 79.6533 394.376 78.6667 394.83 77.84C395.31 77.0133 395.95 76.3467 396.75 75.84C397.55 75.3333 398.483 74.96 399.55 74.72C400.616 74.48 401.736 74.36 402.91 74.36C403.283 74.36 403.67 74.3867 404.07 74.44C404.47 74.4667 404.843 74.52 405.19 74.6C405.563 74.6533 405.883 74.7067 406.15 74.76C406.416 74.8133 406.603 74.8533 406.71 74.88V73.84C406.71 73.2267 406.643 72.6267 406.51 72.04C406.376 71.4267 406.136 70.8933 405.79 70.44C405.443 69.96 404.963 69.5867 404.35 69.32C403.763 69.0267 402.99 68.88 402.03 68.88C400.803 68.88 399.723 68.9733 398.79 69.16C397.883 69.32 397.203 69.4933 396.75 69.68L396.31 66.6C396.79 66.3867 397.59 66.1867 398.71 66C399.83 65.7867 401.043 65.68 402.35 65.68ZM422.768 87.4C420.475 87.3467 418.848 86.8533 417.888 85.92C416.928 84.9867 416.448 83.5333 416.448 81.56V56.6L420.168 55.96V80.96C420.168 81.5733 420.221 82.08 420.328 82.48C420.435 82.88 420.608 83.2 420.848 83.44C421.088 83.68 421.408 83.8667 421.808 84C422.208 84.1067 422.701 84.2 423.288 84.28L422.768 87.4ZM444.026 86.4C443.172 86.6133 442.039 86.84 440.626 87.08C439.239 87.32 437.626 87.44 435.786 87.44C434.186 87.44 432.839 87.2133 431.746 86.76C430.652 86.28 429.772 85.6133 429.106 84.76C428.439 83.9067 427.959 82.9067 427.666 81.76C427.372 80.5867 427.226 79.2933 427.226 77.88V66.2H430.946V77.08C430.946 79.6133 431.346 81.4267 432.146 82.52C432.946 83.6133 434.292 84.16 436.186 84.16C436.586 84.16 436.999 84.1467 437.426 84.12C437.852 84.0933 438.252 84.0667 438.626 84.04C438.999 83.9867 439.332 83.9467 439.626 83.92C439.946 83.8667 440.172 83.8133 440.306 83.76V66.2H444.026V86.4ZM463.874 70.6C463.421 70.2267 462.768 69.8667 461.914 69.52C461.061 69.1733 460.128 69 459.114 69C458.048 69 457.128 69.2 456.354 69.6C455.608 69.9733 454.994 70.5067 454.514 71.2C454.034 71.8667 453.688 72.6667 453.474 73.6C453.261 74.5333 453.154 75.5333 453.154 76.6C453.154 79.0267 453.754 80.9067 454.954 82.24C456.154 83.5467 457.754 84.2 459.754 84.2C460.768 84.2 461.608 84.16 462.274 84.08C462.968 83.9733 463.501 83.8667 463.874 83.76V70.6ZM463.874 56.6L467.594 55.96V86.4C466.741 86.64 465.648 86.88 464.314 87.12C462.981 87.36 461.448 87.48 459.714 87.48C458.114 87.48 456.674 87.2267 455.394 86.72C454.114 86.2133 453.021 85.4933 452.114 84.56C451.208 83.6267 450.501 82.4933 449.994 81.16C449.514 79.8 449.274 78.28 449.274 76.6C449.274 75 449.474 73.5333 449.874 72.2C450.301 70.8667 450.914 69.72 451.714 68.76C452.514 67.8 453.488 67.0533 454.634 66.52C455.808 65.9867 457.141 65.72 458.634 65.72C459.834 65.72 460.888 65.88 461.794 66.2C462.728 66.52 463.421 66.8267 463.874 67.12V56.6Z" fill="white"/>
<path d="M124.528 108.368H126.856V125H124.528V117.32H116.392V125H114.064V108.368H116.392V115.304H124.528V108.368ZM133.074 125H130.842V112.52H133.074V125ZM131.946 110.264C131.546 110.264 131.202 110.136 130.914 109.88C130.642 109.608 130.506 109.248 130.506 108.8C130.506 108.352 130.642 108 130.914 107.744C131.202 107.472 131.546 107.336 131.946 107.336C132.346 107.336 132.682 107.472 132.954 107.744C133.242 108 133.386 108.352 133.386 108.8C133.386 109.248 133.242 109.608 132.954 109.88C132.682 110.136 132.346 110.264 131.946 110.264ZM145.576 118.784C145.576 117.328 145.216 116.208 144.496 115.424C143.776 114.64 142.816 114.248 141.616 114.248C140.944 114.248 140.416 114.272 140.032 114.32C139.664 114.368 139.368 114.424 139.144 114.488V122.36C139.416 122.584 139.808 122.8 140.32 123.008C140.832 123.216 141.392 123.32 142 123.32C142.64 123.32 143.184 123.208 143.632 122.984C144.096 122.744 144.472 122.424 144.76 122.024C145.048 121.608 145.256 121.128 145.384 120.584C145.512 120.024 145.576 119.424 145.576 118.784ZM147.904 118.784C147.904 119.728 147.776 120.6 147.52 121.4C147.28 122.2 146.92 122.888 146.44 123.464C145.96 124.04 145.368 124.488 144.664 124.808C143.976 125.128 143.184 125.288 142.288 125.288C141.568 125.288 140.928 125.192 140.368 125C139.824 124.808 139.416 124.624 139.144 124.448V129.44H136.912V112.904C137.44 112.776 138.096 112.64 138.88 112.496C139.68 112.336 140.6 112.256 141.64 112.256C142.6 112.256 143.464 112.408 144.232 112.712C145 113.016 145.656 113.448 146.2 114.008C146.744 114.568 147.16 115.256 147.448 116.072C147.752 116.872 147.904 117.776 147.904 118.784ZM150.349 118.784C150.349 117.68 150.509 116.72 150.829 115.904C151.149 115.072 151.573 114.384 152.101 113.84C152.629 113.296 153.237 112.888 153.925 112.616C154.613 112.344 155.317 112.208 156.037 112.208C157.717 112.208 159.005 112.736 159.901 113.792C160.797 114.832 161.245 116.424 161.245 118.568C161.245 118.664 161.245 118.792 161.245 118.952C161.245 119.096 161.237 119.232 161.221 119.36H152.677C152.773 120.656 153.149 121.64 153.805 122.312C154.461 122.984 155.485 123.32 156.877 123.32C157.661 123.32 158.317 123.256 158.845 123.128C159.389 122.984 159.797 122.848 160.069 122.72L160.381 124.592C160.109 124.736 159.629 124.888 158.941 125.048C158.269 125.208 157.501 125.288 156.637 125.288C155.549 125.288 154.605 125.128 153.805 124.808C153.021 124.472 152.373 124.016 151.861 123.44C151.349 122.864 150.965 122.184 150.709 121.4C150.469 120.6 150.349 119.728 150.349 118.784ZM158.917 117.56C158.933 116.552 158.677 115.728 158.149 115.088C157.637 114.432 156.925 114.104 156.013 114.104C155.501 114.104 155.045 114.208 154.645 114.416C154.261 114.608 153.933 114.864 153.661 115.184C153.389 115.504 153.173 115.872 153.013 116.288C152.869 116.704 152.773 117.128 152.725 117.56H158.917ZM169.059 112.256C169.251 112.256 169.467 112.272 169.707 112.304C169.963 112.32 170.211 112.352 170.451 112.4C170.691 112.432 170.907 112.472 171.099 112.52C171.307 112.552 171.459 112.584 171.555 112.616L171.171 114.56C170.995 114.496 170.699 114.424 170.283 114.344C169.883 114.248 169.363 114.2 168.723 114.2C168.307 114.2 167.891 114.248 167.475 114.344C167.075 114.424 166.811 114.48 166.683 114.512V125H164.451V113.048C164.979 112.856 165.635 112.68 166.419 112.52C167.203 112.344 168.083 112.256 169.059 112.256ZM179.133 125.288C178.125 125.288 177.237 125.128 176.469 124.808C175.717 124.488 175.077 124.04 174.549 123.464C174.037 122.888 173.653 122.208 173.397 121.424C173.141 120.624 173.013 119.744 173.013 118.784C173.013 117.824 173.149 116.944 173.421 116.144C173.709 115.344 174.109 114.656 174.621 114.08C175.133 113.488 175.757 113.032 176.493 112.712C177.245 112.376 178.077 112.208 178.989 112.208C179.549 112.208 180.109 112.256 180.669 112.352C181.229 112.448 181.765 112.6 182.277 112.808L181.773 114.704C181.437 114.544 181.045 114.416 180.597 114.32C180.165 114.224 179.701 114.176 179.205 114.176C177.957 114.176 176.997 114.568 176.325 115.352C175.669 116.136 175.341 117.28 175.341 118.784C175.341 119.456 175.413 120.072 175.557 120.632C175.717 121.192 175.957 121.672 176.277 122.072C176.613 122.472 177.037 122.784 177.549 123.008C178.061 123.216 178.685 123.32 179.421 123.32C180.013 123.32 180.549 123.264 181.029 123.152C181.509 123.04 181.885 122.92 182.157 122.792L182.469 124.664C182.341 124.744 182.157 124.824 181.917 124.904C181.677 124.968 181.405 125.024 181.101 125.072C180.797 125.136 180.469 125.184 180.117 125.216C179.781 125.264 179.453 125.288 179.133 125.288ZM195.577 118.76C195.577 119.752 195.433 120.648 195.145 121.448C194.857 122.248 194.449 122.936 193.921 123.512C193.409 124.088 192.793 124.536 192.073 124.856C191.353 125.16 190.569 125.312 189.721 125.312C188.873 125.312 188.089 125.16 187.369 124.856C186.649 124.536 186.025 124.088 185.497 123.512C184.985 122.936 184.585 122.248 184.297 121.448C184.009 120.648 183.865 119.752 183.865 118.76C183.865 117.784 184.009 116.896 184.297 116.096C184.585 115.28 184.985 114.584 185.497 114.008C186.025 113.432 186.649 112.992 187.369 112.688C188.089 112.368 188.873 112.208 189.721 112.208C190.569 112.208 191.353 112.368 192.073 112.688C192.793 112.992 193.409 113.432 193.921 114.008C194.449 114.584 194.857 115.28 195.145 116.096C195.433 116.896 195.577 117.784 195.577 118.76ZM193.249 118.76C193.249 117.352 192.929 116.24 192.289 115.424C191.665 114.592 190.809 114.176 189.721 114.176C188.633 114.176 187.769 114.592 187.129 115.424C186.505 116.24 186.193 117.352 186.193 118.76C186.193 120.168 186.505 121.288 187.129 122.12C187.769 122.936 188.633 123.344 189.721 123.344C190.809 123.344 191.665 122.936 192.289 122.12C192.929 121.288 193.249 120.168 193.249 118.76ZM203.325 112.256C203.517 112.256 203.733 112.272 203.973 112.304C204.229 112.32 204.477 112.352 204.717 112.4C204.957 112.432 205.173 112.472 205.365 112.52C205.573 112.552 205.725 112.584 205.821 112.616L205.437 114.56C205.261 114.496 204.965 114.424 204.549 114.344C204.149 114.248 203.629 114.2 202.989 114.2C202.573 114.2 202.157 114.248 201.741 114.344C201.341 114.424 201.077 114.48 200.949 114.512V125H198.717V113.048C199.245 112.856 199.901 112.68 200.685 112.52C201.469 112.344 202.349 112.256 203.325 112.256ZM210.063 112.52H214.791V114.392H210.063V120.152C210.063 120.776 210.111 121.296 210.207 121.712C210.303 122.112 210.447 122.432 210.639 122.672C210.831 122.896 211.071 123.056 211.359 123.152C211.647 123.248 211.983 123.296 212.367 123.296C213.039 123.296 213.575 123.224 213.975 123.08C214.391 122.92 214.679 122.808 214.839 122.744L215.271 124.592C215.047 124.704 214.655 124.84 214.095 125C213.535 125.176 212.895 125.264 212.175 125.264C211.327 125.264 210.623 125.16 210.063 124.952C209.519 124.728 209.079 124.4 208.743 123.968C208.407 123.536 208.167 123.008 208.023 122.384C207.895 121.744 207.831 121.008 207.831 120.176V109.04L210.063 108.656V112.52ZM219.863 125H217.631V112.52H219.863V125ZM218.735 110.264C218.335 110.264 217.991 110.136 217.703 109.88C217.431 109.608 217.295 109.248 217.295 108.8C217.295 108.352 217.431 108 217.703 107.744C217.991 107.472 218.335 107.336 218.735 107.336C219.135 107.336 219.471 107.472 219.743 107.744C220.031 108 220.175 108.352 220.175 108.8C220.175 109.248 220.031 109.608 219.743 109.88C219.471 110.136 219.135 110.264 218.735 110.264ZM226.605 123.392C227.517 123.392 228.189 123.272 228.621 123.032C229.069 122.792 229.293 122.408 229.293 121.88C229.293 121.336 229.077 120.904 228.645 120.584C228.213 120.264 227.501 119.904 226.509 119.504C226.029 119.312 225.565 119.12 225.117 118.928C224.685 118.72 224.309 118.48 223.989 118.208C223.669 117.936 223.413 117.608 223.221 117.224C223.029 116.84 222.933 116.368 222.933 115.808C222.933 114.704 223.341 113.832 224.157 113.192C224.973 112.536 226.085 112.208 227.493 112.208C227.845 112.208 228.197 112.232 228.549 112.28C228.901 112.312 229.229 112.36 229.533 112.424C229.837 112.472 230.101 112.528 230.325 112.592C230.565 112.656 230.749 112.712 230.877 112.76L230.469 114.68C230.229 114.552 229.853 114.424 229.341 114.296C228.829 114.152 228.213 114.08 227.493 114.08C226.869 114.08 226.325 114.208 225.861 114.464C225.397 114.704 225.165 115.088 225.165 115.616C225.165 115.888 225.213 116.128 225.309 116.336C225.421 116.544 225.581 116.736 225.789 116.912C226.013 117.072 226.285 117.224 226.605 117.368C226.925 117.512 227.309 117.664 227.757 117.824C228.349 118.048 228.877 118.272 229.341 118.496C229.805 118.704 230.197 118.952 230.517 119.24C230.853 119.528 231.109 119.88 231.285 120.296C231.461 120.696 231.549 121.192 231.549 121.784C231.549 122.936 231.117 123.808 230.253 124.4C229.405 124.992 228.189 125.288 226.605 125.288C225.501 125.288 224.637 125.192 224.013 125C223.389 124.824 222.965 124.688 222.741 124.592L223.149 122.672C223.405 122.768 223.813 122.912 224.373 123.104C224.933 123.296 225.677 123.392 226.605 123.392ZM245.428 118.76C245.428 119.752 245.284 120.648 244.996 121.448C244.708 122.248 244.3 122.936 243.772 123.512C243.26 124.088 242.644 124.536 241.924 124.856C241.204 125.16 240.42 125.312 239.572 125.312C238.724 125.312 237.94 125.16 237.22 124.856C236.5 124.536 235.876 124.088 235.348 123.512C234.836 122.936 234.436 122.248 234.148 121.448C233.86 120.648 233.716 119.752 233.716 118.76C233.716 117.784 233.86 116.896 234.148 116.096C234.436 115.28 234.836 114.584 235.348 114.008C235.876 113.432 236.5 112.992 237.22 112.688C237.94 112.368 238.724 112.208 239.572 112.208C240.42 112.208 241.204 112.368 241.924 112.688C242.644 112.992 243.26 113.432 243.772 114.008C244.3 114.584 244.708 115.28 244.996 116.096C245.284 116.896 245.428 117.784 245.428 118.76ZM243.1 118.76C243.1 117.352 242.78 116.24 242.14 115.424C241.516 114.592 240.66 114.176 239.572 114.176C238.484 114.176 237.62 114.592 236.98 115.424C236.356 116.24 236.044 117.352 236.044 118.76C236.044 120.168 236.356 121.288 236.98 122.12C237.62 122.936 238.484 123.344 239.572 123.344C240.66 123.344 241.516 122.936 242.14 122.12C242.78 121.288 243.1 120.168 243.1 118.76ZM252.312 125.24C250.936 125.208 249.96 124.912 249.384 124.352C248.808 123.792 248.52 122.92 248.52 121.736V106.76L250.752 106.376V121.376C250.752 121.744 250.784 122.048 250.848 122.288C250.912 122.528 251.016 122.72 251.16 122.864C251.304 123.008 251.496 123.12 251.736 123.2C251.976 123.264 252.272 123.32 252.624 123.368L252.312 125.24ZM257.363 125H255.131V112.52H257.363V125ZM256.235 110.264C255.835 110.264 255.491 110.136 255.203 109.88C254.931 109.608 254.795 109.248 254.795 108.8C254.795 108.352 254.931 108 255.203 107.744C255.491 107.472 255.835 107.336 256.235 107.336C256.635 107.336 256.971 107.472 257.243 107.744C257.531 108 257.675 108.352 257.675 108.8C257.675 109.248 257.531 109.608 257.243 109.88C256.971 110.136 256.635 110.264 256.235 110.264ZM261.201 112.88C261.713 112.752 262.385 112.616 263.217 112.472C264.065 112.328 265.041 112.256 266.145 112.256C266.945 112.256 267.617 112.368 268.161 112.592C268.705 112.8 269.161 113.112 269.529 113.528C269.641 113.448 269.817 113.336 270.057 113.192C270.297 113.048 270.593 112.912 270.945 112.784C271.297 112.64 271.689 112.52 272.121 112.424C272.553 112.312 273.017 112.256 273.513 112.256C274.473 112.256 275.257 112.4 275.865 112.688C276.473 112.96 276.945 113.352 277.281 113.864C277.633 114.376 277.865 114.984 277.977 115.688C278.105 116.392 278.169 117.16 278.169 117.992V125H275.937V118.472C275.937 117.736 275.897 117.104 275.817 116.576C275.753 116.048 275.617 115.608 275.409 115.256C275.217 114.904 274.945 114.648 274.593 114.488C274.257 114.312 273.817 114.224 273.273 114.224C272.521 114.224 271.897 114.328 271.401 114.536C270.921 114.728 270.593 114.904 270.417 115.064C270.545 115.48 270.641 115.936 270.705 116.432C270.769 116.928 270.801 117.448 270.801 117.992V125H268.569V118.472C268.569 117.736 268.529 117.104 268.449 116.576C268.369 116.048 268.225 115.608 268.017 115.256C267.825 114.904 267.553 114.648 267.201 114.488C266.865 114.312 266.433 114.224 265.905 114.224C265.681 114.224 265.441 114.232 265.185 114.248C264.929 114.264 264.681 114.288 264.441 114.32C264.217 114.336 264.009 114.36 263.817 114.392C263.625 114.424 263.497 114.448 263.433 114.464V125H261.201V112.88ZM284.105 125H281.873V112.52H284.105V125ZM282.977 110.264C282.577 110.264 282.233 110.136 281.945 109.88C281.673 109.608 281.537 109.248 281.537 108.8C281.537 108.352 281.673 108 281.945 107.744C282.233 107.472 282.577 107.336 282.977 107.336C283.377 107.336 283.713 107.472 283.985 107.744C284.273 108 284.417 108.352 284.417 108.8C284.417 109.248 284.273 109.608 283.985 109.88C283.713 110.136 283.377 110.264 282.977 110.264ZM292.167 123.392C292.695 123.392 293.159 123.384 293.559 123.368C293.975 123.336 294.319 123.288 294.591 123.224V119.504C294.431 119.424 294.167 119.36 293.799 119.312C293.447 119.248 293.015 119.216 292.503 119.216C292.167 119.216 291.807 119.24 291.423 119.288C291.055 119.336 290.711 119.44 290.391 119.6C290.087 119.744 289.831 119.952 289.623 120.224C289.415 120.48 289.311 120.824 289.311 121.256C289.311 122.056 289.567 122.616 290.079 122.936C290.591 123.24 291.287 123.392 292.167 123.392ZM291.975 112.208C292.871 112.208 293.623 112.328 294.231 112.568C294.855 112.792 295.351 113.12 295.719 113.552C296.103 113.968 296.375 114.472 296.535 115.064C296.695 115.64 296.775 116.28 296.775 116.984V124.784C296.583 124.816 296.311 124.864 295.959 124.928C295.623 124.976 295.239 125.024 294.807 125.072C294.375 125.12 293.903 125.16 293.391 125.192C292.895 125.24 292.399 125.264 291.903 125.264C291.199 125.264 290.551 125.192 289.959 125.048C289.367 124.904 288.855 124.68 288.423 124.376C287.991 124.056 287.655 123.64 287.415 123.128C287.175 122.616 287.055 122 287.055 121.28C287.055 120.592 287.191 120 287.463 119.504C287.751 119.008 288.135 118.608 288.615 118.304C289.095 118 289.655 117.776 290.295 117.632C290.935 117.488 291.607 117.416 292.311 117.416C292.535 117.416 292.767 117.432 293.007 117.464C293.247 117.48 293.471 117.512 293.679 117.56C293.903 117.592 294.095 117.624 294.255 117.656C294.415 117.688 294.527 117.712 294.591 117.728V117.104C294.591 116.736 294.551 116.376 294.471 116.024C294.391 115.656 294.247 115.336 294.039 115.064C293.831 114.776 293.543 114.552 293.175 114.392C292.823 114.216 292.359 114.128 291.783 114.128C291.047 114.128 290.399 114.184 289.839 114.296C289.295 114.392 288.887 114.496 288.615 114.608L288.351 112.76C288.639 112.632 289.119 112.512 289.791 112.4C290.463 112.272 291.191 112.208 291.975 112.208Z" fill="white"/>
<path d="M644.473 331.368H646.801V348H644.473V340.32H636.337V348H634.009V331.368H636.337V338.304H644.473V331.368ZM653.019 348H650.787V335.52H653.019V348ZM651.891 333.264C651.491 333.264 651.147 333.136 650.859 332.88C650.587 332.608 650.451 332.248 650.451 331.8C650.451 331.352 650.587 331 650.859 330.744C651.147 330.472 651.491 330.336 651.891 330.336C652.291 330.336 652.627 330.472 652.899 330.744C653.187 331 653.331 331.352 653.331 331.8C653.331 332.248 653.187 332.608 652.899 332.88C652.627 333.136 652.291 333.264 651.891 333.264ZM665.522 341.784C665.522 340.328 665.162 339.208 664.442 338.424C663.722 337.64 662.762 337.248 661.562 337.248C660.89 337.248 660.362 337.272 659.978 337.32C659.61 337.368 659.314 337.424 659.09 337.488V345.36C659.362 345.584 659.754 345.8 660.266 346.008C660.778 346.216 661.338 346.32 661.946 346.32C662.586 346.32 663.13 346.208 663.578 345.984C664.042 345.744 664.418 345.424 664.706 345.024C664.994 344.608 665.202 344.128 665.33 343.584C665.458 343.024 665.522 342.424 665.522 341.784ZM667.85 341.784C667.85 342.728 667.722 343.6 667.466 344.4C667.226 345.2 666.866 345.888 666.386 346.464C665.906 347.04 665.314 347.488 664.61 347.808C663.922 348.128 663.13 348.288 662.234 348.288C661.514 348.288 660.874 348.192 660.314 348C659.77 347.808 659.362 347.624 659.09 347.448V352.44H656.858V335.904C657.386 335.776 658.042 335.64 658.826 335.496C659.626 335.336 660.546 335.256 661.586 335.256C662.546 335.256 663.41 335.408 664.178 335.712C664.946 336.016 665.602 336.448 666.146 337.008C666.69 337.568 667.106 338.256 667.394 339.072C667.698 339.872 667.85 340.776 667.85 341.784ZM682.006 341.76C682.006 342.752 681.862 343.648 681.574 344.448C681.286 345.248 680.878 345.936 680.35 346.512C679.838 347.088 679.222 347.536 678.502 347.856C677.782 348.16 676.998 348.312 676.15 348.312C675.302 348.312 674.518 348.16 673.798 347.856C673.078 347.536 672.454 347.088 671.926 346.512C671.414 345.936 671.014 345.248 670.726 344.448C670.438 343.648 670.294 342.752 670.294 341.76C670.294 340.784 670.438 339.896 670.726 339.096C671.014 338.28 671.414 337.584 671.926 337.008C672.454 336.432 673.078 335.992 673.798 335.688C674.518 335.368 675.302 335.208 676.15 335.208C676.998 335.208 677.782 335.368 678.502 335.688C679.222 335.992 679.838 336.432 680.35 337.008C680.878 337.584 681.286 338.28 681.574 339.096C681.862 339.896 682.006 340.784 682.006 341.76ZM679.678 341.76C679.678 340.352 679.358 339.24 678.718 338.424C678.094 337.592 677.238 337.176 676.15 337.176C675.062 337.176 674.198 337.592 673.558 338.424C672.934 339.24 672.622 340.352 672.622 341.76C672.622 343.168 672.934 344.288 673.558 345.12C674.198 345.936 675.062 346.344 676.15 346.344C677.238 346.344 678.094 345.936 678.718 345.12C679.358 344.288 679.678 343.168 679.678 341.76ZM690.571 348.288C689.563 348.288 688.675 348.128 687.907 347.808C687.155 347.488 686.515 347.04 685.987 346.464C685.475 345.888 685.091 345.208 684.835 344.424C684.579 343.624 684.451 342.744 684.451 341.784C684.451 340.824 684.587 339.944 684.859 339.144C685.147 338.344 685.547 337.656 686.059 337.08C686.571 336.488 687.195 336.032 687.931 335.712C688.683 335.376 689.515 335.208 690.427 335.208C690.987 335.208 691.547 335.256 692.107 335.352C692.667 335.448 693.203 335.6 693.715 335.808L693.211 337.704C692.875 337.544 692.483 337.416 692.035 337.32C691.603 337.224 691.139 337.176 690.643 337.176C689.395 337.176 688.435 337.568 687.763 338.352C687.107 339.136 686.779 340.28 686.779 341.784C686.779 342.456 686.851 343.072 686.995 343.632C687.155 344.192 687.395 344.672 687.715 345.072C688.051 345.472 688.475 345.784 688.987 346.008C689.499 346.216 690.123 346.32 690.859 346.32C691.451 346.32 691.987 346.264 692.467 346.152C692.947 346.04 693.323 345.92 693.595 345.792L693.907 347.664C693.779 347.744 693.595 347.824 693.355 347.904C693.115 347.968 692.843 348.024 692.539 348.072C692.235 348.136 691.907 348.184 691.555 348.216C691.219 348.264 690.891 348.288 690.571 348.288ZM707.014 341.76C707.014 342.752 706.87 343.648 706.582 344.448C706.294 345.248 705.886 345.936 705.358 346.512C704.846 347.088 704.23 347.536 703.51 347.856C702.79 348.16 702.006 348.312 701.158 348.312C700.31 348.312 699.526 348.16 698.806 347.856C698.086 347.536 697.462 347.088 696.934 346.512C696.422 345.936 696.022 345.248 695.734 344.448C695.446 343.648 695.302 342.752 695.302 341.76C695.302 340.784 695.446 339.896 695.734 339.096C696.022 338.28 696.422 337.584 696.934 337.008C697.462 336.432 698.086 335.992 698.806 335.688C699.526 335.368 700.31 335.208 701.158 335.208C702.006 335.208 702.79 335.368 703.51 335.688C704.23 335.992 704.846 336.432 705.358 337.008C705.886 337.584 706.294 338.28 706.582 339.096C706.87 339.896 707.014 340.784 707.014 341.76ZM704.686 341.76C704.686 340.352 704.366 339.24 703.726 338.424C703.102 337.592 702.246 337.176 701.158 337.176C700.07 337.176 699.206 337.592 698.566 338.424C697.942 339.24 697.63 340.352 697.63 341.76C697.63 343.168 697.942 344.288 698.566 345.12C699.206 345.936 700.07 346.344 701.158 346.344C702.246 346.344 703.102 345.936 703.726 345.12C704.366 344.288 704.686 343.168 704.686 341.76ZM714.762 335.256C714.954 335.256 715.17 335.272 715.41 335.304C715.666 335.32 715.914 335.352 716.154 335.4C716.394 335.432 716.61 335.472 716.802 335.52C717.01 335.552 717.162 335.584 717.258 335.616L716.874 337.56C716.698 337.496 716.402 337.424 715.986 337.344C715.586 337.248 715.066 337.2 714.426 337.2C714.01 337.2 713.594 337.248 713.178 337.344C712.778 337.424 712.514 337.48 712.386 337.512V348H710.154V336.048C710.682 335.856 711.338 335.68 712.122 335.52C712.906 335.344 713.786 335.256 714.762 335.256ZM721.5 335.52H726.228V337.392H721.5V343.152C721.5 343.776 721.548 344.296 721.644 344.712C721.74 345.112 721.884 345.432 722.076 345.672C722.268 345.896 722.508 346.056 722.796 346.152C723.084 346.248 723.42 346.296 723.804 346.296C724.476 346.296 725.012 346.224 725.412 346.08C725.828 345.92 726.116 345.808 726.276 345.744L726.708 347.592C726.484 347.704 726.092 347.84 725.532 348C724.972 348.176 724.332 348.264 723.612 348.264C722.764 348.264 722.06 348.16 721.5 347.952C720.956 347.728 720.516 347.4 720.18 346.968C719.844 346.536 719.604 346.008 719.46 345.384C719.332 344.744 719.268 344.008 719.268 343.176V332.04L721.5 331.656V335.52ZM731.3 348H729.068V335.52H731.3V348ZM730.172 333.264C729.772 333.264 729.428 333.136 729.14 332.88C728.868 332.608 728.732 332.248 728.732 331.8C728.732 331.352 728.868 331 729.14 330.744C729.428 330.472 729.772 330.336 730.172 330.336C730.572 330.336 730.908 330.472 731.18 330.744C731.468 331 731.612 331.352 731.612 331.8C731.612 332.248 731.468 332.608 731.18 332.88C730.908 333.136 730.572 333.264 730.172 333.264ZM738.043 346.392C738.955 346.392 739.627 346.272 740.059 346.032C740.507 345.792 740.731 345.408 740.731 344.88C740.731 344.336 740.515 343.904 740.083 343.584C739.651 343.264 738.939 342.904 737.947 342.504C737.467 342.312 737.003 342.12 736.555 341.928C736.123 341.72 735.747 341.48 735.427 341.208C735.107 340.936 734.851 340.608 734.659 340.224C734.467 339.84 734.371 339.368 734.371 338.808C734.371 337.704 734.779 336.832 735.595 336.192C736.411 335.536 737.523 335.208 738.931 335.208C739.283 335.208 739.635 335.232 739.987 335.28C740.339 335.312 740.667 335.36 740.971 335.424C741.275 335.472 741.539 335.528 741.763 335.592C742.003 335.656 742.187 335.712 742.315 335.76L741.907 337.68C741.667 337.552 741.291 337.424 740.779 337.296C740.267 337.152 739.651 337.08 738.931 337.08C738.307 337.08 737.763 337.208 737.299 337.464C736.835 337.704 736.603 338.088 736.603 338.616C736.603 338.888 736.651 339.128 736.747 339.336C736.859 339.544 737.019 339.736 737.227 339.912C737.451 340.072 737.723 340.224 738.043 340.368C738.363 340.512 738.747 340.664 739.195 340.824C739.787 341.048 740.315 341.272 740.779 341.496C741.243 341.704 741.635 341.952 741.955 342.24C742.291 342.528 742.547 342.88 742.723 343.296C742.899 343.696 742.987 344.192 742.987 344.784C742.987 345.936 742.555 346.808 741.691 347.4C740.843 347.992 739.627 348.288 738.043 348.288C736.939 348.288 736.075 348.192 735.451 348C734.827 347.824 734.403 347.688 734.179 347.592L734.587 345.672C734.843 345.768 735.251 345.912 735.811 346.104C736.371 346.296 737.115 346.392 738.043 346.392ZM756.866 341.76C756.866 342.752 756.722 343.648 756.434 344.448C756.146 345.248 755.738 345.936 755.21 346.512C754.698 347.088 754.082 347.536 753.362 347.856C752.642 348.16 751.858 348.312 751.01 348.312C750.162 348.312 749.378 348.16 748.658 347.856C747.938 347.536 747.314 347.088 746.786 346.512C746.274 345.936 745.874 345.248 745.586 344.448C745.298 343.648 745.154 342.752 745.154 341.76C745.154 340.784 745.298 339.896 745.586 339.096C745.874 338.28 746.274 337.584 746.786 337.008C747.314 336.432 747.938 335.992 748.658 335.688C749.378 335.368 750.162 335.208 751.01 335.208C751.858 335.208 752.642 335.368 753.362 335.688C754.082 335.992 754.698 336.432 755.21 337.008C755.738 337.584 756.146 338.28 756.434 339.096C756.722 339.896 756.866 340.784 756.866 341.76ZM754.538 341.76C754.538 340.352 754.218 339.24 753.578 338.424C752.954 337.592 752.098 337.176 751.01 337.176C749.922 337.176 749.058 337.592 748.418 338.424C747.794 339.24 747.482 340.352 747.482 341.76C747.482 343.168 747.794 344.288 748.418 345.12C749.058 345.936 749.922 346.344 751.01 346.344C752.098 346.344 752.954 345.936 753.578 345.12C754.218 344.288 754.538 343.168 754.538 341.76ZM763.75 348.24C762.374 348.208 761.398 347.912 760.822 347.352C760.246 346.792 759.958 345.92 759.958 344.736V329.76L762.19 329.376V344.376C762.19 344.744 762.222 345.048 762.286 345.288C762.35 345.528 762.454 345.72 762.598 345.864C762.742 346.008 762.934 346.12 763.174 346.2C763.414 346.264 763.71 346.32 764.062 346.368L763.75 348.24ZM768.8 348H766.568V335.52H768.8V348ZM767.672 333.264C767.272 333.264 766.928 333.136 766.64 332.88C766.368 332.608 766.232 332.248 766.232 331.8C766.232 331.352 766.368 331 766.64 330.744C766.928 330.472 767.272 330.336 767.672 330.336C768.072 330.336 768.408 330.472 768.68 330.744C768.968 331 769.112 331.352 769.112 331.8C769.112 332.248 768.968 332.608 768.68 332.88C768.408 333.136 768.072 333.264 767.672 333.264ZM772.639 335.88C773.151 335.752 773.823 335.616 774.655 335.472C775.503 335.328 776.479 335.256 777.583 335.256C778.383 335.256 779.055 335.368 779.599 335.592C780.143 335.8 780.599 336.112 780.967 336.528C781.079 336.448 781.255 336.336 781.495 336.192C781.735 336.048 782.031 335.912 782.383 335.784C782.735 335.64 783.127 335.52 783.559 335.424C783.991 335.312 784.455 335.256 784.951 335.256C785.911 335.256 786.695 335.4 787.303 335.688C787.911 335.96 788.383 336.352 788.719 336.864C789.071 337.376 789.303 337.984 789.415 338.688C789.543 339.392 789.607 340.16 789.607 340.992V348H787.375V341.472C787.375 340.736 787.335 340.104 787.255 339.576C787.191 339.048 787.055 338.608 786.847 338.256C786.655 337.904 786.383 337.648 786.031 337.488C785.695 337.312 785.255 337.224 784.711 337.224C783.959 337.224 783.335 337.328 782.839 337.536C782.359 337.728 782.031 337.904 781.855 338.064C781.983 338.48 782.079 338.936 782.143 339.432C782.207 339.928 782.239 340.448 782.239 340.992V348H780.007V341.472C780.007 340.736 779.967 340.104 779.887 339.576C779.807 339.048 779.663 338.608 779.455 338.256C779.263 337.904 778.991 337.648 778.639 337.488C778.303 337.312 777.871 337.224 777.343 337.224C777.119 337.224 776.879 337.232 776.623 337.248C776.367 337.264 776.119 337.288 775.879 337.32C775.655 337.336 775.447 337.36 775.255 337.392C775.063 337.424 774.935 337.448 774.871 337.464V348H772.639V335.88ZM795.543 348H793.311V335.52H795.543V348ZM794.415 333.264C794.015 333.264 793.671 333.136 793.383 332.88C793.111 332.608 792.975 332.248 792.975 331.8C792.975 331.352 793.111 331 793.383 330.744C793.671 330.472 794.015 330.336 794.415 330.336C794.815 330.336 795.151 330.472 795.423 330.744C795.711 331 795.855 331.352 795.855 331.8C795.855 332.248 795.711 332.608 795.423 332.88C795.151 333.136 794.815 333.264 794.415 333.264ZM803.605 346.392C804.133 346.392 804.597 346.384 804.997 346.368C805.413 346.336 805.757 346.288 806.029 346.224V342.504C805.869 342.424 805.605 342.36 805.237 342.312C804.885 342.248 804.453 342.216 803.941 342.216C803.605 342.216 803.245 342.24 802.861 342.288C802.493 342.336 802.149 342.44 801.829 342.6C801.525 342.744 801.269 342.952 801.061 343.224C800.853 343.48 800.749 343.824 800.749 344.256C800.749 345.056 801.005 345.616 801.517 345.936C802.029 346.24 802.725 346.392 803.605 346.392ZM803.413 335.208C804.309 335.208 805.061 335.328 805.669 335.568C806.293 335.792 806.789 336.12 807.157 336.552C807.541 336.968 807.813 337.472 807.973 338.064C808.133 338.64 808.213 339.28 808.213 339.984V347.784C808.021 347.816 807.749 347.864 807.397 347.928C807.061 347.976 806.677 348.024 806.245 348.072C805.813 348.12 805.341 348.16 804.829 348.192C804.333 348.24 803.837 348.264 803.341 348.264C802.637 348.264 801.989 348.192 801.397 348.048C800.805 347.904 800.293 347.68 799.861 347.376C799.429 347.056 799.093 346.64 798.853 346.128C798.613 345.616 798.493 345 798.493 344.28C798.493 343.592 798.629 343 798.901 342.504C799.189 342.008 799.573 341.608 800.053 341.304C800.533 341 801.093 340.776 801.733 340.632C802.373 340.488 803.045 340.416 803.749 340.416C803.973 340.416 804.205 340.432 804.445 340.464C804.685 340.48 804.909 340.512 805.117 340.56C805.341 340.592 805.533 340.624 805.693 340.656C805.853 340.688 805.965 340.712 806.029 340.728V340.104C806.029 339.736 805.989 339.376 805.909 339.024C805.829 338.656 805.685 338.336 805.477 338.064C805.269 337.776 804.981 337.552 804.613 337.392C804.261 337.216 803.797 337.128 803.221 337.128C802.485 337.128 801.837 337.184 801.277 337.296C800.733 337.392 800.325 337.496 800.053 337.608L799.789 335.76C800.077 335.632 800.557 335.512 801.229 335.4C801.901 335.272 802.629 335.208 803.413 335.208Z" fill="white"/>
<path d="M600.568 392.24C600.008 392.24 599.395 392.227 598.728 392.2C598.088 392.173 597.435 392.133 596.768 392.08C596.128 392.027 595.488 391.96 594.848 391.88C594.208 391.8 593.622 391.693 593.088 391.56V364.68C593.622 364.547 594.208 364.44 594.848 364.36C595.488 364.28 596.128 364.213 596.768 364.16C597.435 364.107 598.088 364.067 598.728 364.04C599.368 364.013 599.968 364 600.528 364C602.128 364 603.622 364.12 605.008 364.36C606.422 364.6 607.635 365.013 608.648 365.6C609.688 366.16 610.502 366.907 611.088 367.84C611.675 368.773 611.968 369.92 611.968 371.28C611.968 372.8 611.608 374.053 610.888 375.04C610.168 376 609.208 376.72 608.008 377.2C609.635 377.68 610.928 378.44 611.888 379.48C612.848 380.52 613.328 381.987 613.328 383.88C613.328 386.653 612.302 388.747 610.248 390.16C608.222 391.547 604.995 392.24 600.568 392.24ZM596.928 379.08V388.84C597.222 388.867 597.568 388.893 597.968 388.92C598.315 388.947 598.715 388.973 599.168 389C599.648 389 600.195 389 600.808 389C601.955 389 603.035 388.933 604.048 388.8C605.088 388.64 605.995 388.373 606.768 388C607.542 387.627 608.155 387.107 608.608 386.44C609.088 385.773 609.328 384.933 609.328 383.92C609.328 383.013 609.155 382.253 608.808 381.64C608.462 381 607.955 380.493 607.288 380.12C606.648 379.747 605.875 379.48 604.968 379.32C604.062 379.16 603.048 379.08 601.928 379.08H596.928ZM596.928 375.96H601.008C601.968 375.96 602.875 375.893 603.728 375.76C604.582 375.627 605.315 375.387 605.928 375.04C606.568 374.693 607.062 374.24 607.408 373.68C607.782 373.12 607.968 372.413 607.968 371.56C607.968 370.76 607.782 370.093 607.408 369.56C607.035 369 606.515 368.56 605.848 368.24C605.208 367.893 604.448 367.64 603.568 367.48C602.688 367.32 601.755 367.24 600.768 367.24C599.782 367.24 599.008 367.253 598.448 367.28C597.888 367.307 597.382 367.347 596.928 367.4V375.96ZM635.112 391.4C634.258 391.613 633.125 391.84 631.712 392.08C630.325 392.32 628.712 392.44 626.872 392.44C625.272 392.44 623.925 392.213 622.832 391.76C621.738 391.28 620.858 390.613 620.192 389.76C619.525 388.907 619.045 387.907 618.752 386.76C618.458 385.587 618.312 384.293 618.312 382.88V371.2H622.032V382.08C622.032 384.613 622.432 386.427 623.232 387.52C624.032 388.613 625.378 389.16 627.272 389.16C627.672 389.16 628.085 389.147 628.512 389.12C628.938 389.093 629.338 389.067 629.712 389.04C630.085 388.987 630.418 388.947 630.712 388.92C631.032 388.867 631.258 388.813 631.392 388.76V371.2H635.112V391.4ZM640.36 381.64C640.36 379.8 640.627 378.2 641.16 376.84C641.694 375.453 642.4 374.307 643.28 373.4C644.16 372.493 645.174 371.813 646.32 371.36C647.467 370.907 648.64 370.68 649.84 370.68C652.64 370.68 654.787 371.56 656.28 373.32C657.774 375.053 658.52 377.707 658.52 381.28C658.52 381.44 658.52 381.653 658.52 381.92C658.52 382.16 658.507 382.387 658.48 382.6H644.24C644.4 384.76 645.027 386.4 646.12 387.52C647.214 388.64 648.92 389.2 651.24 389.2C652.547 389.2 653.64 389.093 654.52 388.88C655.427 388.64 656.107 388.413 656.56 388.2L657.08 391.32C656.627 391.56 655.827 391.813 654.68 392.08C653.56 392.347 652.28 392.48 650.84 392.48C649.027 392.48 647.454 392.213 646.12 391.68C644.814 391.12 643.734 390.36 642.88 389.4C642.027 388.44 641.387 387.307 640.96 386C640.56 384.667 640.36 383.213 640.36 381.64ZM654.64 379.6C654.667 377.92 654.24 376.547 653.36 375.48C652.507 374.387 651.32 373.84 649.8 373.84C648.947 373.84 648.187 374.013 647.52 374.36C646.88 374.68 646.334 375.107 645.88 375.64C645.427 376.173 645.067 376.787 644.8 377.48C644.56 378.173 644.4 378.88 644.32 379.6H654.64ZM663.864 371.8C664.717 371.587 665.851 371.36 667.264 371.12C668.677 370.88 670.304 370.76 672.144 370.76C673.797 370.76 675.171 371 676.264 371.48C677.357 371.933 678.224 372.587 678.864 373.44C679.531 374.267 679.997 375.267 680.264 376.44C680.531 377.613 680.664 378.907 680.664 380.32V392H676.944V381.12C676.944 379.84 676.851 378.747 676.664 377.84C676.504 376.933 676.224 376.2 675.824 375.64C675.424 375.08 674.891 374.68 674.224 374.44C673.557 374.173 672.731 374.04 671.744 374.04C671.344 374.04 670.931 374.053 670.504 374.08C670.077 374.107 669.664 374.147 669.264 374.2C668.891 374.227 668.544 374.267 668.224 374.32C667.931 374.373 667.717 374.413 667.584 374.44V392H663.864V371.8ZM693.873 389.32C694.753 389.32 695.526 389.307 696.193 389.28C696.886 389.227 697.459 389.147 697.913 389.04V382.84C697.646 382.707 697.206 382.6 696.593 382.52C696.006 382.413 695.286 382.36 694.433 382.36C693.873 382.36 693.273 382.4 692.633 382.48C692.019 382.56 691.446 382.733 690.913 383C690.406 383.24 689.979 383.587 689.633 384.04C689.286 384.467 689.113 385.04 689.113 385.76C689.113 387.093 689.539 388.027 690.393 388.56C691.246 389.067 692.406 389.32 693.873 389.32ZM693.553 370.68C695.046 370.68 696.299 370.88 697.313 371.28C698.353 371.653 699.179 372.2 699.793 372.92C700.433 373.613 700.886 374.453 701.153 375.44C701.419 376.4 701.553 377.467 701.553 378.64V391.64C701.233 391.693 700.779 391.773 700.193 391.88C699.633 391.96 698.993 392.04 698.273 392.12C697.553 392.2 696.766 392.267 695.913 392.32C695.086 392.4 694.259 392.44 693.433 392.44C692.259 392.44 691.179 392.32 690.193 392.08C689.206 391.84 688.353 391.467 687.633 390.96C686.913 390.427 686.353 389.733 685.953 388.88C685.553 388.027 685.353 387 685.353 385.8C685.353 384.653 685.579 383.667 686.033 382.84C686.513 382.013 687.153 381.347 687.953 380.84C688.753 380.333 689.686 379.96 690.753 379.72C691.819 379.48 692.939 379.36 694.113 379.36C694.486 379.36 694.873 379.387 695.273 379.44C695.673 379.467 696.046 379.52 696.393 379.6C696.766 379.653 697.086 379.707 697.353 379.76C697.619 379.813 697.806 379.853 697.913 379.88V378.84C697.913 378.227 697.846 377.627 697.713 377.04C697.579 376.427 697.339 375.893 696.993 375.44C696.646 374.96 696.166 374.587 695.553 374.32C694.966 374.027 694.193 373.88 693.233 373.88C692.006 373.88 690.926 373.973 689.993 374.16C689.086 374.32 688.406 374.493 687.953 374.68L687.513 371.6C687.993 371.387 688.793 371.187 689.913 371C691.033 370.787 692.246 370.68 693.553 370.68ZM721.829 389.32C723.349 389.32 724.469 389.12 725.189 388.72C725.936 388.32 726.309 387.68 726.309 386.8C726.309 385.893 725.949 385.173 725.229 384.64C724.509 384.107 723.322 383.507 721.669 382.84C720.869 382.52 720.096 382.2 719.349 381.88C718.629 381.533 718.002 381.133 717.469 380.68C716.936 380.227 716.509 379.68 716.189 379.04C715.869 378.4 715.709 377.613 715.709 376.68C715.709 374.84 716.389 373.387 717.749 372.32C719.109 371.227 720.962 370.68 723.309 370.68C723.896 370.68 724.482 370.72 725.069 370.8C725.656 370.853 726.202 370.933 726.709 371.04C727.216 371.12 727.656 371.213 728.029 371.32C728.429 371.427 728.736 371.52 728.949 371.6L728.269 374.8C727.869 374.587 727.242 374.373 726.389 374.16C725.536 373.92 724.509 373.8 723.309 373.8C722.269 373.8 721.362 374.013 720.589 374.44C719.816 374.84 719.429 375.48 719.429 376.36C719.429 376.813 719.509 377.213 719.669 377.56C719.856 377.907 720.122 378.227 720.469 378.52C720.842 378.787 721.296 379.04 721.829 379.28C722.362 379.52 723.002 379.773 723.749 380.04C724.736 380.413 725.616 380.787 726.389 381.16C727.162 381.507 727.816 381.92 728.349 382.4C728.909 382.88 729.336 383.467 729.629 384.16C729.922 384.827 730.069 385.653 730.069 386.64C730.069 388.56 729.349 390.013 727.909 391C726.496 391.987 724.469 392.48 721.829 392.48C719.989 392.48 718.549 392.32 717.509 392C716.469 391.707 715.762 391.48 715.389 391.32L716.069 388.12C716.496 388.28 717.176 388.52 718.109 388.84C719.042 389.16 720.282 389.32 721.829 389.32ZM741.881 389.32C742.761 389.32 743.534 389.307 744.201 389.28C744.894 389.227 745.467 389.147 745.921 389.04V382.84C745.654 382.707 745.214 382.6 744.601 382.52C744.014 382.413 743.294 382.36 742.441 382.36C741.881 382.36 741.281 382.4 740.641 382.48C740.027 382.56 739.454 382.733 738.921 383C738.414 383.24 737.987 383.587 737.641 384.04C737.294 384.467 737.121 385.04 737.121 385.76C737.121 387.093 737.547 388.027 738.401 388.56C739.254 389.067 740.414 389.32 741.881 389.32ZM741.561 370.68C743.054 370.68 744.307 370.88 745.321 371.28C746.361 371.653 747.187 372.2 747.801 372.92C748.441 373.613 748.894 374.453 749.161 375.44C749.427 376.4 749.561 377.467 749.561 378.64V391.64C749.241 391.693 748.787 391.773 748.201 391.88C747.641 391.96 747.001 392.04 746.281 392.12C745.561 392.2 744.774 392.267 743.921 392.32C743.094 392.4 742.267 392.44 741.441 392.44C740.267 392.44 739.187 392.32 738.201 392.08C737.214 391.84 736.361 391.467 735.641 390.96C734.921 390.427 734.361 389.733 733.961 388.88C733.561 388.027 733.361 387 733.361 385.8C733.361 384.653 733.587 383.667 734.041 382.84C734.521 382.013 735.161 381.347 735.961 380.84C736.761 380.333 737.694 379.96 738.761 379.72C739.827 379.48 740.947 379.36 742.121 379.36C742.494 379.36 742.881 379.387 743.281 379.44C743.681 379.467 744.054 379.52 744.401 379.6C744.774 379.653 745.094 379.707 745.361 379.76C745.627 379.813 745.814 379.853 745.921 379.88V378.84C745.921 378.227 745.854 377.627 745.721 377.04C745.587 376.427 745.347 375.893 745.001 375.44C744.654 374.96 744.174 374.587 743.561 374.32C742.974 374.027 742.201 373.88 741.241 373.88C740.014 373.88 738.934 373.973 738.001 374.16C737.094 374.32 736.414 374.493 735.961 374.68L735.521 371.6C736.001 371.387 736.801 371.187 737.921 371C739.041 370.787 740.254 370.68 741.561 370.68ZM761.979 392.4C759.686 392.347 758.059 391.853 757.099 390.92C756.139 389.987 755.659 388.533 755.659 386.56V361.6L759.379 360.96V385.96C759.379 386.573 759.432 387.08 759.539 387.48C759.646 387.88 759.819 388.2 760.059 388.44C760.299 388.68 760.619 388.867 761.019 389C761.419 389.107 761.912 389.2 762.499 389.28L761.979 392.4ZM783.237 391.4C782.383 391.613 781.25 391.84 779.837 392.08C778.45 392.32 776.837 392.44 774.997 392.44C773.397 392.44 772.05 392.213 770.957 391.76C769.863 391.28 768.983 390.613 768.317 389.76C767.65 388.907 767.17 387.907 766.877 386.76C766.583 385.587 766.437 384.293 766.437 382.88V371.2H770.157V382.08C770.157 384.613 770.557 386.427 771.357 387.52C772.157 388.613 773.503 389.16 775.397 389.16C775.797 389.16 776.21 389.147 776.637 389.12C777.063 389.093 777.463 389.067 777.837 389.04C778.21 388.987 778.543 388.947 778.837 388.92C779.157 388.867 779.383 388.813 779.517 388.76V371.2H783.237V391.4ZM803.085 375.6C802.632 375.227 801.979 374.867 801.125 374.52C800.272 374.173 799.339 374 798.325 374C797.259 374 796.339 374.2 795.565 374.6C794.819 374.973 794.205 375.507 793.725 376.2C793.245 376.867 792.899 377.667 792.685 378.6C792.472 379.533 792.365 380.533 792.365 381.6C792.365 384.027 792.965 385.907 794.165 387.24C795.365 388.547 796.965 389.2 798.965 389.2C799.979 389.2 800.819 389.16 801.485 389.08C802.179 388.973 802.712 388.867 803.085 388.76V375.6ZM803.085 361.6L806.805 360.96V391.4C805.952 391.64 804.859 391.88 803.525 392.12C802.192 392.36 800.659 392.48 798.925 392.48C797.325 392.48 795.885 392.227 794.605 391.72C793.325 391.213 792.232 390.493 791.325 389.56C790.419 388.627 789.712 387.493 789.205 386.16C788.725 384.8 788.485 383.28 788.485 381.6C788.485 380 788.685 378.533 789.085 377.2C789.512 375.867 790.125 374.72 790.925 373.76C791.725 372.8 792.699 372.053 793.845 371.52C795.019 370.987 796.352 370.72 797.845 370.72C799.045 370.72 800.099 370.88 801.005 371.2C801.939 371.52 802.632 371.827 803.085 372.12V361.6Z" fill="white"/>
<line x1="517" y1="436.018" x2="517" y2="165.999" stroke="#A5A4A4" stroke-width="5" stroke-dasharray="10 10"/>
<defs>
<filter id="filter0_d_652_147" x="53" y="0" width="30" height="455" filterUnits="userSpaceOnUse" color-interpolation-filters="sRGB">
<feFlood flood-opacity="0" result="BackgroundImageFix"/>
<feColorMatrix in="SourceAlpha" type="matrix" values="0 0 0 0 0 0 0 0 0 0 0 0 0 0 0 0 0 0 127 0" result="hardAlpha"/>
<feOffset dy="4"/>
<feGaussianBlur stdDeviation="5"/>
<feComposite in2="hardAlpha" operator="out"/>
<feColorMatrix type="matrix" values="0 0 0 0 0 0 0 0 0 0 0 0 0 0 0 0 0 0 0.25 0"/>
<feBlend mode="normal" in2="BackgroundImageFix" result="effect1_dropShadow_652_147"/>
<feBlend mode="normal" in="SourceGraphic" in2="effect1_dropShadow_652_147" result="shape"/>
</filter>
<filter id="filter1_d_652_147" x="58" y="425" width="814" height="30" filterUnits="userSpaceOnUse" color-interpolation-filters="sRGB">
<feFlood flood-opacity="0" result="BackgroundImageFix"/>
<feColorMatrix in="SourceAlpha" type="matrix" values="0 0 0 0 0 0 0 0 0 0 0 0 0 0 0 0 0 0 127 0" result="hardAlpha"/>
<feOffset dy="4"/>
<feGaussianBlur stdDeviation="5"/>
<feComposite in2="hardAlpha" operator="out"/>
<feColorMatrix type="matrix" values="0 0 0 0 0 0 0 0 0 0 0 0 0 0 0 0 0 0 0.25 0"/>
<feBlend mode="normal" in2="BackgroundImageFix" result="effect1_dropShadow_652_147"/>
<feBlend mode="normal" in="SourceGraphic" in2="effect1_dropShadow_652_147" result="shape"/>
</filter>
<filter id="filter2_d_652_147" x="94.1865" y="145.17" width="725.961" height="259.799" filterUnits="userSpaceOnUse" color-interpolation-filters="sRGB">
<feFlood flood-opacity="0" result="BackgroundImageFix"/>
<feColorMatrix in="SourceAlpha" type="matrix" values="0 0 0 0 0 0 0 0 0 0 0 0 0 0 0 0 0 0 127 0" result="hardAlpha"/>
<feOffset dy="10"/>
<feGaussianBlur stdDeviation="5"/>
<feComposite in2="hardAlpha" operator="out"/>
<feColorMatrix type="matrix" values="0 0 0 0 0 0 0 0 0 0 0 0 0 0 0 0 0 0 0.25 0"/>
<feBlend mode="normal" in2="BackgroundImageFix" result="effect1_dropShadow_652_147"/>
<feBlend mode="normal" in="SourceGraphic" in2="effect1_dropShadow_652_147" result="shape"/>
</filter>
<filter id="filter3_d_652_147" x="91.1865" y="73.5132" width="722.07" height="331.772" filterUnits="userSpaceOnUse" color-interpolation-filters="sRGB">
<feFlood flood-opacity="0" result="BackgroundImageFix"/>
<feColorMatrix in="SourceAlpha" type="matrix" values="0 0 0 0 0 0 0 0 0 0 0 0 0 0 0 0 0 0 127 0" result="hardAlpha"/>
<feOffset dy="10"/>
<feGaussianBlur stdDeviation="5"/>
<feComposite in2="hardAlpha" operator="out"/>
<feColorMatrix type="matrix" values="0 0 0 0 0 0 0 0 0 0 0 0 0 0 0 0 0 0 0.25 0"/>
<feBlend mode="normal" in2="BackgroundImageFix" result="effect1_dropShadow_652_147"/>
<feBlend mode="normal" in="SourceGraphic" in2="effect1_dropShadow_652_147" result="shape"/>
</filter>
</defs>
</svg>
