<svg width="287" height="57" viewBox="0 0 287 57" fill="none" xmlns="http://www.w3.org/2000/svg">
<path d="M78.32 13.28H83.36V41H78.32V13.28ZM101.68 24.44C101.28 24.3067 100.72 24.1733 99.9997 24.04C99.3064 23.88 98.493 23.8 97.5597 23.8C97.0264 23.8 96.453 23.8533 95.8397 23.96C95.253 24.0667 94.8397 24.16 94.5997 24.24V41H89.7597V21.08C90.693 20.7333 91.853 20.4133 93.2397 20.12C94.653 19.8 96.213 19.64 97.9197 19.64C98.2397 19.64 98.613 19.6667 99.0397 19.72C99.4664 19.7467 99.893 19.8 100.32 19.88C100.746 19.9333 101.16 20.0133 101.56 20.12C101.96 20.2 102.28 20.28 102.52 20.36L101.68 24.44ZM110.773 41H105.933V20.08H110.773V41ZM111.293 13.96C111.293 14.8667 110.999 15.5867 110.413 16.12C109.826 16.6533 109.133 16.92 108.333 16.92C107.506 16.92 106.799 16.6533 106.213 16.12C105.626 15.5867 105.333 14.8667 105.333 13.96C105.333 13.0267 105.626 12.2933 106.213 11.76C106.799 11.2267 107.506 10.96 108.333 10.96C109.133 10.96 109.826 11.2267 110.413 11.76C110.999 12.2933 111.293 13.0267 111.293 13.96ZM120.747 30.48C120.747 32.6133 121.254 34.2933 122.267 35.52C123.281 36.72 124.681 37.32 126.467 37.32C127.241 37.32 127.894 37.2933 128.427 37.24C128.987 37.16 129.441 37.08 129.787 37V25C129.361 24.7067 128.787 24.44 128.067 24.2C127.374 23.9333 126.627 23.8 125.827 23.8C124.067 23.8 122.774 24.4 121.947 25.6C121.147 26.8 120.747 28.4267 120.747 30.48ZM134.627 40.36C133.667 40.6533 132.454 40.92 130.987 41.16C129.547 41.4 128.027 41.52 126.427 41.52C124.774 41.52 123.294 41.2667 121.987 40.76C120.681 40.2533 119.561 39.5333 118.627 38.6C117.721 37.64 117.014 36.4933 116.507 35.16C116.027 33.8 115.787 32.28 115.787 30.6C115.787 28.9467 115.987 27.4533 116.387 26.12C116.814 24.76 117.427 23.6 118.227 22.64C119.027 21.68 120.001 20.9467 121.147 20.44C122.294 19.9067 123.614 19.64 125.107 19.64C126.121 19.64 127.014 19.76 127.787 20C128.561 20.24 129.227 20.5067 129.787 20.8V10.76L134.627 9.96V40.36ZM145.655 41H140.815V20.08H145.655V41ZM146.175 13.96C146.175 14.8667 145.882 15.5867 145.295 16.12C144.709 16.6533 144.015 16.92 143.215 16.92C142.389 16.92 141.682 16.6533 141.095 16.12C140.509 15.5867 140.215 14.8667 140.215 13.96C140.215 13.0267 140.509 12.2933 141.095 11.76C141.682 11.2267 142.389 10.96 143.215 10.96C144.015 10.96 144.709 11.2267 145.295 11.76C145.882 12.2933 146.175 13.0267 146.175 13.96ZM157.07 37.52C158.35 37.52 159.283 37.3733 159.87 37.08C160.457 36.76 160.75 36.2267 160.75 35.48C160.75 34.7867 160.43 34.2133 159.79 33.76C159.177 33.3067 158.15 32.8133 156.71 32.28C155.83 31.96 155.017 31.6267 154.27 31.28C153.55 30.9067 152.923 30.48 152.39 30C151.857 29.52 151.43 28.9467 151.11 28.28C150.817 27.5867 150.67 26.7467 150.67 25.76C150.67 23.84 151.377 22.3333 152.79 21.24C154.203 20.12 156.123 19.56 158.55 19.56C159.777 19.56 160.95 19.68 162.07 19.92C163.19 20.1333 164.03 20.3467 164.59 20.56L163.71 24.48C163.177 24.24 162.497 24.0267 161.67 23.84C160.843 23.6267 159.883 23.52 158.79 23.52C157.803 23.52 157.003 23.6933 156.39 24.04C155.777 24.36 155.47 24.8667 155.47 25.56C155.47 25.9067 155.523 26.2133 155.63 26.48C155.763 26.7467 155.977 27 156.27 27.24C156.563 27.4533 156.95 27.68 157.43 27.92C157.91 28.1333 158.497 28.36 159.19 28.6C160.337 29.0267 161.31 29.4533 162.11 29.88C162.91 30.28 163.563 30.7467 164.07 31.28C164.603 31.7867 164.99 32.3733 165.23 33.04C165.47 33.7067 165.59 34.5067 165.59 35.44C165.59 37.44 164.843 38.96 163.35 40C161.883 41.0133 159.777 41.52 157.03 41.52C155.19 41.52 153.71 41.36 152.59 41.04C151.47 40.7467 150.683 40.5067 150.23 40.32L151.07 36.28C151.79 36.5733 152.643 36.8533 153.63 37.12C154.643 37.3867 155.79 37.52 157.07 37.52ZM192.007 41.6C189.927 41.6 188.061 41.28 186.407 40.64C184.754 40 183.354 39.0667 182.207 37.84C181.061 36.5867 180.181 35.0667 179.567 33.28C178.954 31.4933 178.647 29.44 178.647 27.12C178.647 24.8 178.994 22.7467 179.687 20.96C180.407 19.1733 181.381 17.6667 182.607 16.44C183.834 15.1867 185.274 14.24 186.927 13.6C188.581 12.96 190.354 12.64 192.247 12.64C193.394 12.64 194.434 12.7333 195.367 12.92C196.301 13.08 197.114 13.2667 197.807 13.48C198.501 13.6933 199.074 13.92 199.527 14.16C199.981 14.4 200.301 14.5733 200.487 14.68L199.007 18.8C198.367 18.4 197.447 18.0267 196.247 17.68C195.074 17.3067 193.794 17.12 192.407 17.12C191.207 17.12 190.087 17.3333 189.047 17.76C188.007 18.16 187.101 18.7733 186.327 19.6C185.581 20.4267 184.994 21.4667 184.567 22.72C184.141 23.9733 183.927 25.4267 183.927 27.08C183.927 28.5467 184.087 29.8933 184.407 31.12C184.754 32.3467 185.274 33.4133 185.967 34.32C186.661 35.2 187.541 35.8933 188.607 36.4C189.674 36.88 190.954 37.12 192.447 37.12C194.234 37.12 195.687 36.9467 196.807 36.6C197.927 36.2267 198.794 35.88 199.407 35.56L200.767 39.68C200.447 39.8933 200.007 40.1067 199.447 40.32C198.914 40.5333 198.274 40.7467 197.527 40.96C196.781 41.1467 195.941 41.2933 195.007 41.4C194.074 41.5333 193.074 41.6 192.007 41.6ZM212.315 37.6C213.808 37.6 214.942 37.52 215.715 37.36V32C215.448 31.92 215.062 31.84 214.555 31.76C214.048 31.68 213.488 31.64 212.875 31.64C212.342 31.64 211.795 31.68 211.235 31.76C210.702 31.84 210.208 31.9867 209.755 32.2C209.328 32.4133 208.982 32.72 208.715 33.12C208.448 33.4933 208.315 33.9733 208.315 34.56C208.315 35.7067 208.675 36.5067 209.395 36.96C210.115 37.3867 211.088 37.6 212.315 37.6ZM211.915 19.56C213.515 19.56 214.862 19.76 215.955 20.16C217.048 20.56 217.915 21.12 218.555 21.84C219.222 22.56 219.688 23.44 219.955 24.48C220.248 25.4933 220.395 26.6133 220.395 27.84V40.52C219.648 40.68 218.515 40.8667 216.995 41.08C215.502 41.32 213.808 41.44 211.915 41.44C210.662 41.44 209.515 41.32 208.475 41.08C207.435 40.84 206.542 40.4533 205.795 39.92C205.075 39.3867 204.502 38.6933 204.075 37.84C203.675 36.9867 203.475 35.9333 203.475 34.68C203.475 33.48 203.702 32.4667 204.155 31.64C204.635 30.8133 205.275 30.1467 206.075 29.64C206.875 29.1067 207.795 28.7333 208.835 28.52C209.902 28.28 211.008 28.16 212.155 28.16C212.688 28.16 213.248 28.2 213.835 28.28C214.422 28.3333 215.048 28.44 215.715 28.6V27.8C215.715 27.24 215.648 26.7067 215.515 26.2C215.382 25.6933 215.142 25.2533 214.795 24.88C214.475 24.48 214.035 24.1733 213.475 23.96C212.942 23.7467 212.262 23.64 211.435 23.64C210.315 23.64 209.288 23.72 208.355 23.88C207.422 24.04 206.662 24.2267 206.075 24.44L205.475 20.52C206.088 20.3067 206.982 20.0933 208.155 19.88C209.328 19.6667 210.582 19.56 211.915 19.56ZM238.242 24.44C237.842 24.3067 237.282 24.1733 236.562 24.04C235.869 23.88 235.056 23.8 234.122 23.8C233.589 23.8 233.016 23.8533 232.402 23.96C231.816 24.0667 231.402 24.16 231.162 24.24V41H226.322V21.08C227.256 20.7333 228.416 20.4133 229.802 20.12C231.216 19.8 232.776 19.64 234.482 19.64C234.802 19.64 235.176 19.6667 235.602 19.72C236.029 19.7467 236.456 19.8 236.882 19.88C237.309 19.9333 237.722 20.0133 238.122 20.12C238.522 20.2 238.842 20.28 239.082 20.36L238.242 24.44ZM241.295 30.64C241.295 28.8 241.562 27.1867 242.095 25.8C242.655 24.4133 243.388 23.2667 244.295 22.36C245.202 21.4267 246.242 20.7333 247.415 20.28C248.588 19.8 249.788 19.56 251.015 19.56C253.895 19.56 256.135 20.4533 257.735 22.24C259.362 24.0267 260.175 26.6933 260.175 30.24C260.175 30.5067 260.162 30.8133 260.135 31.16C260.135 31.48 260.122 31.7733 260.095 32.04H246.295C246.428 33.72 247.015 35.0267 248.055 35.96C249.122 36.8667 250.655 37.32 252.655 37.32C253.828 37.32 254.895 37.2133 255.855 37C256.842 36.7867 257.615 36.56 258.175 36.32L258.815 40.28C258.548 40.4133 258.175 40.56 257.695 40.72C257.242 40.8533 256.708 40.9733 256.095 41.08C255.508 41.2133 254.868 41.32 254.175 41.4C253.482 41.48 252.775 41.52 252.055 41.52C250.215 41.52 248.615 41.2533 247.255 40.72C245.895 40.16 244.775 39.4 243.895 38.44C243.015 37.4533 242.362 36.3067 241.935 35C241.508 33.6667 241.295 32.2133 241.295 30.64ZM255.335 28.48C255.335 27.8133 255.242 27.1867 255.055 26.6C254.868 25.9867 254.588 25.4667 254.215 25.04C253.868 24.5867 253.428 24.24 252.895 24C252.388 23.7333 251.775 23.6 251.055 23.6C250.308 23.6 249.655 23.7467 249.095 24.04C248.535 24.3067 248.055 24.6667 247.655 25.12C247.282 25.5733 246.988 26.0933 246.775 26.68C246.562 27.2667 246.415 27.8667 246.335 28.48H255.335Z" fill="#1E1E1E"/>
<path d="M40.6439 8.00896L64.7574 34.1849L40.5959 25.5493L40.6439 8.00896Z" stroke="#1E1E1E" stroke-width="2"/>
<path d="M39.5015 8.00095L40.1771 25.3527L15.8548 34.9804L39.5015 8.00095Z" stroke="#1E1E1E" stroke-width="2"/>
<circle cx="39.8385" cy="27.4635" r="5.6432" fill="#FFC700"/>
<path d="M39.4801 8.12625L39.5104 46.2945L14.0151 36.9443L39.4801 8.12625Z" stroke="#1E1E1E" stroke-width="2"/>
<path d="M40.7287 8.20707L66.8105 36.0434L40.7661 46.2548L40.7287 8.20707Z" stroke="#1E1E1E" stroke-width="2"/>
<path d="M33.9994 29.7415L12.0784 26.8819L13.406 21.1075L33.9994 29.7415Z" fill="#EB5757" fill-opacity="0.9"/>
<path d="M34.1147 29.6494L12.1915 32.651L12.0968 26.7684L34.1147 29.6494Z" fill="#F2994A" fill-opacity="0.9"/>
<path d="M34.1146 29.6497L13.9111 38.346L12.1628 32.6013L34.1146 29.6497Z" fill="#F2C94C" fill-opacity="0.9"/>
<path d="M33.9943 29.731L16.9761 43.2501L13.8656 38.2712L33.9943 29.731Z" fill="#219653" fill-opacity="0.9"/>
<path d="M34.066 29.7053L21.2238 47.2682L16.935 43.2134L34.066 29.7053Z" fill="#2F80ED" fill-opacity="0.9"/>
<path d="M34.1143 29.6496L26.4305 50.0439L21.2263 47.2598L34.1143 29.6496Z" fill="#9B51E0" fill-opacity="0.9"/>
<path d="M69.5598 14.6724L45.4822 25.2063" stroke="#1E1E1E" stroke-dasharray="4 4"/>
</svg>
