<svg width="1135" height="263" viewBox="0 0 1135 263" fill="none" xmlns="http://www.w3.org/2000/svg">
<path d="M438.8 87.8V90.8C435.5 90.9 433 91.3 431.3 92C429.6 92.6 428.45 93.8 427.85 95.6C427.25 97.3 426.95 100 426.95 103.7V178.1C426.95 181.7 427.25 184.4 427.85 186.2C428.45 188 429.6 189.2 431.3 189.8C433 190.4 435.5 190.8 438.8 191V194C436.4 193.8 433.35 193.7 429.65 193.7C426.05 193.6 422.35 193.55 418.55 193.55C414.35 193.55 410.4 193.6 406.7 193.7C403.1 193.7 400.15 193.8 397.85 194V191C401.25 190.8 403.8 190.4 405.5 189.8C407.2 189.2 408.3 188 408.8 186.2C409.4 184.4 409.7 181.7 409.7 178.1V103.7C409.7 100 409.4 97.3 408.8 95.6C408.3 93.8 407.15 92.6 405.35 92C403.65 91.3 401.15 90.9 397.85 90.8V87.8C400.15 87.9 403.1 88 406.7 88.1C410.4 88.2 414.35 88.25 418.55 88.25C422.35 88.25 426.05 88.2 429.65 88.1C433.35 88 436.4 87.9 438.8 87.8ZM496.938 114.5C499.838 114.5 502.288 115.1 504.288 116.3C506.388 117.5 507.938 119.05 508.938 120.95C510.038 122.75 510.588 124.8 510.588 127.1C510.588 130 509.688 132.5 507.888 134.6C506.188 136.6 503.888 137.6 500.988 137.6C498.488 137.6 496.338 136.85 494.538 135.35C492.838 133.85 491.988 131.8 491.988 129.2C491.988 127 492.538 125.15 493.638 123.65C494.838 122.05 496.188 120.8 497.688 119.9C496.688 119.1 495.488 118.75 494.088 118.85C491.388 118.95 488.888 119.85 486.588 121.55C484.288 123.15 482.338 125.25 480.738 127.85C479.138 130.35 477.888 133.05 476.988 135.95C476.088 138.85 475.638 141.55 475.638 144.05V178.55C475.638 183.45 476.988 186.75 479.688 188.45C482.388 190.05 486.138 190.85 490.938 190.85V194C488.638 193.9 485.338 193.8 481.038 193.7C476.838 193.5 472.388 193.4 467.688 193.4C464.088 193.4 460.488 193.5 456.888 193.7C453.288 193.8 450.538 193.9 448.638 194V190.85C452.538 190.85 455.288 190.1 456.888 188.6C458.588 187.1 459.438 184.25 459.438 180.05V132.95C459.438 128.45 458.688 125.15 457.188 123.05C455.688 120.85 452.838 119.75 448.638 119.75V116.6C451.838 116.9 454.938 117.05 457.938 117.05C461.338 117.05 464.488 116.9 467.388 116.6C470.388 116.2 473.138 115.65 475.638 114.95V132.2C476.838 129.3 478.438 126.5 480.438 123.8C482.438 121.1 484.838 118.9 487.638 117.2C490.438 115.4 493.538 114.5 496.938 114.5ZM534.46 78.8C537.56 78.8 540.16 79.8 542.26 81.8C544.36 83.7 545.41 86.1 545.41 89C545.41 91.9 544.36 94.35 542.26 96.35C540.16 98.25 537.56 99.2 534.46 99.2C531.36 99.2 528.76 98.25 526.66 96.35C524.56 94.35 523.51 91.9 523.51 89C523.51 86.1 524.56 83.7 526.66 81.8C528.76 79.8 531.36 78.8 534.46 78.8ZM543.46 114.95V180.05C543.46 184.25 544.26 187.1 545.86 188.6C547.56 190.1 550.36 190.85 554.26 190.85V194C552.56 193.9 549.91 193.8 546.31 193.7C542.81 193.5 539.21 193.4 535.51 193.4C532.01 193.4 528.41 193.5 524.71 193.7C521.01 193.8 518.26 193.9 516.46 194V190.85C520.36 190.85 523.11 190.1 524.71 188.6C526.41 187.1 527.26 184.25 527.26 180.05V132.95C527.26 128.45 526.51 125.15 525.01 123.05C523.51 120.85 520.66 119.75 516.46 119.75V116.6C519.66 116.9 522.76 117.05 525.76 117.05C529.16 117.05 532.31 116.9 535.21 116.6C538.21 116.2 540.96 115.65 543.46 114.95ZM631.631 76.4V177.65C631.631 182.15 632.381 185.5 633.881 187.7C635.481 189.8 638.331 190.85 642.431 190.85V194C639.331 193.7 636.231 193.55 633.131 193.55C629.731 193.55 626.531 193.7 623.531 194C620.631 194.3 617.931 194.85 615.431 195.65V94.4C615.431 89.9 614.631 86.6 613.031 84.5C611.531 82.3 608.731 81.2 604.631 81.2V78.05C607.831 78.35 610.931 78.5 613.931 78.5C617.231 78.5 620.381 78.35 623.381 78.05C626.381 77.65 629.131 77.1 631.631 76.4ZM597.881 114.5C602.281 114.5 606.281 115.45 609.881 117.35C613.581 119.25 616.181 122.45 617.681 126.95L615.881 128.6C614.481 125 612.431 122.4 609.731 120.8C607.031 119.1 603.981 118.25 600.581 118.25C594.881 118.25 590.231 121.3 586.631 127.4C583.031 133.4 581.281 142.7 581.381 155.3C581.381 163.6 582.081 170.4 583.481 175.7C584.881 180.9 586.931 184.75 589.631 187.25C592.431 189.75 595.781 191 599.681 191C603.581 191 607.081 189.35 610.181 186.05C613.381 182.75 615.281 178 615.881 171.8L617.231 174.95C616.231 181.75 613.831 187 610.031 190.7C606.231 194.3 601.131 196.1 594.731 196.1C588.631 196.1 583.231 194.65 578.531 191.75C573.931 188.75 570.381 184.25 567.881 178.25C565.381 172.15 564.131 164.5 564.131 155.3C564.131 146.2 565.631 138.65 568.631 132.65C571.731 126.55 575.831 122 580.931 119C586.031 116 591.681 114.5 597.881 114.5ZM667.468 78.8C670.568 78.8 673.168 79.8 675.268 81.8C677.368 83.7 678.418 86.1 678.418 89C678.418 91.9 677.368 94.35 675.268 96.35C673.168 98.25 670.568 99.2 667.468 99.2C664.368 99.2 661.768 98.25 659.668 96.35C657.568 94.35 656.518 91.9 656.518 89C656.518 86.1 657.568 83.7 659.668 81.8C661.768 79.8 664.368 78.8 667.468 78.8ZM676.468 114.95V180.05C676.468 184.25 677.268 187.1 678.868 188.6C680.568 190.1 683.368 190.85 687.268 190.85V194C685.568 193.9 682.918 193.8 679.318 193.7C675.818 193.5 672.218 193.4 668.518 193.4C665.018 193.4 661.418 193.5 657.718 193.7C654.018 193.8 651.268 193.9 649.468 194V190.85C653.368 190.85 656.118 190.1 657.718 188.6C659.418 187.1 660.268 184.25 660.268 180.05V132.95C660.268 128.45 659.518 125.15 658.018 123.05C656.518 120.85 653.668 119.75 649.468 119.75V116.6C652.668 116.9 655.768 117.05 658.768 117.05C662.168 117.05 665.318 116.9 668.218 116.6C671.218 116.2 673.968 115.65 676.468 114.95ZM722.339 114.5C726.339 114.5 729.789 115.15 732.689 116.45C735.689 117.65 737.839 118.75 739.139 119.75C742.439 122.35 744.489 120.65 745.289 114.65H748.589C748.389 117.45 748.239 120.85 748.139 124.85C748.039 128.75 747.989 133.95 747.989 140.45H744.689C744.089 136.75 743.039 133.15 741.539 129.65C740.139 126.15 738.039 123.25 735.239 120.95C732.539 118.65 728.989 117.5 724.589 117.5C721.289 117.5 718.539 118.45 716.339 120.35C714.139 122.15 713.039 124.85 713.039 128.45C713.039 131.45 713.939 134.05 715.739 136.25C717.539 138.45 719.839 140.5 722.639 142.4C725.539 144.3 728.639 146.35 731.939 148.55C735.639 151.05 738.939 153.55 741.839 156.05C744.839 158.45 747.189 161.15 748.889 164.15C750.689 167.15 751.589 170.65 751.589 174.65C751.589 179.25 750.339 183.15 747.839 186.35C745.439 189.55 742.239 192 738.239 193.7C734.239 195.3 729.839 196.1 725.039 196.1C722.639 196.1 720.389 195.85 718.289 195.35C716.189 194.95 714.239 194.4 712.439 193.7C711.339 193.1 710.239 192.5 709.139 191.9C708.139 191.2 707.139 190.55 706.139 189.95C705.139 189.25 704.239 189.35 703.439 190.25C702.639 191.15 702.039 192.75 701.639 195.05H698.339C698.539 191.85 698.689 187.95 698.789 183.35C698.889 178.75 698.939 172.65 698.939 165.05H702.239C702.939 170.55 703.989 175.4 705.389 179.6C706.789 183.8 708.839 187.1 711.539 189.5C714.339 191.8 718.139 192.95 722.939 192.95C724.839 192.95 726.739 192.55 728.639 191.75C730.539 190.85 732.089 189.45 733.289 187.55C734.589 185.65 735.239 183.1 735.239 179.9C735.239 175.5 733.689 171.9 730.589 169.1C727.589 166.2 723.689 163.15 718.889 159.95C715.489 157.55 712.239 155.2 709.139 152.9C706.139 150.5 703.689 147.85 701.789 144.95C699.889 141.95 698.939 138.4 698.939 134.3C698.939 129.8 699.989 126.1 702.089 123.2C704.289 120.3 707.189 118.15 710.789 116.75C714.389 115.25 718.239 114.5 722.339 114.5ZM851.832 85.7C858.432 85.7 863.832 86.7 868.032 88.7C872.332 90.6 876.132 92.85 879.432 95.45C881.432 96.95 882.932 97.15 883.932 96.05C885.032 94.85 885.782 92.1 886.182 87.8H889.632C889.432 91.6 889.282 96.2 889.182 101.6C889.082 106.9 889.032 114 889.032 122.9H885.582C884.882 118.5 884.182 114.9 883.482 112.1C882.882 109.3 882.032 106.9 880.932 104.9C879.932 102.9 878.532 100.95 876.732 99.05C873.832 95.45 870.282 92.85 866.082 91.25C861.882 89.65 857.432 88.85 852.732 88.85C847.632 88.85 843.132 90.15 839.232 92.75C835.332 95.25 832.032 98.85 829.332 103.55C826.732 108.25 824.732 113.8 823.332 120.2C821.932 126.6 821.232 133.6 821.232 141.2C821.232 149 821.982 156.1 823.482 162.5C824.982 168.8 827.132 174.25 829.932 178.85C832.832 183.35 836.282 186.85 840.282 189.35C844.382 191.75 848.932 192.95 853.932 192.95C858.032 192.95 862.282 192.15 866.682 190.55C871.082 188.85 874.582 186.3 877.182 182.9C879.982 179.9 881.882 176.55 882.882 172.85C883.982 169.05 884.882 163.9 885.582 157.4H889.032C889.032 166.6 889.082 174.05 889.182 179.75C889.282 185.35 889.432 190.1 889.632 194H886.182C885.782 189.7 885.082 187 884.082 185.9C883.182 184.8 881.632 184.95 879.432 186.35C875.732 188.95 871.782 191.25 867.582 193.25C863.482 195.15 858.182 196.1 851.682 196.1C841.782 196.1 833.132 193.95 825.732 189.65C818.332 185.35 812.582 179.15 808.482 171.05C804.382 162.95 802.332 153.2 802.332 141.8C802.332 130.6 804.432 120.8 808.632 112.4C812.932 104 818.782 97.45 826.182 92.75C833.582 88.05 842.132 85.7 851.832 85.7ZM924.182 195.05C919.982 195.05 916.382 194.25 913.382 192.65C910.382 191.05 908.132 188.85 906.632 186.05C905.132 183.25 904.382 180.05 904.382 176.45C904.382 172.05 905.382 168.5 907.382 165.8C909.382 163 911.932 160.75 915.032 159.05C918.232 157.35 921.582 155.95 925.082 154.85C928.682 153.65 932.032 152.55 935.132 151.55C938.332 150.45 940.932 149.2 942.932 147.8C945.032 146.4 946.082 144.55 946.082 142.25V132.05C946.082 128.45 945.482 125.6 944.282 123.5C943.182 121.3 941.632 119.75 939.632 118.85C937.732 117.95 935.432 117.5 932.732 117.5C930.432 117.5 927.982 117.85 925.382 118.55C922.782 119.15 920.732 120.4 919.232 122.3C921.432 122.9 923.232 124.1 924.632 125.9C926.132 127.6 926.882 129.75 926.882 132.35C926.882 135.15 925.932 137.35 924.032 138.95C922.232 140.55 919.932 141.35 917.132 141.35C914.032 141.35 911.732 140.4 910.232 138.5C908.732 136.5 907.982 134.2 907.982 131.6C907.982 128.9 908.632 126.7 909.932 125C911.332 123.3 913.132 121.7 915.332 120.2C917.732 118.6 920.782 117.25 924.482 116.15C928.282 115.05 932.482 114.5 937.082 114.5C941.382 114.5 945.082 115 948.182 116C951.382 116.9 954.032 118.4 956.132 120.5C958.632 122.8 960.282 125.7 961.082 129.2C961.882 132.6 962.282 136.75 962.282 141.65V183.05C962.282 185.55 962.582 187.35 963.182 188.45C963.882 189.45 964.982 189.95 966.482 189.95C967.482 189.95 968.432 189.7 969.332 189.2C970.332 188.7 971.482 187.95 972.782 186.95L974.282 189.5C972.182 191.2 970.032 192.55 967.832 193.55C965.732 194.55 963.032 195.05 959.732 195.05C956.532 195.05 953.932 194.55 951.932 193.55C949.932 192.55 948.432 191.1 947.432 189.2C946.532 187.3 946.082 184.95 946.082 182.15C943.482 186.35 940.382 189.55 936.782 191.75C933.182 193.95 928.982 195.05 924.182 195.05ZM931.382 187.85C934.182 187.85 936.782 187.05 939.182 185.45C941.682 183.85 943.982 181.45 946.082 178.25V148.4C944.982 150 943.382 151.4 941.282 152.6C939.182 153.7 936.932 154.85 934.532 156.05C932.132 157.25 929.832 158.65 927.632 160.25C925.532 161.75 923.782 163.7 922.382 166.1C920.982 168.5 920.282 171.55 920.282 175.25C920.282 179.15 921.282 182.25 923.282 184.55C925.282 186.75 927.982 187.85 931.382 187.85ZM1027.06 114.5C1029.96 114.5 1032.41 115.1 1034.41 116.3C1036.51 117.5 1038.06 119.05 1039.06 120.95C1040.16 122.75 1040.71 124.8 1040.71 127.1C1040.71 130 1039.81 132.5 1038.01 134.6C1036.31 136.6 1034.01 137.6 1031.11 137.6C1028.61 137.6 1026.46 136.85 1024.66 135.35C1022.96 133.85 1022.11 131.8 1022.11 129.2C1022.11 127 1022.66 125.15 1023.76 123.65C1024.96 122.05 1026.31 120.8 1027.81 119.9C1026.81 119.1 1025.61 118.75 1024.21 118.85C1021.51 118.95 1019.01 119.85 1016.71 121.55C1014.41 123.15 1012.46 125.25 1010.86 127.85C1009.26 130.35 1008.01 133.05 1007.11 135.95C1006.21 138.85 1005.76 141.55 1005.76 144.05V178.55C1005.76 183.45 1007.11 186.75 1009.81 188.45C1012.51 190.05 1016.26 190.85 1021.06 190.85V194C1018.76 193.9 1015.46 193.8 1011.16 193.7C1006.96 193.5 1002.51 193.4 997.815 193.4C994.215 193.4 990.615 193.5 987.015 193.7C983.415 193.8 980.665 193.9 978.765 194V190.85C982.665 190.85 985.415 190.1 987.015 188.6C988.715 187.1 989.565 184.25 989.565 180.05V132.95C989.565 128.45 988.815 125.15 987.315 123.05C985.815 120.85 982.965 119.75 978.765 119.75V116.6C981.965 116.9 985.065 117.05 988.065 117.05C991.465 117.05 994.615 116.9 997.515 116.6C1000.51 116.2 1003.26 115.65 1005.76 114.95V132.2C1006.96 129.3 1008.56 126.5 1010.56 123.8C1012.56 121.1 1014.96 118.9 1017.76 117.2C1020.56 115.4 1023.66 114.5 1027.06 114.5ZM1081.15 114.5C1089.95 114.5 1096.85 117.15 1101.85 122.45C1106.85 127.75 1109.35 136.15 1109.35 147.65H1057.6L1057.3 144.8H1093.45C1093.55 139.9 1093.15 135.4 1092.25 131.3C1091.35 127.1 1089.95 123.75 1088.05 121.25C1086.15 118.75 1083.65 117.5 1080.55 117.5C1076.25 117.5 1072.5 119.8 1069.3 124.4C1066.2 128.9 1064.3 136.15 1063.6 146.15L1064.05 146.9C1063.95 148.3 1063.85 149.85 1063.75 151.55C1063.65 153.15 1063.6 154.75 1063.6 156.35C1063.6 163.25 1064.65 169.05 1066.75 173.75C1068.85 178.45 1071.6 182 1075 184.4C1078.4 186.7 1081.85 187.85 1085.35 187.85C1088.05 187.85 1090.65 187.45 1093.15 186.65C1095.75 185.75 1098.2 184.3 1100.5 182.3C1102.8 180.2 1104.85 177.35 1106.65 173.75L1109.65 174.95C1108.45 178.35 1106.6 181.7 1104.1 185C1101.6 188.3 1098.4 191 1094.5 193.1C1090.6 195.1 1086.05 196.1 1080.85 196.1C1073.85 196.1 1067.75 194.55 1062.55 191.45C1057.35 188.25 1053.35 183.7 1050.55 177.8C1047.75 171.9 1046.35 164.9 1046.35 156.8C1046.35 147.9 1047.8 140.3 1050.7 134C1053.6 127.7 1057.65 122.9 1062.85 119.6C1068.15 116.2 1074.25 114.5 1081.15 114.5Z" fill="black"/>
<path d="M190.3 135.662L190.557 41.6903L319.744 181.927L190.3 135.662Z" stroke="#1E1E1E" stroke-width="10"/>
<path d="M56.0012 186.188L182.685 41.6505L186.304 134.61L56.0012 186.188ZM186.414 137.442C186.414 137.44 186.414 137.438 186.414 137.436L186.414 137.442L190.411 137.286L186.414 137.442Z" stroke="#1E1E1E" stroke-width="10"/>
<circle cx="184.2" cy="145.597" r="29.9172" fill="#FFC700"/>
<path d="M46.7802 195.991L182.601 42.2866L182.763 245.862L46.7802 195.991Z" stroke="#1E1E1E" stroke-width="10"/>
<path d="M191.998 245.661L191.798 42.7471L330.896 191.202L191.998 245.661Z" stroke="#1E1E1E" stroke-width="10"/>
<path d="M156.096 158.459L103.489 249.322L130.695 260.393L156.096 158.459Z" fill="#EB5757" fill-opacity="0.9"/>
<path d="M156.806 158.278L80.5218 232.815L104.002 249.566L156.806 158.278Z" fill="#F2994A" fill-opacity="0.9"/>
<path d="M156.804 158.28L62.5546 210.444L80.6384 233.064L156.804 158.28Z" fill="#F2C94C" fill-opacity="0.9"/>
<path d="M156.125 158.506L51.7203 185.185L62.7245 210.822L156.125 158.506Z" fill="#219653" fill-opacity="0.9"/>
<path d="M156.44 158.307L47.9257 157.926L51.7491 185.444L156.44 158.307Z" fill="#2F80ED" fill-opacity="0.9"/>
<path d="M156.802 158.281L51.9505 130.503L47.9631 157.941L156.802 158.281Z" fill="#9B51E0" fill-opacity="0.9"/>
<path d="M341.767 77.7856L214.12 133.631" stroke="#1E1E1E" stroke-width="3" stroke-dasharray="10 10"/>
</svg>
