<svg width="1089" height="263" viewBox="0 0 1089 263" fill="none" xmlns="http://www.w3.org/2000/svg">
<path d="M421.85 188H403.7V109.55H421.85V188ZM423.8 86.6C423.8 90 422.7 92.7 420.5 94.7C418.3 96.7 415.7 97.7 412.7 97.7C409.6 97.7 406.95 96.7 404.75 94.7C402.55 92.7 401.45 90 401.45 86.6C401.45 83.1 402.55 80.35 404.75 78.35C406.95 76.35 409.6 75.35 412.7 75.35C415.7 75.35 418.3 76.35 420.5 78.35C422.7 80.35 423.8 83.1 423.8 86.6ZM489.705 125.9C488.205 125.4 486.105 124.9 483.405 124.4C480.805 123.8 477.755 123.5 474.255 123.5C472.255 123.5 470.105 123.7 467.805 124.1C465.605 124.5 464.055 124.85 463.155 125.15V188H445.005V113.3C448.505 112 452.855 110.8 458.055 109.7C463.355 108.5 469.205 107.9 475.605 107.9C476.805 107.9 478.205 108 479.805 108.2C481.405 108.3 483.005 108.5 484.605 108.8C486.205 109 487.755 109.3 489.255 109.7C490.755 110 491.955 110.3 492.855 110.6L489.705 125.9ZM523.803 188H505.653V109.55H523.803V188ZM525.753 86.6C525.753 90 524.653 92.7 522.453 94.7C520.253 96.7 517.653 97.7 514.653 97.7C511.553 97.7 508.903 96.7 506.703 94.7C504.503 92.7 503.403 90 503.403 86.6C503.403 83.1 504.503 80.35 506.703 78.35C508.903 76.35 511.553 75.35 514.653 75.35C517.653 75.35 520.253 76.35 522.453 78.35C524.653 80.35 525.753 83.1 525.753 86.6ZM561.208 148.55C561.208 156.55 563.108 162.85 566.908 167.45C570.708 171.95 575.958 174.2 582.658 174.2C585.558 174.2 588.008 174.1 590.008 173.9C592.108 173.6 593.808 173.3 595.108 173V128C593.508 126.9 591.358 125.9 588.658 125C586.058 124 583.258 123.5 580.258 123.5C573.658 123.5 568.808 125.75 565.708 130.25C562.708 134.75 561.208 140.85 561.208 148.55ZM613.258 185.6C609.658 186.7 605.108 187.7 599.608 188.6C594.208 189.5 588.508 189.95 582.508 189.95C576.308 189.95 570.758 189 565.858 187.1C560.958 185.2 556.758 182.5 553.258 179C549.858 175.4 547.208 171.1 545.308 166.1C543.508 161 542.608 155.3 542.608 149C542.608 142.8 543.358 137.2 544.858 132.2C546.458 127.1 548.758 122.75 551.758 119.15C554.758 115.55 558.408 112.8 562.708 110.9C567.008 108.9 571.958 107.9 577.558 107.9C581.358 107.9 584.708 108.35 587.608 109.25C590.508 110.15 593.008 111.15 595.108 112.25V74.6L613.258 71.6V185.6ZM654.614 188H636.464V109.55H654.614V188ZM656.564 86.6C656.564 90 655.464 92.7 653.264 94.7C651.064 96.7 648.464 97.7 645.464 97.7C642.364 97.7 639.714 96.7 637.514 94.7C635.314 92.7 634.214 90 634.214 86.6C634.214 83.1 635.314 80.35 637.514 78.35C639.714 76.35 642.364 75.35 645.464 75.35C648.464 75.35 651.064 76.35 653.264 78.35C655.464 80.35 656.564 83.1 656.564 86.6ZM697.419 174.95C702.219 174.95 705.719 174.4 707.919 173.3C710.119 172.1 711.219 170.1 711.219 167.3C711.219 164.7 710.019 162.55 707.619 160.85C705.319 159.15 701.469 157.3 696.069 155.3C692.769 154.1 689.719 152.85 686.919 151.55C684.219 150.15 681.869 148.55 679.869 146.75C677.869 144.95 676.269 142.8 675.069 140.3C673.969 137.7 673.419 134.55 673.419 130.85C673.419 123.65 676.069 118 681.369 113.9C686.669 109.7 693.869 107.6 702.969 107.6C707.569 107.6 711.969 108.05 716.169 108.95C720.369 109.75 723.519 110.55 725.619 111.35L722.319 126.05C720.319 125.15 717.769 124.35 714.669 123.65C711.569 122.85 707.969 122.45 703.869 122.45C700.169 122.45 697.169 123.1 694.869 124.4C692.569 125.6 691.419 127.5 691.419 130.1C691.419 131.4 691.619 132.55 692.019 133.55C692.519 134.55 693.319 135.5 694.419 136.4C695.519 137.2 696.969 138.05 698.769 138.95C700.569 139.75 702.769 140.6 705.369 141.5C709.669 143.1 713.319 144.7 716.319 146.3C719.319 147.8 721.769 149.55 723.669 151.55C725.669 153.45 727.119 155.65 728.019 158.15C728.919 160.65 729.369 163.65 729.369 167.15C729.369 174.65 726.569 180.35 720.969 184.25C715.469 188.05 707.569 189.95 697.269 189.95C690.369 189.95 684.819 189.35 680.619 188.15C676.419 187.05 673.469 186.15 671.769 185.45L674.919 170.3C677.619 171.4 680.819 172.45 684.519 173.45C688.319 174.45 692.619 174.95 697.419 174.95ZM766.723 178.1C766.723 181.6 765.523 184.45 763.123 186.65C760.823 188.85 758.023 189.95 754.723 189.95C751.323 189.95 748.473 188.85 746.173 186.65C743.873 184.45 742.723 181.6 742.723 178.1C742.723 174.6 743.873 171.75 746.173 169.55C748.473 167.25 751.323 166.1 754.723 166.1C758.023 166.1 760.823 167.25 763.123 169.55C765.523 171.75 766.723 174.6 766.723 178.1ZM781.817 148.85C781.817 143.05 782.717 137.65 784.517 132.65C786.317 127.55 788.867 123.15 792.167 119.45C795.567 115.75 799.667 112.85 804.467 110.75C809.267 108.65 814.667 107.6 820.667 107.6C828.067 107.6 835.067 108.95 841.667 111.65L837.767 126.5C835.667 125.6 833.267 124.85 830.567 124.25C827.967 123.65 825.167 123.35 822.167 123.35C815.067 123.35 809.667 125.6 805.967 130.1C802.267 134.5 800.417 140.75 800.417 148.85C800.417 156.65 802.167 162.85 805.667 167.45C809.167 171.95 815.067 174.2 823.367 174.2C826.467 174.2 829.517 173.9 832.517 173.3C835.517 172.7 838.117 171.95 840.317 171.05L842.867 186.05C840.867 187.05 837.817 187.95 833.717 188.75C829.717 189.55 825.567 189.95 821.267 189.95C814.567 189.95 808.717 188.95 803.717 186.95C798.817 184.85 794.717 182 791.417 178.4C788.217 174.7 785.817 170.35 784.217 165.35C782.617 160.25 781.817 154.75 781.817 148.85ZM884.519 175.25C890.119 175.25 894.369 174.95 897.269 174.35V154.25C896.269 153.95 894.819 153.65 892.919 153.35C891.019 153.05 888.919 152.9 886.619 152.9C884.619 152.9 882.569 153.05 880.469 153.35C878.469 153.65 876.619 154.2 874.919 155C873.319 155.8 872.019 156.95 871.019 158.45C870.019 159.85 869.519 161.65 869.519 163.85C869.519 168.15 870.869 171.15 873.569 172.85C876.269 174.45 879.919 175.25 884.519 175.25ZM883.019 107.6C889.019 107.6 894.069 108.35 898.169 109.85C902.269 111.35 905.519 113.45 907.919 116.15C910.419 118.85 912.169 122.15 913.169 126.05C914.269 129.85 914.819 134.05 914.819 138.65V186.2C912.019 186.8 907.769 187.5 902.069 188.3C896.469 189.2 890.119 189.65 883.019 189.65C878.319 189.65 874.019 189.2 870.119 188.3C866.219 187.4 862.869 185.95 860.069 183.95C857.369 181.95 855.219 179.35 853.619 176.15C852.119 172.95 851.369 169 851.369 164.3C851.369 159.8 852.219 156 853.919 152.9C855.719 149.8 858.119 147.3 861.119 145.4C864.119 143.4 867.569 142 871.469 141.2C875.469 140.3 879.619 139.85 883.919 139.85C885.919 139.85 888.019 140 890.219 140.3C892.419 140.5 894.769 140.9 897.269 141.5V138.5C897.269 136.4 897.019 134.4 896.519 132.5C896.019 130.6 895.119 128.95 893.819 127.55C892.619 126.05 890.969 124.9 888.869 124.1C886.869 123.3 884.319 122.9 881.219 122.9C877.019 122.9 873.169 123.2 869.669 123.8C866.169 124.4 863.319 125.1 861.119 125.9L858.869 111.2C861.169 110.4 864.519 109.6 868.919 108.8C873.319 108 878.019 107.6 883.019 107.6ZM981.746 125.9C980.246 125.4 978.146 124.9 975.446 124.4C972.846 123.8 969.796 123.5 966.296 123.5C964.296 123.5 962.146 123.7 959.846 124.1C957.646 124.5 956.096 124.85 955.196 125.15V188H937.046V113.3C940.546 112 944.896 110.8 950.096 109.7C955.396 108.5 961.246 107.9 967.646 107.9C968.846 107.9 970.246 108 971.846 108.2C973.446 108.3 975.046 108.5 976.646 108.8C978.246 109 979.796 109.3 981.296 109.7C982.796 110 983.996 110.3 984.896 110.6L981.746 125.9ZM993.194 149.15C993.194 142.25 994.194 136.2 996.194 131C998.294 125.8 1001.04 121.5 1004.44 118.1C1007.84 114.6 1011.74 112 1016.14 110.3C1020.54 108.5 1025.04 107.6 1029.64 107.6C1040.44 107.6 1048.84 110.95 1054.84 117.65C1060.94 124.35 1063.99 134.35 1063.99 147.65C1063.99 148.65 1063.94 149.8 1063.84 151.1C1063.84 152.3 1063.79 153.4 1063.69 154.4H1011.94C1012.44 160.7 1014.64 165.6 1018.54 169.1C1022.54 172.5 1028.29 174.2 1035.79 174.2C1040.19 174.2 1044.19 173.8 1047.79 173C1051.49 172.2 1054.39 171.35 1056.49 170.45L1058.89 185.3C1057.89 185.8 1056.49 186.35 1054.69 186.95C1052.99 187.45 1050.99 187.9 1048.69 188.3C1046.49 188.8 1044.09 189.2 1041.49 189.5C1038.89 189.8 1036.24 189.95 1033.54 189.95C1026.64 189.95 1020.64 188.95 1015.54 186.95C1010.44 184.85 1006.24 182 1002.94 178.4C999.644 174.7 997.194 170.4 995.594 165.5C993.994 160.5 993.194 155.05 993.194 149.15ZM1045.84 141.05C1045.84 138.55 1045.49 136.2 1044.79 134C1044.09 131.7 1043.04 129.75 1041.64 128.15C1040.34 126.45 1038.69 125.15 1036.69 124.25C1034.79 123.25 1032.49 122.75 1029.79 122.75C1026.99 122.75 1024.54 123.3 1022.44 124.4C1020.34 125.4 1018.54 126.75 1017.04 128.45C1015.64 130.15 1014.54 132.1 1013.74 134.3C1012.94 136.5 1012.39 138.75 1012.09 141.05H1045.84Z" fill="black"/>
<path d="M190.557 41.6903L319.744 181.927L190.3 135.662L190.557 41.6903Z" stroke="#1E1E1E" stroke-width="10"/>
<path d="M56.0012 186.188L182.685 41.6505L186.304 134.61L56.0012 186.188Z" stroke="#1E1E1E" stroke-width="10"/>
<circle cx="184.2" cy="145.597" r="29.9172" fill="#FFC700"/>
<path d="M46.7802 195.991L182.601 42.2866L182.763 245.862L46.7802 195.991Z" stroke="#1E1E1E" stroke-width="10"/>
<path d="M191.998 245.661L191.798 42.7471L330.896 191.202L191.998 245.661Z" stroke="#1E1E1E" stroke-width="10"/>
<path d="M156.096 158.459L103.489 249.322L130.695 260.393L156.096 158.459Z" fill="#EB5757" fill-opacity="0.9"/>
<path d="M156.806 158.278L80.5218 232.815L104.002 249.566L156.806 158.278Z" fill="#F2994A" fill-opacity="0.9"/>
<path d="M156.804 158.28L62.5546 210.444L80.6384 233.064L156.804 158.28Z" fill="#F2C94C" fill-opacity="0.9"/>
<path d="M156.125 158.506L51.7203 185.185L62.7245 210.822L156.125 158.506Z" fill="#219653" fill-opacity="0.9"/>
<path d="M156.44 158.307L47.9257 157.926L51.7491 185.444L156.44 158.307Z" fill="#2F80ED" fill-opacity="0.9"/>
<path d="M156.802 158.281L51.9505 130.503L47.9631 157.941L156.802 158.281Z" fill="#9B51E0" fill-opacity="0.9"/>
<path d="M341.767 77.7856L214.12 133.631" stroke="#1E1E1E" stroke-width="3" stroke-dasharray="10 10"/>
</svg>
