<svg width="546" height="154" viewBox="0 0 546 154" fill="none" xmlns="http://www.w3.org/2000/svg">
<path d="M257.936 10.376V12.936C255.12 13.0213 252.987 13.3627 251.536 13.96C250.085 14.472 249.104 15.496 248.592 17.032C248.08 18.4827 247.824 20.7867 247.824 23.944V87.432C247.824 90.504 248.08 92.808 248.592 94.344C249.104 95.88 250.085 96.904 251.536 97.416C252.987 97.928 255.12 98.2693 257.936 98.44V101C255.888 100.829 253.285 100.744 250.128 100.744C247.056 100.659 243.899 100.616 240.656 100.616C237.072 100.616 233.701 100.659 230.544 100.744C227.472 100.744 224.955 100.829 222.992 101V98.44C225.893 98.2693 228.069 97.928 229.52 97.416C230.971 96.904 231.909 95.88 232.336 94.344C232.848 92.808 233.104 90.504 233.104 87.432V23.944C233.104 20.7867 232.848 18.4827 232.336 17.032C231.909 15.496 230.928 14.472 229.392 13.96C227.941 13.3627 225.808 13.0213 222.992 12.936V10.376C224.955 10.4613 227.472 10.5467 230.544 10.632C233.701 10.7173 237.072 10.76 240.656 10.76C243.899 10.76 247.056 10.7173 250.128 10.632C253.285 10.5467 255.888 10.4613 257.936 10.376ZM307.547 33.16C310.022 33.16 312.112 33.672 313.819 34.696C315.611 35.72 316.934 37.0427 317.787 38.664C318.726 40.2 319.195 41.9493 319.195 43.912C319.195 46.3867 318.427 48.52 316.891 50.312C315.44 52.0187 313.478 52.872 311.003 52.872C308.87 52.872 307.035 52.232 305.499 50.952C304.048 49.672 303.323 47.9227 303.323 45.704C303.323 43.8267 303.792 42.248 304.731 40.968C305.755 39.6027 306.907 38.536 308.187 37.768C307.334 37.0853 306.31 36.7867 305.115 36.872C302.811 36.9573 300.678 37.7253 298.715 39.176C296.752 40.5413 295.088 42.3333 293.723 44.552C292.358 46.6853 291.291 48.9893 290.523 51.464C289.755 53.9387 289.371 56.2427 289.371 58.376V87.816C289.371 91.9973 290.523 94.8133 292.827 96.264C295.131 97.6293 298.331 98.312 302.427 98.312V101C300.464 100.915 297.648 100.829 293.979 100.744C290.395 100.573 286.598 100.488 282.587 100.488C279.515 100.488 276.443 100.573 273.371 100.744C270.299 100.829 267.952 100.915 266.331 101V98.312C269.659 98.312 272.006 97.672 273.371 96.392C274.822 95.112 275.547 92.68 275.547 89.096V48.904C275.547 45.064 274.907 42.248 273.627 40.456C272.347 38.5787 269.915 37.64 266.331 37.64V34.952C269.062 35.208 271.707 35.336 274.267 35.336C277.168 35.336 279.856 35.208 282.331 34.952C284.891 34.6107 287.238 34.1413 289.371 33.544V48.264C290.395 45.7893 291.76 43.4 293.467 41.096C295.174 38.792 297.222 36.9147 299.611 35.464C302 33.928 304.646 33.16 307.547 33.16ZM339.566 2.696C342.211 2.696 344.43 3.54933 346.222 5.256C348.014 6.87733 348.91 8.92533 348.91 11.4C348.91 13.8747 348.014 15.9653 346.222 17.672C344.43 19.2933 342.211 20.104 339.566 20.104C336.921 20.104 334.702 19.2933 332.91 17.672C331.118 15.9653 330.222 13.8747 330.222 11.4C330.222 8.92533 331.118 6.87733 332.91 5.256C334.702 3.54933 336.921 2.696 339.566 2.696ZM347.246 33.544V89.096C347.246 92.68 347.929 95.112 349.294 96.392C350.745 97.672 353.134 98.312 356.462 98.312V101C355.011 100.915 352.75 100.829 349.678 100.744C346.691 100.573 343.619 100.488 340.462 100.488C337.475 100.488 334.403 100.573 331.246 100.744C328.089 100.829 325.742 100.915 324.206 101V98.312C327.534 98.312 329.881 97.672 331.246 96.392C332.697 95.112 333.422 92.68 333.422 89.096V48.904C333.422 45.064 332.782 42.248 331.502 40.456C330.222 38.5787 327.79 37.64 324.206 37.64V34.952C326.937 35.208 329.582 35.336 332.142 35.336C335.043 35.336 337.731 35.208 340.206 34.952C342.766 34.6107 345.113 34.1413 347.246 33.544ZM422.485 0.647995V87.048C422.485 90.888 423.125 93.7467 424.405 95.624C425.77 97.416 428.202 98.312 431.701 98.312V101C429.056 100.744 426.41 100.616 423.765 100.616C420.864 100.616 418.133 100.744 415.573 101C413.098 101.256 410.794 101.725 408.661 102.408V16.008C408.661 12.168 407.978 9.35199 406.613 7.56C405.333 5.68266 402.944 4.744 399.445 4.744V2.05599C402.176 2.31199 404.821 2.43999 407.381 2.43999C410.197 2.43999 412.885 2.31199 415.445 2.05599C418.005 1.71466 420.352 1.24533 422.485 0.647995ZM393.685 33.16C397.44 33.16 400.853 33.9707 403.925 35.592C407.082 37.2133 409.301 39.944 410.581 43.784L409.045 45.192C407.85 42.12 406.101 39.9013 403.797 38.536C401.493 37.0853 398.89 36.36 395.989 36.36C391.125 36.36 387.157 38.9627 384.085 44.168C381.013 49.288 379.52 57.224 379.605 67.976C379.605 75.0587 380.202 80.8613 381.397 85.384C382.592 89.8213 384.341 93.1067 386.645 95.24C389.034 97.3733 391.893 98.44 395.221 98.44C398.549 98.44 401.536 97.032 404.181 94.216C406.912 91.4 408.533 87.3467 409.045 82.056L410.197 84.744C409.344 90.5467 407.296 95.0267 404.053 98.184C400.81 101.256 396.458 102.792 390.997 102.792C385.792 102.792 381.184 101.555 377.173 99.08C373.248 96.52 370.218 92.68 368.085 87.56C365.952 82.3547 364.885 75.8267 364.885 67.976C364.885 60.2107 366.165 53.768 368.725 48.648C371.37 43.4427 374.869 39.56 379.221 37C383.573 34.44 388.394 33.16 393.685 33.16ZM453.066 2.696C455.711 2.696 457.93 3.54933 459.722 5.256C461.514 6.87733 462.41 8.92533 462.41 11.4C462.41 13.8747 461.514 15.9653 459.722 17.672C457.93 19.2933 455.711 20.104 453.066 20.104C450.421 20.104 448.202 19.2933 446.41 17.672C444.618 15.9653 443.722 13.8747 443.722 11.4C443.722 8.92533 444.618 6.87733 446.41 5.256C448.202 3.54933 450.421 2.696 453.066 2.696ZM460.746 33.544V89.096C460.746 92.68 461.429 95.112 462.794 96.392C464.245 97.672 466.634 98.312 469.962 98.312V101C468.511 100.915 466.25 100.829 463.178 100.744C460.191 100.573 457.119 100.488 453.962 100.488C450.975 100.488 447.903 100.573 444.746 100.744C441.589 100.829 439.242 100.915 437.706 101V98.312C441.034 98.312 443.381 97.672 444.746 96.392C446.197 95.112 446.922 92.68 446.922 89.096V48.904C446.922 45.064 446.282 42.248 445.002 40.456C443.722 38.5787 441.29 37.64 437.706 37.64V34.952C440.437 35.208 443.082 35.336 445.642 35.336C448.543 35.336 451.231 35.208 453.706 34.952C456.266 34.6107 458.613 34.1413 460.746 33.544ZM499.889 33.16C503.302 33.16 506.246 33.7147 508.721 34.824C511.281 35.848 513.116 36.7867 514.225 37.64C517.041 39.8587 518.79 38.408 519.473 33.288H522.289C522.118 35.6773 521.99 38.5787 521.905 41.992C521.82 45.32 521.777 49.7573 521.777 55.304H518.961C518.449 52.1467 517.553 49.0747 516.273 46.088C515.078 43.1013 513.286 40.6267 510.897 38.664C508.593 36.7013 505.564 35.72 501.809 35.72C498.993 35.72 496.646 36.5307 494.769 38.152C492.892 39.688 491.953 41.992 491.953 45.064C491.953 47.624 492.721 49.8427 494.257 51.72C495.793 53.5973 497.756 55.3467 500.145 56.968C502.62 58.5893 505.265 60.3387 508.081 62.216C511.238 64.3493 514.054 66.4827 516.529 68.616C519.089 70.664 521.094 72.968 522.545 75.528C524.081 78.088 524.849 81.0747 524.849 84.488C524.849 88.4133 523.782 91.7413 521.649 94.472C519.601 97.2027 516.87 99.2933 513.457 100.744C510.044 102.109 506.289 102.792 502.193 102.792C500.145 102.792 498.225 102.579 496.433 102.152C494.641 101.811 492.977 101.341 491.441 100.744C490.502 100.232 489.564 99.72 488.625 99.208C487.772 98.6107 486.918 98.056 486.065 97.544C485.212 96.9467 484.444 97.032 483.761 97.8C483.078 98.568 482.566 99.9333 482.225 101.896H479.409C479.58 99.1653 479.708 95.8373 479.793 91.912C479.878 87.9867 479.921 82.7813 479.921 76.296H482.737C483.334 80.9893 484.23 85.128 485.425 88.712C486.62 92.296 488.369 95.112 490.673 97.16C493.062 99.1227 496.305 100.104 500.401 100.104C502.022 100.104 503.644 99.7627 505.265 99.08C506.886 98.312 508.209 97.1173 509.233 95.496C510.342 93.8747 510.897 91.6987 510.897 88.968C510.897 85.2133 509.574 82.1413 506.929 79.752C504.369 77.2773 501.041 74.6747 496.945 71.944C494.044 69.896 491.27 67.8907 488.625 65.928C486.065 63.88 483.974 61.6187 482.353 59.144C480.732 56.584 479.921 53.5547 479.921 50.056C479.921 46.216 480.817 43.0587 482.609 40.584C484.486 38.1093 486.961 36.2747 490.033 35.08C493.105 33.8 496.39 33.16 499.889 33.16Z" fill="black"/>
<path d="M231.28 147.4C230.067 147.4 229.04 147.24 228.2 146.92C227.373 146.6 226.693 146.193 226.16 145.7C225.627 145.193 225.213 144.68 224.92 144.16C224.627 143.627 224.413 143.16 224.28 142.76L223.88 147H221.06V117.28H224.78V129.6C224.953 129.253 225.213 128.873 225.56 128.46C225.92 128.047 226.38 127.647 226.94 127.26C227.5 126.873 228.16 126.553 228.92 126.3C229.693 126.047 230.573 125.92 231.56 125.92C234.147 125.92 236.2 126.82 237.72 128.62C239.253 130.42 240.02 133.073 240.02 136.58C240.02 138.753 239.693 140.653 239.04 142.28C238.387 143.893 237.413 145.153 236.12 146.06C234.827 146.953 233.213 147.4 231.28 147.4ZM230.62 144.56C232.3 144.56 233.667 143.913 234.72 142.62C235.773 141.313 236.3 139.24 236.3 136.4C236.3 133.987 235.807 132.12 234.82 130.8C233.847 129.467 232.42 128.8 230.54 128.8C229.167 128.8 228.06 129.1 227.22 129.7C226.393 130.287 225.78 131.147 225.38 132.28C224.993 133.413 224.793 134.787 224.78 136.4C224.78 139.293 225.227 141.38 226.12 142.66C227.027 143.927 228.527 144.56 230.62 144.56ZM246.714 153.6C245.5 153.6 244.667 153.513 244.214 153.34C243.76 153.167 243.534 153.08 243.534 153.08V150.68L245.654 150.72C246.414 150.747 247.047 150.693 247.554 150.56C248.06 150.427 248.467 150.247 248.774 150.02C249.08 149.793 249.314 149.54 249.474 149.26C249.647 148.98 249.787 148.713 249.894 148.46L250.614 146.5L242.534 126.32H246.274L252.374 142.28L258.434 126.32H262.054L253.354 148.56C252.807 149.867 252.2 150.887 251.534 151.62C250.88 152.353 250.147 152.867 249.334 153.16C248.534 153.453 247.66 153.6 246.714 153.6ZM286.19 147.4C284.777 147.4 283.437 147.233 282.17 146.9C280.904 146.553 279.75 146.04 278.71 145.36C277.684 144.68 276.83 143.84 276.15 142.84C275.484 141.827 275.064 140.653 274.89 139.32H278.77C279.01 140.413 279.484 141.333 280.19 142.08C280.91 142.827 281.797 143.387 282.85 143.76C283.917 144.133 285.084 144.32 286.35 144.32C287.577 144.32 288.704 144.127 289.73 143.74C290.77 143.353 291.604 142.793 292.23 142.06C292.857 141.313 293.17 140.42 293.17 139.38C293.17 138.233 292.797 137.313 292.05 136.62C291.304 135.913 290.15 135.347 288.59 134.92L282.63 133.38C281.284 133.047 280.09 132.58 279.05 131.98C278.024 131.367 277.217 130.567 276.63 129.58C276.044 128.58 275.75 127.34 275.75 125.86C275.75 124.22 276.204 122.793 277.11 121.58C278.017 120.353 279.244 119.407 280.79 118.74C282.35 118.06 284.11 117.72 286.07 117.72C288.337 117.72 290.244 118.113 291.79 118.9C293.35 119.687 294.53 120.72 295.33 122C296.13 123.28 296.53 124.647 296.53 126.1H292.73C292.61 124.78 292.224 123.74 291.57 122.98C290.917 122.207 290.104 121.653 289.13 121.32C288.157 120.973 287.097 120.8 285.95 120.8C283.884 120.8 282.317 121.273 281.25 122.22C280.197 123.153 279.67 124.267 279.67 125.56C279.67 126.747 280.05 127.68 280.81 128.36C281.57 129.04 282.69 129.567 284.17 129.94L289.97 131.44C291.69 131.84 293.057 132.42 294.07 133.18C295.097 133.94 295.83 134.827 296.27 135.84C296.724 136.84 296.95 137.927 296.95 139.1C296.95 140.7 296.504 142.127 295.61 143.38C294.717 144.633 293.464 145.62 291.85 146.34C290.25 147.047 288.364 147.4 286.19 147.4ZM309.187 147.1C307.76 147.1 306.654 146.907 305.867 146.52C305.08 146.133 304.527 145.56 304.207 144.8C303.9 144.04 303.747 143.107 303.747 142V129.02H300.387V126.32H303.847L304.747 120.3H307.467V126.3H312.127V129.02H307.467V141.88C307.467 142.613 307.54 143.153 307.687 143.5C307.847 143.833 308.107 144.047 308.467 144.14C308.827 144.233 309.334 144.28 309.987 144.28H312.247V146.76C311.994 146.853 311.607 146.933 311.087 147C310.58 147.067 309.947 147.1 309.187 147.1ZM317.154 147V126.32H320.674V130.3C321.02 129.313 321.507 128.5 322.134 127.86C322.76 127.207 323.474 126.72 324.274 126.4C325.087 126.08 325.927 125.92 326.794 125.92C327.1 125.92 327.4 125.94 327.694 125.98C327.987 126.02 328.214 126.087 328.374 126.18V129.76C328.174 129.667 327.914 129.607 327.594 129.58C327.287 129.54 327.027 129.52 326.814 129.52C325.987 129.467 325.214 129.52 324.494 129.68C323.774 129.827 323.14 130.087 322.594 130.46C322.047 130.833 321.614 131.327 321.294 131.94C320.987 132.54 320.834 133.273 320.834 134.14V147H317.154ZM341.206 147.4C339.286 147.4 337.593 146.98 336.126 146.14C334.66 145.3 333.513 144.093 332.686 142.52C331.86 140.947 331.446 139.06 331.446 136.86C331.446 134.687 331.82 132.78 332.566 131.14C333.313 129.5 334.393 128.22 335.806 127.3C337.233 126.38 338.946 125.92 340.946 125.92C342.893 125.92 344.54 126.34 345.886 127.18C347.233 128.02 348.253 129.207 348.946 130.74C349.653 132.26 350.006 134.067 350.006 136.16V137.52H335.186C335.186 138.827 335.4 140.013 335.826 141.08C336.266 142.133 336.926 142.973 337.806 143.6C338.686 144.227 339.8 144.54 341.146 144.54C342.466 144.54 343.6 144.233 344.546 143.62C345.506 143.007 346.12 142.12 346.386 140.96H349.866C349.626 142.36 349.066 143.54 348.186 144.5C347.32 145.46 346.273 146.187 345.046 146.68C343.833 147.16 342.553 147.4 341.206 147.4ZM335.206 135.02H346.446C346.446 133.833 346.246 132.767 345.846 131.82C345.446 130.86 344.833 130.107 344.006 129.56C343.193 129 342.166 128.72 340.926 128.72C339.633 128.72 338.56 129.033 337.706 129.66C336.853 130.273 336.22 131.067 335.806 132.04C335.393 133 335.193 133.993 335.206 135.02ZM362.445 147.4C361.005 147.4 359.665 147.18 358.425 146.74C357.199 146.287 356.179 145.587 355.365 144.64C354.552 143.68 354.045 142.46 353.845 140.98H357.205C357.379 141.793 357.712 142.473 358.205 143.02C358.699 143.553 359.305 143.96 360.025 144.24C360.759 144.507 361.559 144.64 362.425 144.64C363.825 144.64 364.952 144.38 365.805 143.86C366.659 143.34 367.085 142.54 367.085 141.46C367.085 140.7 366.859 140.093 366.405 139.64C365.965 139.173 365.272 138.833 364.325 138.62L360.045 137.56C358.379 137.16 357.045 136.533 356.045 135.68C355.059 134.827 354.559 133.633 354.545 132.1C354.545 130.887 354.839 129.82 355.425 128.9C356.012 127.98 356.885 127.253 358.045 126.72C359.219 126.187 360.679 125.92 362.425 125.92C364.679 125.92 366.492 126.427 367.865 127.44C369.239 128.44 369.959 129.913 370.025 131.86H366.745C366.612 130.873 366.172 130.093 365.425 129.52C364.679 128.933 363.665 128.64 362.385 128.64C361.079 128.64 360.005 128.907 359.165 129.44C358.339 129.96 357.925 130.773 357.925 131.88C357.925 132.613 358.219 133.193 358.805 133.62C359.405 134.033 360.272 134.38 361.405 134.66L365.565 135.7C366.512 135.953 367.299 136.287 367.925 136.7C368.552 137.113 369.045 137.573 369.405 138.08C369.765 138.587 370.019 139.12 370.165 139.68C370.325 140.227 370.405 140.753 370.405 141.26C370.405 142.527 370.092 143.62 369.465 144.54C368.839 145.447 367.932 146.153 366.745 146.66C365.559 147.153 364.125 147.4 362.445 147.4ZM382.602 147.4C381.162 147.4 379.822 147.18 378.582 146.74C377.355 146.287 376.335 145.587 375.522 144.64C374.708 143.68 374.202 142.46 374.002 140.98H377.362C377.535 141.793 377.868 142.473 378.362 143.02C378.855 143.553 379.462 143.96 380.182 144.24C380.915 144.507 381.715 144.64 382.582 144.64C383.982 144.64 385.108 144.38 385.962 143.86C386.815 143.34 387.242 142.54 387.242 141.46C387.242 140.7 387.015 140.093 386.562 139.64C386.122 139.173 385.428 138.833 384.482 138.62L380.202 137.56C378.535 137.16 377.202 136.533 376.202 135.68C375.215 134.827 374.715 133.633 374.702 132.1C374.702 130.887 374.995 129.82 375.582 128.9C376.168 127.98 377.042 127.253 378.202 126.72C379.375 126.187 380.835 125.92 382.582 125.92C384.835 125.92 386.648 126.427 388.022 127.44C389.395 128.44 390.115 129.913 390.182 131.86H386.902C386.768 130.873 386.328 130.093 385.582 129.52C384.835 128.933 383.822 128.64 382.542 128.64C381.235 128.64 380.162 128.907 379.322 129.44C378.495 129.96 378.082 130.773 378.082 131.88C378.082 132.613 378.375 133.193 378.962 133.62C379.562 134.033 380.428 134.38 381.562 134.66L385.722 135.7C386.668 135.953 387.455 136.287 388.082 136.7C388.708 137.113 389.202 137.573 389.562 138.08C389.922 138.587 390.175 139.12 390.322 139.68C390.482 140.227 390.562 140.753 390.562 141.26C390.562 142.527 390.248 143.62 389.622 144.54C388.995 145.447 388.088 146.153 386.902 146.66C385.715 147.153 384.282 147.4 382.602 147.4ZM402.596 147V121.48H393.256V118.08H415.136V121.48H406.316V147H402.596ZM425.113 147.4C423.193 147.4 421.499 146.98 420.033 146.14C418.566 145.3 417.419 144.093 416.593 142.52C415.766 140.947 415.353 139.06 415.353 136.86C415.353 134.687 415.726 132.78 416.473 131.14C417.219 129.5 418.299 128.22 419.713 127.3C421.139 126.38 422.853 125.92 424.853 125.92C426.799 125.92 428.446 126.34 429.793 127.18C431.139 128.02 432.159 129.207 432.853 130.74C433.559 132.26 433.913 134.067 433.913 136.16V137.52H419.093C419.093 138.827 419.306 140.013 419.733 141.08C420.173 142.133 420.833 142.973 421.713 143.6C422.593 144.227 423.706 144.54 425.053 144.54C426.373 144.54 427.506 144.233 428.453 143.62C429.413 143.007 430.026 142.12 430.293 140.96H433.773C433.532 142.36 432.973 143.54 432.093 144.5C431.226 145.46 430.179 146.187 428.953 146.68C427.739 147.16 426.459 147.4 425.113 147.4ZM419.113 135.02H430.353C430.353 133.833 430.153 132.767 429.753 131.82C429.353 130.86 428.739 130.107 427.913 129.56C427.099 129 426.073 128.72 424.833 128.72C423.539 128.72 422.466 129.033 421.613 129.66C420.759 130.273 420.126 131.067 419.713 132.04C419.299 133 419.099 133.993 419.113 135.02ZM447.349 147.4C445.482 147.4 443.829 146.993 442.389 146.18C440.962 145.367 439.842 144.167 439.029 142.58C438.229 140.993 437.829 139.047 437.829 136.74C437.829 134.58 438.195 132.693 438.929 131.08C439.675 129.453 440.755 128.187 442.169 127.28C443.595 126.373 445.322 125.92 447.349 125.92C448.829 125.92 450.155 126.207 451.329 126.78C452.515 127.34 453.489 128.14 454.249 129.18C455.009 130.22 455.475 131.447 455.649 132.86H452.369C452.249 132.14 451.969 131.48 451.529 130.88C451.102 130.28 450.535 129.8 449.829 129.44C449.135 129.08 448.315 128.9 447.369 128.9C445.595 128.9 444.149 129.54 443.029 130.82C441.922 132.1 441.369 134.06 441.369 136.7C441.369 139.087 441.875 141 442.889 142.44C443.915 143.867 445.422 144.58 447.409 144.58C448.355 144.58 449.182 144.4 449.889 144.04C450.595 143.667 451.162 143.18 451.589 142.58C452.015 141.967 452.289 141.313 452.409 140.62H455.629C455.455 142.007 454.982 143.207 454.209 144.22C453.449 145.233 452.475 146.02 451.289 146.58C450.115 147.127 448.802 147.4 447.349 147.4ZM460.552 147V117.28H464.152V129.36C464.499 128.787 464.966 128.253 465.552 127.76C466.139 127.253 466.852 126.847 467.692 126.54C468.532 126.22 469.506 126.06 470.612 126.06C471.959 126.06 473.179 126.313 474.272 126.82C475.366 127.313 476.232 128.02 476.872 128.94C477.512 129.86 477.832 130.953 477.832 132.22V147H474.132V132.96C474.132 131.72 473.706 130.767 472.852 130.1C472.012 129.42 470.912 129.08 469.552 129.08C468.632 129.08 467.766 129.233 466.952 129.54C466.139 129.833 465.479 130.287 464.972 130.9C464.479 131.5 464.232 132.267 464.232 133.2V147H460.552Z" fill="black"/>
<path d="M15.236 128.63L174.193 128.194L191 151H0L15.236 128.63Z" fill="#EC6662"/>
<path d="M30.6294 106.259H159.115L174.194 128.194L15.2363 128.63L30.6294 106.259Z" fill="#F2A157"/>
<path d="M45.8649 84.1797H143.878L159.114 106.26H30.6289L45.8649 84.1797Z" fill="#F2CC58"/>
<path d="M61.1008 62.0991H128.642L143.878 84.1791H45.8647L61.1008 62.0991Z" fill="#369E5F"/>
<path d="M76.2719 40.019H113.563L128.642 62.099H61.1011L76.2719 40.019Z" fill="#438AE9"/>
<path d="M94.8717 13L113.563 40.0189H76.2695L94.8717 13Z" fill="#BB6BD9"/>
</svg>
