<svg width="542" height="118" viewBox="0 0 542 118" fill="none" xmlns="http://www.w3.org/2000/svg">
<path d="M243.936 14.376V16.936C241.12 17.0213 238.987 17.3627 237.536 17.96C236.085 18.472 235.104 19.496 234.592 21.032C234.08 22.4827 233.824 24.7867 233.824 27.944V91.432C233.824 94.504 234.08 96.808 234.592 98.344C235.104 99.88 236.085 100.904 237.536 101.416C238.987 101.928 241.12 102.269 243.936 102.44V105C241.888 104.829 239.285 104.744 236.128 104.744C233.056 104.659 229.899 104.616 226.656 104.616C223.072 104.616 219.701 104.659 216.544 104.744C213.472 104.744 210.955 104.829 208.992 105V102.44C211.893 102.269 214.069 101.928 215.52 101.416C216.971 100.904 217.909 99.88 218.336 98.344C218.848 96.808 219.104 94.504 219.104 91.432V27.944C219.104 24.7867 218.848 22.4827 218.336 21.032C217.909 19.496 216.928 18.472 215.392 17.96C213.941 17.3627 211.808 17.0213 208.992 16.936V14.376C210.955 14.4613 213.472 14.5467 216.544 14.632C219.701 14.7173 223.072 14.76 226.656 14.76C229.899 14.76 233.056 14.7173 236.128 14.632C239.285 14.5467 241.888 14.4613 243.936 14.376ZM293.547 37.16C296.022 37.16 298.112 37.672 299.819 38.696C301.611 39.72 302.934 41.0427 303.787 42.664C304.726 44.2 305.195 45.9493 305.195 47.912C305.195 50.3867 304.427 52.52 302.891 54.312C301.44 56.0187 299.478 56.872 297.003 56.872C294.87 56.872 293.035 56.232 291.499 54.952C290.048 53.672 289.323 51.9227 289.323 49.704C289.323 47.8267 289.792 46.248 290.731 44.968C291.755 43.6027 292.907 42.536 294.187 41.768C293.334 41.0853 292.31 40.7867 291.115 40.872C288.811 40.9573 286.678 41.7253 284.715 43.176C282.752 44.5413 281.088 46.3333 279.723 48.552C278.358 50.6853 277.291 52.9893 276.523 55.464C275.755 57.9387 275.371 60.2427 275.371 62.376V91.816C275.371 95.9973 276.523 98.8133 278.827 100.264C281.131 101.629 284.331 102.312 288.427 102.312V105C286.464 104.915 283.648 104.829 279.979 104.744C276.395 104.573 272.598 104.488 268.587 104.488C265.515 104.488 262.443 104.573 259.371 104.744C256.299 104.829 253.952 104.915 252.331 105V102.312C255.659 102.312 258.006 101.672 259.371 100.392C260.822 99.112 261.547 96.68 261.547 93.096V52.904C261.547 49.064 260.907 46.248 259.627 44.456C258.347 42.5787 255.915 41.64 252.331 41.64V38.952C255.062 39.208 257.707 39.336 260.267 39.336C263.168 39.336 265.856 39.208 268.331 38.952C270.891 38.6107 273.238 38.1413 275.371 37.544V52.264C276.395 49.7893 277.76 47.4 279.467 45.096C281.174 42.792 283.222 40.9147 285.611 39.464C288 37.928 290.646 37.16 293.547 37.16ZM325.566 6.696C328.211 6.696 330.43 7.54933 332.222 9.256C334.014 10.8773 334.91 12.9253 334.91 15.4C334.91 17.8747 334.014 19.9653 332.222 21.672C330.43 23.2933 328.211 24.104 325.566 24.104C322.921 24.104 320.702 23.2933 318.91 21.672C317.118 19.9653 316.222 17.8747 316.222 15.4C316.222 12.9253 317.118 10.8773 318.91 9.256C320.702 7.54933 322.921 6.696 325.566 6.696ZM333.246 37.544V93.096C333.246 96.68 333.929 99.112 335.294 100.392C336.745 101.672 339.134 102.312 342.462 102.312V105C341.011 104.915 338.75 104.829 335.678 104.744C332.691 104.573 329.619 104.488 326.462 104.488C323.475 104.488 320.403 104.573 317.246 104.744C314.089 104.829 311.742 104.915 310.206 105V102.312C313.534 102.312 315.881 101.672 317.246 100.392C318.697 99.112 319.422 96.68 319.422 93.096V52.904C319.422 49.064 318.782 46.248 317.502 44.456C316.222 42.5787 313.79 41.64 310.206 41.64V38.952C312.937 39.208 315.582 39.336 318.142 39.336C321.043 39.336 323.731 39.208 326.206 38.952C328.766 38.6107 331.113 38.1413 333.246 37.544ZM408.485 4.64799V91.048C408.485 94.888 409.125 97.7467 410.405 99.624C411.77 101.416 414.202 102.312 417.701 102.312V105C415.056 104.744 412.41 104.616 409.765 104.616C406.864 104.616 404.133 104.744 401.573 105C399.098 105.256 396.794 105.725 394.661 106.408V20.008C394.661 16.168 393.978 13.352 392.613 11.56C391.333 9.68266 388.944 8.744 385.445 8.744V6.05599C388.176 6.31199 390.821 6.43999 393.381 6.43999C396.197 6.43999 398.885 6.31199 401.445 6.05599C404.005 5.71466 406.352 5.24533 408.485 4.64799ZM379.685 37.16C383.44 37.16 386.853 37.9707 389.925 39.592C393.082 41.2133 395.301 43.944 396.581 47.784L395.045 49.192C393.85 46.12 392.101 43.9013 389.797 42.536C387.493 41.0853 384.89 40.36 381.989 40.36C377.125 40.36 373.157 42.9627 370.085 48.168C367.013 53.288 365.52 61.224 365.605 71.976C365.605 79.0587 366.202 84.8613 367.397 89.384C368.592 93.8213 370.341 97.1067 372.645 99.24C375.034 101.373 377.893 102.44 381.221 102.44C384.549 102.44 387.536 101.032 390.181 98.216C392.912 95.4 394.533 91.3467 395.045 86.056L396.197 88.744C395.344 94.5467 393.296 99.0267 390.053 102.184C386.81 105.256 382.458 106.792 376.997 106.792C371.792 106.792 367.184 105.555 363.173 103.08C359.248 100.52 356.218 96.68 354.085 91.56C351.952 86.3547 350.885 79.8267 350.885 71.976C350.885 64.2107 352.165 57.768 354.725 52.648C357.37 47.4427 360.869 43.56 365.221 41C369.573 38.44 374.394 37.16 379.685 37.16ZM439.066 6.696C441.711 6.696 443.93 7.54933 445.722 9.256C447.514 10.8773 448.41 12.9253 448.41 15.4C448.41 17.8747 447.514 19.9653 445.722 21.672C443.93 23.2933 441.711 24.104 439.066 24.104C436.421 24.104 434.202 23.2933 432.41 21.672C430.618 19.9653 429.722 17.8747 429.722 15.4C429.722 12.9253 430.618 10.8773 432.41 9.256C434.202 7.54933 436.421 6.696 439.066 6.696ZM446.746 37.544V93.096C446.746 96.68 447.429 99.112 448.794 100.392C450.245 101.672 452.634 102.312 455.962 102.312V105C454.511 104.915 452.25 104.829 449.178 104.744C446.191 104.573 443.119 104.488 439.962 104.488C436.975 104.488 433.903 104.573 430.746 104.744C427.589 104.829 425.242 104.915 423.706 105V102.312C427.034 102.312 429.381 101.672 430.746 100.392C432.197 99.112 432.922 96.68 432.922 93.096V52.904C432.922 49.064 432.282 46.248 431.002 44.456C429.722 42.5787 427.29 41.64 423.706 41.64V38.952C426.437 39.208 429.082 39.336 431.642 39.336C434.543 39.336 437.231 39.208 439.706 38.952C442.266 38.6107 444.613 38.1413 446.746 37.544ZM485.889 37.16C489.302 37.16 492.246 37.7147 494.721 38.824C497.281 39.848 499.116 40.7867 500.225 41.64C503.041 43.8587 504.79 42.408 505.473 37.288H508.289C508.118 39.6773 507.99 42.5787 507.905 45.992C507.82 49.32 507.777 53.7573 507.777 59.304H504.961C504.449 56.1467 503.553 53.0747 502.273 50.088C501.078 47.1013 499.286 44.6267 496.897 42.664C494.593 40.7013 491.564 39.72 487.809 39.72C484.993 39.72 482.646 40.5307 480.769 42.152C478.892 43.688 477.953 45.992 477.953 49.064C477.953 51.624 478.721 53.8427 480.257 55.72C481.793 57.5973 483.756 59.3467 486.145 60.968C488.62 62.5893 491.265 64.3387 494.081 66.216C497.238 68.3493 500.054 70.4827 502.529 72.616C505.089 74.664 507.094 76.968 508.545 79.528C510.081 82.088 510.849 85.0747 510.849 88.488C510.849 92.4133 509.782 95.7413 507.649 98.472C505.601 101.203 502.87 103.293 499.457 104.744C496.044 106.109 492.289 106.792 488.193 106.792C486.145 106.792 484.225 106.579 482.433 106.152C480.641 105.811 478.977 105.341 477.441 104.744C476.502 104.232 475.564 103.72 474.625 103.208C473.772 102.611 472.918 102.056 472.065 101.544C471.212 100.947 470.444 101.032 469.761 101.8C469.078 102.568 468.566 103.933 468.225 105.896H465.409C465.58 103.165 465.708 99.8373 465.793 95.912C465.878 91.9867 465.921 86.7813 465.921 80.296H468.737C469.334 84.9893 470.23 89.128 471.425 92.712C472.62 96.296 474.369 99.112 476.673 101.16C479.062 103.123 482.305 104.104 486.401 104.104C488.022 104.104 489.644 103.763 491.265 103.08C492.886 102.312 494.209 101.117 495.233 99.496C496.342 97.8747 496.897 95.6987 496.897 92.968C496.897 89.2133 495.574 86.1413 492.929 83.752C490.369 81.2773 487.041 78.6747 482.945 75.944C480.044 73.896 477.27 71.8907 474.625 69.928C472.065 67.88 469.974 65.6187 468.353 63.144C466.732 60.584 465.921 57.5547 465.921 54.056C465.921 50.216 466.817 47.0587 468.609 44.584C470.486 42.1093 472.961 40.2747 476.033 39.08C479.105 37.8 482.39 37.16 485.889 37.16Z" fill="black"/>
<path d="M11.9655 98.1909L136.801 97.8208L150 117.188H0L11.9655 98.1909Z" fill="#EC6662"/>
<path d="M24.0546 79.1943H124.959L136.801 97.821L11.9658 98.191L24.0546 79.1943Z" fill="#F2A157"/>
<path d="M36.0197 60.4443H112.993L124.959 79.1943H24.0542L36.0197 60.4443Z" fill="#F2CC58"/>
<path d="M47.985 41.6943H101.028L112.993 60.4443H36.0195L47.985 41.6943Z" fill="#369E5F"/>
<path d="M59.8996 22.9443H89.186L101.028 41.6943H47.9854L59.8996 22.9443Z" fill="#438AE9"/>
<path d="M74.5065 0L89.1858 22.9441H59.8975L74.5065 0Z" fill="#BB6BD9"/>
</svg>
