<svg width="373" height="263" viewBox="0 0 373 263" fill="none" xmlns="http://www.w3.org/2000/svg">
<path d="M190.557 41.6903L319.744 181.927L190.3 135.662L190.557 41.6903Z" stroke="#1E1E1E" stroke-width="10"/>
<path d="M56.0012 186.188L182.685 41.6505L186.304 134.61L56.0012 186.188Z" stroke="#1E1E1E" stroke-width="10"/>
<circle cx="184.2" cy="145.597" r="29.9172" fill="#FFC700"/>
<path d="M46.7802 195.991L182.601 42.2866L182.763 245.862L46.7802 195.991Z" stroke="#1E1E1E" stroke-width="10"/>
<path d="M191.998 245.661L191.798 42.7471L330.896 191.202L191.998 245.661Z" stroke="#1E1E1E" stroke-width="10"/>
<path d="M156.096 158.459L103.489 249.322L130.695 260.393L156.096 158.459Z" fill="#EB5757" fill-opacity="0.9"/>
<path d="M156.806 158.278L80.5218 232.815L104.002 249.566L156.806 158.278Z" fill="#F2994A" fill-opacity="0.9"/>
<path d="M156.804 158.28L62.5546 210.444L80.6384 233.064L156.804 158.28Z" fill="#F2C94C" fill-opacity="0.9"/>
<path d="M156.125 158.506L51.7203 185.185L62.7245 210.822L156.125 158.506Z" fill="#219653" fill-opacity="0.9"/>
<path d="M156.44 158.307L47.9257 157.926L51.7491 185.444L156.44 158.307Z" fill="#2F80ED" fill-opacity="0.9"/>
<path d="M156.802 158.281L51.9505 130.503L47.9631 157.941L156.802 158.281Z" fill="#9B51E0" fill-opacity="0.9"/>
<path d="M341.767 77.7856L214.12 133.631" stroke="#1E1E1E" stroke-width="3" stroke-dasharray="10 10"/>
</svg>
