<svg width="200" height="151" viewBox="0 0 200 151" fill="none" xmlns="http://www.w3.org/2000/svg">
<path d="M106.743 68.7268L106.881 18.3308L176.163 93.5384L106.743 68.7268ZM177.538 95.031C177.538 95.0307 177.538 95.0303 177.537 95.0299L177.538 95.031ZM106.743 69.0801L106.743 69.0795L106.743 69.0801Z" stroke="black" stroke-width="3"/>
<path d="M106.039 18.3186L107.98 68.1639L38.1108 95.8206L106.039 18.3186ZM107.994 68.5179C107.994 68.5173 107.994 68.5167 107.994 68.5161L107.994 68.5178L108.493 68.4984L107.994 68.5179Z" stroke="black" stroke-width="3"/>
<circle cx="105.891" cy="73" r="15" fill="#FFC700"/>
<path d="M35.2598 98.7035L106.094 18.5431L106.178 124.712L35.2598 98.7035ZM106.179 125.429C106.179 125.428 106.179 125.428 106.179 125.427L106.179 125.429Z" stroke="black" stroke-width="3"/>
<path d="M107.199 124.646L107.095 18.8827L179.596 96.2611L107.199 124.646Z" stroke="black" stroke-width="3"/>
<path d="M90.3738 79.0552L32.106 71.4542L35.6351 56.1055L90.3738 79.0552Z" fill="#EB5757" fill-opacity="0.9"/>
<path d="M90.6804 78.8112L32.407 86.7897L32.1551 71.1532L90.6804 78.8112Z" fill="#F2994A" fill-opacity="0.9"/>
<path d="M90.6794 78.8111L36.9771 101.926L32.33 86.6565L90.6794 78.8111Z" fill="#F2C94C" fill-opacity="0.9"/>
<path d="M90.3599 79.0275L45.1243 114.962L36.8564 101.728L90.3599 79.0275Z" fill="#219653" fill-opacity="0.9"/>
<path d="M90.5505 78.9593L56.4152 125.643L45.0152 114.865L90.5505 78.9593Z" fill="#2F80ED" fill-opacity="0.9"/>
<path d="M90.6795 78.8115L70.2555 133.021L56.4224 125.621L90.6795 78.8115Z" fill="#9B51E0" fill-opacity="0.9"/>
<path d="M184.891 39L120.891 67" stroke="black" stroke-width="2" stroke-dasharray="4 4"/>
</svg>
