<svg width="743" height="422" viewBox="0 0 743 422" fill="none" xmlns="http://www.w3.org/2000/svg">
<path d="M46.8 312.8V315.8C43.5 315.9 41 316.3 39.3 317C37.6 317.6 36.45 318.8 35.85 320.6C35.25 322.3 34.95 325 34.95 328.7V403.1C34.95 406.7 35.25 409.4 35.85 411.2C36.45 413 37.6 414.2 39.3 414.8C41 415.4 43.5 415.8 46.8 416V419C44.4 418.8 41.35 418.7 37.65 418.7C34.05 418.6 30.35 418.55 26.55 418.55C22.35 418.55 18.4 418.6 14.7 418.7C11.1 418.7 8.15 418.8 5.85 419V416C9.25 415.8 11.8 415.4 13.5 414.8C15.2 414.2 16.3 413 16.8 411.2C17.4 409.4 17.7 406.7 17.7 403.1V328.7C17.7 325 17.4 322.3 16.8 320.6C16.3 318.8 15.15 317.6 13.35 317C11.65 316.3 9.15 315.9 5.85 315.8V312.8C8.15 312.9 11.1 313 14.7 313.1C18.4 313.2 22.35 313.25 26.55 313.25C30.35 313.25 34.05 313.2 37.65 313.1C41.35 313 44.4 312.9 46.8 312.8ZM104.938 339.5C107.838 339.5 110.288 340.1 112.288 341.3C114.388 342.5 115.938 344.05 116.938 345.95C118.038 347.75 118.588 349.8 118.588 352.1C118.588 355 117.688 357.5 115.888 359.6C114.188 361.6 111.888 362.6 108.988 362.6C106.488 362.6 104.338 361.85 102.538 360.35C100.838 358.85 99.9879 356.8 99.9879 354.2C99.9879 352 100.538 350.15 101.638 348.65C102.838 347.05 104.188 345.8 105.688 344.9C104.688 344.1 103.488 343.75 102.088 343.85C99.3879 343.95 96.8879 344.85 94.5879 346.55C92.2879 348.15 90.3379 350.25 88.7379 352.85C87.1379 355.35 85.8879 358.05 84.9879 360.95C84.0879 363.85 83.6379 366.55 83.6379 369.05V403.55C83.6379 408.45 84.9879 411.75 87.6879 413.45C90.3879 415.05 94.1379 415.85 98.9379 415.85V419C96.6379 418.9 93.3379 418.8 89.0379 418.7C84.8379 418.5 80.3879 418.4 75.6879 418.4C72.0879 418.4 68.4879 418.5 64.8879 418.7C61.2879 418.8 58.5379 418.9 56.6379 419V415.85C60.5379 415.85 63.2879 415.1 64.8879 413.6C66.5879 412.1 67.4379 409.25 67.4379 405.05V357.95C67.4379 353.45 66.6879 350.15 65.1879 348.05C63.6879 345.85 60.8379 344.75 56.6379 344.75V341.6C59.8379 341.9 62.9379 342.05 65.9379 342.05C69.3379 342.05 72.4879 341.9 75.3879 341.6C78.3879 341.2 81.1379 340.65 83.6379 339.95V357.2C84.8379 354.3 86.4379 351.5 88.4379 348.8C90.4379 346.1 92.8379 343.9 95.6379 342.2C98.4379 340.4 101.538 339.5 104.938 339.5ZM142.46 303.8C145.56 303.8 148.16 304.8 150.26 306.8C152.36 308.7 153.41 311.1 153.41 314C153.41 316.9 152.36 319.35 150.26 321.35C148.16 323.25 145.56 324.2 142.46 324.2C139.36 324.2 136.76 323.25 134.66 321.35C132.56 319.35 131.51 316.9 131.51 314C131.51 311.1 132.56 308.7 134.66 306.8C136.76 304.8 139.36 303.8 142.46 303.8ZM151.46 339.95V405.05C151.46 409.25 152.26 412.1 153.86 413.6C155.56 415.1 158.36 415.85 162.26 415.85V419C160.56 418.9 157.91 418.8 154.31 418.7C150.81 418.5 147.21 418.4 143.51 418.4C140.01 418.4 136.41 418.5 132.71 418.7C129.01 418.8 126.26 418.9 124.46 419V415.85C128.36 415.85 131.11 415.1 132.71 413.6C134.41 412.1 135.26 409.25 135.26 405.05V357.95C135.26 353.45 134.51 350.15 133.01 348.05C131.51 345.85 128.66 344.75 124.46 344.75V341.6C127.66 341.9 130.76 342.05 133.76 342.05C137.16 342.05 140.31 341.9 143.21 341.6C146.21 341.2 148.96 340.65 151.46 339.95ZM239.631 301.4V402.65C239.631 407.15 240.381 410.5 241.881 412.7C243.481 414.8 246.331 415.85 250.431 415.85V419C247.331 418.7 244.231 418.55 241.131 418.55C237.731 418.55 234.531 418.7 231.531 419C228.631 419.3 225.931 419.85 223.431 420.65V319.4C223.431 314.9 222.631 311.6 221.031 309.5C219.531 307.3 216.731 306.2 212.631 306.2V303.05C215.831 303.35 218.931 303.5 221.931 303.5C225.231 303.5 228.381 303.35 231.381 303.05C234.381 302.65 237.131 302.1 239.631 301.4ZM205.881 339.5C210.281 339.5 214.281 340.45 217.881 342.35C221.581 344.25 224.181 347.45 225.681 351.95L223.881 353.6C222.481 350 220.431 347.4 217.731 345.8C215.031 344.1 211.981 343.25 208.581 343.25C202.881 343.25 198.231 346.3 194.631 352.4C191.031 358.4 189.281 367.7 189.381 380.3C189.381 388.6 190.081 395.4 191.481 400.7C192.881 405.9 194.931 409.75 197.631 412.25C200.431 414.75 203.781 416 207.681 416C211.581 416 215.081 414.35 218.181 411.05C221.381 407.75 223.281 403 223.881 396.8L225.231 399.95C224.231 406.75 221.831 412 218.031 415.7C214.231 419.3 209.131 421.1 202.731 421.1C196.631 421.1 191.231 419.65 186.531 416.75C181.931 413.75 178.381 409.25 175.881 403.25C173.381 397.15 172.131 389.5 172.131 380.3C172.131 371.2 173.631 363.65 176.631 357.65C179.731 351.55 183.831 347 188.931 344C194.031 341 199.681 339.5 205.881 339.5ZM275.468 303.8C278.568 303.8 281.168 304.8 283.268 306.8C285.368 308.7 286.418 311.1 286.418 314C286.418 316.9 285.368 319.35 283.268 321.35C281.168 323.25 278.568 324.2 275.468 324.2C272.368 324.2 269.768 323.25 267.668 321.35C265.568 319.35 264.518 316.9 264.518 314C264.518 311.1 265.568 308.7 267.668 306.8C269.768 304.8 272.368 303.8 275.468 303.8ZM284.468 339.95V405.05C284.468 409.25 285.268 412.1 286.868 413.6C288.568 415.1 291.368 415.85 295.268 415.85V419C293.568 418.9 290.918 418.8 287.318 418.7C283.818 418.5 280.218 418.4 276.518 418.4C273.018 418.4 269.418 418.5 265.718 418.7C262.018 418.8 259.268 418.9 257.468 419V415.85C261.368 415.85 264.118 415.1 265.718 413.6C267.418 412.1 268.268 409.25 268.268 405.05V357.95C268.268 353.45 267.518 350.15 266.018 348.05C264.518 345.85 261.668 344.75 257.468 344.75V341.6C260.668 341.9 263.768 342.05 266.768 342.05C270.168 342.05 273.318 341.9 276.218 341.6C279.218 341.2 281.968 340.65 284.468 339.95ZM330.339 339.5C334.339 339.5 337.789 340.15 340.689 341.45C343.689 342.65 345.839 343.75 347.139 344.75C350.439 347.35 352.489 345.65 353.289 339.65H356.589C356.389 342.45 356.239 345.85 356.139 349.85C356.039 353.75 355.989 358.95 355.989 365.45H352.689C352.089 361.75 351.039 358.15 349.539 354.65C348.139 351.15 346.039 348.25 343.239 345.95C340.539 343.65 336.989 342.5 332.589 342.5C329.289 342.5 326.539 343.45 324.339 345.35C322.139 347.15 321.039 349.85 321.039 353.45C321.039 356.45 321.939 359.05 323.739 361.25C325.539 363.45 327.839 365.5 330.639 367.4C333.539 369.3 336.639 371.35 339.939 373.55C343.639 376.05 346.939 378.55 349.839 381.05C352.839 383.45 355.189 386.15 356.889 389.15C358.689 392.15 359.589 395.65 359.589 399.65C359.589 404.25 358.339 408.15 355.839 411.35C353.439 414.55 350.239 417 346.239 418.7C342.239 420.3 337.839 421.1 333.039 421.1C330.639 421.1 328.389 420.85 326.289 420.35C324.189 419.95 322.239 419.4 320.439 418.7C319.339 418.1 318.239 417.5 317.139 416.9C316.139 416.2 315.139 415.55 314.139 414.95C313.139 414.25 312.239 414.35 311.439 415.25C310.639 416.15 310.039 417.75 309.639 420.05H306.339C306.539 416.85 306.689 412.95 306.789 408.35C306.889 403.75 306.939 397.65 306.939 390.05H310.239C310.939 395.55 311.989 400.4 313.389 404.6C314.789 408.8 316.839 412.1 319.539 414.5C322.339 416.8 326.139 417.95 330.939 417.95C332.839 417.95 334.739 417.55 336.639 416.75C338.539 415.85 340.089 414.45 341.289 412.55C342.589 410.65 343.239 408.1 343.239 404.9C343.239 400.5 341.689 396.9 338.589 394.1C335.589 391.2 331.689 388.15 326.889 384.95C323.489 382.55 320.239 380.2 317.139 377.9C314.139 375.5 311.689 372.85 309.789 369.95C307.889 366.95 306.939 363.4 306.939 359.3C306.939 354.8 307.989 351.1 310.089 348.2C312.289 345.3 315.189 343.15 318.789 341.75C322.389 340.25 326.239 339.5 330.339 339.5ZM459.832 310.7C466.432 310.7 471.832 311.7 476.032 313.7C480.332 315.6 484.132 317.85 487.432 320.45C489.432 321.95 490.932 322.15 491.932 321.05C493.032 319.85 493.782 317.1 494.182 312.8H497.632C497.432 316.6 497.282 321.2 497.182 326.6C497.082 331.9 497.032 339 497.032 347.9H493.582C492.882 343.5 492.182 339.9 491.482 337.1C490.882 334.3 490.032 331.9 488.932 329.9C487.932 327.9 486.532 325.95 484.732 324.05C481.832 320.45 478.282 317.85 474.082 316.25C469.882 314.65 465.432 313.85 460.732 313.85C455.632 313.85 451.132 315.15 447.232 317.75C443.332 320.25 440.032 323.85 437.332 328.55C434.732 333.25 432.732 338.8 431.332 345.2C429.932 351.6 429.232 358.6 429.232 366.2C429.232 374 429.982 381.1 431.482 387.5C432.982 393.8 435.132 399.25 437.932 403.85C440.832 408.35 444.282 411.85 448.282 414.35C452.382 416.75 456.932 417.95 461.932 417.95C466.032 417.95 470.282 417.15 474.682 415.55C479.082 413.85 482.582 411.3 485.182 407.9C487.982 404.9 489.882 401.55 490.882 397.85C491.982 394.05 492.882 388.9 493.582 382.4H497.032C497.032 391.6 497.082 399.05 497.182 404.75C497.282 410.35 497.432 415.1 497.632 419H494.182C493.782 414.7 493.082 412 492.082 410.9C491.182 409.8 489.632 409.95 487.432 411.35C483.732 413.95 479.782 416.25 475.582 418.25C471.482 420.15 466.182 421.1 459.682 421.1C449.782 421.1 441.132 418.95 433.732 414.65C426.332 410.35 420.582 404.15 416.482 396.05C412.382 387.95 410.332 378.2 410.332 366.8C410.332 355.6 412.432 345.8 416.632 337.4C420.932 329 426.782 322.45 434.182 317.75C441.582 313.05 450.132 310.7 459.832 310.7ZM532.182 420.05C527.982 420.05 524.382 419.25 521.382 417.65C518.382 416.05 516.132 413.85 514.632 411.05C513.132 408.25 512.382 405.05 512.382 401.45C512.382 397.05 513.382 393.5 515.382 390.8C517.382 388 519.932 385.75 523.032 384.05C526.232 382.35 529.582 380.95 533.082 379.85C536.682 378.65 540.032 377.55 543.132 376.55C546.332 375.45 548.932 374.2 550.932 372.8C553.032 371.4 554.082 369.55 554.082 367.25V357.05C554.082 353.45 553.482 350.6 552.282 348.5C551.182 346.3 549.632 344.75 547.632 343.85C545.732 342.95 543.432 342.5 540.732 342.5C538.432 342.5 535.982 342.85 533.382 343.55C530.782 344.15 528.732 345.4 527.232 347.3C529.432 347.9 531.232 349.1 532.632 350.9C534.132 352.6 534.882 354.75 534.882 357.35C534.882 360.15 533.932 362.35 532.032 363.95C530.232 365.55 527.932 366.35 525.132 366.35C522.032 366.35 519.732 365.4 518.232 363.5C516.732 361.5 515.982 359.2 515.982 356.6C515.982 353.9 516.632 351.7 517.932 350C519.332 348.3 521.132 346.7 523.332 345.2C525.732 343.6 528.782 342.25 532.482 341.15C536.282 340.05 540.482 339.5 545.082 339.5C549.382 339.5 553.082 340 556.182 341C559.382 341.9 562.032 343.4 564.132 345.5C566.632 347.8 568.282 350.7 569.082 354.2C569.882 357.6 570.282 361.75 570.282 366.65V408.05C570.282 410.55 570.582 412.35 571.182 413.45C571.882 414.45 572.982 414.95 574.482 414.95C575.482 414.95 576.432 414.7 577.332 414.2C578.332 413.7 579.482 412.95 580.782 411.95L582.282 414.5C580.182 416.2 578.032 417.55 575.832 418.55C573.732 419.55 571.032 420.05 567.732 420.05C564.532 420.05 561.932 419.55 559.932 418.55C557.932 417.55 556.432 416.1 555.432 414.2C554.532 412.3 554.082 409.95 554.082 407.15C551.482 411.35 548.382 414.55 544.782 416.75C541.182 418.95 536.982 420.05 532.182 420.05ZM539.382 412.85C542.182 412.85 544.782 412.05 547.182 410.45C549.682 408.85 551.982 406.45 554.082 403.25V373.4C552.982 375 551.382 376.4 549.282 377.6C547.182 378.7 544.932 379.85 542.532 381.05C540.132 382.25 537.832 383.65 535.632 385.25C533.532 386.75 531.782 388.7 530.382 391.1C528.982 393.5 528.282 396.55 528.282 400.25C528.282 404.15 529.282 407.25 531.282 409.55C533.282 411.75 535.982 412.85 539.382 412.85ZM635.065 339.5C637.965 339.5 640.415 340.1 642.415 341.3C644.515 342.5 646.065 344.05 647.065 345.95C648.165 347.75 648.715 349.8 648.715 352.1C648.715 355 647.815 357.5 646.015 359.6C644.315 361.6 642.015 362.6 639.115 362.6C636.615 362.6 634.465 361.85 632.665 360.35C630.965 358.85 630.115 356.8 630.115 354.2C630.115 352 630.665 350.15 631.765 348.65C632.965 347.05 634.315 345.8 635.815 344.9C634.815 344.1 633.615 343.75 632.215 343.85C629.515 343.95 627.015 344.85 624.715 346.55C622.415 348.15 620.465 350.25 618.865 352.85C617.265 355.35 616.015 358.05 615.115 360.95C614.215 363.85 613.765 366.55 613.765 369.05V403.55C613.765 408.45 615.115 411.75 617.815 413.45C620.515 415.05 624.265 415.85 629.065 415.85V419C626.765 418.9 623.465 418.8 619.165 418.7C614.965 418.5 610.515 418.4 605.815 418.4C602.215 418.4 598.615 418.5 595.015 418.7C591.415 418.8 588.665 418.9 586.765 419V415.85C590.665 415.85 593.415 415.1 595.015 413.6C596.715 412.1 597.565 409.25 597.565 405.05V357.95C597.565 353.45 596.815 350.15 595.315 348.05C593.815 345.85 590.965 344.75 586.765 344.75V341.6C589.965 341.9 593.065 342.05 596.065 342.05C599.465 342.05 602.615 341.9 605.515 341.6C608.515 341.2 611.265 340.65 613.765 339.95V357.2C614.965 354.3 616.565 351.5 618.565 348.8C620.565 346.1 622.965 343.9 625.765 342.2C628.565 340.4 631.665 339.5 635.065 339.5ZM689.15 339.5C697.95 339.5 704.85 342.15 709.85 347.45C714.85 352.75 717.35 361.15 717.35 372.65H665.6L665.3 369.8H701.45C701.55 364.9 701.15 360.4 700.25 356.3C699.35 352.1 697.95 348.75 696.05 346.25C694.15 343.75 691.65 342.5 688.55 342.5C684.25 342.5 680.5 344.8 677.3 349.4C674.2 353.9 672.3 361.15 671.6 371.15L672.05 371.9C671.95 373.3 671.85 374.85 671.75 376.55C671.65 378.15 671.6 379.75 671.6 381.35C671.6 388.25 672.65 394.05 674.75 398.75C676.85 403.45 679.6 407 683 409.4C686.4 411.7 689.85 412.85 693.35 412.85C696.05 412.85 698.65 412.45 701.15 411.65C703.75 410.75 706.2 409.3 708.5 407.3C710.8 405.2 712.85 402.35 714.65 398.75L717.65 399.95C716.45 403.35 714.6 406.7 712.1 410C709.6 413.3 706.4 416 702.5 418.1C698.6 420.1 694.05 421.1 688.85 421.1C681.85 421.1 675.75 419.55 670.55 416.45C665.35 413.25 661.35 408.7 658.55 402.8C655.75 396.9 654.35 389.9 654.35 381.8C654.35 372.9 655.8 365.3 658.7 359C661.6 352.7 665.65 347.9 670.85 344.6C676.15 341.2 682.25 339.5 689.15 339.5Z" fill="black"/>
<path d="M376.218 41.6903L505.405 181.927L375.961 135.662L376.218 41.6903Z" stroke="#1E1E1E" stroke-width="10"/>
<path d="M241.662 186.188L368.346 41.6505L371.965 134.61L241.662 186.188Z" stroke="#1E1E1E" stroke-width="10"/>
<circle cx="369.862" cy="145.597" r="29.9172" fill="#FFC700"/>
<path d="M232.441 195.991L368.262 42.2866L368.424 245.862L232.441 195.991Z" stroke="#1E1E1E" stroke-width="10"/>
<path d="M377.659 245.661L377.459 42.7471L516.557 191.202L377.659 245.661Z" stroke="#1E1E1E" stroke-width="10"/>
<path d="M341.757 158.459L289.15 249.322L316.356 260.393L341.757 158.459Z" fill="#EB5757" fill-opacity="0.9"/>
<path d="M342.467 158.278L266.183 232.815L289.663 249.566L342.467 158.278Z" fill="#F2994A" fill-opacity="0.9"/>
<path d="M342.465 158.28L248.216 210.444L266.3 233.064L342.465 158.28Z" fill="#F2C94C" fill-opacity="0.9"/>
<path d="M341.786 158.506L237.381 185.185L248.386 210.822L341.786 158.506Z" fill="#219653" fill-opacity="0.9"/>
<path d="M342.101 158.307L233.587 157.926L237.41 185.444L342.101 158.307Z" fill="#2F80ED" fill-opacity="0.9"/>
<path d="M342.463 158.281L237.612 130.503L233.624 157.941L342.463 158.281Z" fill="#9B51E0" fill-opacity="0.9"/>
<path d="M527.428 77.7856L399.781 133.631" stroke="#1E1E1E" stroke-width="3" stroke-dasharray="10 10"/>
</svg>
