<svg width="35" height="32" viewBox="0 0 35 32" fill="none" xmlns="http://www.w3.org/2000/svg">
<rect x="1" width="32" height="32" rx="16" fill="#F4E9C7"/>
<path d="M18.4816 8.35324L28.1631 18.6344C28.7036 19.2083 28.1061 20.1206 27.3639 19.8545L17.7309 16.4003C17.4347 16.2941 17.2363 16.0143 17.234 15.6996L17.1856 8.87274C17.1807 8.19107 18.0142 7.85696 18.4816 8.35324Z" stroke="#1E1E1E" stroke-width="0.5"/>
<path d="M17.0945 8.84705L17.3756 15.5403C17.389 15.8593 17.199 16.1518 16.9022 16.2692L7.59438 19.9513C6.8639 20.2403 6.23704 19.3543 6.75266 18.7616L15.7793 8.38625C16.2244 7.87463 17.066 8.16951 17.0945 8.84705Z" stroke="#1E1E1E" stroke-width="0.5"/>
<circle cx="16.9976" cy="15.7178" r="2.40772" fill="#FFC700"/>
<path d="M17.022 8.9797L17.0331 22.93C17.0335 23.4516 16.5146 23.8144 16.0249 23.6348L6.70642 20.2173C6.21076 20.0355 6.05306 19.4121 6.40264 19.0165L15.71 8.48367C16.1672 7.9663 17.0215 8.28928 17.022 8.9797Z" stroke="#1E1E1E" stroke-width="0.5"/>
<path d="M18.499 8.4411L28.0557 18.6407C28.4182 19.0276 28.2758 19.6582 27.7822 19.8517L18.2392 23.5933C17.7476 23.7861 17.216 23.4239 17.2154 22.8958L17.2017 8.95463C17.2011 8.27427 18.0338 7.94461 18.499 8.4411Z" stroke="#1E1E1E" stroke-width="0.5"/>
<path d="M14.5062 16.6893L5.15336 15.4692L5.71982 13.0055L14.5062 16.6893Z" fill="#EB5757" fill-opacity="0.9"/>
<path d="M14.5555 16.6504L5.20176 17.9311L5.16134 15.4212L14.5555 16.6504Z" fill="#F2994A" fill-opacity="0.9"/>
<path d="M14.5555 16.6503L5.93544 20.3606L5.18951 17.9096L14.5555 16.6503Z" fill="#F2C94C" fill-opacity="0.9"/>
<path d="M14.504 16.685L7.24302 22.453L5.9159 20.3287L14.504 16.685Z" fill="#219653" fill-opacity="0.9"/>
<path d="M14.535 16.6741L9.05576 24.1675L7.22589 22.4375L14.535 16.6741Z" fill="#2F80ED" fill-opacity="0.9"/>
<path d="M14.5551 16.6501L11.2768 25.3515L9.05636 24.1637L14.5551 16.6501Z" fill="#9B51E0" fill-opacity="0.9"/>
<line x1="19.8882" y1="14.7764" x2="29.8882" y2="9.77639" stroke="black" stroke-width="0.5" stroke-dasharray="1 1"/>
</svg>
