<svg width="872" height="513" viewBox="0 0 872 513" fill="none" xmlns="http://www.w3.org/2000/svg">
<line x1="68" y1="289" x2="835" y2="289" stroke="#A5A4A4" stroke-width="2" stroke-dasharray="10 10"/>
<line x1="67.9883" y1="155" x2="835.012" y2="155" stroke="#A5A4A4" stroke-width="2" stroke-dasharray="10 10"/>
<line x1="494.5" y1="436.019" x2="494.5" y2="166" stroke="#A5A4A4" stroke-width="5" stroke-dasharray="10 10"/>
<g filter="url(#filter0_d_652_147)">
<path d="M68 441L68 6.00001" stroke="black" stroke-width="10"/>
</g>
<g filter="url(#filter1_d_652_147)">
<path d="M68 436H862" stroke="black" stroke-width="10"/>
</g>
<path d="M347.93 470.28C348.517 471.293 349.17 472.533 349.89 474C350.61 475.467 351.344 477.013 352.09 478.64C352.837 480.24 353.57 481.88 354.29 483.56C355.037 485.213 355.717 486.747 356.33 488.16C356.944 486.747 357.61 485.213 358.33 483.56C359.05 481.88 359.784 480.24 360.53 478.64C361.277 477.013 362.01 475.467 362.73 474C363.45 472.533 364.104 471.293 364.69 470.28H369.25C369.49 472.307 369.717 474.467 369.93 476.76C370.144 479.027 370.33 481.36 370.49 483.76C370.677 486.133 370.837 488.533 370.97 490.96C371.13 493.36 371.264 495.707 371.37 498H366.41C366.304 494.773 366.17 491.453 366.01 488.04C365.877 484.627 365.664 481.32 365.37 478.12C365.077 478.733 364.73 479.467 364.33 480.32C363.93 481.173 363.504 482.107 363.05 483.12C362.597 484.107 362.13 485.133 361.65 486.2C361.197 487.267 360.744 488.307 360.29 489.32C359.864 490.307 359.464 491.24 359.09 492.12C358.717 492.973 358.397 493.707 358.13 494.32H354.37C354.104 493.707 353.784 492.96 353.41 492.08C353.037 491.2 352.624 490.267 352.17 489.28C351.744 488.267 351.29 487.227 350.81 486.16C350.357 485.093 349.904 484.067 349.45 483.08C348.997 482.093 348.57 481.173 348.17 480.32C347.77 479.44 347.424 478.707 347.13 478.12C346.837 481.32 346.61 484.627 346.45 488.04C346.317 491.453 346.197 494.773 346.09 498H341.13C341.237 495.707 341.357 493.333 341.49 490.88C341.65 488.427 341.81 486 341.97 483.6C342.157 481.173 342.357 478.827 342.57 476.56C342.784 474.293 343.01 472.2 343.25 470.28H347.93ZM375.842 487.64C375.842 485.8 376.109 484.187 376.642 482.8C377.202 481.413 377.935 480.267 378.842 479.36C379.749 478.427 380.789 477.733 381.962 477.28C383.135 476.8 384.335 476.56 385.562 476.56C388.442 476.56 390.682 477.453 392.282 479.24C393.909 481.027 394.722 483.693 394.722 487.24C394.722 487.507 394.709 487.813 394.682 488.16C394.682 488.48 394.669 488.773 394.642 489.04H380.842C380.975 490.72 381.562 492.027 382.602 492.96C383.669 493.867 385.202 494.32 387.202 494.32C388.375 494.32 389.442 494.213 390.402 494C391.389 493.787 392.162 493.56 392.722 493.32L393.362 497.28C393.095 497.413 392.722 497.56 392.242 497.72C391.789 497.853 391.255 497.973 390.642 498.08C390.055 498.213 389.415 498.32 388.722 498.4C388.029 498.48 387.322 498.52 386.602 498.52C384.762 498.52 383.162 498.253 381.802 497.72C380.442 497.16 379.322 496.4 378.442 495.44C377.562 494.453 376.909 493.307 376.482 492C376.055 490.667 375.842 489.213 375.842 487.64ZM389.882 485.48C389.882 484.813 389.789 484.187 389.602 483.6C389.415 482.987 389.135 482.467 388.762 482.04C388.415 481.587 387.975 481.24 387.442 481C386.935 480.733 386.322 480.6 385.602 480.6C384.855 480.6 384.202 480.747 383.642 481.04C383.082 481.307 382.602 481.667 382.202 482.12C381.829 482.573 381.535 483.093 381.322 483.68C381.109 484.267 380.962 484.867 380.882 485.48H389.882ZM405.093 494.52C406.373 494.52 407.307 494.373 407.893 494.08C408.48 493.76 408.773 493.227 408.773 492.48C408.773 491.787 408.453 491.213 407.813 490.76C407.2 490.307 406.173 489.813 404.733 489.28C403.853 488.96 403.04 488.627 402.293 488.28C401.573 487.907 400.947 487.48 400.413 487C399.88 486.52 399.453 485.947 399.133 485.28C398.84 484.587 398.693 483.747 398.693 482.76C398.693 480.84 399.4 479.333 400.813 478.24C402.227 477.12 404.147 476.56 406.573 476.56C407.8 476.56 408.973 476.68 410.093 476.92C411.213 477.133 412.053 477.347 412.613 477.56L411.733 481.48C411.2 481.24 410.52 481.027 409.693 480.84C408.867 480.627 407.907 480.52 406.813 480.52C405.827 480.52 405.027 480.693 404.413 481.04C403.8 481.36 403.493 481.867 403.493 482.56C403.493 482.907 403.547 483.213 403.653 483.48C403.787 483.747 404 484 404.293 484.24C404.587 484.453 404.973 484.68 405.453 484.92C405.933 485.133 406.52 485.36 407.213 485.6C408.36 486.027 409.333 486.453 410.133 486.88C410.933 487.28 411.587 487.747 412.093 488.28C412.627 488.787 413.013 489.373 413.253 490.04C413.493 490.707 413.613 491.507 413.613 492.44C413.613 494.44 412.867 495.96 411.373 497C409.907 498.013 407.8 498.52 405.053 498.52C403.213 498.52 401.733 498.36 400.613 498.04C399.493 497.747 398.707 497.507 398.253 497.32L399.093 493.28C399.813 493.573 400.667 493.853 401.653 494.12C402.667 494.387 403.813 494.52 405.093 494.52ZM416.975 487.64C416.975 485.8 417.241 484.187 417.775 482.8C418.335 481.413 419.068 480.267 419.975 479.36C420.881 478.427 421.921 477.733 423.095 477.28C424.268 476.8 425.468 476.56 426.695 476.56C429.575 476.56 431.815 477.453 433.415 479.24C435.041 481.027 435.855 483.693 435.855 487.24C435.855 487.507 435.841 487.813 435.815 488.16C435.815 488.48 435.801 488.773 435.775 489.04H421.975C422.108 490.72 422.695 492.027 423.735 492.96C424.801 493.867 426.335 494.32 428.335 494.32C429.508 494.32 430.575 494.213 431.535 494C432.521 493.787 433.295 493.56 433.855 493.32L434.495 497.28C434.228 497.413 433.855 497.56 433.375 497.72C432.921 497.853 432.388 497.973 431.775 498.08C431.188 498.213 430.548 498.32 429.855 498.4C429.161 498.48 428.455 498.52 427.735 498.52C425.895 498.52 424.295 498.253 422.935 497.72C421.575 497.16 420.455 496.4 419.575 495.44C418.695 494.453 418.041 493.307 417.615 492C417.188 490.667 416.975 489.213 416.975 487.64ZM431.015 485.48C431.015 484.813 430.921 484.187 430.735 483.6C430.548 482.987 430.268 482.467 429.895 482.04C429.548 481.587 429.108 481.24 428.575 481C428.068 480.733 427.455 480.6 426.735 480.6C425.988 480.6 425.335 480.747 424.775 481.04C424.215 481.307 423.735 481.667 423.335 482.12C422.961 482.573 422.668 483.093 422.455 483.68C422.241 484.267 422.095 484.867 422.015 485.48H431.015ZM446.226 494.52C447.506 494.52 448.44 494.373 449.026 494.08C449.613 493.76 449.906 493.227 449.906 492.48C449.906 491.787 449.586 491.213 448.946 490.76C448.333 490.307 447.306 489.813 445.866 489.28C444.986 488.96 444.173 488.627 443.426 488.28C442.706 487.907 442.08 487.48 441.546 487C441.013 486.52 440.586 485.947 440.266 485.28C439.973 484.587 439.826 483.747 439.826 482.76C439.826 480.84 440.533 479.333 441.946 478.24C443.36 477.12 445.28 476.56 447.706 476.56C448.933 476.56 450.106 476.68 451.226 476.92C452.346 477.133 453.186 477.347 453.746 477.56L452.866 481.48C452.333 481.24 451.653 481.027 450.826 480.84C450 480.627 449.04 480.52 447.946 480.52C446.96 480.52 446.16 480.693 445.546 481.04C444.933 481.36 444.626 481.867 444.626 482.56C444.626 482.907 444.68 483.213 444.786 483.48C444.92 483.747 445.133 484 445.426 484.24C445.72 484.453 446.106 484.68 446.586 484.92C447.066 485.133 447.653 485.36 448.346 485.6C449.493 486.027 450.466 486.453 451.266 486.88C452.066 487.28 452.72 487.747 453.226 488.28C453.76 488.787 454.146 489.373 454.386 490.04C454.626 490.707 454.746 491.507 454.746 492.44C454.746 494.44 454 495.96 452.506 497C451.04 498.013 448.933 498.52 446.186 498.52C444.346 498.52 442.866 498.36 441.746 498.04C440.626 497.747 439.84 497.507 439.386 497.32L440.226 493.28C440.946 493.573 441.8 493.853 442.786 494.12C443.8 494.387 444.946 494.52 446.226 494.52ZM469.403 505.4H464.443L477.963 466.68H482.843L469.403 505.4ZM513.22 498C512.847 496.907 512.46 495.827 512.06 494.76C511.66 493.693 511.273 492.6 510.9 491.48H499.22C498.847 492.6 498.46 493.707 498.06 494.8C497.687 495.867 497.313 496.933 496.94 498H491.7C492.74 495.04 493.727 492.307 494.66 489.8C495.593 487.293 496.5 484.92 497.38 482.68C498.287 480.44 499.18 478.307 500.06 476.28C500.94 474.253 501.847 472.253 502.78 470.28H507.54C508.473 472.253 509.38 474.253 510.26 476.28C511.14 478.307 512.02 480.44 512.9 482.68C513.807 484.92 514.727 487.293 515.66 489.8C516.62 492.307 517.62 495.04 518.66 498H513.22ZM505.06 475.64C504.447 477.053 503.74 478.773 502.94 480.8C502.167 482.827 501.353 485.027 500.5 487.4H509.62C508.767 485.027 507.94 482.813 507.14 480.76C506.34 478.707 505.647 477 505.06 475.64ZM521.924 477.76C522.857 477.493 524.07 477.24 525.564 477C527.057 476.76 528.71 476.64 530.524 476.64C532.23 476.64 533.657 476.88 534.804 477.36C535.95 477.813 536.857 478.467 537.524 479.32C538.217 480.147 538.697 481.16 538.964 482.36C539.257 483.533 539.404 484.827 539.404 486.24V498H534.564V487C534.564 485.88 534.484 484.933 534.324 484.16C534.19 483.36 533.95 482.72 533.604 482.24C533.284 481.733 532.83 481.373 532.244 481.16C531.684 480.92 530.99 480.8 530.164 480.8C529.55 480.8 528.91 480.84 528.244 480.92C527.577 481 527.084 481.067 526.764 481.12V498H521.924V477.76ZM537.644 469.6C537.484 469.973 537.27 470.387 537.004 470.84C536.764 471.267 536.457 471.68 536.084 472.08C535.71 472.453 535.284 472.773 534.804 473.04C534.324 473.307 533.79 473.44 533.204 473.44C532.724 473.44 532.27 473.373 531.844 473.24C531.417 473.08 530.99 472.907 530.564 472.72C530.164 472.533 529.764 472.373 529.364 472.24C528.99 472.08 528.617 472 528.244 472C527.737 472 527.297 472.173 526.924 472.52C526.577 472.867 526.297 473.267 526.084 473.72L523.644 472.28C523.777 471.907 523.964 471.507 524.204 471.08C524.47 470.627 524.79 470.213 525.164 469.84C525.564 469.44 526.004 469.107 526.484 468.84C526.964 468.573 527.497 468.44 528.084 468.44C528.564 468.44 529.017 468.52 529.444 468.68C529.87 468.84 530.284 469.013 530.684 469.2C531.11 469.36 531.51 469.52 531.884 469.68C532.284 469.84 532.67 469.92 533.044 469.92C533.55 469.92 533.977 469.747 534.324 469.4C534.697 469.027 534.99 468.613 535.204 468.16L537.644 469.6ZM564.242 487.52C564.242 489.173 564.002 490.68 563.522 492.04C563.042 493.4 562.362 494.56 561.482 495.52C560.602 496.48 559.536 497.227 558.282 497.76C557.056 498.293 555.696 498.56 554.202 498.56C552.709 498.56 551.349 498.293 550.122 497.76C548.896 497.227 547.842 496.48 546.962 495.52C546.082 494.56 545.389 493.4 544.882 492.04C544.402 490.68 544.162 489.173 544.162 487.52C544.162 485.867 544.402 484.373 544.882 483.04C545.389 481.68 546.082 480.52 546.962 479.56C547.869 478.6 548.936 477.867 550.162 477.36C551.389 476.827 552.736 476.56 554.202 476.56C555.669 476.56 557.016 476.827 558.242 477.36C559.496 477.867 560.562 478.6 561.442 479.56C562.322 480.52 563.002 481.68 563.482 483.04C563.989 484.373 564.242 485.867 564.242 487.52ZM559.282 487.52C559.282 485.44 558.829 483.8 557.922 482.6C557.042 481.373 555.802 480.76 554.202 480.76C552.602 480.76 551.349 481.373 550.442 482.6C549.562 483.8 549.122 485.44 549.122 487.52C549.122 489.627 549.562 491.293 550.442 492.52C551.349 493.747 552.602 494.36 554.202 494.36C555.802 494.36 557.042 493.747 557.922 492.52C558.829 491.293 559.282 489.627 559.282 487.52ZM574.468 494.52C575.748 494.52 576.682 494.373 577.268 494.08C577.855 493.76 578.148 493.227 578.148 492.48C578.148 491.787 577.828 491.213 577.188 490.76C576.575 490.307 575.548 489.813 574.108 489.28C573.228 488.96 572.415 488.627 571.668 488.28C570.948 487.907 570.322 487.48 569.788 487C569.255 486.52 568.828 485.947 568.508 485.28C568.215 484.587 568.068 483.747 568.068 482.76C568.068 480.84 568.775 479.333 570.188 478.24C571.602 477.12 573.522 476.56 575.948 476.56C577.175 476.56 578.348 476.68 579.468 476.92C580.588 477.133 581.428 477.347 581.988 477.56L581.108 481.48C580.575 481.24 579.895 481.027 579.068 480.84C578.242 480.627 577.282 480.52 576.188 480.52C575.202 480.52 574.402 480.693 573.788 481.04C573.175 481.36 572.868 481.867 572.868 482.56C572.868 482.907 572.922 483.213 573.028 483.48C573.162 483.747 573.375 484 573.668 484.24C573.962 484.453 574.348 484.68 574.828 484.92C575.308 485.133 575.895 485.36 576.588 485.6C577.735 486.027 578.708 486.453 579.508 486.88C580.308 487.28 580.962 487.747 581.468 488.28C582.002 488.787 582.388 489.373 582.628 490.04C582.868 490.707 582.988 491.507 582.988 492.44C582.988 494.44 582.242 495.96 580.748 497C579.282 498.013 577.175 498.52 574.428 498.52C572.588 498.52 571.108 498.36 569.988 498.04C568.868 497.747 568.082 497.507 567.628 497.32L568.468 493.28C569.188 493.573 570.042 493.853 571.028 494.12C572.042 494.387 573.188 494.52 574.468 494.52Z" fill="black"/>
<path d="M33.6 352.196C33.6 354.276 33.28 356.143 32.64 357.796C32 359.449 31.0667 360.849 29.84 361.996C28.5867 363.143 27.0667 364.023 25.28 364.636C23.4933 365.249 21.44 365.556 19.12 365.556C16.8 365.556 14.7467 365.209 12.96 364.516C11.1733 363.796 9.66667 362.823 8.44 361.596C7.18667 360.369 6.24 358.929 5.6 357.276C4.96 355.623 4.64 353.849 4.64 351.956C4.64 350.809 4.73333 349.769 4.92 348.836C5.08 347.903 5.26667 347.089 5.48 346.396C5.69333 345.703 5.92 345.129 6.16 344.676C6.4 344.223 6.57333 343.903 6.68 343.716L10.8 345.196C10.4 345.836 10.0267 346.756 9.68 347.956C9.30667 349.129 9.12 350.409 9.12 351.796C9.12 352.996 9.33333 354.116 9.76 355.156C10.16 356.196 10.7733 357.103 11.6 357.876C12.4267 358.623 13.4667 359.209 14.72 359.636C15.9733 360.063 17.4267 360.276 19.08 360.276C20.5467 360.276 21.8933 360.116 23.12 359.796C24.3467 359.449 25.4133 358.929 26.32 358.236C27.2 357.543 27.8933 356.663 28.4 355.596C28.88 354.529 29.12 353.249 29.12 351.756C29.12 349.969 28.9467 348.516 28.6 347.396C28.2267 346.276 27.88 345.409 27.56 344.796L31.68 343.436C31.8933 343.756 32.1067 344.196 32.32 344.756C32.5333 345.289 32.7467 345.929 32.96 346.676C33.1467 347.423 33.2933 348.263 33.4 349.196C33.5333 350.129 33.6 351.129 33.6 352.196ZM29.6 331.888C29.6 330.395 29.52 329.261 29.36 328.488H24C23.92 328.755 23.84 329.141 23.76 329.648C23.68 330.155 23.64 330.715 23.64 331.328C23.64 331.861 23.68 332.408 23.76 332.968C23.84 333.501 23.9867 333.995 24.2 334.448C24.4133 334.875 24.72 335.221 25.12 335.488C25.4933 335.755 25.9733 335.888 26.56 335.888C27.7067 335.888 28.5067 335.528 28.96 334.808C29.3867 334.088 29.6 333.115 29.6 331.888ZM11.56 332.288C11.56 330.688 11.76 329.341 12.16 328.248C12.56 327.155 13.12 326.288 13.84 325.648C14.56 324.981 15.44 324.515 16.48 324.248C17.4933 323.955 18.6133 323.808 19.84 323.808H32.52C32.68 324.555 32.8667 325.688 33.08 327.208C33.32 328.701 33.44 330.395 33.44 332.288C33.44 333.541 33.32 334.688 33.08 335.728C32.84 336.768 32.4533 337.661 31.92 338.408C31.3867 339.128 30.6933 339.701 29.84 340.128C28.9867 340.528 27.9333 340.728 26.68 340.728C25.48 340.728 24.4667 340.501 23.64 340.048C22.8133 339.568 22.1467 338.928 21.64 338.128C21.1067 337.328 20.7333 336.408 20.52 335.368C20.28 334.301 20.16 333.195 20.16 332.048C20.16 331.515 20.2 330.955 20.28 330.368C20.3333 329.781 20.44 329.155 20.6 328.488H19.8C19.24 328.488 18.7067 328.555 18.2 328.688C17.6933 328.821 17.2533 329.061 16.88 329.408C16.48 329.728 16.1733 330.168 15.96 330.728C15.7467 331.261 15.64 331.941 15.64 332.768C15.64 333.888 15.72 334.915 15.88 335.848C16.04 336.781 16.2267 337.541 16.44 338.128L12.52 338.728C12.3067 338.115 12.0933 337.221 11.88 336.048C11.6667 334.875 11.56 333.621 11.56 332.288ZM16.44 305.961C16.3067 306.361 16.1733 306.921 16.04 307.641C15.88 308.334 15.8 309.148 15.8 310.081C15.8 310.614 15.8533 311.188 15.96 311.801C16.0667 312.388 16.16 312.801 16.24 313.041H33V317.881H13.08C12.7333 316.948 12.4133 315.788 12.12 314.401C11.8 312.988 11.64 311.428 11.64 309.721C11.64 309.401 11.6667 309.028 11.72 308.601C11.7467 308.174 11.8 307.748 11.88 307.321C11.9333 306.894 12.0133 306.481 12.12 306.081C12.2 305.681 12.28 305.361 12.36 305.121L16.44 305.961ZM22 297.948C24.0533 297.948 25.56 297.508 26.52 296.628C27.4533 295.721 27.92 294.561 27.92 293.148C27.92 292.375 27.8133 291.655 27.6 290.988C27.3867 290.295 27.1333 289.735 26.84 289.308H16C15.92 289.655 15.8533 290.081 15.8 290.588C15.72 291.095 15.68 291.735 15.68 292.508C15.68 294.268 16.2667 295.615 17.44 296.548C18.5867 297.481 20.1067 297.948 22 297.948ZM30.88 284.468C34.2133 284.468 36.6533 285.321 38.2 287.028C39.7467 288.708 40.52 291.295 40.52 294.788C40.52 296.068 40.4133 297.321 40.2 298.548C39.9867 299.748 39.7067 300.841 39.36 301.828L35.24 300.948C35.5867 300.121 35.8667 299.188 36.08 298.148C36.2933 297.081 36.4 295.935 36.4 294.708C36.4 292.761 36 291.375 35.2 290.548C34.4 289.721 33.2133 289.308 31.64 289.308H30.84C31.08 289.788 31.32 290.428 31.56 291.228C31.8 292.001 31.92 292.895 31.92 293.908C31.92 295.241 31.7067 296.468 31.28 297.588C30.8533 298.681 30.2267 299.628 29.4 300.428C28.5733 301.201 27.5467 301.815 26.32 302.268C25.0667 302.695 23.6267 302.908 22 302.908C20.48 302.908 19.08 302.681 17.8 302.228C16.52 301.748 15.4267 301.068 14.52 300.188C13.6133 299.281 12.9067 298.188 12.4 296.908C11.8933 295.628 11.64 294.175 11.64 292.548C11.64 290.975 11.76 289.481 12 288.068C12.24 286.655 12.4933 285.455 12.76 284.468H30.88ZM29.6 270.951C29.6 269.457 29.52 268.324 29.36 267.551H24C23.92 267.817 23.84 268.204 23.76 268.711C23.68 269.217 23.64 269.777 23.64 270.391C23.64 270.924 23.68 271.471 23.76 272.031C23.84 272.564 23.9867 273.057 24.2 273.511C24.4133 273.937 24.72 274.284 25.12 274.551C25.4933 274.817 25.9733 274.951 26.56 274.951C27.7067 274.951 28.5067 274.591 28.96 273.871C29.3867 273.151 29.6 272.177 29.6 270.951ZM11.56 271.351C11.56 269.751 11.76 268.404 12.16 267.311C12.56 266.217 13.12 265.351 13.84 264.711C14.56 264.044 15.44 263.577 16.48 263.311C17.4933 263.017 18.6133 262.871 19.84 262.871H32.52C32.68 263.617 32.8667 264.751 33.08 266.271C33.32 267.764 33.44 269.457 33.44 271.351C33.44 272.604 33.32 273.751 33.08 274.791C32.84 275.831 32.4533 276.724 31.92 277.471C31.3867 278.191 30.6933 278.764 29.84 279.191C28.9867 279.591 27.9333 279.791 26.68 279.791C25.48 279.791 24.4667 279.564 23.64 279.111C22.8133 278.631 22.1467 277.991 21.64 277.191C21.1067 276.391 20.7333 275.471 20.52 274.431C20.28 273.364 20.16 272.257 20.16 271.111C20.16 270.577 20.2 270.017 20.28 269.431C20.3333 268.844 20.44 268.217 20.6 267.551H19.8C19.24 267.551 18.7067 267.617 18.2 267.751C17.6933 267.884 17.2533 268.124 16.88 268.471C16.48 268.791 16.1733 269.231 15.96 269.791C15.7467 270.324 15.64 271.004 15.64 271.831C15.64 272.951 15.72 273.977 15.88 274.911C16.04 275.844 16.2267 276.604 16.44 277.191L12.52 277.791C12.3067 277.177 12.0933 276.284 11.88 275.111C11.6667 273.937 11.56 272.684 11.56 271.351ZM29.6 240.247C29.6 238.754 29.52 237.621 29.36 236.847H24C23.92 237.114 23.84 237.501 23.76 238.007C23.68 238.514 23.64 239.074 23.64 239.687C23.64 240.221 23.68 240.767 23.76 241.327C23.84 241.861 23.9867 242.354 24.2 242.807C24.4133 243.234 24.72 243.581 25.12 243.847C25.4933 244.114 25.9733 244.247 26.56 244.247C27.7067 244.247 28.5067 243.887 28.96 243.167C29.3867 242.447 29.6 241.474 29.6 240.247ZM11.56 240.647C11.56 239.047 11.76 237.701 12.16 236.607C12.56 235.514 13.12 234.647 13.84 234.007C14.56 233.341 15.44 232.874 16.48 232.607C17.4933 232.314 18.6133 232.167 19.84 232.167H32.52C32.68 232.914 32.8667 234.047 33.08 235.567C33.32 237.061 33.44 238.754 33.44 240.647C33.44 241.901 33.32 243.047 33.08 244.087C32.84 245.127 32.4533 246.021 31.92 246.767C31.3867 247.487 30.6933 248.061 29.84 248.487C28.9867 248.887 27.9333 249.087 26.68 249.087C25.48 249.087 24.4667 248.861 23.64 248.407C22.8133 247.927 22.1467 247.287 21.64 246.487C21.1067 245.687 20.7333 244.767 20.52 243.727C20.28 242.661 20.16 241.554 20.16 240.408C20.16 239.874 20.2 239.314 20.28 238.727C20.3333 238.141 20.44 237.514 20.6 236.847H19.8C19.24 236.847 18.7067 236.914 18.2 237.047C17.6933 237.181 17.2533 237.421 16.88 237.767C16.48 238.087 16.1733 238.527 15.96 239.087C15.7467 239.621 15.64 240.301 15.64 241.127C15.64 242.247 15.72 243.274 15.88 244.207C16.04 245.141 16.2267 245.901 16.44 246.487L12.52 247.087C12.3067 246.474 12.0933 245.581 11.88 244.407C11.6667 243.234 11.56 241.981 11.56 240.647ZM33.4 218.96C33.3733 220.4 33.2133 221.6 32.92 222.56C32.6267 223.494 32.2133 224.24 31.68 224.8C31.12 225.36 30.44 225.76 29.64 226C28.8133 226.214 27.88 226.32 26.84 226.32H2.76L1.96 221.48H25.92C26.5067 221.48 27 221.44 27.4 221.36C27.8 221.254 28.1467 221.08 28.44 220.84C28.7067 220.6 28.92 220.28 29.08 219.88C29.2133 219.454 29.32 218.92 29.4 218.28L33.4 218.96ZM22.52 195.445C24.1733 195.445 25.68 195.685 27.04 196.165C28.4 196.645 29.56 197.325 30.52 198.205C31.48 199.085 32.2267 200.152 32.76 201.405C33.2933 202.632 33.56 203.992 33.56 205.485C33.56 206.979 33.2933 208.339 32.76 209.565C32.2267 210.792 31.48 211.845 30.52 212.725C29.56 213.605 28.4 214.299 27.04 214.805C25.68 215.285 24.1733 215.525 22.52 215.525C20.8667 215.525 19.3733 215.285 18.04 214.805C16.68 214.299 15.52 213.605 14.56 212.725C13.6 211.819 12.8667 210.752 12.36 209.525C11.8267 208.299 11.56 206.952 11.56 205.485C11.56 204.019 11.8267 202.672 12.36 201.445C12.8667 200.192 13.6 199.125 14.56 198.245C15.52 197.365 16.68 196.685 18.04 196.205C19.3733 195.699 20.8667 195.445 22.52 195.445ZM22.52 200.405C20.44 200.405 18.8 200.859 17.6 201.765C16.3733 202.645 15.76 203.885 15.76 205.485C15.76 207.085 16.3733 208.339 17.6 209.245C18.8 210.125 20.44 210.565 22.52 210.565C24.6267 210.565 26.2933 210.125 27.52 209.245C28.7467 208.339 29.36 207.085 29.36 205.485C29.36 203.885 28.7467 202.645 27.52 201.765C26.2933 200.859 24.6267 200.405 22.52 200.405ZM29.52 185.219C29.52 183.939 29.3733 183.006 29.08 182.419C28.76 181.832 28.2267 181.539 27.48 181.539C26.7867 181.539 26.2133 181.859 25.76 182.499C25.3067 183.112 24.8133 184.139 24.28 185.579C23.96 186.459 23.6267 187.272 23.28 188.019C22.9067 188.739 22.48 189.366 22 189.899C21.52 190.432 20.9467 190.859 20.28 191.179C19.5867 191.472 18.7467 191.619 17.76 191.619C15.84 191.619 14.3333 190.912 13.24 189.499C12.12 188.086 11.56 186.166 11.56 183.739C11.56 182.512 11.68 181.339 11.92 180.219C12.1333 179.099 12.3467 178.259 12.56 177.699L16.48 178.579C16.24 179.112 16.0267 179.792 15.84 180.619C15.6267 181.446 15.52 182.406 15.52 183.499C15.52 184.486 15.6933 185.286 16.04 185.899C16.36 186.512 16.8667 186.819 17.56 186.819C17.9067 186.819 18.2133 186.766 18.48 186.659C18.7467 186.526 19 186.312 19.24 186.019C19.4533 185.726 19.68 185.339 19.92 184.859C20.1333 184.379 20.36 183.792 20.6 183.099C21.0267 181.952 21.4533 180.979 21.88 180.179C22.28 179.379 22.7467 178.726 23.28 178.219C23.7867 177.686 24.3733 177.299 25.04 177.059C25.7067 176.819 26.5067 176.699 27.44 176.699C29.44 176.699 30.96 177.446 32 178.939C33.0133 180.406 33.52 182.512 33.52 185.259C33.52 187.099 33.36 188.579 33.04 189.699C32.7467 190.819 32.5067 191.606 32.32 192.059L28.28 191.219C28.5733 190.499 28.8533 189.646 29.12 188.659C29.3867 187.646 29.52 186.499 29.52 185.219ZM6.56 172.418L5.76 167.578H12.08L12.08 160.138H16.12V167.578H24.64C26.32 167.578 27.52 167.311 28.24 166.778C28.96 166.244 29.32 165.338 29.32 164.058C29.32 163.178 29.2267 162.404 29.04 161.738C28.8533 161.044 28.68 160.498 28.52 160.098L32.36 159.298C32.6 159.858 32.84 160.591 33.08 161.498C33.3467 162.404 33.48 163.471 33.48 164.698C33.48 166.191 33.28 167.444 32.88 168.458C32.48 169.444 31.9067 170.231 31.16 170.818C30.3867 171.404 29.4667 171.818 28.4 172.058C27.3067 172.298 26.0667 172.418 24.68 172.418H6.56ZM29.6 148.099C29.6 146.606 29.52 145.472 29.36 144.699H24C23.92 144.966 23.84 145.352 23.76 145.859C23.68 146.366 23.64 146.926 23.64 147.539C23.64 148.072 23.68 148.619 23.76 149.179C23.84 149.712 23.9867 150.206 24.2 150.659C24.4133 151.086 24.72 151.432 25.12 151.699C25.4933 151.966 25.9733 152.099 26.56 152.099C27.7067 152.099 28.5067 151.739 28.96 151.019C29.3867 150.299 29.6 149.326 29.6 148.099ZM11.56 148.499C11.56 146.899 11.76 145.552 12.16 144.459C12.56 143.366 13.12 142.499 13.84 141.859C14.56 141.192 15.44 140.726 16.48 140.459C17.4933 140.166 18.6133 140.019 19.84 140.019H32.52C32.68 140.766 32.8667 141.899 33.08 143.419C33.32 144.912 33.44 146.606 33.44 148.499C33.44 149.752 33.32 150.899 33.08 151.939C32.84 152.979 32.4533 153.872 31.92 154.619C31.3867 155.339 30.6933 155.912 29.84 156.339C28.9867 156.739 27.9333 156.939 26.68 156.939C25.48 156.939 24.4667 156.712 23.64 156.259C22.8133 155.779 22.1467 155.139 21.64 154.339C21.1067 153.539 20.7333 152.619 20.52 151.579C20.28 150.512 20.16 149.406 20.16 148.259C20.16 147.726 20.2 147.166 20.28 146.579C20.3333 145.992 20.44 145.366 20.6 144.699H19.8C19.24 144.699 18.7067 144.766 18.2 144.899C17.6933 145.032 17.2533 145.272 16.88 145.619C16.48 145.939 16.1733 146.379 15.96 146.939C15.7467 147.472 15.64 148.152 15.64 148.979C15.64 150.099 15.72 151.126 15.88 152.059C16.04 152.992 16.2267 153.752 16.44 154.339L12.52 154.939C12.3067 154.326 12.0933 153.432 11.88 152.259C11.6667 151.086 11.56 149.832 11.56 148.499ZM3.52 142.459L9.84 148.979L7.68 151.379L0.679999 145.499L3.52 142.459ZM6.56 134.332L5.76 129.492H12.08V122.052H16.12V129.492H24.64C26.32 129.492 27.52 129.225 28.24 128.692C28.96 128.159 29.32 127.252 29.32 125.972C29.32 125.092 29.2267 124.319 29.04 123.652C28.8533 122.959 28.68 122.412 28.52 122.012L32.36 121.212C32.6 121.772 32.84 122.505 33.08 123.412C33.3467 124.319 33.48 125.385 33.48 126.612C33.48 128.105 33.28 129.359 32.88 130.372C32.48 131.359 31.9067 132.145 31.16 132.732C30.3867 133.319 29.4667 133.732 28.4 133.972C27.3067 134.212 26.0667 134.332 24.68 134.332H6.56ZM33 112.493L33 117.333H12.08V112.493H33ZM5.96 111.973C6.86667 111.973 7.58667 112.266 8.12 112.853C8.65333 113.44 8.92 114.133 8.92 114.933C8.92 115.76 8.65333 116.466 8.12 117.053C7.58667 117.64 6.86667 117.933 5.96 117.933C5.02667 117.933 4.29333 117.64 3.76 117.053C3.22667 116.466 2.96 115.76 2.96 114.933C2.96 114.133 3.22667 113.44 3.76 112.853C4.29333 112.266 5.02667 111.973 5.96 111.973ZM22.56 107.478C21.0133 107.478 19.5733 107.238 18.24 106.758C16.88 106.278 15.7067 105.598 14.72 104.718C13.7333 103.812 12.96 102.718 12.4 101.438C11.84 100.158 11.56 98.7184 11.56 97.1184C11.56 95.1451 11.92 93.2784 12.64 91.5184L16.6 92.5584C16.36 93.1184 16.16 93.7584 16 94.4784C15.84 95.1718 15.76 95.9184 15.76 96.7184C15.76 98.6118 16.36 100.052 17.56 101.038C18.7333 102.025 20.4 102.518 22.56 102.518C24.64 102.518 26.2933 102.052 27.52 101.118C28.72 100.185 29.32 98.6118 29.32 96.3984C29.32 95.5718 29.24 94.7584 29.08 93.9584C28.92 93.1584 28.72 92.4651 28.48 91.8784L32.48 91.1984C32.7467 91.7318 32.9867 92.5451 33.2 93.6384C33.4133 94.7051 33.52 95.8118 33.52 96.9584C33.52 98.7451 33.2533 100.305 32.72 101.638C32.16 102.945 31.4 104.038 30.44 104.918C29.4533 105.772 28.2933 106.412 26.96 106.838C25.6 107.265 24.1333 107.478 22.56 107.478ZM29.6 80.0912C29.6 78.5979 29.52 77.4646 29.36 76.6912H24C23.92 76.9579 23.84 77.3446 23.76 77.8512C23.68 78.3579 23.64 78.9179 23.64 79.5312C23.64 80.0646 23.68 80.6112 23.76 81.1712C23.84 81.7046 23.9867 82.1979 24.2 82.6512C24.4133 83.0779 24.72 83.4246 25.12 83.6912C25.4933 83.9579 25.9733 84.0912 26.56 84.0912C27.7067 84.0912 28.5067 83.7312 28.96 83.0112C29.3867 82.2912 29.6 81.3179 29.6 80.0912ZM11.56 80.4912C11.56 78.8912 11.76 77.5446 12.16 76.4512C12.56 75.3579 13.12 74.4912 13.84 73.8512C14.56 73.1846 15.44 72.7179 16.48 72.4512C17.4933 72.1579 18.6133 72.0112 19.84 72.0112H32.52C32.68 72.7579 32.8667 73.8912 33.08 75.4112C33.32 76.9046 33.44 78.5979 33.44 80.4912C33.44 81.7446 33.32 82.8912 33.08 83.9312C32.84 84.9712 32.4533 85.8646 31.92 86.6112C31.3867 87.3312 30.6933 87.9046 29.84 88.3312C28.9867 88.7312 27.9333 88.9312 26.68 88.9312C25.48 88.9312 24.4667 88.7046 23.64 88.2512C22.8133 87.7712 22.1467 87.1312 21.64 86.3312C21.1067 85.5312 20.7333 84.6112 20.52 83.5712C20.28 82.5046 20.16 81.3979 20.16 80.2513C20.16 79.7179 20.2 79.1579 20.28 78.5712C20.3333 77.9846 20.44 77.3579 20.6 76.6912H19.8C19.24 76.6912 18.7067 76.7579 18.2 76.8912C17.6933 77.0246 17.2533 77.2646 16.88 77.6112C16.48 77.9312 16.1733 78.3712 15.96 78.9312C15.7467 79.4646 15.64 80.1446 15.64 80.9712C15.64 82.0912 15.72 83.1179 15.88 84.0512C16.04 84.9846 16.2267 85.7446 16.44 86.3312L12.52 86.9312C12.3067 86.3179 12.0933 85.4246 11.88 84.2512C11.6667 83.0779 11.56 81.8246 11.56 80.4912Z" fill="black"/>
<g filter="url(#filter2_d_652_147)">
<path d="M108.935 369.183C176.459 164.575 217.332 537.068 282.493 294.54" stroke="#219653" stroke-width="10"/>
<path d="M282.869 294.137C350.394 89.5287 391.266 462.022 456.428 219.494" stroke="#219653" stroke-width="10"/>
<path d="M454.857 223.685C528.736 5.04945 667 347 809 313.5" stroke="#219653" stroke-width="10"/>
</g>
<g filter="url(#filter3_d_652_147)">
<path d="M105.935 369.5C173.459 164.892 214.332 537.385 279.493 294.857" stroke="#EB5757" stroke-width="10"/>
<path d="M278.869 296.454C346.394 91.8456 387.266 464.339 452.428 221.811" stroke="#EB5757" stroke-width="10"/>
<path d="M451.869 223.454C519.394 18.8456 560.266 391.339 625.428 148.811" stroke="#EB5757" stroke-width="10"/>
<path d="M624.869 149.454C692.394 -55.1544 733.266 317.339 798.428 74.8107" stroke="#EB5757" stroke-width="10"/>
</g>
<path d="M129 55.4C129.427 55.9333 129.96 56.64 130.6 57.52C131.267 58.3733 131.947 59.3333 132.64 60.4C133.333 61.44 134.013 62.5333 134.68 63.68C135.373 64.8267 135.96 65.9333 136.44 67H132.2C131.667 65.9867 131.08 64.96 130.44 63.92C129.827 62.88 129.2 61.8933 128.56 60.96C127.92 60 127.28 59.1067 126.64 58.28C126.027 57.4533 125.467 56.7333 124.96 56.12C124.613 56.1467 124.253 56.16 123.88 56.16C123.533 56.16 123.173 56.16 122.8 56.16H119.32V67H115.44V39.68C116.533 39.4133 117.747 39.24 119.08 39.16C120.44 39.0533 121.68 39 122.8 39C126.693 39 129.653 39.7333 131.68 41.2C133.733 42.6667 134.76 44.8533 134.76 47.76C134.76 49.6 134.267 51.1733 133.28 52.48C132.32 53.7867 130.893 54.76 129 55.4ZM123.12 42.4C121.467 42.4 120.2 42.44 119.32 42.52V52.96H122.08C123.413 52.96 124.613 52.8933 125.68 52.76C126.747 52.6267 127.64 52.3733 128.36 52C129.107 51.6267 129.68 51.1067 130.08 50.44C130.48 49.7467 130.68 48.84 130.68 47.72C130.68 46.68 130.48 45.8133 130.08 45.12C129.68 44.4267 129.133 43.88 128.44 43.48C127.773 43.08 126.973 42.8 126.04 42.64C125.133 42.48 124.16 42.4 123.12 42.4ZM144.076 67H140.356V46.2H144.076V67ZM142.196 42.44C141.53 42.44 140.956 42.2267 140.476 41.8C140.023 41.3467 139.796 40.7467 139.796 40C139.796 39.2533 140.023 38.6667 140.476 38.24C140.956 37.7867 141.53 37.56 142.196 37.56C142.863 37.56 143.423 37.7867 143.876 38.24C144.356 38.6667 144.596 39.2533 144.596 40C144.596 40.7467 144.356 41.3467 143.876 41.8C143.423 42.2267 142.863 42.44 142.196 42.44ZM149.313 56.64C149.313 54.8 149.58 53.2 150.113 51.84C150.647 50.4533 151.353 49.3067 152.233 48.4C153.113 47.4933 154.127 46.8133 155.273 46.36C156.42 45.9067 157.593 45.68 158.793 45.68C161.593 45.68 163.74 46.56 165.233 48.32C166.727 50.0533 167.473 52.7067 167.473 56.28C167.473 56.44 167.473 56.6533 167.473 56.92C167.473 57.16 167.46 57.3867 167.433 57.6H153.193C153.353 59.76 153.98 61.4 155.073 62.52C156.167 63.64 157.873 64.2 160.193 64.2C161.5 64.2 162.593 64.0933 163.473 63.88C164.38 63.64 165.06 63.4133 165.513 63.2L166.033 66.32C165.58 66.56 164.78 66.8133 163.633 67.08C162.513 67.3467 161.233 67.48 159.793 67.48C157.98 67.48 156.407 67.2133 155.073 66.68C153.767 66.12 152.687 65.36 151.833 64.4C150.98 63.44 150.34 62.3067 149.913 61C149.513 59.6667 149.313 58.2133 149.313 56.64ZM163.593 54.6C163.62 52.92 163.193 51.5467 162.313 50.48C161.46 49.3867 160.273 48.84 158.753 48.84C157.9 48.84 157.14 49.0133 156.473 49.36C155.833 49.68 155.287 50.1067 154.833 50.64C154.38 51.1733 154.02 51.7867 153.753 52.48C153.513 53.1733 153.353 53.88 153.273 54.6H163.593ZM177.657 64.32C179.177 64.32 180.297 64.12 181.017 63.72C181.764 63.32 182.137 62.68 182.137 61.8C182.137 60.8933 181.777 60.1733 181.057 59.64C180.337 59.1067 179.151 58.5067 177.497 57.84C176.697 57.52 175.924 57.2 175.177 56.88C174.457 56.5333 173.831 56.1333 173.297 55.68C172.764 55.2267 172.337 54.68 172.017 54.04C171.697 53.4 171.537 52.6133 171.537 51.68C171.537 49.84 172.217 48.3867 173.577 47.32C174.937 46.2267 176.791 45.68 179.137 45.68C179.724 45.68 180.311 45.72 180.897 45.8C181.484 45.8533 182.031 45.9333 182.537 46.04C183.044 46.12 183.484 46.2133 183.857 46.32C184.257 46.4267 184.564 46.52 184.777 46.6L184.097 49.8C183.697 49.5867 183.071 49.3733 182.217 49.16C181.364 48.92 180.337 48.8 179.137 48.8C178.097 48.8 177.191 49.0133 176.417 49.44C175.644 49.84 175.257 50.48 175.257 51.36C175.257 51.8133 175.337 52.2133 175.497 52.56C175.684 52.9067 175.951 53.2267 176.297 53.52C176.671 53.7867 177.124 54.04 177.657 54.28C178.191 54.52 178.831 54.7733 179.577 55.04C180.564 55.4133 181.444 55.7867 182.217 56.16C182.991 56.5067 183.644 56.92 184.177 57.4C184.737 57.88 185.164 58.4667 185.457 59.16C185.751 59.8267 185.897 60.6533 185.897 61.64C185.897 63.56 185.177 65.0133 183.737 66C182.324 66.9867 180.297 67.48 177.657 67.48C175.817 67.48 174.377 67.32 173.337 67C172.297 66.7067 171.591 66.48 171.217 66.32L171.897 63.12C172.324 63.28 173.004 63.52 173.937 63.84C174.871 64.16 176.111 64.32 177.657 64.32ZM203.709 64.92C203.389 65.1333 202.762 65.4133 201.829 65.76C200.922 66.08 199.855 66.24 198.629 66.24C197.375 66.24 196.189 66.04 195.069 65.64C193.975 65.24 193.015 64.6267 192.189 63.8C191.362 62.9467 190.709 61.8933 190.229 60.64C189.749 59.3867 189.509 57.8933 189.509 56.16C189.509 54.64 189.735 53.2533 190.189 52C190.642 50.72 191.295 49.6267 192.149 48.72C193.029 47.7867 194.095 47.0667 195.349 46.56C196.602 46.0267 198.015 45.76 199.589 45.76C201.322 45.76 202.829 45.8933 204.109 46.16C205.415 46.4 206.509 46.6267 207.389 46.84V65.4C207.389 68.6 206.562 70.92 204.909 72.36C203.255 73.8 200.749 74.52 197.389 74.52C196.082 74.52 194.842 74.4133 193.669 74.2C192.522 73.9867 191.522 73.7333 190.669 73.44L191.349 70.2C192.095 70.4933 193.002 70.7467 194.069 70.96C195.162 71.2 196.295 71.32 197.469 71.32C199.682 71.32 201.269 70.88 202.229 70C203.215 69.12 203.709 67.72 203.709 65.8V64.92ZM203.669 49.48C203.295 49.3733 202.789 49.28 202.149 49.2C201.535 49.0933 200.695 49.04 199.629 49.04C197.629 49.04 196.082 49.6933 194.989 51C193.922 52.3067 193.389 54.04 193.389 56.2C193.389 57.4 193.535 58.4267 193.829 59.28C194.149 60.1333 194.562 60.84 195.069 61.4C195.602 61.96 196.202 62.3733 196.869 62.64C197.562 62.9067 198.269 63.04 198.989 63.04C199.975 63.04 200.882 62.9067 201.709 62.64C202.535 62.3467 203.189 62.0133 203.669 61.64V49.48ZM232.154 56.6C232.154 58.2533 231.914 59.7467 231.434 61.08C230.954 62.4133 230.274 63.56 229.394 64.52C228.54 65.48 227.514 66.2267 226.314 66.76C225.114 67.2667 223.807 67.52 222.394 67.52C220.98 67.52 219.674 67.2667 218.474 66.76C217.274 66.2267 216.234 65.48 215.354 64.52C214.5 63.56 213.834 62.4133 213.354 61.08C212.874 59.7467 212.634 58.2533 212.634 56.6C212.634 54.9733 212.874 53.4933 213.354 52.16C213.834 50.8 214.5 49.64 215.354 48.68C216.234 47.72 217.274 46.9867 218.474 46.48C219.674 45.9467 220.98 45.68 222.394 45.68C223.807 45.68 225.114 45.9467 226.314 46.48C227.514 46.9867 228.54 47.72 229.394 48.68C230.274 49.64 230.954 50.8 231.434 52.16C231.914 53.4933 232.154 54.9733 232.154 56.6ZM228.274 56.6C228.274 54.2533 227.74 52.4 226.674 51.04C225.634 49.6533 224.207 48.96 222.394 48.96C220.58 48.96 219.14 49.6533 218.074 51.04C217.034 52.4 216.514 54.2533 216.514 56.6C216.514 58.9467 217.034 60.8133 218.074 62.2C219.14 63.56 220.58 64.24 222.394 64.24C224.207 64.24 225.634 63.56 226.674 62.2C227.74 60.8133 228.274 58.9467 228.274 56.6ZM261.085 56.64C261.085 54.2133 260.485 52.3467 259.285 51.04C258.085 49.7333 256.485 49.08 254.485 49.08C253.365 49.08 252.485 49.12 251.845 49.2C251.232 49.28 250.739 49.3733 250.365 49.48V62.6C250.819 62.9733 251.472 63.3333 252.325 63.68C253.179 64.0267 254.112 64.2 255.125 64.2C256.192 64.2 257.099 64.0133 257.845 63.64C258.619 63.24 259.245 62.7067 259.725 62.04C260.205 61.3467 260.552 60.5467 260.765 59.64C260.979 58.7067 261.085 57.7067 261.085 56.64ZM264.965 56.64C264.965 58.2133 264.752 59.6667 264.325 61C263.925 62.3333 263.325 63.48 262.525 64.44C261.725 65.4 260.739 66.1467 259.565 66.68C258.419 67.2133 257.099 67.48 255.605 67.48C254.405 67.48 253.339 67.32 252.405 67C251.499 66.68 250.819 66.3733 250.365 66.08V74.4H246.645V46.84C247.525 46.6267 248.619 46.4 249.925 46.16C251.259 45.8933 252.792 45.76 254.525 45.76C256.125 45.76 257.565 46.0133 258.845 46.52C260.125 47.0267 261.219 47.7467 262.125 48.68C263.032 49.6133 263.725 50.76 264.205 52.12C264.712 53.4533 264.965 54.96 264.965 56.64ZM277.24 64.32C278.12 64.32 278.893 64.3067 279.56 64.28C280.253 64.2267 280.827 64.1467 281.28 64.04V57.84C281.013 57.7067 280.573 57.6 279.96 57.52C279.373 57.4133 278.653 57.36 277.8 57.36C277.24 57.36 276.64 57.4 276 57.48C275.387 57.56 274.813 57.7333 274.28 58C273.773 58.24 273.347 58.5867 273 59.04C272.653 59.4667 272.48 60.04 272.48 60.76C272.48 62.0933 272.907 63.0267 273.76 63.56C274.613 64.0667 275.773 64.32 277.24 64.32ZM276.92 45.68C278.413 45.68 279.667 45.88 280.68 46.28C281.72 46.6533 282.547 47.2 283.16 47.92C283.8 48.6133 284.253 49.4533 284.52 50.44C284.787 51.4 284.92 52.4667 284.92 53.64V66.64C284.6 66.6933 284.147 66.7733 283.56 66.88C283 66.96 282.36 67.04 281.64 67.12C280.92 67.2 280.133 67.2667 279.28 67.32C278.453 67.4 277.627 67.44 276.8 67.44C275.627 67.44 274.547 67.32 273.56 67.08C272.573 66.84 271.72 66.4667 271 65.96C270.28 65.4267 269.72 64.7333 269.32 63.88C268.92 63.0267 268.72 62 268.72 60.8C268.72 59.6533 268.947 58.6667 269.4 57.84C269.88 57.0133 270.52 56.3467 271.32 55.84C272.12 55.3333 273.053 54.96 274.12 54.72C275.187 54.48 276.307 54.36 277.48 54.36C277.853 54.36 278.24 54.3867 278.64 54.44C279.04 54.4667 279.413 54.52 279.76 54.6C280.133 54.6533 280.453 54.7067 280.72 54.76C280.987 54.8133 281.173 54.8533 281.28 54.88V53.84C281.28 53.2267 281.213 52.6267 281.08 52.04C280.947 51.4267 280.707 50.8933 280.36 50.44C280.013 49.96 279.533 49.5867 278.92 49.32C278.333 49.0267 277.56 48.88 276.6 48.88C275.373 48.88 274.293 48.9733 273.36 49.16C272.453 49.32 271.773 49.4933 271.32 49.68L270.88 46.6C271.36 46.3867 272.16 46.1867 273.28 46C274.4 45.7867 275.613 45.68 276.92 45.68ZM298.778 45.76C299.098 45.76 299.458 45.7867 299.858 45.84C300.285 45.8667 300.698 45.92 301.098 46C301.498 46.0533 301.858 46.12 302.178 46.2C302.525 46.2533 302.778 46.3067 302.938 46.36L302.298 49.6C302.005 49.4933 301.512 49.3733 300.818 49.24C300.152 49.08 299.285 49 298.218 49C297.525 49 296.832 49.08 296.138 49.24C295.472 49.3733 295.032 49.4667 294.818 49.52V67H291.098V47.08C291.978 46.76 293.072 46.4667 294.378 46.2C295.685 45.9067 297.152 45.76 298.778 45.76ZM313.568 64.32C314.448 64.32 315.221 64.3067 315.888 64.28C316.581 64.2267 317.155 64.1467 317.608 64.04V57.84C317.341 57.7067 316.901 57.6 316.288 57.52C315.701 57.4133 314.981 57.36 314.128 57.36C313.568 57.36 312.968 57.4 312.328 57.48C311.715 57.56 311.141 57.7333 310.608 58C310.101 58.24 309.675 58.5867 309.328 59.04C308.981 59.4667 308.808 60.04 308.808 60.76C308.808 62.0933 309.235 63.0267 310.088 63.56C310.941 64.0667 312.101 64.32 313.568 64.32ZM313.248 45.68C314.741 45.68 315.995 45.88 317.008 46.28C318.048 46.6533 318.875 47.2 319.488 47.92C320.128 48.6133 320.581 49.4533 320.848 50.44C321.115 51.4 321.248 52.4667 321.248 53.64V66.64C320.928 66.6933 320.475 66.7733 319.888 66.88C319.328 66.96 318.688 67.04 317.968 67.12C317.248 67.2 316.461 67.2667 315.608 67.32C314.781 67.4 313.955 67.44 313.128 67.44C311.955 67.44 310.875 67.32 309.888 67.08C308.901 66.84 308.048 66.4667 307.328 65.96C306.608 65.4267 306.048 64.7333 305.648 63.88C305.248 63.0267 305.048 62 305.048 60.8C305.048 59.6533 305.275 58.6667 305.728 57.84C306.208 57.0133 306.848 56.3467 307.648 55.84C308.448 55.3333 309.381 54.96 310.448 54.72C311.515 54.48 312.635 54.36 313.808 54.36C314.181 54.36 314.568 54.3867 314.968 54.44C315.368 54.4667 315.741 54.52 316.088 54.6C316.461 54.6533 316.781 54.7067 317.048 54.76C317.315 54.8133 317.501 54.8533 317.608 54.88V53.84C317.608 53.2267 317.541 52.6267 317.408 52.04C317.275 51.4267 317.035 50.8933 316.688 50.44C316.341 49.96 315.861 49.5867 315.248 49.32C314.661 49.0267 313.888 48.88 312.928 48.88C311.701 48.88 310.621 48.9733 309.688 49.16C308.781 49.32 308.101 49.4933 307.648 49.68L307.208 46.6C307.688 46.3867 308.488 46.1867 309.608 46C310.728 45.7867 311.941 45.68 313.248 45.68ZM342.924 67.4C340.631 67.3467 339.004 66.8533 338.044 65.92C337.084 64.9867 336.604 63.5333 336.604 61.56V36.6L340.324 35.96V60.96C340.324 61.5733 340.378 62.08 340.484 62.48C340.591 62.88 340.764 63.2 341.004 63.44C341.244 63.68 341.564 63.8667 341.964 64C342.364 64.1067 342.858 64.2 343.444 64.28L342.924 67.4ZM354.662 64.32C355.542 64.32 356.315 64.3067 356.982 64.28C357.675 64.2267 358.249 64.1467 358.702 64.04V57.84C358.435 57.7067 357.995 57.6 357.382 57.52C356.795 57.4133 356.075 57.36 355.222 57.36C354.662 57.36 354.062 57.4 353.422 57.48C352.809 57.56 352.235 57.7333 351.702 58C351.195 58.24 350.769 58.5867 350.422 59.04C350.075 59.4667 349.902 60.04 349.902 60.76C349.902 62.0933 350.329 63.0267 351.182 63.56C352.035 64.0667 353.195 64.32 354.662 64.32ZM354.342 45.68C355.835 45.68 357.089 45.88 358.102 46.28C359.142 46.6533 359.969 47.2 360.582 47.92C361.222 48.6133 361.675 49.4533 361.942 50.44C362.209 51.4 362.342 52.4667 362.342 53.64V66.64C362.022 66.6933 361.569 66.7733 360.982 66.88C360.422 66.96 359.782 67.04 359.062 67.12C358.342 67.2 357.555 67.2667 356.702 67.32C355.875 67.4 355.049 67.44 354.222 67.44C353.049 67.44 351.969 67.32 350.982 67.08C349.995 66.84 349.142 66.4667 348.422 65.96C347.702 65.4267 347.142 64.7333 346.742 63.88C346.342 63.0267 346.142 62 346.142 60.8C346.142 59.6533 346.369 58.6667 346.822 57.84C347.302 57.0133 347.942 56.3467 348.742 55.84C349.542 55.3333 350.475 54.96 351.542 54.72C352.609 54.48 353.729 54.36 354.902 54.36C355.275 54.36 355.662 54.3867 356.062 54.44C356.462 54.4667 356.835 54.52 357.182 54.6C357.555 54.6533 357.875 54.7067 358.142 54.76C358.409 54.8133 358.595 54.8533 358.702 54.88V53.84C358.702 53.2267 358.635 52.6267 358.502 52.04C358.369 51.4267 358.129 50.8933 357.782 50.44C357.435 49.96 356.955 49.5867 356.342 49.32C355.755 49.0267 354.982 48.88 354.022 48.88C352.795 48.88 351.715 48.9733 350.782 49.16C349.875 49.32 349.195 49.4933 348.742 49.68L348.302 46.6C348.782 46.3867 349.582 46.1867 350.702 46C351.822 45.7867 353.035 45.68 354.342 45.68ZM382.618 64.32C384.138 64.32 385.258 64.12 385.978 63.72C386.725 63.32 387.098 62.68 387.098 61.8C387.098 60.8933 386.738 60.1733 386.018 59.64C385.298 59.1067 384.111 58.5067 382.458 57.84C381.658 57.52 380.885 57.2 380.138 56.88C379.418 56.5333 378.791 56.1333 378.258 55.68C377.725 55.2267 377.298 54.68 376.978 54.04C376.658 53.4 376.498 52.6133 376.498 51.68C376.498 49.84 377.178 48.3867 378.538 47.32C379.898 46.2267 381.751 45.68 384.098 45.68C384.685 45.68 385.271 45.72 385.858 45.8C386.445 45.8533 386.991 45.9333 387.498 46.04C388.005 46.12 388.445 46.2133 388.818 46.32C389.218 46.4267 389.525 46.52 389.738 46.6L389.058 49.8C388.658 49.5867 388.031 49.3733 387.178 49.16C386.325 48.92 385.298 48.8 384.098 48.8C383.058 48.8 382.151 49.0133 381.378 49.44C380.605 49.84 380.218 50.48 380.218 51.36C380.218 51.8133 380.298 52.2133 380.458 52.56C380.645 52.9067 380.911 53.2267 381.258 53.52C381.631 53.7867 382.085 54.04 382.618 54.28C383.151 54.52 383.791 54.7733 384.538 55.04C385.525 55.4133 386.405 55.7867 387.178 56.16C387.951 56.5067 388.605 56.92 389.138 57.4C389.698 57.88 390.125 58.4667 390.418 59.16C390.711 59.8267 390.858 60.6533 390.858 61.64C390.858 63.56 390.138 65.0133 388.698 66C387.285 66.9867 385.258 67.48 382.618 67.48C380.778 67.48 379.338 67.32 378.298 67C377.258 66.7067 376.551 66.48 376.178 66.32L376.858 63.12C377.285 63.28 377.965 63.52 378.898 63.84C379.831 64.16 381.071 64.32 382.618 64.32ZM402.67 64.32C403.55 64.32 404.323 64.3067 404.99 64.28C405.683 64.2267 406.256 64.1467 406.71 64.04V57.84C406.443 57.7067 406.003 57.6 405.39 57.52C404.803 57.4133 404.083 57.36 403.23 57.36C402.67 57.36 402.07 57.4 401.43 57.48C400.816 57.56 400.243 57.7333 399.71 58C399.203 58.24 398.776 58.5867 398.43 59.04C398.083 59.4667 397.91 60.04 397.91 60.76C397.91 62.0933 398.336 63.0267 399.19 63.56C400.043 64.0667 401.203 64.32 402.67 64.32ZM402.35 45.68C403.843 45.68 405.096 45.88 406.11 46.28C407.15 46.6533 407.976 47.2 408.59 47.92C409.23 48.6133 409.683 49.4533 409.95 50.44C410.216 51.4 410.35 52.4667 410.35 53.64V66.64C410.03 66.6933 409.576 66.7733 408.99 66.88C408.43 66.96 407.79 67.04 407.07 67.12C406.35 67.2 405.563 67.2667 404.71 67.32C403.883 67.4 403.056 67.44 402.23 67.44C401.056 67.44 399.976 67.32 398.99 67.08C398.003 66.84 397.15 66.4667 396.43 65.96C395.71 65.4267 395.15 64.7333 394.75 63.88C394.35 63.0267 394.15 62 394.15 60.8C394.15 59.6533 394.376 58.6667 394.83 57.84C395.31 57.0133 395.95 56.3467 396.75 55.84C397.55 55.3333 398.483 54.96 399.55 54.72C400.616 54.48 401.736 54.36 402.91 54.36C403.283 54.36 403.67 54.3867 404.07 54.44C404.47 54.4667 404.843 54.52 405.19 54.6C405.563 54.6533 405.883 54.7067 406.15 54.76C406.416 54.8133 406.603 54.8533 406.71 54.88V53.84C406.71 53.2267 406.643 52.6267 406.51 52.04C406.376 51.4267 406.136 50.8933 405.79 50.44C405.443 49.96 404.963 49.5867 404.35 49.32C403.763 49.0267 402.99 48.88 402.03 48.88C400.803 48.88 399.723 48.9733 398.79 49.16C397.883 49.32 397.203 49.4933 396.75 49.68L396.31 46.6C396.79 46.3867 397.59 46.1867 398.71 46C399.83 45.7867 401.043 45.68 402.35 45.68ZM422.768 67.4C420.475 67.3467 418.848 66.8533 417.888 65.92C416.928 64.9867 416.448 63.5333 416.448 61.56V36.6L420.168 35.96V60.96C420.168 61.5733 420.221 62.08 420.328 62.48C420.435 62.88 420.608 63.2 420.848 63.44C421.088 63.68 421.408 63.8667 421.808 64C422.208 64.1067 422.701 64.2 423.288 64.28L422.768 67.4ZM444.026 66.4C443.172 66.6133 442.039 66.84 440.626 67.08C439.239 67.32 437.626 67.44 435.786 67.44C434.186 67.44 432.839 67.2133 431.746 66.76C430.652 66.28 429.772 65.6133 429.106 64.76C428.439 63.9067 427.959 62.9067 427.666 61.76C427.372 60.5867 427.226 59.2933 427.226 57.88V46.2H430.946V57.08C430.946 59.6133 431.346 61.4267 432.146 62.52C432.946 63.6133 434.292 64.16 436.186 64.16C436.586 64.16 436.999 64.1467 437.426 64.12C437.852 64.0933 438.252 64.0667 438.626 64.04C438.999 63.9867 439.332 63.9467 439.626 63.92C439.946 63.8667 440.172 63.8133 440.306 63.76V46.2H444.026V66.4ZM463.874 50.6C463.421 50.2267 462.768 49.8667 461.914 49.52C461.061 49.1733 460.128 49 459.114 49C458.048 49 457.128 49.2 456.354 49.6C455.608 49.9733 454.994 50.5067 454.514 51.2C454.034 51.8667 453.688 52.6667 453.474 53.6C453.261 54.5333 453.154 55.5333 453.154 56.6C453.154 59.0267 453.754 60.9067 454.954 62.24C456.154 63.5467 457.754 64.2 459.754 64.2C460.768 64.2 461.608 64.16 462.274 64.08C462.968 63.9733 463.501 63.8667 463.874 63.76V50.6ZM463.874 36.6L467.594 35.96V66.4C466.741 66.64 465.648 66.88 464.314 67.12C462.981 67.36 461.448 67.48 459.714 67.48C458.114 67.48 456.674 67.2267 455.394 66.72C454.114 66.2133 453.021 65.4933 452.114 64.56C451.208 63.6267 450.501 62.4933 449.994 61.16C449.514 59.8 449.274 58.28 449.274 56.6C449.274 55 449.474 53.5333 449.874 52.2C450.301 50.8667 450.914 49.72 451.714 48.76C452.514 47.8 453.488 47.0533 454.634 46.52C455.808 45.9867 457.141 45.72 458.634 45.72C459.834 45.72 460.888 45.88 461.794 46.2C462.728 46.52 463.421 46.8267 463.874 47.12V36.6Z" fill="#EB5757"/>
<path d="M124.528 88.368H126.856V105H124.528V97.32H116.392V105H114.064V88.368H116.392V95.304H124.528V88.368ZM133.074 105H130.842V92.52H133.074V105ZM131.946 90.264C131.546 90.264 131.202 90.136 130.914 89.88C130.642 89.608 130.506 89.248 130.506 88.8C130.506 88.352 130.642 88 130.914 87.744C131.202 87.472 131.546 87.336 131.946 87.336C132.346 87.336 132.682 87.472 132.954 87.744C133.242 88 133.386 88.352 133.386 88.8C133.386 89.248 133.242 89.608 132.954 89.88C132.682 90.136 132.346 90.264 131.946 90.264ZM145.576 98.784C145.576 97.328 145.216 96.208 144.496 95.424C143.776 94.64 142.816 94.248 141.616 94.248C140.944 94.248 140.416 94.272 140.032 94.32C139.664 94.368 139.368 94.424 139.144 94.488V102.36C139.416 102.584 139.808 102.8 140.32 103.008C140.832 103.216 141.392 103.32 142 103.32C142.64 103.32 143.184 103.208 143.632 102.984C144.096 102.744 144.472 102.424 144.76 102.024C145.048 101.608 145.256 101.128 145.384 100.584C145.512 100.024 145.576 99.424 145.576 98.784ZM147.904 98.784C147.904 99.728 147.776 100.6 147.52 101.4C147.28 102.2 146.92 102.888 146.44 103.464C145.96 104.04 145.368 104.488 144.664 104.808C143.976 105.128 143.184 105.288 142.288 105.288C141.568 105.288 140.928 105.192 140.368 105C139.824 104.808 139.416 104.624 139.144 104.448V109.44H136.912V92.904C137.44 92.776 138.096 92.64 138.88 92.496C139.68 92.336 140.6 92.256 141.64 92.256C142.6 92.256 143.464 92.408 144.232 92.712C145 93.016 145.656 93.448 146.2 94.008C146.744 94.568 147.16 95.256 147.448 96.072C147.752 96.872 147.904 97.776 147.904 98.784ZM150.349 98.784C150.349 97.68 150.509 96.72 150.829 95.904C151.149 95.072 151.573 94.384 152.101 93.84C152.629 93.296 153.237 92.888 153.925 92.616C154.613 92.344 155.317 92.208 156.037 92.208C157.717 92.208 159.005 92.736 159.901 93.792C160.797 94.832 161.245 96.424 161.245 98.568C161.245 98.664 161.245 98.792 161.245 98.952C161.245 99.096 161.237 99.232 161.221 99.36H152.677C152.773 100.656 153.149 101.64 153.805 102.312C154.461 102.984 155.485 103.32 156.877 103.32C157.661 103.32 158.317 103.256 158.845 103.128C159.389 102.984 159.797 102.848 160.069 102.72L160.381 104.592C160.109 104.736 159.629 104.888 158.941 105.048C158.269 105.208 157.501 105.288 156.637 105.288C155.549 105.288 154.605 105.128 153.805 104.808C153.021 104.472 152.373 104.016 151.861 103.44C151.349 102.864 150.965 102.184 150.709 101.4C150.469 100.6 150.349 99.728 150.349 98.784ZM158.917 97.56C158.933 96.552 158.677 95.728 158.149 95.088C157.637 94.432 156.925 94.104 156.013 94.104C155.501 94.104 155.045 94.208 154.645 94.416C154.261 94.608 153.933 94.864 153.661 95.184C153.389 95.504 153.173 95.872 153.013 96.288C152.869 96.704 152.773 97.128 152.725 97.56H158.917ZM169.059 92.256C169.251 92.256 169.467 92.272 169.707 92.304C169.963 92.32 170.211 92.352 170.451 92.4C170.691 92.432 170.907 92.472 171.099 92.52C171.307 92.552 171.459 92.584 171.555 92.616L171.171 94.56C170.995 94.496 170.699 94.424 170.283 94.344C169.883 94.248 169.363 94.2 168.723 94.2C168.307 94.2 167.891 94.248 167.475 94.344C167.075 94.424 166.811 94.48 166.683 94.512V105H164.451V93.048C164.979 92.856 165.635 92.68 166.419 92.52C167.203 92.344 168.083 92.256 169.059 92.256ZM179.133 105.288C178.125 105.288 177.237 105.128 176.469 104.808C175.717 104.488 175.077 104.04 174.549 103.464C174.037 102.888 173.653 102.208 173.397 101.424C173.141 100.624 173.013 99.744 173.013 98.784C173.013 97.824 173.149 96.944 173.421 96.144C173.709 95.344 174.109 94.656 174.621 94.08C175.133 93.488 175.757 93.032 176.493 92.712C177.245 92.376 178.077 92.208 178.989 92.208C179.549 92.208 180.109 92.256 180.669 92.352C181.229 92.448 181.765 92.6 182.277 92.808L181.773 94.704C181.437 94.544 181.045 94.416 180.597 94.32C180.165 94.224 179.701 94.176 179.205 94.176C177.957 94.176 176.997 94.568 176.325 95.352C175.669 96.136 175.341 97.28 175.341 98.784C175.341 99.456 175.413 100.072 175.557 100.632C175.717 101.192 175.957 101.672 176.277 102.072C176.613 102.472 177.037 102.784 177.549 103.008C178.061 103.216 178.685 103.32 179.421 103.32C180.013 103.32 180.549 103.264 181.029 103.152C181.509 103.04 181.885 102.92 182.157 102.792L182.469 104.664C182.341 104.744 182.157 104.824 181.917 104.904C181.677 104.968 181.405 105.024 181.101 105.072C180.797 105.136 180.469 105.184 180.117 105.216C179.781 105.264 179.453 105.288 179.133 105.288ZM195.577 98.76C195.577 99.752 195.433 100.648 195.145 101.448C194.857 102.248 194.449 102.936 193.921 103.512C193.409 104.088 192.793 104.536 192.073 104.856C191.353 105.16 190.569 105.312 189.721 105.312C188.873 105.312 188.089 105.16 187.369 104.856C186.649 104.536 186.025 104.088 185.497 103.512C184.985 102.936 184.585 102.248 184.297 101.448C184.009 100.648 183.865 99.752 183.865 98.76C183.865 97.784 184.009 96.896 184.297 96.096C184.585 95.28 184.985 94.584 185.497 94.008C186.025 93.432 186.649 92.992 187.369 92.688C188.089 92.368 188.873 92.208 189.721 92.208C190.569 92.208 191.353 92.368 192.073 92.688C192.793 92.992 193.409 93.432 193.921 94.008C194.449 94.584 194.857 95.28 195.145 96.096C195.433 96.896 195.577 97.784 195.577 98.76ZM193.249 98.76C193.249 97.352 192.929 96.24 192.289 95.424C191.665 94.592 190.809 94.176 189.721 94.176C188.633 94.176 187.769 94.592 187.129 95.424C186.505 96.24 186.193 97.352 186.193 98.76C186.193 100.168 186.505 101.288 187.129 102.12C187.769 102.936 188.633 103.344 189.721 103.344C190.809 103.344 191.665 102.936 192.289 102.12C192.929 101.288 193.249 100.168 193.249 98.76ZM203.325 92.256C203.517 92.256 203.733 92.272 203.973 92.304C204.229 92.32 204.477 92.352 204.717 92.4C204.957 92.432 205.173 92.472 205.365 92.52C205.573 92.552 205.725 92.584 205.821 92.616L205.437 94.56C205.261 94.496 204.965 94.424 204.549 94.344C204.149 94.248 203.629 94.2 202.989 94.2C202.573 94.2 202.157 94.248 201.741 94.344C201.341 94.424 201.077 94.48 200.949 94.512V105H198.717V93.048C199.245 92.856 199.901 92.68 200.685 92.52C201.469 92.344 202.349 92.256 203.325 92.256ZM210.063 92.52H214.791V94.392H210.063V100.152C210.063 100.776 210.111 101.296 210.207 101.712C210.303 102.112 210.447 102.432 210.639 102.672C210.831 102.896 211.071 103.056 211.359 103.152C211.647 103.248 211.983 103.296 212.367 103.296C213.039 103.296 213.575 103.224 213.975 103.08C214.391 102.92 214.679 102.808 214.839 102.744L215.271 104.592C215.047 104.704 214.655 104.84 214.095 105C213.535 105.176 212.895 105.264 212.175 105.264C211.327 105.264 210.623 105.16 210.063 104.952C209.519 104.728 209.079 104.4 208.743 103.968C208.407 103.536 208.167 103.008 208.023 102.384C207.895 101.744 207.831 101.008 207.831 100.176V89.04L210.063 88.656V92.52ZM219.863 105H217.631V92.52H219.863V105ZM218.735 90.264C218.335 90.264 217.991 90.136 217.703 89.88C217.431 89.608 217.295 89.248 217.295 88.8C217.295 88.352 217.431 88 217.703 87.744C217.991 87.472 218.335 87.336 218.735 87.336C219.135 87.336 219.471 87.472 219.743 87.744C220.031 88 220.175 88.352 220.175 88.8C220.175 89.248 220.031 89.608 219.743 89.88C219.471 90.136 219.135 90.264 218.735 90.264ZM226.605 103.392C227.517 103.392 228.189 103.272 228.621 103.032C229.069 102.792 229.293 102.408 229.293 101.88C229.293 101.336 229.077 100.904 228.645 100.584C228.213 100.264 227.501 99.904 226.509 99.504C226.029 99.312 225.565 99.12 225.117 98.928C224.685 98.72 224.309 98.48 223.989 98.208C223.669 97.936 223.413 97.608 223.221 97.224C223.029 96.84 222.933 96.368 222.933 95.808C222.933 94.704 223.341 93.832 224.157 93.192C224.973 92.536 226.085 92.208 227.493 92.208C227.845 92.208 228.197 92.232 228.549 92.28C228.901 92.312 229.229 92.36 229.533 92.424C229.837 92.472 230.101 92.528 230.325 92.592C230.565 92.656 230.749 92.712 230.877 92.76L230.469 94.68C230.229 94.552 229.853 94.424 229.341 94.296C228.829 94.152 228.213 94.08 227.493 94.08C226.869 94.08 226.325 94.208 225.861 94.464C225.397 94.704 225.165 95.088 225.165 95.616C225.165 95.888 225.213 96.128 225.309 96.336C225.421 96.544 225.581 96.736 225.789 96.912C226.013 97.072 226.285 97.224 226.605 97.368C226.925 97.512 227.309 97.664 227.757 97.824C228.349 98.048 228.877 98.272 229.341 98.496C229.805 98.704 230.197 98.952 230.517 99.24C230.853 99.528 231.109 99.88 231.285 100.296C231.461 100.696 231.549 101.192 231.549 101.784C231.549 102.936 231.117 103.808 230.253 104.4C229.405 104.992 228.189 105.288 226.605 105.288C225.501 105.288 224.637 105.192 224.013 105C223.389 104.824 222.965 104.688 222.741 104.592L223.149 102.672C223.405 102.768 223.813 102.912 224.373 103.104C224.933 103.296 225.677 103.392 226.605 103.392ZM245.428 98.76C245.428 99.752 245.284 100.648 244.996 101.448C244.708 102.248 244.3 102.936 243.772 103.512C243.26 104.088 242.644 104.536 241.924 104.856C241.204 105.16 240.42 105.312 239.572 105.312C238.724 105.312 237.94 105.16 237.22 104.856C236.5 104.536 235.876 104.088 235.348 103.512C234.836 102.936 234.436 102.248 234.148 101.448C233.86 100.648 233.716 99.752 233.716 98.76C233.716 97.784 233.86 96.896 234.148 96.096C234.436 95.28 234.836 94.584 235.348 94.008C235.876 93.432 236.5 92.992 237.22 92.688C237.94 92.368 238.724 92.208 239.572 92.208C240.42 92.208 241.204 92.368 241.924 92.688C242.644 92.992 243.26 93.432 243.772 94.008C244.3 94.584 244.708 95.28 244.996 96.096C245.284 96.896 245.428 97.784 245.428 98.76ZM243.1 98.76C243.1 97.352 242.78 96.24 242.14 95.424C241.516 94.592 240.66 94.176 239.572 94.176C238.484 94.176 237.62 94.592 236.98 95.424C236.356 96.24 236.044 97.352 236.044 98.76C236.044 100.168 236.356 101.288 236.98 102.12C237.62 102.936 238.484 103.344 239.572 103.344C240.66 103.344 241.516 102.936 242.14 102.12C242.78 101.288 243.1 100.168 243.1 98.76ZM252.312 105.24C250.936 105.208 249.96 104.912 249.384 104.352C248.808 103.792 248.52 102.92 248.52 101.736V86.76L250.752 86.376V101.376C250.752 101.744 250.784 102.048 250.848 102.288C250.912 102.528 251.016 102.72 251.16 102.864C251.304 103.008 251.496 103.12 251.736 103.2C251.976 103.264 252.272 103.32 252.624 103.368L252.312 105.24ZM257.363 105H255.131V92.52H257.363V105ZM256.235 90.264C255.835 90.264 255.491 90.136 255.203 89.88C254.931 89.608 254.795 89.248 254.795 88.8C254.795 88.352 254.931 88 255.203 87.744C255.491 87.472 255.835 87.336 256.235 87.336C256.635 87.336 256.971 87.472 257.243 87.744C257.531 88 257.675 88.352 257.675 88.8C257.675 89.248 257.531 89.608 257.243 89.88C256.971 90.136 256.635 90.264 256.235 90.264ZM261.201 92.88C261.713 92.752 262.385 92.616 263.217 92.472C264.065 92.328 265.041 92.256 266.145 92.256C266.945 92.256 267.617 92.368 268.161 92.592C268.705 92.8 269.161 93.112 269.529 93.528C269.641 93.448 269.817 93.336 270.057 93.192C270.297 93.048 270.593 92.912 270.945 92.784C271.297 92.64 271.689 92.52 272.121 92.424C272.553 92.312 273.017 92.256 273.513 92.256C274.473 92.256 275.257 92.4 275.865 92.688C276.473 92.96 276.945 93.352 277.281 93.864C277.633 94.376 277.865 94.984 277.977 95.688C278.105 96.392 278.169 97.16 278.169 97.992V105H275.937V98.472C275.937 97.736 275.897 97.104 275.817 96.576C275.753 96.048 275.617 95.608 275.409 95.256C275.217 94.904 274.945 94.648 274.593 94.488C274.257 94.312 273.817 94.224 273.273 94.224C272.521 94.224 271.897 94.328 271.401 94.536C270.921 94.728 270.593 94.904 270.417 95.064C270.545 95.48 270.641 95.936 270.705 96.432C270.769 96.928 270.801 97.448 270.801 97.992V105H268.569V98.472C268.569 97.736 268.529 97.104 268.449 96.576C268.369 96.048 268.225 95.608 268.017 95.256C267.825 94.904 267.553 94.648 267.201 94.488C266.865 94.312 266.433 94.224 265.905 94.224C265.681 94.224 265.441 94.232 265.185 94.248C264.929 94.264 264.681 94.288 264.441 94.32C264.217 94.336 264.009 94.36 263.817 94.392C263.625 94.424 263.497 94.448 263.433 94.464V105H261.201V92.88ZM284.105 105H281.873V92.52H284.105V105ZM282.977 90.264C282.577 90.264 282.233 90.136 281.945 89.88C281.673 89.608 281.537 89.248 281.537 88.8C281.537 88.352 281.673 88 281.945 87.744C282.233 87.472 282.577 87.336 282.977 87.336C283.377 87.336 283.713 87.472 283.985 87.744C284.273 88 284.417 88.352 284.417 88.8C284.417 89.248 284.273 89.608 283.985 89.88C283.713 90.136 283.377 90.264 282.977 90.264ZM292.167 103.392C292.695 103.392 293.159 103.384 293.559 103.368C293.975 103.336 294.319 103.288 294.591 103.224V99.504C294.431 99.424 294.167 99.36 293.799 99.312C293.447 99.248 293.015 99.216 292.503 99.216C292.167 99.216 291.807 99.24 291.423 99.288C291.055 99.336 290.711 99.44 290.391 99.6C290.087 99.744 289.831 99.952 289.623 100.224C289.415 100.48 289.311 100.824 289.311 101.256C289.311 102.056 289.567 102.616 290.079 102.936C290.591 103.24 291.287 103.392 292.167 103.392ZM291.975 92.208C292.871 92.208 293.623 92.328 294.231 92.568C294.855 92.792 295.351 93.12 295.719 93.552C296.103 93.968 296.375 94.472 296.535 95.064C296.695 95.64 296.775 96.28 296.775 96.984V104.784C296.583 104.816 296.311 104.864 295.959 104.928C295.623 104.976 295.239 105.024 294.807 105.072C294.375 105.12 293.903 105.16 293.391 105.192C292.895 105.24 292.399 105.264 291.903 105.264C291.199 105.264 290.551 105.192 289.959 105.048C289.367 104.904 288.855 104.68 288.423 104.376C287.991 104.056 287.655 103.64 287.415 103.128C287.175 102.616 287.055 102 287.055 101.28C287.055 100.592 287.191 100 287.463 99.504C287.751 99.008 288.135 98.608 288.615 98.304C289.095 98 289.655 97.776 290.295 97.632C290.935 97.488 291.607 97.416 292.311 97.416C292.535 97.416 292.767 97.432 293.007 97.464C293.247 97.48 293.471 97.512 293.679 97.56C293.903 97.592 294.095 97.624 294.255 97.656C294.415 97.688 294.527 97.712 294.591 97.728V97.104C294.591 96.736 294.551 96.376 294.471 96.024C294.391 95.656 294.247 95.336 294.039 95.064C293.831 94.776 293.543 94.552 293.175 94.392C292.823 94.216 292.359 94.128 291.783 94.128C291.047 94.128 290.399 94.184 289.839 94.296C289.295 94.392 288.887 94.496 288.615 94.608L288.351 92.76C288.639 92.632 289.119 92.512 289.791 92.4C290.463 92.272 291.191 92.208 291.975 92.208Z" fill="#EB5757"/>
<path d="M669.473 336.368H671.801V353H669.473V345.32H661.337V353H659.009V336.368H661.337V343.304H669.473V336.368ZM678.019 353H675.787V340.52H678.019V353ZM676.891 338.264C676.491 338.264 676.147 338.136 675.859 337.88C675.587 337.608 675.451 337.248 675.451 336.8C675.451 336.352 675.587 336 675.859 335.744C676.147 335.472 676.491 335.336 676.891 335.336C677.291 335.336 677.627 335.472 677.899 335.744C678.187 336 678.331 336.352 678.331 336.8C678.331 337.248 678.187 337.608 677.899 337.88C677.627 338.136 677.291 338.264 676.891 338.264ZM690.522 346.784C690.522 345.328 690.162 344.208 689.442 343.424C688.722 342.64 687.762 342.248 686.562 342.248C685.89 342.248 685.362 342.272 684.978 342.32C684.61 342.368 684.314 342.424 684.09 342.488V350.36C684.362 350.584 684.754 350.8 685.266 351.008C685.778 351.216 686.338 351.32 686.946 351.32C687.586 351.32 688.13 351.208 688.578 350.984C689.042 350.744 689.418 350.424 689.706 350.024C689.994 349.608 690.202 349.128 690.33 348.584C690.458 348.024 690.522 347.424 690.522 346.784ZM692.85 346.784C692.85 347.728 692.722 348.6 692.466 349.4C692.226 350.2 691.866 350.888 691.386 351.464C690.906 352.04 690.314 352.488 689.61 352.808C688.922 353.128 688.13 353.288 687.234 353.288C686.514 353.288 685.874 353.192 685.314 353C684.77 352.808 684.362 352.624 684.09 352.448V357.44H681.858V340.904C682.386 340.776 683.042 340.64 683.826 340.496C684.626 340.336 685.546 340.256 686.586 340.256C687.546 340.256 688.41 340.408 689.178 340.712C689.946 341.016 690.602 341.448 691.146 342.008C691.69 342.568 692.106 343.256 692.394 344.072C692.698 344.872 692.85 345.776 692.85 346.784ZM707.006 346.76C707.006 347.752 706.862 348.648 706.574 349.448C706.286 350.248 705.878 350.936 705.35 351.512C704.838 352.088 704.222 352.536 703.502 352.856C702.782 353.16 701.998 353.312 701.15 353.312C700.302 353.312 699.518 353.16 698.798 352.856C698.078 352.536 697.454 352.088 696.926 351.512C696.414 350.936 696.014 350.248 695.726 349.448C695.438 348.648 695.294 347.752 695.294 346.76C695.294 345.784 695.438 344.896 695.726 344.096C696.014 343.28 696.414 342.584 696.926 342.008C697.454 341.432 698.078 340.992 698.798 340.688C699.518 340.368 700.302 340.208 701.15 340.208C701.998 340.208 702.782 340.368 703.502 340.688C704.222 340.992 704.838 341.432 705.35 342.008C705.878 342.584 706.286 343.28 706.574 344.096C706.862 344.896 707.006 345.784 707.006 346.76ZM704.678 346.76C704.678 345.352 704.358 344.24 703.718 343.424C703.094 342.592 702.238 342.176 701.15 342.176C700.062 342.176 699.198 342.592 698.558 343.424C697.934 344.24 697.622 345.352 697.622 346.76C697.622 348.168 697.934 349.288 698.558 350.12C699.198 350.936 700.062 351.344 701.15 351.344C702.238 351.344 703.094 350.936 703.718 350.12C704.358 349.288 704.678 348.168 704.678 346.76ZM715.571 353.288C714.563 353.288 713.675 353.128 712.907 352.808C712.155 352.488 711.515 352.04 710.987 351.464C710.475 350.888 710.091 350.208 709.835 349.424C709.579 348.624 709.451 347.744 709.451 346.784C709.451 345.824 709.587 344.944 709.859 344.144C710.147 343.344 710.547 342.656 711.059 342.08C711.571 341.488 712.195 341.032 712.931 340.712C713.683 340.376 714.515 340.208 715.427 340.208C715.987 340.208 716.547 340.256 717.107 340.352C717.667 340.448 718.203 340.6 718.715 340.808L718.211 342.704C717.875 342.544 717.483 342.416 717.035 342.32C716.603 342.224 716.139 342.176 715.643 342.176C714.395 342.176 713.435 342.568 712.763 343.352C712.107 344.136 711.779 345.28 711.779 346.784C711.779 347.456 711.851 348.072 711.995 348.632C712.155 349.192 712.395 349.672 712.715 350.072C713.051 350.472 713.475 350.784 713.987 351.008C714.499 351.216 715.123 351.32 715.859 351.32C716.451 351.32 716.987 351.264 717.467 351.152C717.947 351.04 718.323 350.92 718.595 350.792L718.907 352.664C718.779 352.744 718.595 352.824 718.355 352.904C718.115 352.968 717.843 353.024 717.539 353.072C717.235 353.136 716.907 353.184 716.555 353.216C716.219 353.264 715.891 353.288 715.571 353.288ZM732.014 346.76C732.014 347.752 731.87 348.648 731.582 349.448C731.294 350.248 730.886 350.936 730.358 351.512C729.846 352.088 729.23 352.536 728.51 352.856C727.79 353.16 727.006 353.312 726.158 353.312C725.31 353.312 724.526 353.16 723.806 352.856C723.086 352.536 722.462 352.088 721.934 351.512C721.422 350.936 721.022 350.248 720.734 349.448C720.446 348.648 720.302 347.752 720.302 346.76C720.302 345.784 720.446 344.896 720.734 344.096C721.022 343.28 721.422 342.584 721.934 342.008C722.462 341.432 723.086 340.992 723.806 340.688C724.526 340.368 725.31 340.208 726.158 340.208C727.006 340.208 727.79 340.368 728.51 340.688C729.23 340.992 729.846 341.432 730.358 342.008C730.886 342.584 731.294 343.28 731.582 344.096C731.87 344.896 732.014 345.784 732.014 346.76ZM729.686 346.76C729.686 345.352 729.366 344.24 728.726 343.424C728.102 342.592 727.246 342.176 726.158 342.176C725.07 342.176 724.206 342.592 723.566 343.424C722.942 344.24 722.63 345.352 722.63 346.76C722.63 348.168 722.942 349.288 723.566 350.12C724.206 350.936 725.07 351.344 726.158 351.344C727.246 351.344 728.102 350.936 728.726 350.12C729.366 349.288 729.686 348.168 729.686 346.76ZM739.762 340.256C739.954 340.256 740.17 340.272 740.41 340.304C740.666 340.32 740.914 340.352 741.154 340.4C741.394 340.432 741.61 340.472 741.802 340.52C742.01 340.552 742.162 340.584 742.258 340.616L741.874 342.56C741.698 342.496 741.402 342.424 740.986 342.344C740.586 342.248 740.066 342.2 739.426 342.2C739.01 342.2 738.594 342.248 738.178 342.344C737.778 342.424 737.514 342.48 737.386 342.512V353H735.154V341.048C735.682 340.856 736.338 340.68 737.122 340.52C737.906 340.344 738.786 340.256 739.762 340.256ZM746.5 340.52H751.228V342.392H746.5V348.152C746.5 348.776 746.548 349.296 746.644 349.712C746.74 350.112 746.884 350.432 747.076 350.672C747.268 350.896 747.508 351.056 747.796 351.152C748.084 351.248 748.42 351.296 748.804 351.296C749.476 351.296 750.012 351.224 750.412 351.08C750.828 350.92 751.116 350.808 751.276 350.744L751.708 352.592C751.484 352.704 751.092 352.84 750.532 353C749.972 353.176 749.332 353.264 748.612 353.264C747.764 353.264 747.06 353.16 746.5 352.952C745.956 352.728 745.516 352.4 745.18 351.968C744.844 351.536 744.604 351.008 744.46 350.384C744.332 349.744 744.268 349.008 744.268 348.176V337.04L746.5 336.656V340.52ZM756.3 353H754.068V340.52H756.3V353ZM755.172 338.264C754.772 338.264 754.428 338.136 754.14 337.88C753.868 337.608 753.732 337.248 753.732 336.8C753.732 336.352 753.868 336 754.14 335.744C754.428 335.472 754.772 335.336 755.172 335.336C755.572 335.336 755.908 335.472 756.18 335.744C756.468 336 756.612 336.352 756.612 336.8C756.612 337.248 756.468 337.608 756.18 337.88C755.908 338.136 755.572 338.264 755.172 338.264ZM763.043 351.392C763.955 351.392 764.627 351.272 765.059 351.032C765.507 350.792 765.731 350.408 765.731 349.88C765.731 349.336 765.515 348.904 765.083 348.584C764.651 348.264 763.939 347.904 762.947 347.504C762.467 347.312 762.003 347.12 761.555 346.928C761.123 346.72 760.747 346.48 760.427 346.208C760.107 345.936 759.851 345.608 759.659 345.224C759.467 344.84 759.371 344.368 759.371 343.808C759.371 342.704 759.779 341.832 760.595 341.192C761.411 340.536 762.523 340.208 763.931 340.208C764.283 340.208 764.635 340.232 764.987 340.28C765.339 340.312 765.667 340.36 765.971 340.424C766.275 340.472 766.539 340.528 766.763 340.592C767.003 340.656 767.187 340.712 767.315 340.76L766.907 342.68C766.667 342.552 766.291 342.424 765.779 342.296C765.267 342.152 764.651 342.08 763.931 342.08C763.307 342.08 762.763 342.208 762.299 342.464C761.835 342.704 761.603 343.088 761.603 343.616C761.603 343.888 761.651 344.128 761.747 344.336C761.859 344.544 762.019 344.736 762.227 344.912C762.451 345.072 762.723 345.224 763.043 345.368C763.363 345.512 763.747 345.664 764.195 345.824C764.787 346.048 765.315 346.272 765.779 346.496C766.243 346.704 766.635 346.952 766.955 347.24C767.291 347.528 767.547 347.88 767.723 348.296C767.899 348.696 767.987 349.192 767.987 349.784C767.987 350.936 767.555 351.808 766.691 352.4C765.843 352.992 764.627 353.288 763.043 353.288C761.939 353.288 761.075 353.192 760.451 353C759.827 352.824 759.403 352.688 759.179 352.592L759.587 350.672C759.843 350.768 760.251 350.912 760.811 351.104C761.371 351.296 762.115 351.392 763.043 351.392ZM781.866 346.76C781.866 347.752 781.722 348.648 781.434 349.448C781.146 350.248 780.738 350.936 780.21 351.512C779.698 352.088 779.082 352.536 778.362 352.856C777.642 353.16 776.858 353.312 776.01 353.312C775.162 353.312 774.378 353.16 773.658 352.856C772.938 352.536 772.314 352.088 771.786 351.512C771.274 350.936 770.874 350.248 770.586 349.448C770.298 348.648 770.154 347.752 770.154 346.76C770.154 345.784 770.298 344.896 770.586 344.096C770.874 343.28 771.274 342.584 771.786 342.008C772.314 341.432 772.938 340.992 773.658 340.688C774.378 340.368 775.162 340.208 776.01 340.208C776.858 340.208 777.642 340.368 778.362 340.688C779.082 340.992 779.698 341.432 780.21 342.008C780.738 342.584 781.146 343.28 781.434 344.096C781.722 344.896 781.866 345.784 781.866 346.76ZM779.538 346.76C779.538 345.352 779.218 344.24 778.578 343.424C777.954 342.592 777.098 342.176 776.01 342.176C774.922 342.176 774.058 342.592 773.418 343.424C772.794 344.24 772.482 345.352 772.482 346.76C772.482 348.168 772.794 349.288 773.418 350.12C774.058 350.936 774.922 351.344 776.01 351.344C777.098 351.344 777.954 350.936 778.578 350.12C779.218 349.288 779.538 348.168 779.538 346.76ZM788.75 353.24C787.374 353.208 786.398 352.912 785.822 352.352C785.246 351.792 784.958 350.92 784.958 349.736V334.76L787.19 334.376V349.376C787.19 349.744 787.222 350.048 787.286 350.288C787.35 350.528 787.454 350.72 787.598 350.864C787.742 351.008 787.934 351.12 788.174 351.2C788.414 351.264 788.71 351.32 789.062 351.368L788.75 353.24ZM793.8 353H791.568V340.52H793.8V353ZM792.672 338.264C792.272 338.264 791.928 338.136 791.64 337.88C791.368 337.608 791.232 337.248 791.232 336.8C791.232 336.352 791.368 336 791.64 335.744C791.928 335.472 792.272 335.336 792.672 335.336C793.072 335.336 793.408 335.472 793.68 335.744C793.968 336 794.112 336.352 794.112 336.8C794.112 337.248 793.968 337.608 793.68 337.88C793.408 338.136 793.072 338.264 792.672 338.264ZM797.639 340.88C798.151 340.752 798.823 340.616 799.655 340.472C800.503 340.328 801.479 340.256 802.583 340.256C803.383 340.256 804.055 340.368 804.599 340.592C805.143 340.8 805.599 341.112 805.967 341.528C806.079 341.448 806.255 341.336 806.495 341.192C806.735 341.048 807.031 340.912 807.383 340.784C807.735 340.64 808.127 340.52 808.559 340.424C808.991 340.312 809.455 340.256 809.951 340.256C810.911 340.256 811.695 340.4 812.303 340.688C812.911 340.96 813.383 341.352 813.719 341.864C814.071 342.376 814.303 342.984 814.415 343.688C814.543 344.392 814.607 345.16 814.607 345.992V353H812.375V346.472C812.375 345.736 812.335 345.104 812.255 344.576C812.191 344.048 812.055 343.608 811.847 343.256C811.655 342.904 811.383 342.648 811.031 342.488C810.695 342.312 810.255 342.224 809.711 342.224C808.959 342.224 808.335 342.328 807.839 342.536C807.359 342.728 807.031 342.904 806.855 343.064C806.983 343.48 807.079 343.936 807.143 344.432C807.207 344.928 807.239 345.448 807.239 345.992V353H805.007V346.472C805.007 345.736 804.967 345.104 804.887 344.576C804.807 344.048 804.663 343.608 804.455 343.256C804.263 342.904 803.991 342.648 803.639 342.488C803.303 342.312 802.871 342.224 802.343 342.224C802.119 342.224 801.879 342.232 801.623 342.248C801.367 342.264 801.119 342.288 800.879 342.32C800.655 342.336 800.447 342.36 800.255 342.392C800.063 342.424 799.935 342.448 799.871 342.464V353H797.639V340.88ZM820.543 353H818.311V340.52H820.543V353ZM819.415 338.264C819.015 338.264 818.671 338.136 818.383 337.88C818.111 337.608 817.975 337.248 817.975 336.8C817.975 336.352 818.111 336 818.383 335.744C818.671 335.472 819.015 335.336 819.415 335.336C819.815 335.336 820.151 335.472 820.423 335.744C820.711 336 820.855 336.352 820.855 336.8C820.855 337.248 820.711 337.608 820.423 337.88C820.151 338.136 819.815 338.264 819.415 338.264ZM828.605 351.392C829.133 351.392 829.597 351.384 829.997 351.368C830.413 351.336 830.757 351.288 831.029 351.224V347.504C830.869 347.424 830.605 347.36 830.237 347.312C829.885 347.248 829.453 347.216 828.941 347.216C828.605 347.216 828.245 347.24 827.861 347.288C827.493 347.336 827.149 347.44 826.829 347.6C826.525 347.744 826.269 347.952 826.061 348.224C825.853 348.48 825.749 348.824 825.749 349.256C825.749 350.056 826.005 350.616 826.517 350.936C827.029 351.24 827.725 351.392 828.605 351.392ZM828.413 340.208C829.309 340.208 830.061 340.328 830.669 340.568C831.293 340.792 831.789 341.12 832.157 341.552C832.541 341.968 832.813 342.472 832.973 343.064C833.133 343.64 833.213 344.28 833.213 344.984V352.784C833.021 352.816 832.749 352.864 832.397 352.928C832.061 352.976 831.677 353.024 831.245 353.072C830.813 353.12 830.341 353.16 829.829 353.192C829.333 353.24 828.837 353.264 828.341 353.264C827.637 353.264 826.989 353.192 826.397 353.048C825.805 352.904 825.293 352.68 824.861 352.376C824.429 352.056 824.093 351.64 823.853 351.128C823.613 350.616 823.493 350 823.493 349.28C823.493 348.592 823.629 348 823.901 347.504C824.189 347.008 824.573 346.608 825.053 346.304C825.533 346 826.093 345.776 826.733 345.632C827.373 345.488 828.045 345.416 828.749 345.416C828.973 345.416 829.205 345.432 829.445 345.464C829.685 345.48 829.909 345.512 830.117 345.56C830.341 345.592 830.533 345.624 830.693 345.656C830.853 345.688 830.965 345.712 831.029 345.728V345.104C831.029 344.736 830.989 344.376 830.909 344.024C830.829 343.656 830.685 343.336 830.477 343.064C830.269 342.776 829.981 342.552 829.613 342.392C829.261 342.216 828.797 342.128 828.221 342.128C827.485 342.128 826.837 342.184 826.277 342.296C825.733 342.392 825.325 342.496 825.053 342.608L824.789 340.76C825.077 340.632 825.557 340.512 826.229 340.4C826.901 340.272 827.629 340.208 828.413 340.208Z" fill="#219653" fill-opacity="0.9"/>
<path d="M625.568 397.24C625.008 397.24 624.395 397.227 623.728 397.2C623.088 397.173 622.435 397.133 621.768 397.08C621.128 397.027 620.488 396.96 619.848 396.88C619.208 396.8 618.622 396.693 618.088 396.56V369.68C618.622 369.547 619.208 369.44 619.848 369.36C620.488 369.28 621.128 369.213 621.768 369.16C622.435 369.107 623.088 369.067 623.728 369.04C624.368 369.013 624.968 369 625.528 369C627.128 369 628.622 369.12 630.008 369.36C631.422 369.6 632.635 370.013 633.648 370.6C634.688 371.16 635.502 371.907 636.088 372.84C636.675 373.773 636.968 374.92 636.968 376.28C636.968 377.8 636.608 379.053 635.888 380.04C635.168 381 634.208 381.72 633.008 382.2C634.635 382.68 635.928 383.44 636.888 384.48C637.848 385.52 638.328 386.987 638.328 388.88C638.328 391.653 637.302 393.747 635.248 395.16C633.222 396.547 629.995 397.24 625.568 397.24ZM621.928 384.08V393.84C622.222 393.867 622.568 393.893 622.968 393.92C623.315 393.947 623.715 393.973 624.168 394C624.648 394 625.195 394 625.808 394C626.955 394 628.035 393.933 629.048 393.8C630.088 393.64 630.995 393.373 631.768 393C632.542 392.627 633.155 392.107 633.608 391.44C634.088 390.773 634.328 389.933 634.328 388.92C634.328 388.013 634.155 387.253 633.808 386.64C633.462 386 632.955 385.493 632.288 385.12C631.648 384.747 630.875 384.48 629.968 384.32C629.062 384.16 628.048 384.08 626.928 384.08H621.928ZM621.928 380.96H626.008C626.968 380.96 627.875 380.893 628.728 380.76C629.582 380.627 630.315 380.387 630.928 380.04C631.568 379.693 632.062 379.24 632.408 378.68C632.782 378.12 632.968 377.413 632.968 376.56C632.968 375.76 632.782 375.093 632.408 374.56C632.035 374 631.515 373.56 630.848 373.24C630.208 372.893 629.448 372.64 628.568 372.48C627.688 372.32 626.755 372.24 625.768 372.24C624.782 372.24 624.008 372.253 623.448 372.28C622.888 372.307 622.382 372.347 621.928 372.4V380.96ZM660.112 396.4C659.258 396.613 658.125 396.84 656.712 397.08C655.325 397.32 653.712 397.44 651.872 397.44C650.272 397.44 648.925 397.213 647.832 396.76C646.738 396.28 645.858 395.613 645.192 394.76C644.525 393.907 644.045 392.907 643.752 391.76C643.458 390.587 643.312 389.293 643.312 387.88V376.2H647.032V387.08C647.032 389.613 647.432 391.427 648.232 392.52C649.032 393.613 650.378 394.16 652.272 394.16C652.672 394.16 653.085 394.147 653.512 394.12C653.938 394.093 654.338 394.067 654.712 394.04C655.085 393.987 655.418 393.947 655.712 393.92C656.032 393.867 656.258 393.813 656.392 393.76V376.2H660.112V396.4ZM665.36 386.64C665.36 384.8 665.627 383.2 666.16 381.84C666.694 380.453 667.4 379.307 668.28 378.4C669.16 377.493 670.174 376.813 671.32 376.36C672.467 375.907 673.64 375.68 674.84 375.68C677.64 375.68 679.787 376.56 681.28 378.32C682.774 380.053 683.52 382.707 683.52 386.28C683.52 386.44 683.52 386.653 683.52 386.92C683.52 387.16 683.507 387.387 683.48 387.6H669.24C669.4 389.76 670.027 391.4 671.12 392.52C672.214 393.64 673.92 394.2 676.24 394.2C677.547 394.2 678.64 394.093 679.52 393.88C680.427 393.64 681.107 393.413 681.56 393.2L682.08 396.32C681.627 396.56 680.827 396.813 679.68 397.08C678.56 397.347 677.28 397.48 675.84 397.48C674.027 397.48 672.454 397.213 671.12 396.68C669.814 396.12 668.734 395.36 667.88 394.4C667.027 393.44 666.387 392.307 665.96 391C665.56 389.667 665.36 388.213 665.36 386.64ZM679.64 384.6C679.667 382.92 679.24 381.547 678.36 380.48C677.507 379.387 676.32 378.84 674.8 378.84C673.947 378.84 673.187 379.013 672.52 379.36C671.88 379.68 671.334 380.107 670.88 380.64C670.427 381.173 670.067 381.787 669.8 382.48C669.56 383.173 669.4 383.88 669.32 384.6H679.64ZM688.864 376.8C689.717 376.587 690.851 376.36 692.264 376.12C693.677 375.88 695.304 375.76 697.144 375.76C698.797 375.76 700.171 376 701.264 376.48C702.357 376.933 703.224 377.587 703.864 378.44C704.531 379.267 704.997 380.267 705.264 381.44C705.531 382.613 705.664 383.907 705.664 385.32V397H701.944V386.12C701.944 384.84 701.851 383.747 701.664 382.84C701.504 381.933 701.224 381.2 700.824 380.64C700.424 380.08 699.891 379.68 699.224 379.44C698.557 379.173 697.731 379.04 696.744 379.04C696.344 379.04 695.931 379.053 695.504 379.08C695.077 379.107 694.664 379.147 694.264 379.2C693.891 379.227 693.544 379.267 693.224 379.32C692.931 379.373 692.717 379.413 692.584 379.44V397H688.864V376.8ZM718.873 394.32C719.753 394.32 720.526 394.307 721.193 394.28C721.886 394.227 722.459 394.147 722.913 394.04V387.84C722.646 387.707 722.206 387.6 721.593 387.52C721.006 387.413 720.286 387.36 719.433 387.36C718.873 387.36 718.273 387.4 717.633 387.48C717.019 387.56 716.446 387.733 715.913 388C715.406 388.24 714.979 388.587 714.633 389.04C714.286 389.467 714.113 390.04 714.113 390.76C714.113 392.093 714.539 393.027 715.393 393.56C716.246 394.067 717.406 394.32 718.873 394.32ZM718.553 375.68C720.046 375.68 721.299 375.88 722.313 376.28C723.353 376.653 724.179 377.2 724.793 377.92C725.433 378.613 725.886 379.453 726.153 380.44C726.419 381.4 726.553 382.467 726.553 383.64V396.64C726.233 396.693 725.779 396.773 725.193 396.88C724.633 396.96 723.993 397.04 723.273 397.12C722.553 397.2 721.766 397.267 720.913 397.32C720.086 397.4 719.259 397.44 718.433 397.44C717.259 397.44 716.179 397.32 715.193 397.08C714.206 396.84 713.353 396.467 712.633 395.96C711.913 395.427 711.353 394.733 710.953 393.88C710.553 393.027 710.353 392 710.353 390.8C710.353 389.653 710.579 388.667 711.033 387.84C711.513 387.013 712.153 386.347 712.953 385.84C713.753 385.333 714.686 384.96 715.753 384.72C716.819 384.48 717.939 384.36 719.113 384.36C719.486 384.36 719.873 384.387 720.273 384.44C720.673 384.467 721.046 384.52 721.393 384.6C721.766 384.653 722.086 384.707 722.353 384.76C722.619 384.813 722.806 384.853 722.913 384.88V383.84C722.913 383.227 722.846 382.627 722.713 382.04C722.579 381.427 722.339 380.893 721.993 380.44C721.646 379.96 721.166 379.587 720.553 379.32C719.966 379.027 719.193 378.88 718.233 378.88C717.006 378.88 715.926 378.973 714.993 379.16C714.086 379.32 713.406 379.493 712.953 379.68L712.513 376.6C712.993 376.387 713.793 376.187 714.913 376C716.033 375.787 717.246 375.68 718.553 375.68ZM746.829 394.32C748.349 394.32 749.469 394.12 750.189 393.72C750.936 393.32 751.309 392.68 751.309 391.8C751.309 390.893 750.949 390.173 750.229 389.64C749.509 389.107 748.322 388.507 746.669 387.84C745.869 387.52 745.096 387.2 744.349 386.88C743.629 386.533 743.002 386.133 742.469 385.68C741.936 385.227 741.509 384.68 741.189 384.04C740.869 383.4 740.709 382.613 740.709 381.68C740.709 379.84 741.389 378.387 742.749 377.32C744.109 376.227 745.962 375.68 748.309 375.68C748.896 375.68 749.482 375.72 750.069 375.8C750.656 375.853 751.202 375.933 751.709 376.04C752.216 376.12 752.656 376.213 753.029 376.32C753.429 376.427 753.736 376.52 753.949 376.6L753.269 379.8C752.869 379.587 752.242 379.373 751.389 379.16C750.536 378.92 749.509 378.8 748.309 378.8C747.269 378.8 746.362 379.013 745.589 379.44C744.816 379.84 744.429 380.48 744.429 381.36C744.429 381.813 744.509 382.213 744.669 382.56C744.856 382.907 745.122 383.227 745.469 383.52C745.842 383.787 746.296 384.04 746.829 384.28C747.362 384.52 748.002 384.773 748.749 385.04C749.736 385.413 750.616 385.787 751.389 386.16C752.162 386.507 752.816 386.92 753.349 387.4C753.909 387.88 754.336 388.467 754.629 389.16C754.922 389.827 755.069 390.653 755.069 391.64C755.069 393.56 754.349 395.013 752.909 396C751.496 396.987 749.469 397.48 746.829 397.48C744.989 397.48 743.549 397.32 742.509 397C741.469 396.707 740.762 396.48 740.389 396.32L741.069 393.12C741.496 393.28 742.176 393.52 743.109 393.84C744.042 394.16 745.282 394.32 746.829 394.32ZM766.881 394.32C767.761 394.32 768.534 394.307 769.201 394.28C769.894 394.227 770.467 394.147 770.921 394.04V387.84C770.654 387.707 770.214 387.6 769.601 387.52C769.014 387.413 768.294 387.36 767.441 387.36C766.881 387.36 766.281 387.4 765.641 387.48C765.027 387.56 764.454 387.733 763.921 388C763.414 388.24 762.987 388.587 762.641 389.04C762.294 389.467 762.121 390.04 762.121 390.76C762.121 392.093 762.547 393.027 763.401 393.56C764.254 394.067 765.414 394.32 766.881 394.32ZM766.561 375.68C768.054 375.68 769.307 375.88 770.321 376.28C771.361 376.653 772.187 377.2 772.801 377.92C773.441 378.613 773.894 379.453 774.161 380.44C774.427 381.4 774.561 382.467 774.561 383.64V396.64C774.241 396.693 773.787 396.773 773.201 396.88C772.641 396.96 772.001 397.04 771.281 397.12C770.561 397.2 769.774 397.267 768.921 397.32C768.094 397.4 767.267 397.44 766.441 397.44C765.267 397.44 764.187 397.32 763.201 397.08C762.214 396.84 761.361 396.467 760.641 395.96C759.921 395.427 759.361 394.733 758.961 393.88C758.561 393.027 758.361 392 758.361 390.8C758.361 389.653 758.587 388.667 759.041 387.84C759.521 387.013 760.161 386.347 760.961 385.84C761.761 385.333 762.694 384.96 763.761 384.72C764.827 384.48 765.947 384.36 767.121 384.36C767.494 384.36 767.881 384.387 768.281 384.44C768.681 384.467 769.054 384.52 769.401 384.6C769.774 384.653 770.094 384.707 770.361 384.76C770.627 384.813 770.814 384.853 770.921 384.88V383.84C770.921 383.227 770.854 382.627 770.721 382.04C770.587 381.427 770.347 380.893 770.001 380.44C769.654 379.96 769.174 379.587 768.561 379.32C767.974 379.027 767.201 378.88 766.241 378.88C765.014 378.88 763.934 378.973 763.001 379.16C762.094 379.32 761.414 379.493 760.961 379.68L760.521 376.6C761.001 376.387 761.801 376.187 762.921 376C764.041 375.787 765.254 375.68 766.561 375.68ZM786.979 397.4C784.686 397.347 783.059 396.853 782.099 395.92C781.139 394.987 780.659 393.533 780.659 391.56V366.6L784.379 365.96V390.96C784.379 391.573 784.432 392.08 784.539 392.48C784.646 392.88 784.819 393.2 785.059 393.44C785.299 393.68 785.619 393.867 786.019 394C786.419 394.107 786.912 394.2 787.499 394.28L786.979 397.4ZM808.237 396.4C807.383 396.613 806.25 396.84 804.837 397.08C803.45 397.32 801.837 397.44 799.997 397.44C798.397 397.44 797.05 397.213 795.957 396.76C794.863 396.28 793.983 395.613 793.317 394.76C792.65 393.907 792.17 392.907 791.877 391.76C791.583 390.587 791.437 389.293 791.437 387.88V376.2H795.157V387.08C795.157 389.613 795.557 391.427 796.357 392.52C797.157 393.613 798.503 394.16 800.397 394.16C800.797 394.16 801.21 394.147 801.637 394.12C802.063 394.093 802.463 394.067 802.837 394.04C803.21 393.987 803.543 393.947 803.837 393.92C804.157 393.867 804.383 393.813 804.517 393.76V376.2H808.237V396.4ZM828.085 380.6C827.632 380.227 826.979 379.867 826.125 379.52C825.272 379.173 824.339 379 823.325 379C822.259 379 821.339 379.2 820.565 379.6C819.819 379.973 819.205 380.507 818.725 381.2C818.245 381.867 817.899 382.667 817.685 383.6C817.472 384.533 817.365 385.533 817.365 386.6C817.365 389.027 817.965 390.907 819.165 392.24C820.365 393.547 821.965 394.2 823.965 394.2C824.979 394.2 825.819 394.16 826.485 394.08C827.179 393.973 827.712 393.867 828.085 393.76V380.6ZM828.085 366.6L831.805 365.96V396.4C830.952 396.64 829.859 396.88 828.525 397.12C827.192 397.36 825.659 397.48 823.925 397.48C822.325 397.48 820.885 397.227 819.605 396.72C818.325 396.213 817.232 395.493 816.325 394.56C815.419 393.627 814.712 392.493 814.205 391.16C813.725 389.8 813.485 388.28 813.485 386.6C813.485 385 813.685 383.533 814.085 382.2C814.512 380.867 815.125 379.72 815.925 378.76C816.725 377.8 817.699 377.053 818.845 376.52C820.019 375.987 821.352 375.72 822.845 375.72C824.045 375.72 825.099 375.88 826.005 376.2C826.939 376.52 827.632 376.827 828.085 377.12V366.6Z" fill="#219653" fill-opacity="0.9"/>
<defs>
<filter id="filter0_d_652_147" x="53" y="0" width="30" height="455" filterUnits="userSpaceOnUse" color-interpolation-filters="sRGB">
<feFlood flood-opacity="0" result="BackgroundImageFix"/>
<feColorMatrix in="SourceAlpha" type="matrix" values="0 0 0 0 0 0 0 0 0 0 0 0 0 0 0 0 0 0 127 0" result="hardAlpha"/>
<feOffset dy="4"/>
<feGaussianBlur stdDeviation="5"/>
<feComposite in2="hardAlpha" operator="out"/>
<feColorMatrix type="matrix" values="0 0 0 0 0 0 0 0 0 0 0 0 0 0 0 0 0 0 0.25 0"/>
<feBlend mode="normal" in2="BackgroundImageFix" result="effect1_dropShadow_652_147"/>
<feBlend mode="normal" in="SourceGraphic" in2="effect1_dropShadow_652_147" result="shape"/>
</filter>
<filter id="filter1_d_652_147" x="58" y="425" width="814" height="30" filterUnits="userSpaceOnUse" color-interpolation-filters="sRGB">
<feFlood flood-opacity="0" result="BackgroundImageFix"/>
<feColorMatrix in="SourceAlpha" type="matrix" values="0 0 0 0 0 0 0 0 0 0 0 0 0 0 0 0 0 0 127 0" result="hardAlpha"/>
<feOffset dy="4"/>
<feGaussianBlur stdDeviation="5"/>
<feComposite in2="hardAlpha" operator="out"/>
<feColorMatrix type="matrix" values="0 0 0 0 0 0 0 0 0 0 0 0 0 0 0 0 0 0 0.25 0"/>
<feBlend mode="normal" in2="BackgroundImageFix" result="effect1_dropShadow_652_147"/>
<feBlend mode="normal" in="SourceGraphic" in2="effect1_dropShadow_652_147" result="shape"/>
</filter>
<filter id="filter2_d_652_147" x="94.1865" y="145.17" width="725.961" height="259.799" filterUnits="userSpaceOnUse" color-interpolation-filters="sRGB">
<feFlood flood-opacity="0" result="BackgroundImageFix"/>
<feColorMatrix in="SourceAlpha" type="matrix" values="0 0 0 0 0 0 0 0 0 0 0 0 0 0 0 0 0 0 127 0" result="hardAlpha"/>
<feOffset dy="10"/>
<feGaussianBlur stdDeviation="5"/>
<feComposite in2="hardAlpha" operator="out"/>
<feColorMatrix type="matrix" values="0 0 0 0 0 0 0 0 0 0 0 0 0 0 0 0 0 0 0.25 0"/>
<feBlend mode="normal" in2="BackgroundImageFix" result="effect1_dropShadow_652_147"/>
<feBlend mode="normal" in="SourceGraphic" in2="effect1_dropShadow_652_147" result="shape"/>
</filter>
<filter id="filter3_d_652_147" x="91.1865" y="73.5132" width="722.07" height="331.772" filterUnits="userSpaceOnUse" color-interpolation-filters="sRGB">
<feFlood flood-opacity="0" result="BackgroundImageFix"/>
<feColorMatrix in="SourceAlpha" type="matrix" values="0 0 0 0 0 0 0 0 0 0 0 0 0 0 0 0 0 0 127 0" result="hardAlpha"/>
<feOffset dy="10"/>
<feGaussianBlur stdDeviation="5"/>
<feComposite in2="hardAlpha" operator="out"/>
<feColorMatrix type="matrix" values="0 0 0 0 0 0 0 0 0 0 0 0 0 0 0 0 0 0 0.25 0"/>
<feBlend mode="normal" in2="BackgroundImageFix" result="effect1_dropShadow_652_147"/>
<feBlend mode="normal" in="SourceGraphic" in2="effect1_dropShadow_652_147" result="shape"/>
</filter>
</defs>
</svg>
