<svg width="891" height="518" viewBox="0 0 891 518" fill="none" xmlns="http://www.w3.org/2000/svg">
<g filter="url(#filter0_f_652_147)">
<line x1="68" y1="294" x2="835" y2="294" stroke="#A5A4A4" stroke-width="2" stroke-dasharray="10 10"/>
</g>
<g filter="url(#filter1_f_652_147)">
<line x1="67.9883" y1="160" x2="835.012" y2="160" stroke="#A5A4A4" stroke-width="2" stroke-dasharray="10 10"/>
</g>
<line x1="494.5" y1="441.019" x2="494.5" y2="171" stroke="#A5A4A4" stroke-width="5" stroke-dasharray="10 10"/>
<g filter="url(#filter2_d_652_147)">
<path d="M73 446L73 11" stroke="url(#paint0_linear_652_147)" stroke-width="10" stroke-linecap="round" shape-rendering="crispEdges"/>
</g>
<g filter="url(#filter3_d_652_147)">
<path d="M73 446H876" stroke="url(#paint1_linear_652_147)" stroke-width="10" stroke-linecap="round" shape-rendering="crispEdges"/>
</g>
<path d="M347.93 475.28C348.517 476.293 349.17 477.533 349.89 479C350.61 480.467 351.344 482.013 352.09 483.64C352.837 485.24 353.57 486.88 354.29 488.56C355.037 490.213 355.717 491.747 356.33 493.16C356.944 491.747 357.61 490.213 358.33 488.56C359.05 486.88 359.784 485.24 360.53 483.64C361.277 482.013 362.01 480.467 362.73 479C363.45 477.533 364.104 476.293 364.69 475.28H369.25C369.49 477.307 369.717 479.467 369.93 481.76C370.144 484.027 370.33 486.36 370.49 488.76C370.677 491.133 370.837 493.533 370.97 495.96C371.13 498.36 371.264 500.707 371.37 503H366.41C366.304 499.773 366.17 496.453 366.01 493.04C365.877 489.627 365.664 486.32 365.37 483.12C365.077 483.733 364.73 484.467 364.33 485.32C363.93 486.173 363.504 487.107 363.05 488.12C362.597 489.107 362.13 490.133 361.65 491.2C361.197 492.267 360.744 493.307 360.29 494.32C359.864 495.307 359.464 496.24 359.09 497.12C358.717 497.973 358.397 498.707 358.13 499.32H354.37C354.104 498.707 353.784 497.96 353.41 497.08C353.037 496.2 352.624 495.267 352.17 494.28C351.744 493.267 351.29 492.227 350.81 491.16C350.357 490.093 349.904 489.067 349.45 488.08C348.997 487.093 348.57 486.173 348.17 485.32C347.77 484.44 347.424 483.707 347.13 483.12C346.837 486.32 346.61 489.627 346.45 493.04C346.317 496.453 346.197 499.773 346.09 503H341.13C341.237 500.707 341.357 498.333 341.49 495.88C341.65 493.427 341.81 491 341.97 488.6C342.157 486.173 342.357 483.827 342.57 481.56C342.784 479.293 343.01 477.2 343.25 475.28H347.93ZM375.842 492.64C375.842 490.8 376.109 489.187 376.642 487.8C377.202 486.413 377.935 485.267 378.842 484.36C379.749 483.427 380.789 482.733 381.962 482.28C383.135 481.8 384.335 481.56 385.562 481.56C388.442 481.56 390.682 482.453 392.282 484.24C393.909 486.027 394.722 488.693 394.722 492.24C394.722 492.507 394.709 492.813 394.682 493.16C394.682 493.48 394.669 493.773 394.642 494.04H380.842C380.975 495.72 381.562 497.027 382.602 497.96C383.669 498.867 385.202 499.32 387.202 499.32C388.375 499.32 389.442 499.213 390.402 499C391.389 498.787 392.162 498.56 392.722 498.32L393.362 502.28C393.095 502.413 392.722 502.56 392.242 502.72C391.789 502.853 391.255 502.973 390.642 503.08C390.055 503.213 389.415 503.32 388.722 503.4C388.029 503.48 387.322 503.52 386.602 503.52C384.762 503.52 383.162 503.253 381.802 502.72C380.442 502.16 379.322 501.4 378.442 500.44C377.562 499.453 376.909 498.307 376.482 497C376.055 495.667 375.842 494.213 375.842 492.64ZM389.882 490.48C389.882 489.813 389.789 489.187 389.602 488.6C389.415 487.987 389.135 487.467 388.762 487.04C388.415 486.587 387.975 486.24 387.442 486C386.935 485.733 386.322 485.6 385.602 485.6C384.855 485.6 384.202 485.747 383.642 486.04C383.082 486.307 382.602 486.667 382.202 487.12C381.829 487.573 381.535 488.093 381.322 488.68C381.109 489.267 380.962 489.867 380.882 490.48H389.882ZM405.093 499.52C406.373 499.52 407.307 499.373 407.893 499.08C408.48 498.76 408.773 498.227 408.773 497.48C408.773 496.787 408.453 496.213 407.813 495.76C407.2 495.307 406.173 494.813 404.733 494.28C403.853 493.96 403.04 493.627 402.293 493.28C401.573 492.907 400.947 492.48 400.413 492C399.88 491.52 399.453 490.947 399.133 490.28C398.84 489.587 398.693 488.747 398.693 487.76C398.693 485.84 399.4 484.333 400.813 483.24C402.227 482.12 404.147 481.56 406.573 481.56C407.8 481.56 408.973 481.68 410.093 481.92C411.213 482.133 412.053 482.347 412.613 482.56L411.733 486.48C411.2 486.24 410.52 486.027 409.693 485.84C408.867 485.627 407.907 485.52 406.813 485.52C405.827 485.52 405.027 485.693 404.413 486.04C403.8 486.36 403.493 486.867 403.493 487.56C403.493 487.907 403.547 488.213 403.653 488.48C403.787 488.747 404 489 404.293 489.24C404.587 489.453 404.973 489.68 405.453 489.92C405.933 490.133 406.52 490.36 407.213 490.6C408.36 491.027 409.333 491.453 410.133 491.88C410.933 492.28 411.587 492.747 412.093 493.28C412.627 493.787 413.013 494.373 413.253 495.04C413.493 495.707 413.613 496.507 413.613 497.44C413.613 499.44 412.867 500.96 411.373 502C409.907 503.013 407.8 503.52 405.053 503.52C403.213 503.52 401.733 503.36 400.613 503.04C399.493 502.747 398.707 502.507 398.253 502.32L399.093 498.28C399.813 498.573 400.667 498.853 401.653 499.12C402.667 499.387 403.813 499.52 405.093 499.52ZM416.975 492.64C416.975 490.8 417.241 489.187 417.775 487.8C418.335 486.413 419.068 485.267 419.975 484.36C420.881 483.427 421.921 482.733 423.095 482.28C424.268 481.8 425.468 481.56 426.695 481.56C429.575 481.56 431.815 482.453 433.415 484.24C435.041 486.027 435.855 488.693 435.855 492.24C435.855 492.507 435.841 492.813 435.815 493.16C435.815 493.48 435.801 493.773 435.775 494.04H421.975C422.108 495.72 422.695 497.027 423.735 497.96C424.801 498.867 426.335 499.32 428.335 499.32C429.508 499.32 430.575 499.213 431.535 499C432.521 498.787 433.295 498.56 433.855 498.32L434.495 502.28C434.228 502.413 433.855 502.56 433.375 502.72C432.921 502.853 432.388 502.973 431.775 503.08C431.188 503.213 430.548 503.32 429.855 503.4C429.161 503.48 428.455 503.52 427.735 503.52C425.895 503.52 424.295 503.253 422.935 502.72C421.575 502.16 420.455 501.4 419.575 500.44C418.695 499.453 418.041 498.307 417.615 497C417.188 495.667 416.975 494.213 416.975 492.64ZM431.015 490.48C431.015 489.813 430.921 489.187 430.735 488.6C430.548 487.987 430.268 487.467 429.895 487.04C429.548 486.587 429.108 486.24 428.575 486C428.068 485.733 427.455 485.6 426.735 485.6C425.988 485.6 425.335 485.747 424.775 486.04C424.215 486.307 423.735 486.667 423.335 487.12C422.961 487.573 422.668 488.093 422.455 488.68C422.241 489.267 422.095 489.867 422.015 490.48H431.015ZM446.226 499.52C447.506 499.52 448.44 499.373 449.026 499.08C449.613 498.76 449.906 498.227 449.906 497.48C449.906 496.787 449.586 496.213 448.946 495.76C448.333 495.307 447.306 494.813 445.866 494.28C444.986 493.96 444.173 493.627 443.426 493.28C442.706 492.907 442.08 492.48 441.546 492C441.013 491.52 440.586 490.947 440.266 490.28C439.973 489.587 439.826 488.747 439.826 487.76C439.826 485.84 440.533 484.333 441.946 483.24C443.36 482.12 445.28 481.56 447.706 481.56C448.933 481.56 450.106 481.68 451.226 481.92C452.346 482.133 453.186 482.347 453.746 482.56L452.866 486.48C452.333 486.24 451.653 486.027 450.826 485.84C450 485.627 449.04 485.52 447.946 485.52C446.96 485.52 446.16 485.693 445.546 486.04C444.933 486.36 444.626 486.867 444.626 487.56C444.626 487.907 444.68 488.213 444.786 488.48C444.92 488.747 445.133 489 445.426 489.24C445.72 489.453 446.106 489.68 446.586 489.92C447.066 490.133 447.653 490.36 448.346 490.6C449.493 491.027 450.466 491.453 451.266 491.88C452.066 492.28 452.72 492.747 453.226 493.28C453.76 493.787 454.146 494.373 454.386 495.04C454.626 495.707 454.746 496.507 454.746 497.44C454.746 499.44 454 500.96 452.506 502C451.04 503.013 448.933 503.52 446.186 503.52C444.346 503.52 442.866 503.36 441.746 503.04C440.626 502.747 439.84 502.507 439.386 502.32L440.226 498.28C440.946 498.573 441.8 498.853 442.786 499.12C443.8 499.387 444.946 499.52 446.226 499.52ZM469.403 510.4H464.443L477.963 471.68H482.843L469.403 510.4ZM513.22 503C512.847 501.907 512.46 500.827 512.06 499.76C511.66 498.693 511.273 497.6 510.9 496.48H499.22C498.847 497.6 498.46 498.707 498.06 499.8C497.687 500.867 497.313 501.933 496.94 503H491.7C492.74 500.04 493.727 497.307 494.66 494.8C495.593 492.293 496.5 489.92 497.38 487.68C498.287 485.44 499.18 483.307 500.06 481.28C500.94 479.253 501.847 477.253 502.78 475.28H507.54C508.473 477.253 509.38 479.253 510.26 481.28C511.14 483.307 512.02 485.44 512.9 487.68C513.807 489.92 514.727 492.293 515.66 494.8C516.62 497.307 517.62 500.04 518.66 503H513.22ZM505.06 480.64C504.447 482.053 503.74 483.773 502.94 485.8C502.167 487.827 501.353 490.027 500.5 492.4H509.62C508.767 490.027 507.94 487.813 507.14 485.76C506.34 483.707 505.647 482 505.06 480.64ZM521.924 482.76C522.857 482.493 524.07 482.24 525.564 482C527.057 481.76 528.71 481.64 530.524 481.64C532.23 481.64 533.657 481.88 534.804 482.36C535.95 482.813 536.857 483.467 537.524 484.32C538.217 485.147 538.697 486.16 538.964 487.36C539.257 488.533 539.404 489.827 539.404 491.24V503H534.564V492C534.564 490.88 534.484 489.933 534.324 489.16C534.19 488.36 533.95 487.72 533.604 487.24C533.284 486.733 532.83 486.373 532.244 486.16C531.684 485.92 530.99 485.8 530.164 485.8C529.55 485.8 528.91 485.84 528.244 485.92C527.577 486 527.084 486.067 526.764 486.12V503H521.924V482.76ZM537.644 474.6C537.484 474.973 537.27 475.387 537.004 475.84C536.764 476.267 536.457 476.68 536.084 477.08C535.71 477.453 535.284 477.773 534.804 478.04C534.324 478.307 533.79 478.44 533.204 478.44C532.724 478.44 532.27 478.373 531.844 478.24C531.417 478.08 530.99 477.907 530.564 477.72C530.164 477.533 529.764 477.373 529.364 477.24C528.99 477.08 528.617 477 528.244 477C527.737 477 527.297 477.173 526.924 477.52C526.577 477.867 526.297 478.267 526.084 478.72L523.644 477.28C523.777 476.907 523.964 476.507 524.204 476.08C524.47 475.627 524.79 475.213 525.164 474.84C525.564 474.44 526.004 474.107 526.484 473.84C526.964 473.573 527.497 473.44 528.084 473.44C528.564 473.44 529.017 473.52 529.444 473.68C529.87 473.84 530.284 474.013 530.684 474.2C531.11 474.36 531.51 474.52 531.884 474.68C532.284 474.84 532.67 474.92 533.044 474.92C533.55 474.92 533.977 474.747 534.324 474.4C534.697 474.027 534.99 473.613 535.204 473.16L537.644 474.6ZM564.242 492.52C564.242 494.173 564.002 495.68 563.522 497.04C563.042 498.4 562.362 499.56 561.482 500.52C560.602 501.48 559.536 502.227 558.282 502.76C557.056 503.293 555.696 503.56 554.202 503.56C552.709 503.56 551.349 503.293 550.122 502.76C548.896 502.227 547.842 501.48 546.962 500.52C546.082 499.56 545.389 498.4 544.882 497.04C544.402 495.68 544.162 494.173 544.162 492.52C544.162 490.867 544.402 489.373 544.882 488.04C545.389 486.68 546.082 485.52 546.962 484.56C547.869 483.6 548.936 482.867 550.162 482.36C551.389 481.827 552.736 481.56 554.202 481.56C555.669 481.56 557.016 481.827 558.242 482.36C559.496 482.867 560.562 483.6 561.442 484.56C562.322 485.52 563.002 486.68 563.482 488.04C563.989 489.373 564.242 490.867 564.242 492.52ZM559.282 492.52C559.282 490.44 558.829 488.8 557.922 487.6C557.042 486.373 555.802 485.76 554.202 485.76C552.602 485.76 551.349 486.373 550.442 487.6C549.562 488.8 549.122 490.44 549.122 492.52C549.122 494.627 549.562 496.293 550.442 497.52C551.349 498.747 552.602 499.36 554.202 499.36C555.802 499.36 557.042 498.747 557.922 497.52C558.829 496.293 559.282 494.627 559.282 492.52ZM574.468 499.52C575.748 499.52 576.682 499.373 577.268 499.08C577.855 498.76 578.148 498.227 578.148 497.48C578.148 496.787 577.828 496.213 577.188 495.76C576.575 495.307 575.548 494.813 574.108 494.28C573.228 493.96 572.415 493.627 571.668 493.28C570.948 492.907 570.322 492.48 569.788 492C569.255 491.52 568.828 490.947 568.508 490.28C568.215 489.587 568.068 488.747 568.068 487.76C568.068 485.84 568.775 484.333 570.188 483.24C571.602 482.12 573.522 481.56 575.948 481.56C577.175 481.56 578.348 481.68 579.468 481.92C580.588 482.133 581.428 482.347 581.988 482.56L581.108 486.48C580.575 486.24 579.895 486.027 579.068 485.84C578.242 485.627 577.282 485.52 576.188 485.52C575.202 485.52 574.402 485.693 573.788 486.04C573.175 486.36 572.868 486.867 572.868 487.56C572.868 487.907 572.922 488.213 573.028 488.48C573.162 488.747 573.375 489 573.668 489.24C573.962 489.453 574.348 489.68 574.828 489.92C575.308 490.133 575.895 490.36 576.588 490.6C577.735 491.027 578.708 491.453 579.508 491.88C580.308 492.28 580.962 492.747 581.468 493.28C582.002 493.787 582.388 494.373 582.628 495.04C582.868 495.707 582.988 496.507 582.988 497.44C582.988 499.44 582.242 500.96 580.748 502C579.282 503.013 577.175 503.52 574.428 503.52C572.588 503.52 571.108 503.36 569.988 503.04C568.868 502.747 568.082 502.507 567.628 502.32L568.468 498.28C569.188 498.573 570.042 498.853 571.028 499.12C572.042 499.387 573.188 499.52 574.468 499.52Z" fill="#656464"/>
<path d="M33.6 357.196C33.6 359.276 33.28 361.143 32.64 362.796C32 364.449 31.0667 365.849 29.84 366.996C28.5867 368.143 27.0667 369.023 25.28 369.636C23.4933 370.249 21.44 370.556 19.12 370.556C16.8 370.556 14.7467 370.209 12.96 369.516C11.1733 368.796 9.66667 367.823 8.44 366.596C7.18667 365.369 6.24 363.929 5.6 362.276C4.96 360.623 4.64 358.849 4.64 356.956C4.64 355.809 4.73333 354.769 4.92 353.836C5.08 352.903 5.26667 352.089 5.48 351.396C5.69333 350.703 5.92 350.129 6.16 349.676C6.4 349.223 6.57333 348.903 6.68 348.716L10.8 350.196C10.4 350.836 10.0267 351.756 9.68 352.956C9.30667 354.129 9.12 355.409 9.12 356.796C9.12 357.996 9.33333 359.116 9.76 360.156C10.16 361.196 10.7733 362.103 11.6 362.876C12.4267 363.623 13.4667 364.209 14.72 364.636C15.9733 365.063 17.4267 365.276 19.08 365.276C20.5467 365.276 21.8933 365.116 23.12 364.796C24.3467 364.449 25.4133 363.929 26.32 363.236C27.2 362.543 27.8933 361.663 28.4 360.596C28.88 359.529 29.12 358.249 29.12 356.756C29.12 354.969 28.9467 353.516 28.6 352.396C28.2267 351.276 27.88 350.409 27.56 349.796L31.68 348.436C31.8933 348.756 32.1067 349.196 32.32 349.756C32.5333 350.289 32.7467 350.929 32.96 351.676C33.1467 352.423 33.2933 353.263 33.4 354.196C33.5333 355.129 33.6 356.129 33.6 357.196ZM29.6 336.888C29.6 335.395 29.52 334.261 29.36 333.488H24C23.92 333.755 23.84 334.141 23.76 334.648C23.68 335.155 23.64 335.715 23.64 336.328C23.64 336.861 23.68 337.408 23.76 337.968C23.84 338.501 23.9867 338.995 24.2 339.448C24.4133 339.875 24.72 340.221 25.12 340.488C25.4933 340.755 25.9733 340.888 26.56 340.888C27.7067 340.888 28.5067 340.528 28.96 339.808C29.3867 339.088 29.6 338.115 29.6 336.888ZM11.56 337.288C11.56 335.688 11.76 334.341 12.16 333.248C12.56 332.155 13.12 331.288 13.84 330.648C14.56 329.981 15.44 329.515 16.48 329.248C17.4933 328.955 18.6133 328.808 19.84 328.808H32.52C32.68 329.555 32.8667 330.688 33.08 332.208C33.32 333.701 33.44 335.395 33.44 337.288C33.44 338.541 33.32 339.688 33.08 340.728C32.84 341.768 32.4533 342.661 31.92 343.408C31.3867 344.128 30.6933 344.701 29.84 345.128C28.9867 345.528 27.9333 345.728 26.68 345.728C25.48 345.728 24.4667 345.501 23.64 345.048C22.8133 344.568 22.1467 343.928 21.64 343.128C21.1067 342.328 20.7333 341.408 20.52 340.368C20.28 339.301 20.16 338.195 20.16 337.048C20.16 336.515 20.2 335.955 20.28 335.368C20.3333 334.781 20.44 334.155 20.6 333.488H19.8C19.24 333.488 18.7067 333.555 18.2 333.688C17.6933 333.821 17.2533 334.061 16.88 334.408C16.48 334.728 16.1733 335.168 15.96 335.728C15.7467 336.261 15.64 336.941 15.64 337.768C15.64 338.888 15.72 339.915 15.88 340.848C16.04 341.781 16.2267 342.541 16.44 343.128L12.52 343.728C12.3067 343.115 12.0933 342.221 11.88 341.048C11.6667 339.875 11.56 338.621 11.56 337.288ZM16.44 310.961C16.3067 311.361 16.1733 311.921 16.04 312.641C15.88 313.334 15.8 314.148 15.8 315.081C15.8 315.614 15.8533 316.188 15.96 316.801C16.0667 317.388 16.16 317.801 16.24 318.041H33V322.881H13.08C12.7333 321.948 12.4133 320.788 12.12 319.401C11.8 317.988 11.64 316.428 11.64 314.721C11.64 314.401 11.6667 314.028 11.72 313.601C11.7467 313.174 11.8 312.748 11.88 312.321C11.9333 311.894 12.0133 311.481 12.12 311.081C12.2 310.681 12.28 310.361 12.36 310.121L16.44 310.961ZM22 302.948C24.0533 302.948 25.56 302.508 26.52 301.628C27.4533 300.721 27.92 299.561 27.92 298.148C27.92 297.375 27.8133 296.655 27.6 295.988C27.3867 295.295 27.1333 294.735 26.84 294.308H16C15.92 294.655 15.8533 295.081 15.8 295.588C15.72 296.095 15.68 296.735 15.68 297.508C15.68 299.268 16.2667 300.615 17.44 301.548C18.5867 302.481 20.1067 302.948 22 302.948ZM30.88 289.468C34.2133 289.468 36.6533 290.321 38.2 292.028C39.7467 293.708 40.52 296.295 40.52 299.788C40.52 301.068 40.4133 302.321 40.2 303.548C39.9867 304.748 39.7067 305.841 39.36 306.828L35.24 305.948C35.5867 305.121 35.8667 304.188 36.08 303.148C36.2933 302.081 36.4 300.935 36.4 299.708C36.4 297.761 36 296.375 35.2 295.548C34.4 294.721 33.2133 294.308 31.64 294.308H30.84C31.08 294.788 31.32 295.428 31.56 296.228C31.8 297.001 31.92 297.895 31.92 298.908C31.92 300.241 31.7067 301.468 31.28 302.588C30.8533 303.681 30.2267 304.628 29.4 305.428C28.5733 306.201 27.5467 306.815 26.32 307.268C25.0667 307.695 23.6267 307.908 22 307.908C20.48 307.908 19.08 307.681 17.8 307.228C16.52 306.748 15.4267 306.068 14.52 305.188C13.6133 304.281 12.9067 303.188 12.4 301.908C11.8933 300.628 11.64 299.175 11.64 297.548C11.64 295.975 11.76 294.481 12 293.068C12.24 291.655 12.4933 290.455 12.76 289.468H30.88ZM29.6 275.951C29.6 274.457 29.52 273.324 29.36 272.551H24C23.92 272.817 23.84 273.204 23.76 273.711C23.68 274.217 23.64 274.777 23.64 275.391C23.64 275.924 23.68 276.471 23.76 277.031C23.84 277.564 23.9867 278.057 24.2 278.511C24.4133 278.937 24.72 279.284 25.12 279.551C25.4933 279.817 25.9733 279.951 26.56 279.951C27.7067 279.951 28.5067 279.591 28.96 278.871C29.3867 278.151 29.6 277.177 29.6 275.951ZM11.56 276.351C11.56 274.751 11.76 273.404 12.16 272.311C12.56 271.217 13.12 270.351 13.84 269.711C14.56 269.044 15.44 268.577 16.48 268.311C17.4933 268.017 18.6133 267.871 19.84 267.871H32.52C32.68 268.617 32.8667 269.751 33.08 271.271C33.32 272.764 33.44 274.457 33.44 276.351C33.44 277.604 33.32 278.751 33.08 279.791C32.84 280.831 32.4533 281.724 31.92 282.471C31.3867 283.191 30.6933 283.764 29.84 284.191C28.9867 284.591 27.9333 284.791 26.68 284.791C25.48 284.791 24.4667 284.564 23.64 284.111C22.8133 283.631 22.1467 282.991 21.64 282.191C21.1067 281.391 20.7333 280.471 20.52 279.431C20.28 278.364 20.16 277.257 20.16 276.111C20.16 275.577 20.2 275.017 20.28 274.431C20.3333 273.844 20.44 273.217 20.6 272.551H19.8C19.24 272.551 18.7067 272.617 18.2 272.751C17.6933 272.884 17.2533 273.124 16.88 273.471C16.48 273.791 16.1733 274.231 15.96 274.791C15.7467 275.324 15.64 276.004 15.64 276.831C15.64 277.951 15.72 278.977 15.88 279.911C16.04 280.844 16.2267 281.604 16.44 282.191L12.52 282.791C12.3067 282.177 12.0933 281.284 11.88 280.111C11.6667 278.937 11.56 277.684 11.56 276.351ZM29.6 245.247C29.6 243.754 29.52 242.621 29.36 241.847H24C23.92 242.114 23.84 242.501 23.76 243.007C23.68 243.514 23.64 244.074 23.64 244.687C23.64 245.221 23.68 245.767 23.76 246.327C23.84 246.861 23.9867 247.354 24.2 247.807C24.4133 248.234 24.72 248.581 25.12 248.847C25.4933 249.114 25.9733 249.247 26.56 249.247C27.7067 249.247 28.5067 248.887 28.96 248.167C29.3867 247.447 29.6 246.474 29.6 245.247ZM11.56 245.647C11.56 244.047 11.76 242.701 12.16 241.607C12.56 240.514 13.12 239.647 13.84 239.007C14.56 238.341 15.44 237.874 16.48 237.607C17.4933 237.314 18.6133 237.167 19.84 237.167H32.52C32.68 237.914 32.8667 239.047 33.08 240.567C33.32 242.061 33.44 243.754 33.44 245.647C33.44 246.901 33.32 248.047 33.08 249.087C32.84 250.127 32.4533 251.021 31.92 251.767C31.3867 252.487 30.6933 253.061 29.84 253.487C28.9867 253.887 27.9333 254.087 26.68 254.087C25.48 254.087 24.4667 253.861 23.64 253.407C22.8133 252.927 22.1467 252.287 21.64 251.487C21.1067 250.687 20.7333 249.767 20.52 248.727C20.28 247.661 20.16 246.554 20.16 245.408C20.16 244.874 20.2 244.314 20.28 243.727C20.3333 243.141 20.44 242.514 20.6 241.847H19.8C19.24 241.847 18.7067 241.914 18.2 242.047C17.6933 242.181 17.2533 242.421 16.88 242.767C16.48 243.087 16.1733 243.527 15.96 244.087C15.7467 244.621 15.64 245.301 15.64 246.127C15.64 247.247 15.72 248.274 15.88 249.207C16.04 250.141 16.2267 250.901 16.44 251.487L12.52 252.087C12.3067 251.474 12.0933 250.581 11.88 249.407C11.6667 248.234 11.56 246.981 11.56 245.647ZM33.4 223.96C33.3733 225.4 33.2133 226.6 32.92 227.56C32.6267 228.494 32.2133 229.24 31.68 229.8C31.12 230.36 30.44 230.76 29.64 231C28.8133 231.214 27.88 231.32 26.84 231.32H2.76L1.96 226.48H25.92C26.5067 226.48 27 226.44 27.4 226.36C27.8 226.254 28.1467 226.08 28.44 225.84C28.7067 225.6 28.92 225.28 29.08 224.88C29.2133 224.454 29.32 223.92 29.4 223.28L33.4 223.96ZM22.52 200.445C24.1733 200.445 25.68 200.685 27.04 201.165C28.4 201.645 29.56 202.325 30.52 203.205C31.48 204.085 32.2267 205.152 32.76 206.405C33.2933 207.632 33.56 208.992 33.56 210.485C33.56 211.979 33.2933 213.339 32.76 214.565C32.2267 215.792 31.48 216.845 30.52 217.725C29.56 218.605 28.4 219.299 27.04 219.805C25.68 220.285 24.1733 220.525 22.52 220.525C20.8667 220.525 19.3733 220.285 18.04 219.805C16.68 219.299 15.52 218.605 14.56 217.725C13.6 216.819 12.8667 215.752 12.36 214.525C11.8267 213.299 11.56 211.952 11.56 210.485C11.56 209.019 11.8267 207.672 12.36 206.445C12.8667 205.192 13.6 204.125 14.56 203.245C15.52 202.365 16.68 201.685 18.04 201.205C19.3733 200.699 20.8667 200.445 22.52 200.445ZM22.52 205.405C20.44 205.405 18.8 205.859 17.6 206.765C16.3733 207.645 15.76 208.885 15.76 210.485C15.76 212.085 16.3733 213.339 17.6 214.245C18.8 215.125 20.44 215.565 22.52 215.565C24.6267 215.565 26.2933 215.125 27.52 214.245C28.7467 213.339 29.36 212.085 29.36 210.485C29.36 208.885 28.7467 207.645 27.52 206.765C26.2933 205.859 24.6267 205.405 22.52 205.405ZM29.52 190.219C29.52 188.939 29.3733 188.006 29.08 187.419C28.76 186.832 28.2267 186.539 27.48 186.539C26.7867 186.539 26.2133 186.859 25.76 187.499C25.3067 188.112 24.8133 189.139 24.28 190.579C23.96 191.459 23.6267 192.272 23.28 193.019C22.9067 193.739 22.48 194.366 22 194.899C21.52 195.432 20.9467 195.859 20.28 196.179C19.5867 196.472 18.7467 196.619 17.76 196.619C15.84 196.619 14.3333 195.912 13.24 194.499C12.12 193.086 11.56 191.166 11.56 188.739C11.56 187.512 11.68 186.339 11.92 185.219C12.1333 184.099 12.3467 183.259 12.56 182.699L16.48 183.579C16.24 184.112 16.0267 184.792 15.84 185.619C15.6267 186.446 15.52 187.406 15.52 188.499C15.52 189.486 15.6933 190.286 16.04 190.899C16.36 191.512 16.8667 191.819 17.56 191.819C17.9067 191.819 18.2133 191.766 18.48 191.659C18.7467 191.526 19 191.312 19.24 191.019C19.4533 190.726 19.68 190.339 19.92 189.859C20.1333 189.379 20.36 188.792 20.6 188.099C21.0267 186.952 21.4533 185.979 21.88 185.179C22.28 184.379 22.7467 183.726 23.28 183.219C23.7867 182.686 24.3733 182.299 25.04 182.059C25.7067 181.819 26.5067 181.699 27.44 181.699C29.44 181.699 30.96 182.446 32 183.939C33.0133 185.406 33.52 187.512 33.52 190.259C33.52 192.099 33.36 193.579 33.04 194.699C32.7467 195.819 32.5067 196.606 32.32 197.059L28.28 196.219C28.5733 195.499 28.8533 194.646 29.12 193.659C29.3867 192.646 29.52 191.499 29.52 190.219ZM6.56 177.418L5.76 172.578H12.08L12.08 165.138H16.12V172.578H24.64C26.32 172.578 27.52 172.311 28.24 171.778C28.96 171.244 29.32 170.338 29.32 169.058C29.32 168.178 29.2267 167.404 29.04 166.738C28.8533 166.044 28.68 165.498 28.52 165.098L32.36 164.298C32.6 164.858 32.84 165.591 33.08 166.498C33.3467 167.404 33.48 168.471 33.48 169.698C33.48 171.191 33.28 172.444 32.88 173.458C32.48 174.444 31.9067 175.231 31.16 175.818C30.3867 176.404 29.4667 176.818 28.4 177.058C27.3067 177.298 26.0667 177.418 24.68 177.418H6.56ZM29.6 153.099C29.6 151.606 29.52 150.472 29.36 149.699H24C23.92 149.966 23.84 150.352 23.76 150.859C23.68 151.366 23.64 151.926 23.64 152.539C23.64 153.072 23.68 153.619 23.76 154.179C23.84 154.712 23.9867 155.206 24.2 155.659C24.4133 156.086 24.72 156.432 25.12 156.699C25.4933 156.966 25.9733 157.099 26.56 157.099C27.7067 157.099 28.5067 156.739 28.96 156.019C29.3867 155.299 29.6 154.326 29.6 153.099ZM11.56 153.499C11.56 151.899 11.76 150.552 12.16 149.459C12.56 148.366 13.12 147.499 13.84 146.859C14.56 146.192 15.44 145.726 16.48 145.459C17.4933 145.166 18.6133 145.019 19.84 145.019H32.52C32.68 145.766 32.8667 146.899 33.08 148.419C33.32 149.912 33.44 151.606 33.44 153.499C33.44 154.752 33.32 155.899 33.08 156.939C32.84 157.979 32.4533 158.872 31.92 159.619C31.3867 160.339 30.6933 160.912 29.84 161.339C28.9867 161.739 27.9333 161.939 26.68 161.939C25.48 161.939 24.4667 161.712 23.64 161.259C22.8133 160.779 22.1467 160.139 21.64 159.339C21.1067 158.539 20.7333 157.619 20.52 156.579C20.28 155.512 20.16 154.406 20.16 153.259C20.16 152.726 20.2 152.166 20.28 151.579C20.3333 150.992 20.44 150.366 20.6 149.699H19.8C19.24 149.699 18.7067 149.766 18.2 149.899C17.6933 150.032 17.2533 150.272 16.88 150.619C16.48 150.939 16.1733 151.379 15.96 151.939C15.7467 152.472 15.64 153.152 15.64 153.979C15.64 155.099 15.72 156.126 15.88 157.059C16.04 157.992 16.2267 158.752 16.44 159.339L12.52 159.939C12.3067 159.326 12.0933 158.432 11.88 157.259C11.6667 156.086 11.56 154.832 11.56 153.499ZM3.52 147.459L9.84 153.979L7.68 156.379L0.679999 150.499L3.52 147.459ZM6.56 139.332L5.76 134.492H12.08V127.052H16.12V134.492H24.64C26.32 134.492 27.52 134.225 28.24 133.692C28.96 133.159 29.32 132.252 29.32 130.972C29.32 130.092 29.2267 129.319 29.04 128.652C28.8533 127.959 28.68 127.412 28.52 127.012L32.36 126.212C32.6 126.772 32.84 127.505 33.08 128.412C33.3467 129.319 33.48 130.385 33.48 131.612C33.48 133.105 33.28 134.359 32.88 135.372C32.48 136.359 31.9067 137.145 31.16 137.732C30.3867 138.319 29.4667 138.732 28.4 138.972C27.3067 139.212 26.0667 139.332 24.68 139.332H6.56ZM33 117.493L33 122.333H12.08V117.493H33ZM5.96 116.973C6.86667 116.973 7.58667 117.266 8.12 117.853C8.65333 118.44 8.92 119.133 8.92 119.933C8.92 120.76 8.65333 121.466 8.12 122.053C7.58667 122.64 6.86667 122.933 5.96 122.933C5.02667 122.933 4.29333 122.64 3.76 122.053C3.22667 121.466 2.96 120.76 2.96 119.933C2.96 119.133 3.22667 118.44 3.76 117.853C4.29333 117.266 5.02667 116.973 5.96 116.973ZM22.56 112.478C21.0133 112.478 19.5733 112.238 18.24 111.758C16.88 111.278 15.7067 110.598 14.72 109.718C13.7333 108.812 12.96 107.718 12.4 106.438C11.84 105.158 11.56 103.718 11.56 102.118C11.56 100.145 11.92 98.2784 12.64 96.5184L16.6 97.5584C16.36 98.1184 16.16 98.7584 16 99.4784C15.84 100.172 15.76 100.918 15.76 101.718C15.76 103.612 16.36 105.052 17.56 106.038C18.7333 107.025 20.4 107.518 22.56 107.518C24.64 107.518 26.2933 107.052 27.52 106.118C28.72 105.185 29.32 103.612 29.32 101.398C29.32 100.572 29.24 99.7584 29.08 98.9584C28.92 98.1584 28.72 97.4651 28.48 96.8784L32.48 96.1984C32.7467 96.7318 32.9867 97.5451 33.2 98.6384C33.4133 99.7051 33.52 100.812 33.52 101.958C33.52 103.745 33.2533 105.305 32.72 106.638C32.16 107.945 31.4 109.038 30.44 109.918C29.4533 110.772 28.2933 111.412 26.96 111.838C25.6 112.265 24.1333 112.478 22.56 112.478ZM29.6 85.0912C29.6 83.5979 29.52 82.4646 29.36 81.6912H24C23.92 81.9579 23.84 82.3446 23.76 82.8512C23.68 83.3579 23.64 83.9179 23.64 84.5312C23.64 85.0646 23.68 85.6112 23.76 86.1712C23.84 86.7046 23.9867 87.1979 24.2 87.6512C24.4133 88.0779 24.72 88.4246 25.12 88.6912C25.4933 88.9579 25.9733 89.0912 26.56 89.0912C27.7067 89.0912 28.5067 88.7312 28.96 88.0112C29.3867 87.2912 29.6 86.3179 29.6 85.0912ZM11.56 85.4912C11.56 83.8912 11.76 82.5446 12.16 81.4512C12.56 80.3579 13.12 79.4912 13.84 78.8512C14.56 78.1846 15.44 77.7179 16.48 77.4512C17.4933 77.1579 18.6133 77.0112 19.84 77.0112H32.52C32.68 77.7579 32.8667 78.8912 33.08 80.4112C33.32 81.9046 33.44 83.5979 33.44 85.4912C33.44 86.7446 33.32 87.8912 33.08 88.9312C32.84 89.9712 32.4533 90.8646 31.92 91.6112C31.3867 92.3312 30.6933 92.9046 29.84 93.3312C28.9867 93.7312 27.9333 93.9312 26.68 93.9312C25.48 93.9312 24.4667 93.7046 23.64 93.2512C22.8133 92.7712 22.1467 92.1312 21.64 91.3312C21.1067 90.5312 20.7333 89.6112 20.52 88.5712C20.28 87.5046 20.16 86.3979 20.16 85.2513C20.16 84.7179 20.2 84.1579 20.28 83.5712C20.3333 82.9846 20.44 82.3579 20.6 81.6912H19.8C19.24 81.6912 18.7067 81.7579 18.2 81.8912C17.6933 82.0246 17.2533 82.2646 16.88 82.6112C16.48 82.9312 16.1733 83.3712 15.96 83.9312C15.7467 84.4646 15.64 85.1446 15.64 85.9712C15.64 87.0912 15.72 88.1179 15.88 89.0512C16.04 89.9846 16.2267 90.7446 16.44 91.3312L12.52 91.9312C12.3067 91.3179 12.0933 90.4246 11.88 89.2512C11.6667 88.0779 11.56 86.8246 11.56 85.4912Z" fill="#656464"/>
<g filter="url(#filter4_d_652_147)">
<path d="M108.935 374.183C176.459 169.575 217.332 542.068 282.493 299.54" stroke="#219653" stroke-width="10"/>
<path d="M282.869 299.137C350.394 94.5287 391.266 467.022 456.428 224.494" stroke="#219653" stroke-width="10"/>
<path d="M454.857 228.685C528.736 10.0495 667 352 809 318.5" stroke="#219653" stroke-width="10"/>
</g>
<g filter="url(#filter5_d_652_147)">
<path d="M109.935 374.454C177.459 169.846 218.332 542.339 283.493 299.811" stroke="#A562E3" stroke-width="10"/>
<path d="M282.869 301.454C350.394 96.8456 391.266 469.339 456.428 226.811" stroke="#A562E3" stroke-width="10"/>
<path d="M455.869 228.454C523.394 23.8456 564.266 396.339 629.428 153.811" stroke="#A562E3" stroke-width="10"/>
<path d="M628.869 154.454C696.394 -50.1544 737.266 322.339 802.428 79.8107" stroke="#A562E3" stroke-width="10"/>
</g>
<path d="M129 60.4C129.427 60.9333 129.96 61.64 130.6 62.52C131.267 63.3733 131.947 64.3333 132.64 65.4C133.333 66.44 134.013 67.5333 134.68 68.68C135.373 69.8267 135.96 70.9333 136.44 72H132.2C131.667 70.9867 131.08 69.96 130.44 68.92C129.827 67.88 129.2 66.8933 128.56 65.96C127.92 65 127.28 64.1067 126.64 63.28C126.027 62.4533 125.467 61.7333 124.96 61.12C124.613 61.1467 124.253 61.16 123.88 61.16C123.533 61.16 123.173 61.16 122.8 61.16H119.32V72H115.44V44.68C116.533 44.4133 117.747 44.24 119.08 44.16C120.44 44.0533 121.68 44 122.8 44C126.693 44 129.653 44.7333 131.68 46.2C133.733 47.6667 134.76 49.8533 134.76 52.76C134.76 54.6 134.267 56.1733 133.28 57.48C132.32 58.7867 130.893 59.76 129 60.4ZM123.12 47.4C121.467 47.4 120.2 47.44 119.32 47.52V57.96H122.08C123.413 57.96 124.613 57.8933 125.68 57.76C126.747 57.6267 127.64 57.3733 128.36 57C129.107 56.6267 129.68 56.1067 130.08 55.44C130.48 54.7467 130.68 53.84 130.68 52.72C130.68 51.68 130.48 50.8133 130.08 50.12C129.68 49.4267 129.133 48.88 128.44 48.48C127.773 48.08 126.973 47.8 126.04 47.64C125.133 47.48 124.16 47.4 123.12 47.4ZM144.076 72H140.356V51.2H144.076V72ZM142.196 47.44C141.53 47.44 140.956 47.2267 140.476 46.8C140.023 46.3467 139.796 45.7467 139.796 45C139.796 44.2533 140.023 43.6667 140.476 43.24C140.956 42.7867 141.53 42.56 142.196 42.56C142.863 42.56 143.423 42.7867 143.876 43.24C144.356 43.6667 144.596 44.2533 144.596 45C144.596 45.7467 144.356 46.3467 143.876 46.8C143.423 47.2267 142.863 47.44 142.196 47.44ZM149.313 61.64C149.313 59.8 149.58 58.2 150.113 56.84C150.647 55.4533 151.353 54.3067 152.233 53.4C153.113 52.4933 154.127 51.8133 155.273 51.36C156.42 50.9067 157.593 50.68 158.793 50.68C161.593 50.68 163.74 51.56 165.233 53.32C166.727 55.0533 167.473 57.7067 167.473 61.28C167.473 61.44 167.473 61.6533 167.473 61.92C167.473 62.16 167.46 62.3867 167.433 62.6H153.193C153.353 64.76 153.98 66.4 155.073 67.52C156.167 68.64 157.873 69.2 160.193 69.2C161.5 69.2 162.593 69.0933 163.473 68.88C164.38 68.64 165.06 68.4133 165.513 68.2L166.033 71.32C165.58 71.56 164.78 71.8133 163.633 72.08C162.513 72.3467 161.233 72.48 159.793 72.48C157.98 72.48 156.407 72.2133 155.073 71.68C153.767 71.12 152.687 70.36 151.833 69.4C150.98 68.44 150.34 67.3067 149.913 66C149.513 64.6667 149.313 63.2133 149.313 61.64ZM163.593 59.6C163.62 57.92 163.193 56.5467 162.313 55.48C161.46 54.3867 160.273 53.84 158.753 53.84C157.9 53.84 157.14 54.0133 156.473 54.36C155.833 54.68 155.287 55.1067 154.833 55.64C154.38 56.1733 154.02 56.7867 153.753 57.48C153.513 58.1733 153.353 58.88 153.273 59.6H163.593ZM177.657 69.32C179.177 69.32 180.297 69.12 181.017 68.72C181.764 68.32 182.137 67.68 182.137 66.8C182.137 65.8933 181.777 65.1733 181.057 64.64C180.337 64.1067 179.151 63.5067 177.497 62.84C176.697 62.52 175.924 62.2 175.177 61.88C174.457 61.5333 173.831 61.1333 173.297 60.68C172.764 60.2267 172.337 59.68 172.017 59.04C171.697 58.4 171.537 57.6133 171.537 56.68C171.537 54.84 172.217 53.3867 173.577 52.32C174.937 51.2267 176.791 50.68 179.137 50.68C179.724 50.68 180.311 50.72 180.897 50.8C181.484 50.8533 182.031 50.9333 182.537 51.04C183.044 51.12 183.484 51.2133 183.857 51.32C184.257 51.4267 184.564 51.52 184.777 51.6L184.097 54.8C183.697 54.5867 183.071 54.3733 182.217 54.16C181.364 53.92 180.337 53.8 179.137 53.8C178.097 53.8 177.191 54.0133 176.417 54.44C175.644 54.84 175.257 55.48 175.257 56.36C175.257 56.8133 175.337 57.2133 175.497 57.56C175.684 57.9067 175.951 58.2267 176.297 58.52C176.671 58.7867 177.124 59.04 177.657 59.28C178.191 59.52 178.831 59.7733 179.577 60.04C180.564 60.4133 181.444 60.7867 182.217 61.16C182.991 61.5067 183.644 61.92 184.177 62.4C184.737 62.88 185.164 63.4667 185.457 64.16C185.751 64.8267 185.897 65.6533 185.897 66.64C185.897 68.56 185.177 70.0133 183.737 71C182.324 71.9867 180.297 72.48 177.657 72.48C175.817 72.48 174.377 72.32 173.337 72C172.297 71.7067 171.591 71.48 171.217 71.32L171.897 68.12C172.324 68.28 173.004 68.52 173.937 68.84C174.871 69.16 176.111 69.32 177.657 69.32ZM203.709 69.92C203.389 70.1333 202.762 70.4133 201.829 70.76C200.922 71.08 199.855 71.24 198.629 71.24C197.375 71.24 196.189 71.04 195.069 70.64C193.975 70.24 193.015 69.6267 192.189 68.8C191.362 67.9467 190.709 66.8933 190.229 65.64C189.749 64.3867 189.509 62.8933 189.509 61.16C189.509 59.64 189.735 58.2533 190.189 57C190.642 55.72 191.295 54.6267 192.149 53.72C193.029 52.7867 194.095 52.0667 195.349 51.56C196.602 51.0267 198.015 50.76 199.589 50.76C201.322 50.76 202.829 50.8933 204.109 51.16C205.415 51.4 206.509 51.6267 207.389 51.84V70.4C207.389 73.6 206.562 75.92 204.909 77.36C203.255 78.8 200.749 79.52 197.389 79.52C196.082 79.52 194.842 79.4133 193.669 79.2C192.522 78.9867 191.522 78.7333 190.669 78.44L191.349 75.2C192.095 75.4933 193.002 75.7467 194.069 75.96C195.162 76.2 196.295 76.32 197.469 76.32C199.682 76.32 201.269 75.88 202.229 75C203.215 74.12 203.709 72.72 203.709 70.8V69.92ZM203.669 54.48C203.295 54.3733 202.789 54.28 202.149 54.2C201.535 54.0933 200.695 54.04 199.629 54.04C197.629 54.04 196.082 54.6933 194.989 56C193.922 57.3067 193.389 59.04 193.389 61.2C193.389 62.4 193.535 63.4267 193.829 64.28C194.149 65.1333 194.562 65.84 195.069 66.4C195.602 66.96 196.202 67.3733 196.869 67.64C197.562 67.9067 198.269 68.04 198.989 68.04C199.975 68.04 200.882 67.9067 201.709 67.64C202.535 67.3467 203.189 67.0133 203.669 66.64V54.48ZM232.154 61.6C232.154 63.2533 231.914 64.7467 231.434 66.08C230.954 67.4133 230.274 68.56 229.394 69.52C228.54 70.48 227.514 71.2267 226.314 71.76C225.114 72.2667 223.807 72.52 222.394 72.52C220.98 72.52 219.674 72.2667 218.474 71.76C217.274 71.2267 216.234 70.48 215.354 69.52C214.5 68.56 213.834 67.4133 213.354 66.08C212.874 64.7467 212.634 63.2533 212.634 61.6C212.634 59.9733 212.874 58.4933 213.354 57.16C213.834 55.8 214.5 54.64 215.354 53.68C216.234 52.72 217.274 51.9867 218.474 51.48C219.674 50.9467 220.98 50.68 222.394 50.68C223.807 50.68 225.114 50.9467 226.314 51.48C227.514 51.9867 228.54 52.72 229.394 53.68C230.274 54.64 230.954 55.8 231.434 57.16C231.914 58.4933 232.154 59.9733 232.154 61.6ZM228.274 61.6C228.274 59.2533 227.74 57.4 226.674 56.04C225.634 54.6533 224.207 53.96 222.394 53.96C220.58 53.96 219.14 54.6533 218.074 56.04C217.034 57.4 216.514 59.2533 216.514 61.6C216.514 63.9467 217.034 65.8133 218.074 67.2C219.14 68.56 220.58 69.24 222.394 69.24C224.207 69.24 225.634 68.56 226.674 67.2C227.74 65.8133 228.274 63.9467 228.274 61.6ZM261.085 61.64C261.085 59.2133 260.485 57.3467 259.285 56.04C258.085 54.7333 256.485 54.08 254.485 54.08C253.365 54.08 252.485 54.12 251.845 54.2C251.232 54.28 250.739 54.3733 250.365 54.48V67.6C250.819 67.9733 251.472 68.3333 252.325 68.68C253.179 69.0267 254.112 69.2 255.125 69.2C256.192 69.2 257.099 69.0133 257.845 68.64C258.619 68.24 259.245 67.7067 259.725 67.04C260.205 66.3467 260.552 65.5467 260.765 64.64C260.979 63.7067 261.085 62.7067 261.085 61.64ZM264.965 61.64C264.965 63.2133 264.752 64.6667 264.325 66C263.925 67.3333 263.325 68.48 262.525 69.44C261.725 70.4 260.739 71.1467 259.565 71.68C258.419 72.2133 257.099 72.48 255.605 72.48C254.405 72.48 253.339 72.32 252.405 72C251.499 71.68 250.819 71.3733 250.365 71.08V79.4H246.645V51.84C247.525 51.6267 248.619 51.4 249.925 51.16C251.259 50.8933 252.792 50.76 254.525 50.76C256.125 50.76 257.565 51.0133 258.845 51.52C260.125 52.0267 261.219 52.7467 262.125 53.68C263.032 54.6133 263.725 55.76 264.205 57.12C264.712 58.4533 264.965 59.96 264.965 61.64ZM277.24 69.32C278.12 69.32 278.893 69.3067 279.56 69.28C280.253 69.2267 280.827 69.1467 281.28 69.04V62.84C281.013 62.7067 280.573 62.6 279.96 62.52C279.373 62.4133 278.653 62.36 277.8 62.36C277.24 62.36 276.64 62.4 276 62.48C275.387 62.56 274.813 62.7333 274.28 63C273.773 63.24 273.347 63.5867 273 64.04C272.653 64.4667 272.48 65.04 272.48 65.76C272.48 67.0933 272.907 68.0267 273.76 68.56C274.613 69.0667 275.773 69.32 277.24 69.32ZM276.92 50.68C278.413 50.68 279.667 50.88 280.68 51.28C281.72 51.6533 282.547 52.2 283.16 52.92C283.8 53.6133 284.253 54.4533 284.52 55.44C284.787 56.4 284.92 57.4667 284.92 58.64V71.64C284.6 71.6933 284.147 71.7733 283.56 71.88C283 71.96 282.36 72.04 281.64 72.12C280.92 72.2 280.133 72.2667 279.28 72.32C278.453 72.4 277.627 72.44 276.8 72.44C275.627 72.44 274.547 72.32 273.56 72.08C272.573 71.84 271.72 71.4667 271 70.96C270.28 70.4267 269.72 69.7333 269.32 68.88C268.92 68.0267 268.72 67 268.72 65.8C268.72 64.6533 268.947 63.6667 269.4 62.84C269.88 62.0133 270.52 61.3467 271.32 60.84C272.12 60.3333 273.053 59.96 274.12 59.72C275.187 59.48 276.307 59.36 277.48 59.36C277.853 59.36 278.24 59.3867 278.64 59.44C279.04 59.4667 279.413 59.52 279.76 59.6C280.133 59.6533 280.453 59.7067 280.72 59.76C280.987 59.8133 281.173 59.8533 281.28 59.88V58.84C281.28 58.2267 281.213 57.6267 281.08 57.04C280.947 56.4267 280.707 55.8933 280.36 55.44C280.013 54.96 279.533 54.5867 278.92 54.32C278.333 54.0267 277.56 53.88 276.6 53.88C275.373 53.88 274.293 53.9733 273.36 54.16C272.453 54.32 271.773 54.4933 271.32 54.68L270.88 51.6C271.36 51.3867 272.16 51.1867 273.28 51C274.4 50.7867 275.613 50.68 276.92 50.68ZM298.778 50.76C299.098 50.76 299.458 50.7867 299.858 50.84C300.285 50.8667 300.698 50.92 301.098 51C301.498 51.0533 301.858 51.12 302.178 51.2C302.525 51.2533 302.778 51.3067 302.938 51.36L302.298 54.6C302.005 54.4933 301.512 54.3733 300.818 54.24C300.152 54.08 299.285 54 298.218 54C297.525 54 296.832 54.08 296.138 54.24C295.472 54.3733 295.032 54.4667 294.818 54.52V72H291.098V52.08C291.978 51.76 293.072 51.4667 294.378 51.2C295.685 50.9067 297.152 50.76 298.778 50.76ZM313.568 69.32C314.448 69.32 315.221 69.3067 315.888 69.28C316.581 69.2267 317.155 69.1467 317.608 69.04V62.84C317.341 62.7067 316.901 62.6 316.288 62.52C315.701 62.4133 314.981 62.36 314.128 62.36C313.568 62.36 312.968 62.4 312.328 62.48C311.715 62.56 311.141 62.7333 310.608 63C310.101 63.24 309.675 63.5867 309.328 64.04C308.981 64.4667 308.808 65.04 308.808 65.76C308.808 67.0933 309.235 68.0267 310.088 68.56C310.941 69.0667 312.101 69.32 313.568 69.32ZM313.248 50.68C314.741 50.68 315.995 50.88 317.008 51.28C318.048 51.6533 318.875 52.2 319.488 52.92C320.128 53.6133 320.581 54.4533 320.848 55.44C321.115 56.4 321.248 57.4667 321.248 58.64V71.64C320.928 71.6933 320.475 71.7733 319.888 71.88C319.328 71.96 318.688 72.04 317.968 72.12C317.248 72.2 316.461 72.2667 315.608 72.32C314.781 72.4 313.955 72.44 313.128 72.44C311.955 72.44 310.875 72.32 309.888 72.08C308.901 71.84 308.048 71.4667 307.328 70.96C306.608 70.4267 306.048 69.7333 305.648 68.88C305.248 68.0267 305.048 67 305.048 65.8C305.048 64.6533 305.275 63.6667 305.728 62.84C306.208 62.0133 306.848 61.3467 307.648 60.84C308.448 60.3333 309.381 59.96 310.448 59.72C311.515 59.48 312.635 59.36 313.808 59.36C314.181 59.36 314.568 59.3867 314.968 59.44C315.368 59.4667 315.741 59.52 316.088 59.6C316.461 59.6533 316.781 59.7067 317.048 59.76C317.315 59.8133 317.501 59.8533 317.608 59.88V58.84C317.608 58.2267 317.541 57.6267 317.408 57.04C317.275 56.4267 317.035 55.8933 316.688 55.44C316.341 54.96 315.861 54.5867 315.248 54.32C314.661 54.0267 313.888 53.88 312.928 53.88C311.701 53.88 310.621 53.9733 309.688 54.16C308.781 54.32 308.101 54.4933 307.648 54.68L307.208 51.6C307.688 51.3867 308.488 51.1867 309.608 51C310.728 50.7867 311.941 50.68 313.248 50.68ZM342.924 72.4C340.631 72.3467 339.004 71.8533 338.044 70.92C337.084 69.9867 336.604 68.5333 336.604 66.56V41.6L340.324 40.96V65.96C340.324 66.5733 340.378 67.08 340.484 67.48C340.591 67.88 340.764 68.2 341.004 68.44C341.244 68.68 341.564 68.8667 341.964 69C342.364 69.1067 342.858 69.2 343.444 69.28L342.924 72.4ZM354.662 69.32C355.542 69.32 356.315 69.3067 356.982 69.28C357.675 69.2267 358.249 69.1467 358.702 69.04V62.84C358.435 62.7067 357.995 62.6 357.382 62.52C356.795 62.4133 356.075 62.36 355.222 62.36C354.662 62.36 354.062 62.4 353.422 62.48C352.809 62.56 352.235 62.7333 351.702 63C351.195 63.24 350.769 63.5867 350.422 64.04C350.075 64.4667 349.902 65.04 349.902 65.76C349.902 67.0933 350.329 68.0267 351.182 68.56C352.035 69.0667 353.195 69.32 354.662 69.32ZM354.342 50.68C355.835 50.68 357.089 50.88 358.102 51.28C359.142 51.6533 359.969 52.2 360.582 52.92C361.222 53.6133 361.675 54.4533 361.942 55.44C362.209 56.4 362.342 57.4667 362.342 58.64V71.64C362.022 71.6933 361.569 71.7733 360.982 71.88C360.422 71.96 359.782 72.04 359.062 72.12C358.342 72.2 357.555 72.2667 356.702 72.32C355.875 72.4 355.049 72.44 354.222 72.44C353.049 72.44 351.969 72.32 350.982 72.08C349.995 71.84 349.142 71.4667 348.422 70.96C347.702 70.4267 347.142 69.7333 346.742 68.88C346.342 68.0267 346.142 67 346.142 65.8C346.142 64.6533 346.369 63.6667 346.822 62.84C347.302 62.0133 347.942 61.3467 348.742 60.84C349.542 60.3333 350.475 59.96 351.542 59.72C352.609 59.48 353.729 59.36 354.902 59.36C355.275 59.36 355.662 59.3867 356.062 59.44C356.462 59.4667 356.835 59.52 357.182 59.6C357.555 59.6533 357.875 59.7067 358.142 59.76C358.409 59.8133 358.595 59.8533 358.702 59.88V58.84C358.702 58.2267 358.635 57.6267 358.502 57.04C358.369 56.4267 358.129 55.8933 357.782 55.44C357.435 54.96 356.955 54.5867 356.342 54.32C355.755 54.0267 354.982 53.88 354.022 53.88C352.795 53.88 351.715 53.9733 350.782 54.16C349.875 54.32 349.195 54.4933 348.742 54.68L348.302 51.6C348.782 51.3867 349.582 51.1867 350.702 51C351.822 50.7867 353.035 50.68 354.342 50.68ZM382.618 69.32C384.138 69.32 385.258 69.12 385.978 68.72C386.725 68.32 387.098 67.68 387.098 66.8C387.098 65.8933 386.738 65.1733 386.018 64.64C385.298 64.1067 384.111 63.5067 382.458 62.84C381.658 62.52 380.885 62.2 380.138 61.88C379.418 61.5333 378.791 61.1333 378.258 60.68C377.725 60.2267 377.298 59.68 376.978 59.04C376.658 58.4 376.498 57.6133 376.498 56.68C376.498 54.84 377.178 53.3867 378.538 52.32C379.898 51.2267 381.751 50.68 384.098 50.68C384.685 50.68 385.271 50.72 385.858 50.8C386.445 50.8533 386.991 50.9333 387.498 51.04C388.005 51.12 388.445 51.2133 388.818 51.32C389.218 51.4267 389.525 51.52 389.738 51.6L389.058 54.8C388.658 54.5867 388.031 54.3733 387.178 54.16C386.325 53.92 385.298 53.8 384.098 53.8C383.058 53.8 382.151 54.0133 381.378 54.44C380.605 54.84 380.218 55.48 380.218 56.36C380.218 56.8133 380.298 57.2133 380.458 57.56C380.645 57.9067 380.911 58.2267 381.258 58.52C381.631 58.7867 382.085 59.04 382.618 59.28C383.151 59.52 383.791 59.7733 384.538 60.04C385.525 60.4133 386.405 60.7867 387.178 61.16C387.951 61.5067 388.605 61.92 389.138 62.4C389.698 62.88 390.125 63.4667 390.418 64.16C390.711 64.8267 390.858 65.6533 390.858 66.64C390.858 68.56 390.138 70.0133 388.698 71C387.285 71.9867 385.258 72.48 382.618 72.48C380.778 72.48 379.338 72.32 378.298 72C377.258 71.7067 376.551 71.48 376.178 71.32L376.858 68.12C377.285 68.28 377.965 68.52 378.898 68.84C379.831 69.16 381.071 69.32 382.618 69.32ZM402.67 69.32C403.55 69.32 404.323 69.3067 404.99 69.28C405.683 69.2267 406.256 69.1467 406.71 69.04V62.84C406.443 62.7067 406.003 62.6 405.39 62.52C404.803 62.4133 404.083 62.36 403.23 62.36C402.67 62.36 402.07 62.4 401.43 62.48C400.816 62.56 400.243 62.7333 399.71 63C399.203 63.24 398.776 63.5867 398.43 64.04C398.083 64.4667 397.91 65.04 397.91 65.76C397.91 67.0933 398.336 68.0267 399.19 68.56C400.043 69.0667 401.203 69.32 402.67 69.32ZM402.35 50.68C403.843 50.68 405.096 50.88 406.11 51.28C407.15 51.6533 407.976 52.2 408.59 52.92C409.23 53.6133 409.683 54.4533 409.95 55.44C410.216 56.4 410.35 57.4667 410.35 58.64V71.64C410.03 71.6933 409.576 71.7733 408.99 71.88C408.43 71.96 407.79 72.04 407.07 72.12C406.35 72.2 405.563 72.2667 404.71 72.32C403.883 72.4 403.056 72.44 402.23 72.44C401.056 72.44 399.976 72.32 398.99 72.08C398.003 71.84 397.15 71.4667 396.43 70.96C395.71 70.4267 395.15 69.7333 394.75 68.88C394.35 68.0267 394.15 67 394.15 65.8C394.15 64.6533 394.376 63.6667 394.83 62.84C395.31 62.0133 395.95 61.3467 396.75 60.84C397.55 60.3333 398.483 59.96 399.55 59.72C400.616 59.48 401.736 59.36 402.91 59.36C403.283 59.36 403.67 59.3867 404.07 59.44C404.47 59.4667 404.843 59.52 405.19 59.6C405.563 59.6533 405.883 59.7067 406.15 59.76C406.416 59.8133 406.603 59.8533 406.71 59.88V58.84C406.71 58.2267 406.643 57.6267 406.51 57.04C406.376 56.4267 406.136 55.8933 405.79 55.44C405.443 54.96 404.963 54.5867 404.35 54.32C403.763 54.0267 402.99 53.88 402.03 53.88C400.803 53.88 399.723 53.9733 398.79 54.16C397.883 54.32 397.203 54.4933 396.75 54.68L396.31 51.6C396.79 51.3867 397.59 51.1867 398.71 51C399.83 50.7867 401.043 50.68 402.35 50.68ZM422.768 72.4C420.475 72.3467 418.848 71.8533 417.888 70.92C416.928 69.9867 416.448 68.5333 416.448 66.56V41.6L420.168 40.96V65.96C420.168 66.5733 420.221 67.08 420.328 67.48C420.435 67.88 420.608 68.2 420.848 68.44C421.088 68.68 421.408 68.8667 421.808 69C422.208 69.1067 422.701 69.2 423.288 69.28L422.768 72.4ZM444.026 71.4C443.172 71.6133 442.039 71.84 440.626 72.08C439.239 72.32 437.626 72.44 435.786 72.44C434.186 72.44 432.839 72.2133 431.746 71.76C430.652 71.28 429.772 70.6133 429.106 69.76C428.439 68.9067 427.959 67.9067 427.666 66.76C427.372 65.5867 427.226 64.2933 427.226 62.88V51.2H430.946V62.08C430.946 64.6133 431.346 66.4267 432.146 67.52C432.946 68.6133 434.292 69.16 436.186 69.16C436.586 69.16 436.999 69.1467 437.426 69.12C437.852 69.0933 438.252 69.0667 438.626 69.04C438.999 68.9867 439.332 68.9467 439.626 68.92C439.946 68.8667 440.172 68.8133 440.306 68.76V51.2H444.026V71.4ZM463.874 55.6C463.421 55.2267 462.768 54.8667 461.914 54.52C461.061 54.1733 460.128 54 459.114 54C458.048 54 457.128 54.2 456.354 54.6C455.608 54.9733 454.994 55.5067 454.514 56.2C454.034 56.8667 453.688 57.6667 453.474 58.6C453.261 59.5333 453.154 60.5333 453.154 61.6C453.154 64.0267 453.754 65.9067 454.954 67.24C456.154 68.5467 457.754 69.2 459.754 69.2C460.768 69.2 461.608 69.16 462.274 69.08C462.968 68.9733 463.501 68.8667 463.874 68.76V55.6ZM463.874 41.6L467.594 40.96V71.4C466.741 71.64 465.648 71.88 464.314 72.12C462.981 72.36 461.448 72.48 459.714 72.48C458.114 72.48 456.674 72.2267 455.394 71.72C454.114 71.2133 453.021 70.4933 452.114 69.56C451.208 68.6267 450.501 67.4933 449.994 66.16C449.514 64.8 449.274 63.28 449.274 61.6C449.274 60 449.474 58.5333 449.874 57.2C450.301 55.8667 450.914 54.72 451.714 53.76C452.514 52.8 453.488 52.0533 454.634 51.52C455.808 50.9867 457.141 50.72 458.634 50.72C459.834 50.72 460.888 50.88 461.794 51.2C462.728 51.52 463.421 51.8267 463.874 52.12V41.6Z" fill="#9946B4"/>
<path d="M124.528 93.368H126.856V110H124.528V102.32H116.392V110H114.064V93.368H116.392V100.304H124.528V93.368ZM133.074 110H130.842V97.52H133.074V110ZM131.946 95.264C131.546 95.264 131.202 95.136 130.914 94.88C130.642 94.608 130.506 94.248 130.506 93.8C130.506 93.352 130.642 93 130.914 92.744C131.202 92.472 131.546 92.336 131.946 92.336C132.346 92.336 132.682 92.472 132.954 92.744C133.242 93 133.386 93.352 133.386 93.8C133.386 94.248 133.242 94.608 132.954 94.88C132.682 95.136 132.346 95.264 131.946 95.264ZM145.576 103.784C145.576 102.328 145.216 101.208 144.496 100.424C143.776 99.64 142.816 99.248 141.616 99.248C140.944 99.248 140.416 99.272 140.032 99.32C139.664 99.368 139.368 99.424 139.144 99.488V107.36C139.416 107.584 139.808 107.8 140.32 108.008C140.832 108.216 141.392 108.32 142 108.32C142.64 108.32 143.184 108.208 143.632 107.984C144.096 107.744 144.472 107.424 144.76 107.024C145.048 106.608 145.256 106.128 145.384 105.584C145.512 105.024 145.576 104.424 145.576 103.784ZM147.904 103.784C147.904 104.728 147.776 105.6 147.52 106.4C147.28 107.2 146.92 107.888 146.44 108.464C145.96 109.04 145.368 109.488 144.664 109.808C143.976 110.128 143.184 110.288 142.288 110.288C141.568 110.288 140.928 110.192 140.368 110C139.824 109.808 139.416 109.624 139.144 109.448V114.44H136.912V97.904C137.44 97.776 138.096 97.64 138.88 97.496C139.68 97.336 140.6 97.256 141.64 97.256C142.6 97.256 143.464 97.408 144.232 97.712C145 98.016 145.656 98.448 146.2 99.008C146.744 99.568 147.16 100.256 147.448 101.072C147.752 101.872 147.904 102.776 147.904 103.784ZM150.349 103.784C150.349 102.68 150.509 101.72 150.829 100.904C151.149 100.072 151.573 99.384 152.101 98.84C152.629 98.296 153.237 97.888 153.925 97.616C154.613 97.344 155.317 97.208 156.037 97.208C157.717 97.208 159.005 97.736 159.901 98.792C160.797 99.832 161.245 101.424 161.245 103.568C161.245 103.664 161.245 103.792 161.245 103.952C161.245 104.096 161.237 104.232 161.221 104.36H152.677C152.773 105.656 153.149 106.64 153.805 107.312C154.461 107.984 155.485 108.32 156.877 108.32C157.661 108.32 158.317 108.256 158.845 108.128C159.389 107.984 159.797 107.848 160.069 107.72L160.381 109.592C160.109 109.736 159.629 109.888 158.941 110.048C158.269 110.208 157.501 110.288 156.637 110.288C155.549 110.288 154.605 110.128 153.805 109.808C153.021 109.472 152.373 109.016 151.861 108.44C151.349 107.864 150.965 107.184 150.709 106.4C150.469 105.6 150.349 104.728 150.349 103.784ZM158.917 102.56C158.933 101.552 158.677 100.728 158.149 100.088C157.637 99.432 156.925 99.104 156.013 99.104C155.501 99.104 155.045 99.208 154.645 99.416C154.261 99.608 153.933 99.864 153.661 100.184C153.389 100.504 153.173 100.872 153.013 101.288C152.869 101.704 152.773 102.128 152.725 102.56H158.917ZM169.059 97.256C169.251 97.256 169.467 97.272 169.707 97.304C169.963 97.32 170.211 97.352 170.451 97.4C170.691 97.432 170.907 97.472 171.099 97.52C171.307 97.552 171.459 97.584 171.555 97.616L171.171 99.56C170.995 99.496 170.699 99.424 170.283 99.344C169.883 99.248 169.363 99.2 168.723 99.2C168.307 99.2 167.891 99.248 167.475 99.344C167.075 99.424 166.811 99.48 166.683 99.512V110H164.451V98.048C164.979 97.856 165.635 97.68 166.419 97.52C167.203 97.344 168.083 97.256 169.059 97.256ZM179.133 110.288C178.125 110.288 177.237 110.128 176.469 109.808C175.717 109.488 175.077 109.04 174.549 108.464C174.037 107.888 173.653 107.208 173.397 106.424C173.141 105.624 173.013 104.744 173.013 103.784C173.013 102.824 173.149 101.944 173.421 101.144C173.709 100.344 174.109 99.656 174.621 99.08C175.133 98.488 175.757 98.032 176.493 97.712C177.245 97.376 178.077 97.208 178.989 97.208C179.549 97.208 180.109 97.256 180.669 97.352C181.229 97.448 181.765 97.6 182.277 97.808L181.773 99.704C181.437 99.544 181.045 99.416 180.597 99.32C180.165 99.224 179.701 99.176 179.205 99.176C177.957 99.176 176.997 99.568 176.325 100.352C175.669 101.136 175.341 102.28 175.341 103.784C175.341 104.456 175.413 105.072 175.557 105.632C175.717 106.192 175.957 106.672 176.277 107.072C176.613 107.472 177.037 107.784 177.549 108.008C178.061 108.216 178.685 108.32 179.421 108.32C180.013 108.32 180.549 108.264 181.029 108.152C181.509 108.04 181.885 107.92 182.157 107.792L182.469 109.664C182.341 109.744 182.157 109.824 181.917 109.904C181.677 109.968 181.405 110.024 181.101 110.072C180.797 110.136 180.469 110.184 180.117 110.216C179.781 110.264 179.453 110.288 179.133 110.288ZM195.577 103.76C195.577 104.752 195.433 105.648 195.145 106.448C194.857 107.248 194.449 107.936 193.921 108.512C193.409 109.088 192.793 109.536 192.073 109.856C191.353 110.16 190.569 110.312 189.721 110.312C188.873 110.312 188.089 110.16 187.369 109.856C186.649 109.536 186.025 109.088 185.497 108.512C184.985 107.936 184.585 107.248 184.297 106.448C184.009 105.648 183.865 104.752 183.865 103.76C183.865 102.784 184.009 101.896 184.297 101.096C184.585 100.28 184.985 99.584 185.497 99.008C186.025 98.432 186.649 97.992 187.369 97.688C188.089 97.368 188.873 97.208 189.721 97.208C190.569 97.208 191.353 97.368 192.073 97.688C192.793 97.992 193.409 98.432 193.921 99.008C194.449 99.584 194.857 100.28 195.145 101.096C195.433 101.896 195.577 102.784 195.577 103.76ZM193.249 103.76C193.249 102.352 192.929 101.24 192.289 100.424C191.665 99.592 190.809 99.176 189.721 99.176C188.633 99.176 187.769 99.592 187.129 100.424C186.505 101.24 186.193 102.352 186.193 103.76C186.193 105.168 186.505 106.288 187.129 107.12C187.769 107.936 188.633 108.344 189.721 108.344C190.809 108.344 191.665 107.936 192.289 107.12C192.929 106.288 193.249 105.168 193.249 103.76ZM203.325 97.256C203.517 97.256 203.733 97.272 203.973 97.304C204.229 97.32 204.477 97.352 204.717 97.4C204.957 97.432 205.173 97.472 205.365 97.52C205.573 97.552 205.725 97.584 205.821 97.616L205.437 99.56C205.261 99.496 204.965 99.424 204.549 99.344C204.149 99.248 203.629 99.2 202.989 99.2C202.573 99.2 202.157 99.248 201.741 99.344C201.341 99.424 201.077 99.48 200.949 99.512V110H198.717V98.048C199.245 97.856 199.901 97.68 200.685 97.52C201.469 97.344 202.349 97.256 203.325 97.256ZM210.063 97.52H214.791V99.392H210.063V105.152C210.063 105.776 210.111 106.296 210.207 106.712C210.303 107.112 210.447 107.432 210.639 107.672C210.831 107.896 211.071 108.056 211.359 108.152C211.647 108.248 211.983 108.296 212.367 108.296C213.039 108.296 213.575 108.224 213.975 108.08C214.391 107.92 214.679 107.808 214.839 107.744L215.271 109.592C215.047 109.704 214.655 109.84 214.095 110C213.535 110.176 212.895 110.264 212.175 110.264C211.327 110.264 210.623 110.16 210.063 109.952C209.519 109.728 209.079 109.4 208.743 108.968C208.407 108.536 208.167 108.008 208.023 107.384C207.895 106.744 207.831 106.008 207.831 105.176V94.04L210.063 93.656V97.52ZM219.863 110H217.631V97.52H219.863V110ZM218.735 95.264C218.335 95.264 217.991 95.136 217.703 94.88C217.431 94.608 217.295 94.248 217.295 93.8C217.295 93.352 217.431 93 217.703 92.744C217.991 92.472 218.335 92.336 218.735 92.336C219.135 92.336 219.471 92.472 219.743 92.744C220.031 93 220.175 93.352 220.175 93.8C220.175 94.248 220.031 94.608 219.743 94.88C219.471 95.136 219.135 95.264 218.735 95.264ZM226.605 108.392C227.517 108.392 228.189 108.272 228.621 108.032C229.069 107.792 229.293 107.408 229.293 106.88C229.293 106.336 229.077 105.904 228.645 105.584C228.213 105.264 227.501 104.904 226.509 104.504C226.029 104.312 225.565 104.12 225.117 103.928C224.685 103.72 224.309 103.48 223.989 103.208C223.669 102.936 223.413 102.608 223.221 102.224C223.029 101.84 222.933 101.368 222.933 100.808C222.933 99.704 223.341 98.832 224.157 98.192C224.973 97.536 226.085 97.208 227.493 97.208C227.845 97.208 228.197 97.232 228.549 97.28C228.901 97.312 229.229 97.36 229.533 97.424C229.837 97.472 230.101 97.528 230.325 97.592C230.565 97.656 230.749 97.712 230.877 97.76L230.469 99.68C230.229 99.552 229.853 99.424 229.341 99.296C228.829 99.152 228.213 99.08 227.493 99.08C226.869 99.08 226.325 99.208 225.861 99.464C225.397 99.704 225.165 100.088 225.165 100.616C225.165 100.888 225.213 101.128 225.309 101.336C225.421 101.544 225.581 101.736 225.789 101.912C226.013 102.072 226.285 102.224 226.605 102.368C226.925 102.512 227.309 102.664 227.757 102.824C228.349 103.048 228.877 103.272 229.341 103.496C229.805 103.704 230.197 103.952 230.517 104.24C230.853 104.528 231.109 104.88 231.285 105.296C231.461 105.696 231.549 106.192 231.549 106.784C231.549 107.936 231.117 108.808 230.253 109.4C229.405 109.992 228.189 110.288 226.605 110.288C225.501 110.288 224.637 110.192 224.013 110C223.389 109.824 222.965 109.688 222.741 109.592L223.149 107.672C223.405 107.768 223.813 107.912 224.373 108.104C224.933 108.296 225.677 108.392 226.605 108.392ZM245.428 103.76C245.428 104.752 245.284 105.648 244.996 106.448C244.708 107.248 244.3 107.936 243.772 108.512C243.26 109.088 242.644 109.536 241.924 109.856C241.204 110.16 240.42 110.312 239.572 110.312C238.724 110.312 237.94 110.16 237.22 109.856C236.5 109.536 235.876 109.088 235.348 108.512C234.836 107.936 234.436 107.248 234.148 106.448C233.86 105.648 233.716 104.752 233.716 103.76C233.716 102.784 233.86 101.896 234.148 101.096C234.436 100.28 234.836 99.584 235.348 99.008C235.876 98.432 236.5 97.992 237.22 97.688C237.94 97.368 238.724 97.208 239.572 97.208C240.42 97.208 241.204 97.368 241.924 97.688C242.644 97.992 243.26 98.432 243.772 99.008C244.3 99.584 244.708 100.28 244.996 101.096C245.284 101.896 245.428 102.784 245.428 103.76ZM243.1 103.76C243.1 102.352 242.78 101.24 242.14 100.424C241.516 99.592 240.66 99.176 239.572 99.176C238.484 99.176 237.62 99.592 236.98 100.424C236.356 101.24 236.044 102.352 236.044 103.76C236.044 105.168 236.356 106.288 236.98 107.12C237.62 107.936 238.484 108.344 239.572 108.344C240.66 108.344 241.516 107.936 242.14 107.12C242.78 106.288 243.1 105.168 243.1 103.76ZM252.312 110.24C250.936 110.208 249.96 109.912 249.384 109.352C248.808 108.792 248.52 107.92 248.52 106.736V91.76L250.752 91.376V106.376C250.752 106.744 250.784 107.048 250.848 107.288C250.912 107.528 251.016 107.72 251.16 107.864C251.304 108.008 251.496 108.12 251.736 108.2C251.976 108.264 252.272 108.32 252.624 108.368L252.312 110.24ZM257.363 110H255.131V97.52H257.363V110ZM256.235 95.264C255.835 95.264 255.491 95.136 255.203 94.88C254.931 94.608 254.795 94.248 254.795 93.8C254.795 93.352 254.931 93 255.203 92.744C255.491 92.472 255.835 92.336 256.235 92.336C256.635 92.336 256.971 92.472 257.243 92.744C257.531 93 257.675 93.352 257.675 93.8C257.675 94.248 257.531 94.608 257.243 94.88C256.971 95.136 256.635 95.264 256.235 95.264ZM261.201 97.88C261.713 97.752 262.385 97.616 263.217 97.472C264.065 97.328 265.041 97.256 266.145 97.256C266.945 97.256 267.617 97.368 268.161 97.592C268.705 97.8 269.161 98.112 269.529 98.528C269.641 98.448 269.817 98.336 270.057 98.192C270.297 98.048 270.593 97.912 270.945 97.784C271.297 97.64 271.689 97.52 272.121 97.424C272.553 97.312 273.017 97.256 273.513 97.256C274.473 97.256 275.257 97.4 275.865 97.688C276.473 97.96 276.945 98.352 277.281 98.864C277.633 99.376 277.865 99.984 277.977 100.688C278.105 101.392 278.169 102.16 278.169 102.992V110H275.937V103.472C275.937 102.736 275.897 102.104 275.817 101.576C275.753 101.048 275.617 100.608 275.409 100.256C275.217 99.904 274.945 99.648 274.593 99.488C274.257 99.312 273.817 99.224 273.273 99.224C272.521 99.224 271.897 99.328 271.401 99.536C270.921 99.728 270.593 99.904 270.417 100.064C270.545 100.48 270.641 100.936 270.705 101.432C270.769 101.928 270.801 102.448 270.801 102.992V110H268.569V103.472C268.569 102.736 268.529 102.104 268.449 101.576C268.369 101.048 268.225 100.608 268.017 100.256C267.825 99.904 267.553 99.648 267.201 99.488C266.865 99.312 266.433 99.224 265.905 99.224C265.681 99.224 265.441 99.232 265.185 99.248C264.929 99.264 264.681 99.288 264.441 99.32C264.217 99.336 264.009 99.36 263.817 99.392C263.625 99.424 263.497 99.448 263.433 99.464V110H261.201V97.88ZM284.105 110H281.873V97.52H284.105V110ZM282.977 95.264C282.577 95.264 282.233 95.136 281.945 94.88C281.673 94.608 281.537 94.248 281.537 93.8C281.537 93.352 281.673 93 281.945 92.744C282.233 92.472 282.577 92.336 282.977 92.336C283.377 92.336 283.713 92.472 283.985 92.744C284.273 93 284.417 93.352 284.417 93.8C284.417 94.248 284.273 94.608 283.985 94.88C283.713 95.136 283.377 95.264 282.977 95.264ZM292.167 108.392C292.695 108.392 293.159 108.384 293.559 108.368C293.975 108.336 294.319 108.288 294.591 108.224V104.504C294.431 104.424 294.167 104.36 293.799 104.312C293.447 104.248 293.015 104.216 292.503 104.216C292.167 104.216 291.807 104.24 291.423 104.288C291.055 104.336 290.711 104.44 290.391 104.6C290.087 104.744 289.831 104.952 289.623 105.224C289.415 105.48 289.311 105.824 289.311 106.256C289.311 107.056 289.567 107.616 290.079 107.936C290.591 108.24 291.287 108.392 292.167 108.392ZM291.975 97.208C292.871 97.208 293.623 97.328 294.231 97.568C294.855 97.792 295.351 98.12 295.719 98.552C296.103 98.968 296.375 99.472 296.535 100.064C296.695 100.64 296.775 101.28 296.775 101.984V109.784C296.583 109.816 296.311 109.864 295.959 109.928C295.623 109.976 295.239 110.024 294.807 110.072C294.375 110.12 293.903 110.16 293.391 110.192C292.895 110.24 292.399 110.264 291.903 110.264C291.199 110.264 290.551 110.192 289.959 110.048C289.367 109.904 288.855 109.68 288.423 109.376C287.991 109.056 287.655 108.64 287.415 108.128C287.175 107.616 287.055 107 287.055 106.28C287.055 105.592 287.191 105 287.463 104.504C287.751 104.008 288.135 103.608 288.615 103.304C289.095 103 289.655 102.776 290.295 102.632C290.935 102.488 291.607 102.416 292.311 102.416C292.535 102.416 292.767 102.432 293.007 102.464C293.247 102.48 293.471 102.512 293.679 102.56C293.903 102.592 294.095 102.624 294.255 102.656C294.415 102.688 294.527 102.712 294.591 102.728V102.104C294.591 101.736 294.551 101.376 294.471 101.024C294.391 100.656 294.247 100.336 294.039 100.064C293.831 99.776 293.543 99.552 293.175 99.392C292.823 99.216 292.359 99.128 291.783 99.128C291.047 99.128 290.399 99.184 289.839 99.296C289.295 99.392 288.887 99.496 288.615 99.608L288.351 97.76C288.639 97.632 289.119 97.512 289.791 97.4C290.463 97.272 291.191 97.208 291.975 97.208Z" fill="#9946B4"/>
<path d="M669.473 353.368H671.801V370H669.473V362.32H661.337V370H659.009V353.368H661.337V360.304H669.473V353.368ZM678.019 370H675.787V357.52H678.019V370ZM676.891 355.264C676.491 355.264 676.147 355.136 675.859 354.88C675.587 354.608 675.451 354.248 675.451 353.8C675.451 353.352 675.587 353 675.859 352.744C676.147 352.472 676.491 352.336 676.891 352.336C677.291 352.336 677.627 352.472 677.899 352.744C678.187 353 678.331 353.352 678.331 353.8C678.331 354.248 678.187 354.608 677.899 354.88C677.627 355.136 677.291 355.264 676.891 355.264ZM690.522 363.784C690.522 362.328 690.162 361.208 689.442 360.424C688.722 359.64 687.762 359.248 686.562 359.248C685.89 359.248 685.362 359.272 684.978 359.32C684.61 359.368 684.314 359.424 684.09 359.488V367.36C684.362 367.584 684.754 367.8 685.266 368.008C685.778 368.216 686.338 368.32 686.946 368.32C687.586 368.32 688.13 368.208 688.578 367.984C689.042 367.744 689.418 367.424 689.706 367.024C689.994 366.608 690.202 366.128 690.33 365.584C690.458 365.024 690.522 364.424 690.522 363.784ZM692.85 363.784C692.85 364.728 692.722 365.6 692.466 366.4C692.226 367.2 691.866 367.888 691.386 368.464C690.906 369.04 690.314 369.488 689.61 369.808C688.922 370.128 688.13 370.288 687.234 370.288C686.514 370.288 685.874 370.192 685.314 370C684.77 369.808 684.362 369.624 684.09 369.448V374.44H681.858V357.904C682.386 357.776 683.042 357.64 683.826 357.496C684.626 357.336 685.546 357.256 686.586 357.256C687.546 357.256 688.41 357.408 689.178 357.712C689.946 358.016 690.602 358.448 691.146 359.008C691.69 359.568 692.106 360.256 692.394 361.072C692.698 361.872 692.85 362.776 692.85 363.784ZM707.006 363.76C707.006 364.752 706.862 365.648 706.574 366.448C706.286 367.248 705.878 367.936 705.35 368.512C704.838 369.088 704.222 369.536 703.502 369.856C702.782 370.16 701.998 370.312 701.15 370.312C700.302 370.312 699.518 370.16 698.798 369.856C698.078 369.536 697.454 369.088 696.926 368.512C696.414 367.936 696.014 367.248 695.726 366.448C695.438 365.648 695.294 364.752 695.294 363.76C695.294 362.784 695.438 361.896 695.726 361.096C696.014 360.28 696.414 359.584 696.926 359.008C697.454 358.432 698.078 357.992 698.798 357.688C699.518 357.368 700.302 357.208 701.15 357.208C701.998 357.208 702.782 357.368 703.502 357.688C704.222 357.992 704.838 358.432 705.35 359.008C705.878 359.584 706.286 360.28 706.574 361.096C706.862 361.896 707.006 362.784 707.006 363.76ZM704.678 363.76C704.678 362.352 704.358 361.24 703.718 360.424C703.094 359.592 702.238 359.176 701.15 359.176C700.062 359.176 699.198 359.592 698.558 360.424C697.934 361.24 697.622 362.352 697.622 363.76C697.622 365.168 697.934 366.288 698.558 367.12C699.198 367.936 700.062 368.344 701.15 368.344C702.238 368.344 703.094 367.936 703.718 367.12C704.358 366.288 704.678 365.168 704.678 363.76ZM715.571 370.288C714.563 370.288 713.675 370.128 712.907 369.808C712.155 369.488 711.515 369.04 710.987 368.464C710.475 367.888 710.091 367.208 709.835 366.424C709.579 365.624 709.451 364.744 709.451 363.784C709.451 362.824 709.587 361.944 709.859 361.144C710.147 360.344 710.547 359.656 711.059 359.08C711.571 358.488 712.195 358.032 712.931 357.712C713.683 357.376 714.515 357.208 715.427 357.208C715.987 357.208 716.547 357.256 717.107 357.352C717.667 357.448 718.203 357.6 718.715 357.808L718.211 359.704C717.875 359.544 717.483 359.416 717.035 359.32C716.603 359.224 716.139 359.176 715.643 359.176C714.395 359.176 713.435 359.568 712.763 360.352C712.107 361.136 711.779 362.28 711.779 363.784C711.779 364.456 711.851 365.072 711.995 365.632C712.155 366.192 712.395 366.672 712.715 367.072C713.051 367.472 713.475 367.784 713.987 368.008C714.499 368.216 715.123 368.32 715.859 368.32C716.451 368.32 716.987 368.264 717.467 368.152C717.947 368.04 718.323 367.92 718.595 367.792L718.907 369.664C718.779 369.744 718.595 369.824 718.355 369.904C718.115 369.968 717.843 370.024 717.539 370.072C717.235 370.136 716.907 370.184 716.555 370.216C716.219 370.264 715.891 370.288 715.571 370.288ZM732.014 363.76C732.014 364.752 731.87 365.648 731.582 366.448C731.294 367.248 730.886 367.936 730.358 368.512C729.846 369.088 729.23 369.536 728.51 369.856C727.79 370.16 727.006 370.312 726.158 370.312C725.31 370.312 724.526 370.16 723.806 369.856C723.086 369.536 722.462 369.088 721.934 368.512C721.422 367.936 721.022 367.248 720.734 366.448C720.446 365.648 720.302 364.752 720.302 363.76C720.302 362.784 720.446 361.896 720.734 361.096C721.022 360.28 721.422 359.584 721.934 359.008C722.462 358.432 723.086 357.992 723.806 357.688C724.526 357.368 725.31 357.208 726.158 357.208C727.006 357.208 727.79 357.368 728.51 357.688C729.23 357.992 729.846 358.432 730.358 359.008C730.886 359.584 731.294 360.28 731.582 361.096C731.87 361.896 732.014 362.784 732.014 363.76ZM729.686 363.76C729.686 362.352 729.366 361.24 728.726 360.424C728.102 359.592 727.246 359.176 726.158 359.176C725.07 359.176 724.206 359.592 723.566 360.424C722.942 361.24 722.63 362.352 722.63 363.76C722.63 365.168 722.942 366.288 723.566 367.12C724.206 367.936 725.07 368.344 726.158 368.344C727.246 368.344 728.102 367.936 728.726 367.12C729.366 366.288 729.686 365.168 729.686 363.76ZM739.762 357.256C739.954 357.256 740.17 357.272 740.41 357.304C740.666 357.32 740.914 357.352 741.154 357.4C741.394 357.432 741.61 357.472 741.802 357.52C742.01 357.552 742.162 357.584 742.258 357.616L741.874 359.56C741.698 359.496 741.402 359.424 740.986 359.344C740.586 359.248 740.066 359.2 739.426 359.2C739.01 359.2 738.594 359.248 738.178 359.344C737.778 359.424 737.514 359.48 737.386 359.512V370H735.154V358.048C735.682 357.856 736.338 357.68 737.122 357.52C737.906 357.344 738.786 357.256 739.762 357.256ZM746.5 357.52H751.228V359.392H746.5V365.152C746.5 365.776 746.548 366.296 746.644 366.712C746.74 367.112 746.884 367.432 747.076 367.672C747.268 367.896 747.508 368.056 747.796 368.152C748.084 368.248 748.42 368.296 748.804 368.296C749.476 368.296 750.012 368.224 750.412 368.08C750.828 367.92 751.116 367.808 751.276 367.744L751.708 369.592C751.484 369.704 751.092 369.84 750.532 370C749.972 370.176 749.332 370.264 748.612 370.264C747.764 370.264 747.06 370.16 746.5 369.952C745.956 369.728 745.516 369.4 745.18 368.968C744.844 368.536 744.604 368.008 744.46 367.384C744.332 366.744 744.268 366.008 744.268 365.176V354.04L746.5 353.656V357.52ZM756.3 370H754.068V357.52H756.3V370ZM755.172 355.264C754.772 355.264 754.428 355.136 754.14 354.88C753.868 354.608 753.732 354.248 753.732 353.8C753.732 353.352 753.868 353 754.14 352.744C754.428 352.472 754.772 352.336 755.172 352.336C755.572 352.336 755.908 352.472 756.18 352.744C756.468 353 756.612 353.352 756.612 353.8C756.612 354.248 756.468 354.608 756.18 354.88C755.908 355.136 755.572 355.264 755.172 355.264ZM763.043 368.392C763.955 368.392 764.627 368.272 765.059 368.032C765.507 367.792 765.731 367.408 765.731 366.88C765.731 366.336 765.515 365.904 765.083 365.584C764.651 365.264 763.939 364.904 762.947 364.504C762.467 364.312 762.003 364.12 761.555 363.928C761.123 363.72 760.747 363.48 760.427 363.208C760.107 362.936 759.851 362.608 759.659 362.224C759.467 361.84 759.371 361.368 759.371 360.808C759.371 359.704 759.779 358.832 760.595 358.192C761.411 357.536 762.523 357.208 763.931 357.208C764.283 357.208 764.635 357.232 764.987 357.28C765.339 357.312 765.667 357.36 765.971 357.424C766.275 357.472 766.539 357.528 766.763 357.592C767.003 357.656 767.187 357.712 767.315 357.76L766.907 359.68C766.667 359.552 766.291 359.424 765.779 359.296C765.267 359.152 764.651 359.08 763.931 359.08C763.307 359.08 762.763 359.208 762.299 359.464C761.835 359.704 761.603 360.088 761.603 360.616C761.603 360.888 761.651 361.128 761.747 361.336C761.859 361.544 762.019 361.736 762.227 361.912C762.451 362.072 762.723 362.224 763.043 362.368C763.363 362.512 763.747 362.664 764.195 362.824C764.787 363.048 765.315 363.272 765.779 363.496C766.243 363.704 766.635 363.952 766.955 364.24C767.291 364.528 767.547 364.88 767.723 365.296C767.899 365.696 767.987 366.192 767.987 366.784C767.987 367.936 767.555 368.808 766.691 369.4C765.843 369.992 764.627 370.288 763.043 370.288C761.939 370.288 761.075 370.192 760.451 370C759.827 369.824 759.403 369.688 759.179 369.592L759.587 367.672C759.843 367.768 760.251 367.912 760.811 368.104C761.371 368.296 762.115 368.392 763.043 368.392ZM781.866 363.76C781.866 364.752 781.722 365.648 781.434 366.448C781.146 367.248 780.738 367.936 780.21 368.512C779.698 369.088 779.082 369.536 778.362 369.856C777.642 370.16 776.858 370.312 776.01 370.312C775.162 370.312 774.378 370.16 773.658 369.856C772.938 369.536 772.314 369.088 771.786 368.512C771.274 367.936 770.874 367.248 770.586 366.448C770.298 365.648 770.154 364.752 770.154 363.76C770.154 362.784 770.298 361.896 770.586 361.096C770.874 360.28 771.274 359.584 771.786 359.008C772.314 358.432 772.938 357.992 773.658 357.688C774.378 357.368 775.162 357.208 776.01 357.208C776.858 357.208 777.642 357.368 778.362 357.688C779.082 357.992 779.698 358.432 780.21 359.008C780.738 359.584 781.146 360.28 781.434 361.096C781.722 361.896 781.866 362.784 781.866 363.76ZM779.538 363.76C779.538 362.352 779.218 361.24 778.578 360.424C777.954 359.592 777.098 359.176 776.01 359.176C774.922 359.176 774.058 359.592 773.418 360.424C772.794 361.24 772.482 362.352 772.482 363.76C772.482 365.168 772.794 366.288 773.418 367.12C774.058 367.936 774.922 368.344 776.01 368.344C777.098 368.344 777.954 367.936 778.578 367.12C779.218 366.288 779.538 365.168 779.538 363.76ZM788.75 370.24C787.374 370.208 786.398 369.912 785.822 369.352C785.246 368.792 784.958 367.92 784.958 366.736V351.76L787.19 351.376V366.376C787.19 366.744 787.222 367.048 787.286 367.288C787.35 367.528 787.454 367.72 787.598 367.864C787.742 368.008 787.934 368.12 788.174 368.2C788.414 368.264 788.71 368.32 789.062 368.368L788.75 370.24ZM793.8 370H791.568V357.52H793.8V370ZM792.672 355.264C792.272 355.264 791.928 355.136 791.64 354.88C791.368 354.608 791.232 354.248 791.232 353.8C791.232 353.352 791.368 353 791.64 352.744C791.928 352.472 792.272 352.336 792.672 352.336C793.072 352.336 793.408 352.472 793.68 352.744C793.968 353 794.112 353.352 794.112 353.8C794.112 354.248 793.968 354.608 793.68 354.88C793.408 355.136 793.072 355.264 792.672 355.264ZM797.639 357.88C798.151 357.752 798.823 357.616 799.655 357.472C800.503 357.328 801.479 357.256 802.583 357.256C803.383 357.256 804.055 357.368 804.599 357.592C805.143 357.8 805.599 358.112 805.967 358.528C806.079 358.448 806.255 358.336 806.495 358.192C806.735 358.048 807.031 357.912 807.383 357.784C807.735 357.64 808.127 357.52 808.559 357.424C808.991 357.312 809.455 357.256 809.951 357.256C810.911 357.256 811.695 357.4 812.303 357.688C812.911 357.96 813.383 358.352 813.719 358.864C814.071 359.376 814.303 359.984 814.415 360.688C814.543 361.392 814.607 362.16 814.607 362.992V370H812.375V363.472C812.375 362.736 812.335 362.104 812.255 361.576C812.191 361.048 812.055 360.608 811.847 360.256C811.655 359.904 811.383 359.648 811.031 359.488C810.695 359.312 810.255 359.224 809.711 359.224C808.959 359.224 808.335 359.328 807.839 359.536C807.359 359.728 807.031 359.904 806.855 360.064C806.983 360.48 807.079 360.936 807.143 361.432C807.207 361.928 807.239 362.448 807.239 362.992V370H805.007V363.472C805.007 362.736 804.967 362.104 804.887 361.576C804.807 361.048 804.663 360.608 804.455 360.256C804.263 359.904 803.991 359.648 803.639 359.488C803.303 359.312 802.871 359.224 802.343 359.224C802.119 359.224 801.879 359.232 801.623 359.248C801.367 359.264 801.119 359.288 800.879 359.32C800.655 359.336 800.447 359.36 800.255 359.392C800.063 359.424 799.935 359.448 799.871 359.464V370H797.639V357.88ZM820.543 370H818.311V357.52H820.543V370ZM819.415 355.264C819.015 355.264 818.671 355.136 818.383 354.88C818.111 354.608 817.975 354.248 817.975 353.8C817.975 353.352 818.111 353 818.383 352.744C818.671 352.472 819.015 352.336 819.415 352.336C819.815 352.336 820.151 352.472 820.423 352.744C820.711 353 820.855 353.352 820.855 353.8C820.855 354.248 820.711 354.608 820.423 354.88C820.151 355.136 819.815 355.264 819.415 355.264ZM828.605 368.392C829.133 368.392 829.597 368.384 829.997 368.368C830.413 368.336 830.757 368.288 831.029 368.224V364.504C830.869 364.424 830.605 364.36 830.237 364.312C829.885 364.248 829.453 364.216 828.941 364.216C828.605 364.216 828.245 364.24 827.861 364.288C827.493 364.336 827.149 364.44 826.829 364.6C826.525 364.744 826.269 364.952 826.061 365.224C825.853 365.48 825.749 365.824 825.749 366.256C825.749 367.056 826.005 367.616 826.517 367.936C827.029 368.24 827.725 368.392 828.605 368.392ZM828.413 357.208C829.309 357.208 830.061 357.328 830.669 357.568C831.293 357.792 831.789 358.12 832.157 358.552C832.541 358.968 832.813 359.472 832.973 360.064C833.133 360.64 833.213 361.28 833.213 361.984V369.784C833.021 369.816 832.749 369.864 832.397 369.928C832.061 369.976 831.677 370.024 831.245 370.072C830.813 370.12 830.341 370.16 829.829 370.192C829.333 370.24 828.837 370.264 828.341 370.264C827.637 370.264 826.989 370.192 826.397 370.048C825.805 369.904 825.293 369.68 824.861 369.376C824.429 369.056 824.093 368.64 823.853 368.128C823.613 367.616 823.493 367 823.493 366.28C823.493 365.592 823.629 365 823.901 364.504C824.189 364.008 824.573 363.608 825.053 363.304C825.533 363 826.093 362.776 826.733 362.632C827.373 362.488 828.045 362.416 828.749 362.416C828.973 362.416 829.205 362.432 829.445 362.464C829.685 362.48 829.909 362.512 830.117 362.56C830.341 362.592 830.533 362.624 830.693 362.656C830.853 362.688 830.965 362.712 831.029 362.728V362.104C831.029 361.736 830.989 361.376 830.909 361.024C830.829 360.656 830.685 360.336 830.477 360.064C830.269 359.776 829.981 359.552 829.613 359.392C829.261 359.216 828.797 359.128 828.221 359.128C827.485 359.128 826.837 359.184 826.277 359.296C825.733 359.392 825.325 359.496 825.053 359.608L824.789 357.76C825.077 357.632 825.557 357.512 826.229 357.4C826.901 357.272 827.629 357.208 828.413 357.208Z" fill="#219653" fill-opacity="0.9"/>
<path d="M625.568 414.24C625.008 414.24 624.395 414.227 623.728 414.2C623.088 414.173 622.435 414.133 621.768 414.08C621.128 414.027 620.488 413.96 619.848 413.88C619.208 413.8 618.622 413.693 618.088 413.56V386.68C618.622 386.547 619.208 386.44 619.848 386.36C620.488 386.28 621.128 386.213 621.768 386.16C622.435 386.107 623.088 386.067 623.728 386.04C624.368 386.013 624.968 386 625.528 386C627.128 386 628.622 386.12 630.008 386.36C631.422 386.6 632.635 387.013 633.648 387.6C634.688 388.16 635.502 388.907 636.088 389.84C636.675 390.773 636.968 391.92 636.968 393.28C636.968 394.8 636.608 396.053 635.888 397.04C635.168 398 634.208 398.72 633.008 399.2C634.635 399.68 635.928 400.44 636.888 401.48C637.848 402.52 638.328 403.987 638.328 405.88C638.328 408.653 637.302 410.747 635.248 412.16C633.222 413.547 629.995 414.24 625.568 414.24ZM621.928 401.08V410.84C622.222 410.867 622.568 410.893 622.968 410.92C623.315 410.947 623.715 410.973 624.168 411C624.648 411 625.195 411 625.808 411C626.955 411 628.035 410.933 629.048 410.8C630.088 410.64 630.995 410.373 631.768 410C632.542 409.627 633.155 409.107 633.608 408.44C634.088 407.773 634.328 406.933 634.328 405.92C634.328 405.013 634.155 404.253 633.808 403.64C633.462 403 632.955 402.493 632.288 402.12C631.648 401.747 630.875 401.48 629.968 401.32C629.062 401.16 628.048 401.08 626.928 401.08H621.928ZM621.928 397.96H626.008C626.968 397.96 627.875 397.893 628.728 397.76C629.582 397.627 630.315 397.387 630.928 397.04C631.568 396.693 632.062 396.24 632.408 395.68C632.782 395.12 632.968 394.413 632.968 393.56C632.968 392.76 632.782 392.093 632.408 391.56C632.035 391 631.515 390.56 630.848 390.24C630.208 389.893 629.448 389.64 628.568 389.48C627.688 389.32 626.755 389.24 625.768 389.24C624.782 389.24 624.008 389.253 623.448 389.28C622.888 389.307 622.382 389.347 621.928 389.4V397.96ZM660.112 413.4C659.258 413.613 658.125 413.84 656.712 414.08C655.325 414.32 653.712 414.44 651.872 414.44C650.272 414.44 648.925 414.213 647.832 413.76C646.738 413.28 645.858 412.613 645.192 411.76C644.525 410.907 644.045 409.907 643.752 408.76C643.458 407.587 643.312 406.293 643.312 404.88V393.2H647.032V404.08C647.032 406.613 647.432 408.427 648.232 409.52C649.032 410.613 650.378 411.16 652.272 411.16C652.672 411.16 653.085 411.147 653.512 411.12C653.938 411.093 654.338 411.067 654.712 411.04C655.085 410.987 655.418 410.947 655.712 410.92C656.032 410.867 656.258 410.813 656.392 410.76V393.2H660.112V413.4ZM665.36 403.64C665.36 401.8 665.627 400.2 666.16 398.84C666.694 397.453 667.4 396.307 668.28 395.4C669.16 394.493 670.174 393.813 671.32 393.36C672.467 392.907 673.64 392.68 674.84 392.68C677.64 392.68 679.787 393.56 681.28 395.32C682.774 397.053 683.52 399.707 683.52 403.28C683.52 403.44 683.52 403.653 683.52 403.92C683.52 404.16 683.507 404.387 683.48 404.6H669.24C669.4 406.76 670.027 408.4 671.12 409.52C672.214 410.64 673.92 411.2 676.24 411.2C677.547 411.2 678.64 411.093 679.52 410.88C680.427 410.64 681.107 410.413 681.56 410.2L682.08 413.32C681.627 413.56 680.827 413.813 679.68 414.08C678.56 414.347 677.28 414.48 675.84 414.48C674.027 414.48 672.454 414.213 671.12 413.68C669.814 413.12 668.734 412.36 667.88 411.4C667.027 410.44 666.387 409.307 665.96 408C665.56 406.667 665.36 405.213 665.36 403.64ZM679.64 401.6C679.667 399.92 679.24 398.547 678.36 397.48C677.507 396.387 676.32 395.84 674.8 395.84C673.947 395.84 673.187 396.013 672.52 396.36C671.88 396.68 671.334 397.107 670.88 397.64C670.427 398.173 670.067 398.787 669.8 399.48C669.56 400.173 669.4 400.88 669.32 401.6H679.64ZM688.864 393.8C689.717 393.587 690.851 393.36 692.264 393.12C693.677 392.88 695.304 392.76 697.144 392.76C698.797 392.76 700.171 393 701.264 393.48C702.357 393.933 703.224 394.587 703.864 395.44C704.531 396.267 704.997 397.267 705.264 398.44C705.531 399.613 705.664 400.907 705.664 402.32V414H701.944V403.12C701.944 401.84 701.851 400.747 701.664 399.84C701.504 398.933 701.224 398.2 700.824 397.64C700.424 397.08 699.891 396.68 699.224 396.44C698.557 396.173 697.731 396.04 696.744 396.04C696.344 396.04 695.931 396.053 695.504 396.08C695.077 396.107 694.664 396.147 694.264 396.2C693.891 396.227 693.544 396.267 693.224 396.32C692.931 396.373 692.717 396.413 692.584 396.44V414H688.864V393.8ZM718.873 411.32C719.753 411.32 720.526 411.307 721.193 411.28C721.886 411.227 722.459 411.147 722.913 411.04V404.84C722.646 404.707 722.206 404.6 721.593 404.52C721.006 404.413 720.286 404.36 719.433 404.36C718.873 404.36 718.273 404.4 717.633 404.48C717.019 404.56 716.446 404.733 715.913 405C715.406 405.24 714.979 405.587 714.633 406.04C714.286 406.467 714.113 407.04 714.113 407.76C714.113 409.093 714.539 410.027 715.393 410.56C716.246 411.067 717.406 411.32 718.873 411.32ZM718.553 392.68C720.046 392.68 721.299 392.88 722.313 393.28C723.353 393.653 724.179 394.2 724.793 394.92C725.433 395.613 725.886 396.453 726.153 397.44C726.419 398.4 726.553 399.467 726.553 400.64V413.64C726.233 413.693 725.779 413.773 725.193 413.88C724.633 413.96 723.993 414.04 723.273 414.12C722.553 414.2 721.766 414.267 720.913 414.32C720.086 414.4 719.259 414.44 718.433 414.44C717.259 414.44 716.179 414.32 715.193 414.08C714.206 413.84 713.353 413.467 712.633 412.96C711.913 412.427 711.353 411.733 710.953 410.88C710.553 410.027 710.353 409 710.353 407.8C710.353 406.653 710.579 405.667 711.033 404.84C711.513 404.013 712.153 403.347 712.953 402.84C713.753 402.333 714.686 401.96 715.753 401.72C716.819 401.48 717.939 401.36 719.113 401.36C719.486 401.36 719.873 401.387 720.273 401.44C720.673 401.467 721.046 401.52 721.393 401.6C721.766 401.653 722.086 401.707 722.353 401.76C722.619 401.813 722.806 401.853 722.913 401.88V400.84C722.913 400.227 722.846 399.627 722.713 399.04C722.579 398.427 722.339 397.893 721.993 397.44C721.646 396.96 721.166 396.587 720.553 396.32C719.966 396.027 719.193 395.88 718.233 395.88C717.006 395.88 715.926 395.973 714.993 396.16C714.086 396.32 713.406 396.493 712.953 396.68L712.513 393.6C712.993 393.387 713.793 393.187 714.913 393C716.033 392.787 717.246 392.68 718.553 392.68ZM746.829 411.32C748.349 411.32 749.469 411.12 750.189 410.72C750.936 410.32 751.309 409.68 751.309 408.8C751.309 407.893 750.949 407.173 750.229 406.64C749.509 406.107 748.322 405.507 746.669 404.84C745.869 404.52 745.096 404.2 744.349 403.88C743.629 403.533 743.002 403.133 742.469 402.68C741.936 402.227 741.509 401.68 741.189 401.04C740.869 400.4 740.709 399.613 740.709 398.68C740.709 396.84 741.389 395.387 742.749 394.32C744.109 393.227 745.962 392.68 748.309 392.68C748.896 392.68 749.482 392.72 750.069 392.8C750.656 392.853 751.202 392.933 751.709 393.04C752.216 393.12 752.656 393.213 753.029 393.32C753.429 393.427 753.736 393.52 753.949 393.6L753.269 396.8C752.869 396.587 752.242 396.373 751.389 396.16C750.536 395.92 749.509 395.8 748.309 395.8C747.269 395.8 746.362 396.013 745.589 396.44C744.816 396.84 744.429 397.48 744.429 398.36C744.429 398.813 744.509 399.213 744.669 399.56C744.856 399.907 745.122 400.227 745.469 400.52C745.842 400.787 746.296 401.04 746.829 401.28C747.362 401.52 748.002 401.773 748.749 402.04C749.736 402.413 750.616 402.787 751.389 403.16C752.162 403.507 752.816 403.92 753.349 404.4C753.909 404.88 754.336 405.467 754.629 406.16C754.922 406.827 755.069 407.653 755.069 408.64C755.069 410.56 754.349 412.013 752.909 413C751.496 413.987 749.469 414.48 746.829 414.48C744.989 414.48 743.549 414.32 742.509 414C741.469 413.707 740.762 413.48 740.389 413.32L741.069 410.12C741.496 410.28 742.176 410.52 743.109 410.84C744.042 411.16 745.282 411.32 746.829 411.32ZM766.881 411.32C767.761 411.32 768.534 411.307 769.201 411.28C769.894 411.227 770.467 411.147 770.921 411.04V404.84C770.654 404.707 770.214 404.6 769.601 404.52C769.014 404.413 768.294 404.36 767.441 404.36C766.881 404.36 766.281 404.4 765.641 404.48C765.027 404.56 764.454 404.733 763.921 405C763.414 405.24 762.987 405.587 762.641 406.04C762.294 406.467 762.121 407.04 762.121 407.76C762.121 409.093 762.547 410.027 763.401 410.56C764.254 411.067 765.414 411.32 766.881 411.32ZM766.561 392.68C768.054 392.68 769.307 392.88 770.321 393.28C771.361 393.653 772.187 394.2 772.801 394.92C773.441 395.613 773.894 396.453 774.161 397.44C774.427 398.4 774.561 399.467 774.561 400.64V413.64C774.241 413.693 773.787 413.773 773.201 413.88C772.641 413.96 772.001 414.04 771.281 414.12C770.561 414.2 769.774 414.267 768.921 414.32C768.094 414.4 767.267 414.44 766.441 414.44C765.267 414.44 764.187 414.32 763.201 414.08C762.214 413.84 761.361 413.467 760.641 412.96C759.921 412.427 759.361 411.733 758.961 410.88C758.561 410.027 758.361 409 758.361 407.8C758.361 406.653 758.587 405.667 759.041 404.84C759.521 404.013 760.161 403.347 760.961 402.84C761.761 402.333 762.694 401.96 763.761 401.72C764.827 401.48 765.947 401.36 767.121 401.36C767.494 401.36 767.881 401.387 768.281 401.44C768.681 401.467 769.054 401.52 769.401 401.6C769.774 401.653 770.094 401.707 770.361 401.76C770.627 401.813 770.814 401.853 770.921 401.88V400.84C770.921 400.227 770.854 399.627 770.721 399.04C770.587 398.427 770.347 397.893 770.001 397.44C769.654 396.96 769.174 396.587 768.561 396.32C767.974 396.027 767.201 395.88 766.241 395.88C765.014 395.88 763.934 395.973 763.001 396.16C762.094 396.32 761.414 396.493 760.961 396.68L760.521 393.6C761.001 393.387 761.801 393.187 762.921 393C764.041 392.787 765.254 392.68 766.561 392.68ZM786.979 414.4C784.686 414.347 783.059 413.853 782.099 412.92C781.139 411.987 780.659 410.533 780.659 408.56V383.6L784.379 382.96V407.96C784.379 408.573 784.432 409.08 784.539 409.48C784.646 409.88 784.819 410.2 785.059 410.44C785.299 410.68 785.619 410.867 786.019 411C786.419 411.107 786.912 411.2 787.499 411.28L786.979 414.4ZM808.237 413.4C807.383 413.613 806.25 413.84 804.837 414.08C803.45 414.32 801.837 414.44 799.997 414.44C798.397 414.44 797.05 414.213 795.957 413.76C794.863 413.28 793.983 412.613 793.317 411.76C792.65 410.907 792.17 409.907 791.877 408.76C791.583 407.587 791.437 406.293 791.437 404.88V393.2H795.157V404.08C795.157 406.613 795.557 408.427 796.357 409.52C797.157 410.613 798.503 411.16 800.397 411.16C800.797 411.16 801.21 411.147 801.637 411.12C802.063 411.093 802.463 411.067 802.837 411.04C803.21 410.987 803.543 410.947 803.837 410.92C804.157 410.867 804.383 410.813 804.517 410.76V393.2H808.237V413.4ZM828.085 397.6C827.632 397.227 826.979 396.867 826.125 396.52C825.272 396.173 824.339 396 823.325 396C822.259 396 821.339 396.2 820.565 396.6C819.819 396.973 819.205 397.507 818.725 398.2C818.245 398.867 817.899 399.667 817.685 400.6C817.472 401.533 817.365 402.533 817.365 403.6C817.365 406.027 817.965 407.907 819.165 409.24C820.365 410.547 821.965 411.2 823.965 411.2C824.979 411.2 825.819 411.16 826.485 411.08C827.179 410.973 827.712 410.867 828.085 410.76V397.6ZM828.085 383.6L831.805 382.96V413.4C830.952 413.64 829.859 413.88 828.525 414.12C827.192 414.36 825.659 414.48 823.925 414.48C822.325 414.48 820.885 414.227 819.605 413.72C818.325 413.213 817.232 412.493 816.325 411.56C815.419 410.627 814.712 409.493 814.205 408.16C813.725 406.8 813.485 405.28 813.485 403.6C813.485 402 813.685 400.533 814.085 399.2C814.512 397.867 815.125 396.72 815.925 395.76C816.725 394.8 817.699 394.053 818.845 393.52C820.019 392.987 821.352 392.72 822.845 392.72C824.045 392.72 825.099 392.88 826.005 393.2C826.939 393.52 827.632 393.827 828.085 394.12V383.6Z" fill="#219653" fill-opacity="0.9"/>
<defs>
<filter id="filter0_f_652_147" x="64" y="289" width="775" height="10" filterUnits="userSpaceOnUse" color-interpolation-filters="sRGB">
<feFlood flood-opacity="0" result="BackgroundImageFix"/>
<feBlend mode="normal" in="SourceGraphic" in2="BackgroundImageFix" result="shape"/>
<feGaussianBlur stdDeviation="2" result="effect1_foregroundBlur_652_147"/>
</filter>
<filter id="filter1_f_652_147" x="63.9883" y="155" width="775.023" height="10" filterUnits="userSpaceOnUse" color-interpolation-filters="sRGB">
<feFlood flood-opacity="0" result="BackgroundImageFix"/>
<feBlend mode="normal" in="SourceGraphic" in2="BackgroundImageFix" result="shape"/>
<feGaussianBlur stdDeviation="2" result="effect1_foregroundBlur_652_147"/>
</filter>
<filter id="filter2_d_652_147" x="58" y="0" width="30" height="465" filterUnits="userSpaceOnUse" color-interpolation-filters="sRGB">
<feFlood flood-opacity="0" result="BackgroundImageFix"/>
<feColorMatrix in="SourceAlpha" type="matrix" values="0 0 0 0 0 0 0 0 0 0 0 0 0 0 0 0 0 0 127 0" result="hardAlpha"/>
<feOffset dy="4"/>
<feGaussianBlur stdDeviation="5"/>
<feComposite in2="hardAlpha" operator="out"/>
<feColorMatrix type="matrix" values="0 0 0 0 0 0 0 0 0 0 0 0 0 0 0 0 0 0 0.25 0"/>
<feBlend mode="normal" in2="BackgroundImageFix" result="effect1_dropShadow_652_147"/>
<feBlend mode="normal" in="SourceGraphic" in2="effect1_dropShadow_652_147" result="shape"/>
</filter>
<filter id="filter3_d_652_147" x="58" y="435" width="833" height="30" filterUnits="userSpaceOnUse" color-interpolation-filters="sRGB">
<feFlood flood-opacity="0" result="BackgroundImageFix"/>
<feColorMatrix in="SourceAlpha" type="matrix" values="0 0 0 0 0 0 0 0 0 0 0 0 0 0 0 0 0 0 127 0" result="hardAlpha"/>
<feOffset dy="4"/>
<feGaussianBlur stdDeviation="5"/>
<feComposite in2="hardAlpha" operator="out"/>
<feColorMatrix type="matrix" values="0 0 0 0 0 0 0 0 0 0 0 0 0 0 0 0 0 0 0.25 0"/>
<feBlend mode="normal" in2="BackgroundImageFix" result="effect1_dropShadow_652_147"/>
<feBlend mode="normal" in="SourceGraphic" in2="effect1_dropShadow_652_147" result="shape"/>
</filter>
<filter id="filter4_d_652_147" x="94.1865" y="150.17" width="725.961" height="259.799" filterUnits="userSpaceOnUse" color-interpolation-filters="sRGB">
<feFlood flood-opacity="0" result="BackgroundImageFix"/>
<feColorMatrix in="SourceAlpha" type="matrix" values="0 0 0 0 0 0 0 0 0 0 0 0 0 0 0 0 0 0 127 0" result="hardAlpha"/>
<feOffset dy="10"/>
<feGaussianBlur stdDeviation="5"/>
<feComposite in2="hardAlpha" operator="out"/>
<feColorMatrix type="matrix" values="0 0 0 0 0.129412 0 0 0 0 0.588235 0 0 0 0 0.32549 0 0 0 0.25 0"/>
<feBlend mode="normal" in2="BackgroundImageFix" result="effect1_dropShadow_652_147"/>
<feBlend mode="normal" in="SourceGraphic" in2="effect1_dropShadow_652_147" result="shape"/>
</filter>
<filter id="filter5_d_652_147" x="95.1865" y="73.5132" width="722.07" height="331.726" filterUnits="userSpaceOnUse" color-interpolation-filters="sRGB">
<feFlood flood-opacity="0" result="BackgroundImageFix"/>
<feColorMatrix in="SourceAlpha" type="matrix" values="0 0 0 0 0 0 0 0 0 0 0 0 0 0 0 0 0 0 127 0" result="hardAlpha"/>
<feOffset dy="5"/>
<feGaussianBlur stdDeviation="5"/>
<feComposite in2="hardAlpha" operator="out"/>
<feColorMatrix type="matrix" values="0 0 0 0 0.647059 0 0 0 0 0.384314 0 0 0 0 0.890196 0 0 0 0.25 0"/>
<feBlend mode="normal" in2="BackgroundImageFix" result="effect1_dropShadow_652_147"/>
<feBlend mode="normal" in="SourceGraphic" in2="effect1_dropShadow_652_147" result="shape"/>
</filter>
<linearGradient id="paint0_linear_652_147" x1="73" y1="435" x2="73.0003" y2="26.5" gradientUnits="userSpaceOnUse">
<stop stop-color="#656363"/>
<stop offset="1" stop-color="#656363" stop-opacity="0"/>
</linearGradient>
<linearGradient id="paint1_linear_652_147" x1="93.3057" y1="446" x2="847.387" y2="446.001" gradientUnits="userSpaceOnUse">
<stop stop-color="#656363"/>
<stop offset="1" stop-color="#656363" stop-opacity="0"/>
</linearGradient>
</defs>
</svg>
